<?xml version="1.0" encoding="UTF-8"?>
<svg width="205px" height="67px" viewBox="0 0 205 67" version="1.1" xmlns="http://www.w3.org/2000/svg" xmlns:xlink="http://www.w3.org/1999/xlink">
    <title>bpb_logo</title>
    <g id="Symbols" stroke="none" stroke-width="1" fill="none" fill-rule="evenodd">
        <g id="desktop/footer/startseite_europa" transform="translate(-71.000000, -6.000000)" fill="#1D1D1B">
            <g id="bpb_logo" transform="translate(71.000000, 6.000000)">
                <path d="M44.064,22.356 C44.064,25.3484769 45.3692289,28.512 49.0871536,28.512 C52.4243866,28.512 53.784,25.3484769 53.784,22.356 C53.784,19.366014 52.4243866,16.2 49.0871536,16.2 C45.3692289,16.2 44.064,19.366014 44.064,22.356" id="Fill-1"></path>
                <path d="M48.614759,29.978982 C46.3361836,29.978982 44.3626657,28.7870664 43.5735839,26.8485573 L43.5190803,26.8485573 L43.5190803,29.5550617 L41.9238336,29.5550617 L41.9238336,12.5628562 L43.6557461,12.5628562 L43.6557461,17.9676337 L43.715944,17.9676337 C44.4432009,15.9138841 46.4988809,14.8355627 48.614759,14.8355627 C49.8569527,14.8355627 50.9087905,15.1335416 51.7767805,15.6447153 C47.390462,6.3884371 38.0386227,0 27.2168135,0 C12.1827719,0 0,12.3274364 0,27.5358843 C0,42.7525636 12.1827719,55.08 27.2168135,55.08 C42.2484146,55.08 54.432,42.7525636 54.432,27.5358843 C54.432,26.9884921 54.4132898,26.4410999 54.3872582,25.9019392 C53.5078795,28.2857704 51.6002539,29.978982 48.614759,29.978982 L48.614759,29.978982 Z M12.5114204,29.5550617 L14.0985323,29.5550617 L14.0985323,26.8485573 L14.1546628,26.8485573 C14.949439,28.7870664 16.9237704,29.978982 19.1999053,29.978982 C23.5016212,29.978982 25.5556743,26.4534471 25.5556743,22.4043913 C25.5556743,18.3569818 23.5016212,14.8355627 19.1999053,14.8355627 C17.0897217,14.8355627 15.0316011,15.9138841 14.2945825,17.9676337 L14.236825,17.9676337 L14.236825,12.5628562 L12.5114204,12.5628562 L12.5114204,29.5550617 Z M23.7163816,22.4043913 C23.7163816,25.3701868 22.3692482,28.5047273 19.0852037,28.5047273 C15.4123128,28.5047273 14.1221234,25.3701868 14.1221234,22.4043913 C14.1221234,19.4377727 15.4123128,16.3015859 19.0852037,16.3015859 C22.3692482,16.3015859 23.7163816,19.4377727 23.7163816,22.4043913 L23.7163816,22.4043913 Z M27.2184405,32.5216804 L28.9422181,32.5216804 L28.9479125,26.8485573 L29.0024161,26.8485573 C29.7410617,28.8965448 31.7991822,29.978982 33.9134333,29.978982 C38.2094548,29.978982 40.2610674,26.4534471 40.2610674,22.4043913 C40.2610674,18.3569818 38.2094548,14.8355627 33.9134333,14.8355627 C31.633231,14.8355627 29.66134,16.0274783 28.8681908,17.9676337 L28.8079928,17.9676337 L28.8079928,15.248782 L27.2184405,15.248782 L27.2184405,32.5216804 Z M38.5942339,22.4043913 C38.5942339,25.3701868 37.2471004,28.5047273 33.961429,28.5047273 C30.2844706,28.5047273 28.9999756,25.3701868 28.9999756,22.4043913 C28.9999756,19.1620187 30.1478049,16.3015859 33.961429,16.3015859 C37.2471004,16.3015859 38.5942339,19.4377727 38.5942339,22.4043913 L38.5942339,22.4043913 Z" id="Fill-3"></path>
                <path d="M58.32,66.096 L59.7703719,66.096 L59.7703719,61.5750004 L59.8068745,61.5750004 C60.4541882,62.6096491 61.7569271,62.9417585 62.6694933,62.9417585 C65.4007026,62.9417585 66.744,60.8596877 66.744,58.3896237 C66.744,55.9179629 65.3869127,53.784 62.6435359,53.784 C61.4170469,53.784 60.2822201,54.2031285 59.8068745,55.1707166 L59.7703719,55.1707166 L59.7703719,53.9803916 L58.32,53.9803916 L58.32,66.096 Z M65.1995324,58.2890328 C65.1995324,59.9942871 64.5157161,61.6755912 62.5178045,61.6755912 C60.5077254,61.6755912 59.7168347,60.0765161 59.7168347,58.3600851 C59.7168347,56.7099162 60.4696004,55.054159 62.4155971,55.054159 C64.3202242,55.054159 65.1995324,56.643654 65.1995324,58.2890328 L65.1995324,58.2890328 Z" id="Fill-5"></path>
                <path d="M69.5548178,58.0061709 C69.5548178,55.7304297 70.7502273,54.4819505 72.2342112,54.4819505 C73.7340073,54.4819505 74.9468103,55.7304297 74.9468103,58.0061709 C74.9468103,60.2522469 73.7340073,61.5134398 72.2342112,61.5134398 C70.7502273,61.5134398 69.5548178,60.2522469 69.5548178,58.0061709 M68.04,58.0061709 C68.04,60.7116331 69.4986842,62.856 72.2342112,62.856 C75.0037346,62.856 76.464,60.7116331 76.464,58.0061709 C76.464,55.2710436 75.0037346,53.136 72.2342112,53.136 C69.4986842,53.136 68.04,55.2710436 68.04,58.0061709" id="Fill-7"></path>
                <polygon id="Fill-9" points="78.408 62.208 79.704 62.208 79.704 49.896 78.408 49.896"></polygon>
                <path d="M82.296,51.6852985 L83.592,51.6852985 L83.592,49.896 L82.296,49.896 L82.296,51.6852985 Z M82.296,62.208 L83.592,62.208 L83.592,53.2850939 L82.296,53.2850939 L82.296,62.208 Z" id="Fill-11"></path>
                <path d="M88.3811336,51.192 L86.9890642,51.192 L86.9890642,53.8835036 L85.536,53.8835036 L85.536,55.1830475 L86.9890642,55.1830475 L86.9890642,60.8980968 C86.9890642,62.5517644 87.5596351,62.856 88.9972575,62.856 L90.072,62.856 L90.072,61.5548204 L89.4141835,61.5548204 C88.5525365,61.5548204 88.3811336,61.4337804 88.3811336,60.7607 L88.3811336,55.1830475 L90.072,55.1830475 L90.072,53.8835036 L88.3811336,53.8835036 L88.3811336,51.192 Z" id="Fill-12"></path>
                <path d="M92.016,51.6852985 L93.312,51.6852985 L93.312,49.896 L92.016,49.896 L92.016,51.6852985 Z M92.016,62.208 L93.312,62.208 L93.312,53.2850939 L92.016,53.2850939 L92.016,62.208 Z" id="Fill-13"></path>
                <path d="M95.256,59.7097984 C95.3527724,62.0211378 97.0829971,62.856 99.1377432,62.856 C100.980591,62.856 103.032,62.1440363 103.032,59.9310157 C103.032,58.13585 101.537867,57.6264569 100.046236,57.2899693 C98.6363618,56.9500914 97.0496273,56.7559965 97.0496273,55.6600809 C97.0496273,54.728595 98.1057818,54.4844932 99.0017612,54.4844932 C99.9961815,54.4844932 100.998944,54.8599693 101.112402,56.0482707 L102.633231,56.0482707 C102.509762,53.7742246 100.888824,53.136 98.8724532,53.136 C97.2673653,53.136 95.4612243,53.9098368 95.4612243,55.7761988 C95.4612243,57.5552606 96.9495179,58.0671964 98.4511593,58.4011413 C99.9619775,58.739324 101.424409,58.9393519 101.424409,60.1335863 C101.424409,61.2947653 100.164699,61.5134398 99.2303444,61.5134398 C97.9931587,61.5134398 96.8177071,61.0837189 96.7643154,59.7097984 L95.256,59.7097984 Z" id="Fill-14"></path>
                <path d="M112.059472,56.3279707 C111.853237,54.1276638 110.301005,53.136 108.361302,53.136 C105.640405,53.136 104.328,55.3278312 104.328,58.1155082 C104.328,60.8752152 105.731024,62.856 108.328492,62.856 C110.494741,62.856 111.788398,61.5142874 112.104,59.2504123 L110.672072,59.2504123 C110.494741,60.6455221 109.681519,61.5142874 108.312868,61.5142874 C106.523154,61.5142874 105.816955,59.816593 105.816955,58.1155082 C105.816955,56.2296519 106.448159,54.4844932 108.486293,54.4844932 C109.646365,54.4844932 110.379906,55.1650966 110.608796,56.3279707 L112.059472,56.3279707 Z" id="Fill-15"></path>
                <path d="M114.048,62.208 L115.581959,62.208 L115.581959,57.1722708 C115.581959,55.5652616 116.478696,54.3795231 118.357817,54.3795231 C119.537193,54.3795231 120.256638,55.0886891 120.256638,56.1719564 L120.256638,62.208 L121.824,62.208 L121.824,56.3427418 C121.824,54.4275056 121.036893,53.0856205 118.575364,53.0856205 C117.437956,53.0856205 116.115548,53.5264094 115.617931,54.5999176 L115.581959,54.5999176 L115.581959,49.896 L114.048,49.896 L114.048,62.208 Z" id="Fill-16"></path>
                <path d="M124.572097,57.1085881 C124.661362,55.6787276 125.542471,54.4844932 126.989181,54.4844932 C128.358939,54.4844932 129.36548,55.6490624 129.432429,57.1085881 L124.572097,57.1085881 Z M129.396262,59.6911517 C129.147704,60.8980998 128.344318,61.5134398 127.212344,61.5134398 C125.371636,61.5134398 124.521309,60.0776463 124.572097,58.4528434 L130.891452,58.4528434 C130.969175,56.2152431 130.06498,53.136 127.073829,53.136 C124.771405,53.136 123.12,55.1837433 123.12,57.9705727 C123.193875,60.805714 124.456668,62.856 127.159247,62.856 C129.062287,62.856 130.387412,61.7414377 130.762941,59.6911517 L129.396262,59.6911517 Z" id="Fill-17"></path>
                <path d="M140.299622,51.2743 L143.604684,51.2743 C145.026505,51.2743 146.240076,51.51906 146.240076,53.2234357 C146.240076,54.514728 145.48139,55.1920872 143.604684,55.1920872 L140.299622,55.1920872 L140.299622,51.2743 Z M138.672,62.208 L144.63287,62.208 C147.104929,62.208 148.392,60.4841086 148.392,58.6772752 C148.392,57.1591123 147.567164,56.0174409 146.046525,55.7027494 L146.046525,55.664531 C147.187413,55.2018451 147.879132,54.2228048 147.879132,52.91281 C147.879132,51.7012071 147.237229,50.8254377 146.428727,50.343236 C145.686374,49.896 144.231886,49.896 143.152249,49.896 L138.672,49.896 L138.672,62.208 Z M140.299622,56.5598161 L144.079169,56.5598161 C145.46914,56.5598161 146.758661,57.0225021 146.758661,58.6211674 C146.758661,59.9669412 145.859508,60.834579 144.437686,60.834579 L140.299622,60.834579 L140.299622,56.5598161 Z" id="Fill-18"></path>
                <path d="M150.984,51.6852985 L152.28,51.6852985 L152.28,49.896 L150.984,49.896 L150.984,51.6852985 Z M150.984,62.208 L152.28,62.208 L152.28,53.2850939 L150.984,53.2850939 L150.984,62.208 Z" id="Fill-19"></path>
                <polygon id="Fill-20" points="154.872 62.208 156.168 62.208 156.168 49.896 154.872 49.896"></polygon>
                <path d="M159.002493,58.3501856 C159.002493,56.630409 159.674013,54.9554267 161.671539,54.9554267 C163.681232,54.9554267 164.492245,56.5472199 164.492245,58.2789948 C164.492245,59.924381 163.715294,61.5889647 161.761562,61.5889647 C159.865412,61.5889647 159.002493,59.9875728 159.002493,58.3501856 L159.002493,58.3501856 Z M165.888,50.544 L164.433852,50.544 L164.433852,55.0498144 L164.402223,55.0498144 C163.730703,54.0195483 162.436325,53.6827921 161.523935,53.6827921 C158.802984,53.6827921 157.464,55.7633217 157.464,58.2437994 C157.464,60.7226772 158.807039,62.856 161.553131,62.856 C162.77614,62.856 163.906693,62.4368545 164.402223,61.4713799 L164.433852,61.4713799 L164.433852,62.6552261 L165.888,62.6552261 L165.888,50.544 Z" id="Fill-21"></path>
                <path d="M175.608,53.784 L174.065497,53.784 L174.065497,58.7961547 C174.065497,60.3927685 173.161271,61.5754753 171.278182,61.5754753 C170.095139,61.5754753 169.380508,60.866498 169.380508,59.785651 L169.380508,53.784 L167.832,53.784 L167.832,59.620735 C167.832,61.5196949 168.592099,62.856 171.047407,62.856 C172.417472,62.856 173.473546,62.3523593 174.126408,61.2488768 L174.15815,61.2488768 L174.15815,62.6530886 L175.608,62.6530886 L175.608,53.784 Z" id="Fill-22"></path>
                <path d="M178.2,62.856 L179.739955,62.856 L179.739955,57.8480813 C179.739955,56.249947 180.664099,55.0707569 182.531229,55.0707569 C183.699471,55.0707569 184.434332,55.7760064 184.434332,56.8532913 L184.434332,62.856 L185.976,62.856 L185.976,57.0231335 C185.976,55.1184745 185.224865,53.784 182.740211,53.784 C181.408382,53.784 180.358335,54.2935266 179.679144,55.3918395 L179.647455,55.3918395 L179.647455,53.982958 L178.2,53.982958 L178.2,62.856 Z" id="Fill-23"></path>
                <path d="M195.696,53.9772218 L194.373346,53.9772218 L194.373346,55.2080291 L194.347078,55.2080291 L194.357894,55.2080291 C193.855719,54.2576291 192.900812,53.784 191.846243,53.784 C188.909673,53.784 187.92,56.2950982 187.92,58.3302109 C187.92,60.6747927 189.195527,62.6910545 191.707179,62.6910545 C192.782607,62.6910545 193.893575,62.1860073 194.347078,61.1256436 L194.373346,61.1256436 L194.373346,61.6950982 C194.373346,63.6218182 193.66721,64.9625891 191.846243,64.9625891 C190.923012,64.9625891 189.705428,64.5887127 189.644395,63.5636945 L188.255299,63.5636945 C188.333329,65.4440727 190.162022,66.096 191.764349,66.096 C194.425109,66.096 195.696,64.6546909 195.696,61.8576873 L195.696,53.9772218 Z M191.796798,61.4468945 C189.956516,61.4468945 189.402578,59.7133964 189.402578,58.1621236 C189.402578,56.5134545 190.112577,55.0336582 191.904959,55.0336582 C193.66721,55.0336582 194.320038,56.5967127 194.320038,58.1055709 C194.320038,59.7314618 193.633216,61.4468945 191.796798,61.4468945 L191.796798,61.4468945 Z" id="Fill-24"></path>
                <path d="M59.9628629,34.421962 L63.255121,34.421962 C64.6652722,34.421962 65.8819052,34.6666735 65.8819052,36.3666466 C65.8819052,37.669878 65.1274294,38.3349081 63.255121,38.3349081 L59.9628629,38.3349081 L59.9628629,34.421962 Z M58.32,45.36 L64.2831351,45.36 C66.7506956,45.36 68.04,43.6356371 68.04,41.8234707 C68.04,40.3015436 67.2251008,39.1641632 65.6769556,38.855225 L65.6769556,38.8218922 C66.8454133,38.351168 67.5329335,37.3698827 67.5329335,36.0642124 C67.5329335,34.8544754 66.8919556,33.9731886 66.0590927,33.4845784 C65.3291129,33.048 63.8944657,33.048 62.7945968,33.048 L58.32,33.048 L58.32,45.36 Z M59.9628629,39.718626 L63.7180948,39.718626 C65.1094657,39.718626 66.3930544,40.1690254 66.3930544,41.771439 C66.3930544,43.1128811 65.5160988,43.9819731 64.0798185,43.9819731 L59.9628629,43.9819731 L59.9628629,39.718626 Z" id="Fill-25"></path>
                <path d="M77.112,36.288 L75.5737583,36.288 L75.5737583,41.2991154 C75.5737583,42.8919833 74.6735958,44.0634233 72.8021826,44.0634233 C71.6159551,44.0634233 70.8947972,43.369117 70.8947972,42.2937496 L70.8947972,36.288 L69.336,36.288 L69.336,42.1145217 C69.336,44.0198274 70.1034079,45.36 72.5675066,45.36 C73.9096138,45.36 74.9682256,44.8408849 75.6242908,43.7453342 L75.6585501,43.7453342 L75.6585501,45.1533228 L77.112,45.1533228 L77.112,36.288 Z" id="Fill-26"></path>
                <path d="M79.056,45.36 L80.5886088,45.36 L80.5886088,40.3438032 C80.5886088,38.7593156 81.4965362,37.5766088 83.3705804,37.5766088 C84.5472063,37.5766088 85.2762866,38.2750768 85.2762866,39.3526901 L85.2762866,45.36 L86.832,45.36 L86.832,39.5256903 C86.832,37.6243051 86.0661235,36.288 83.5879353,36.288 C82.2555669,36.288 81.1764939,36.8013417 80.5338422,37.89674 L80.5021803,37.89674 L80.5021803,36.4828273 L79.056,36.4828273 L79.056,45.36 Z" id="Fill-27"></path>
                <path d="M90.3311377,40.846133 C90.3311377,39.1272499 90.9980883,37.4571351 92.985974,37.4571351 C95.0022234,37.4571351 95.7842494,39.0465023 95.7842494,40.7773777 C95.7842494,42.4291044 95.0395013,44.0736358 93.0637714,44.0736358 C91.1893403,44.0736358 90.3311377,42.488266 90.3311377,40.846133 L90.3311377,40.846133 Z M97.2,33.048 L95.7348156,33.048 L95.7348156,37.5578696 L95.7105039,37.5578696 C95.0557091,36.5217429 93.734774,36.1827631 92.8263273,36.1827631 C90.1236779,36.1827631 88.776,38.260613 88.776,40.7437995 C88.776,43.2189912 90.1471792,45.36 92.8619844,45.36 C94.0978286,45.36 95.2275117,44.930679 95.7105039,43.9633075 L95.7348156,43.9633075 L95.7348156,45.1545335 L97.2,45.1545335 L97.2,33.048 Z" id="Fill-28"></path>
                <path d="M100.603443,39.6074334 C100.703352,38.187287 101.557191,36.9915525 103.028162,36.9915525 C104.389233,36.9915525 105.398316,38.155954 105.455187,39.6074334 L100.603443,39.6074334 Z M105.413686,42.197909 C105.153922,43.3953372 104.370788,43.9982854 103.228749,43.9982854 C101.391188,43.9982854 100.555794,42.5696707 100.603443,40.9462833 L106.91463,40.9462833 C106.999937,38.7148667 106.083846,35.64 103.095024,35.64 C100.806335,35.64 99.144,37.6825719 99.144,40.4712075 C99.2231588,43.3140408 100.488163,45.36 103.17572,45.36 C105.061698,45.36 106.407398,44.2489493 106.782442,42.197909 L105.413686,42.197909 Z" id="Fill-29"></path>
                <path d="M108.216,42.2123053 C108.304506,44.5173968 110.040392,45.36 112.101078,45.36 C113.960538,45.36 115.992,44.6401882 115.992,42.4333298 C115.992,40.6270256 114.511613,40.1367067 112.991147,39.7818819 C111.60511,39.4423001 110.006993,39.265311 110.006993,38.1779718 C110.006993,37.2396759 111.05654,36.9915525 111.94661,36.9915525 C112.940214,36.9915525 113.980577,37.3624673 114.091627,38.5454992 L115.599568,38.5454992 C115.481838,36.2903711 113.851158,35.64 111.831385,35.64 C110.244122,35.64 108.409711,36.4114689 108.409711,38.2778986 C108.409711,40.0655724 109.931012,40.5584318 111.413904,40.8963199 C112.915165,41.2486043 114.406407,41.4425301 114.406407,42.6255619 C114.406407,43.7891166 113.113051,43.9974386 112.181234,43.9974386 C110.951335,43.9974386 109.783223,43.5867224 109.729786,42.2123053 L108.216,42.2123053 Z" id="Fill-30"></path>
                <polygon id="Fill-31" points="117.288 45.36 125.064 45.36 125.064 44.0389793 119.183069 44.0389793 124.809476 37.3058221 124.809476 36.288 117.644165 36.288 117.644165 37.610673 122.855606 37.610673 117.288 44.2099933"></polygon>
                <path d="M127.17857,39.6074334 C127.271527,38.187287 128.131956,36.9915525 129.581625,36.9915525 C130.959079,36.9915525 131.935512,38.155954 132.00619,39.6074334 L127.17857,39.6074334 Z M131.963937,42.197909 C131.720405,43.3953372 130.932959,43.9982854 129.802878,43.9982854 C127.950651,43.9982854 127.120184,42.5696707 127.17857,40.9462833 L133.483516,40.9462833 C133.561108,38.7148667 132.645366,35.64 129.676118,35.64 C127.359875,35.64 125.712,37.6825719 125.712,40.4712075 C125.797275,43.3140408 127.057188,45.36 129.75371,45.36 C131.628984,45.36 132.974941,44.2489493 133.347537,42.197909 L131.963937,42.197909 Z" id="Fill-32"></path>
                <path d="M135.432,45.36 L136.971107,45.36 L136.971107,40.3438032 C136.971107,38.7593156 137.881902,37.5766088 139.756565,37.5766088 C140.937004,37.5766088 141.658621,38.2750768 141.658621,39.3526901 L141.658621,45.36 L143.208,45.36 L143.208,39.5256903 C143.208,37.6243051 142.441015,36.288 139.954304,36.288 C138.628343,36.288 137.578018,36.8013417 136.926594,37.89674 L136.882938,37.89674 L136.882938,36.4828273 L135.432,36.4828273 L135.432,45.36 Z" id="Fill-33"></path>
                <path d="M147.346251,33.696 L145.955675,33.696 L145.955675,36.3730239 L144.504,36.3730239 L144.504,37.6857558 L145.955675,37.6857558 L145.955675,43.3982678 C145.955675,45.0416379 146.519484,45.36 147.959558,45.36 L149.04,45.36 L149.04,44.0513601 L148.388023,44.0513601 C147.521813,44.0513601 147.346251,43.9326904 147.346251,43.2550457 L147.346251,37.6857558 L149.04,37.6857558 L149.04,36.3730239 L147.346251,36.3730239 L147.346251,33.696 Z" id="Fill-34"></path>
                <path d="M150.984,45.36 L152.397111,45.36 L152.397111,41.4105557 C152.397111,39.1695471 153.234247,37.83367 155.52,37.83367 L155.52,36.2909057 C153.98696,36.2367595 153.030684,36.9398527 152.33478,38.3573533 L152.309531,38.3573533 L152.309531,36.4856706 L150.984,36.4856706 L150.984,45.36 Z" id="Fill-35"></path>
                <path d="M164.592,43.916268 C164.391351,43.9848558 164.262479,44.0000976 164.131975,44.0000976 C163.658084,44.0000976 163.658084,43.6893353 163.658084,42.9653524 L163.658084,38.1870651 C163.658084,36.0201969 161.919941,35.64 160.318826,35.64 C158.325386,35.64 156.614159,36.4495061 156.531778,38.7433888 L157.988524,38.7433888 C158.058669,37.3800993 158.98035,36.9914348 160.22829,36.9914348 C161.162205,36.9914348 162.217652,37.2022789 162.217652,38.5350849 C162.217652,39.6824497 160.832684,39.5715237 159.195681,39.88906 C157.682656,40.2040561 156.168,40.6519941 156.168,42.7485809 C156.168,44.6021465 157.513817,45.36 159.125535,45.36 C160.388972,45.36 161.472151,44.9069814 162.289429,43.916268 C162.289429,44.9196829 162.76332,45.36 163.521056,45.36 C163.990868,45.36 164.328546,45.2761704 164.592,45.1008903 L164.592,43.916268 Z M162.194814,41.9035108 C162.194814,42.7485809 161.405268,44.0000976 159.463213,44.0000976 C158.557029,44.0000976 157.737304,43.6512309 157.737304,42.6418887 C157.737304,41.515693 158.557029,41.1524314 159.522755,40.9652966 C160.527632,40.7942504 161.628755,40.7756216 162.194814,40.3437721 L162.194814,41.9035108 Z" id="Fill-36"></path>
                <polygon id="Fill-37" points="166.536 45.36 167.832 45.36 167.832 33.048 166.536 33.048"></polygon>
                <path d="M171.23355,39.6074334 C171.333435,38.187287 172.202433,36.9915525 173.657678,36.9915525 C175.014575,36.9915525 176.023412,38.155954 176.080269,39.6074334 L171.23355,39.6074334 Z M176.057987,42.197909 C175.802128,43.3953372 175.006891,43.9982854 173.865899,43.9982854 C172.021104,43.9982854 171.185913,42.5696707 171.23355,40.9462833 L177.547039,40.9462833 C177.628484,38.7148667 176.721837,35.64 173.731439,35.64 C171.432551,35.64 169.776,37.6825719 169.776,40.4712075 C169.852066,43.3140408 171.118298,45.36 173.809042,45.36 C175.705317,45.36 177.047615,44.2489493 177.414884,42.197909 L176.057987,42.197909 Z" id="Fill-38"></path>
                <path d="M185.614718,45.36 L187.155561,45.36 L187.155561,37.8207286 L188.961329,37.8207286 L188.961329,36.5339083 L187.155561,36.5339083 L187.155561,35.314604 C187.155561,34.5462092 187.591407,34.3267826 188.328071,34.3267826 C188.60838,34.3267826 188.932273,34.3565217 189.216,34.4457391 L189.216,33.188658 C188.919454,33.105067 188.509246,33.048 188.208427,33.048 C186.524012,33.048 185.614718,33.8003196 185.614718,35.2253866 L185.614718,36.5339083 L184.032,36.5339083 L184.032,37.8207286 L185.614718,37.8207286 L185.614718,45.36 Z" id="Fill-39"></path>
                <path d="M197.64,36.1501781 L196.088565,36.1501781 L196.088565,41.2374224 C196.088565,42.8544891 195.173792,44.0437257 193.316862,44.0437257 C192.136813,44.0437257 191.411156,43.3388715 191.411156,42.2471671 L191.411156,36.1501781 L189.864,36.1501781 L189.864,42.0652163 C189.864,43.9994674 190.629021,45.36 193.099507,45.36 C194.436155,45.36 195.490411,44.8329985 196.14162,43.7208042 L196.19382,43.7208042 L196.19382,45.1501781 L197.64,45.1501781 L197.64,36.1501781 Z M191.22204,34.8584918 L192.864182,34.8584918 L192.864182,33.048 L191.22204,33.048 L191.22204,34.8584918 Z M194.638106,34.8584918 L196.288806,34.8584918 L196.288806,33.048 L194.638106,33.048 L194.638106,34.8584918 Z" id="Fill-40"></path>
                <path d="M199.584,45.36 L201.002877,45.36 L201.002877,41.4105557 C201.002877,39.1695471 201.832326,37.83367 204.12,37.83367 L204.12,36.2909057 C202.586228,36.2367595 201.636375,36.9398527 200.950151,38.3573533 L200.917886,38.3573533 L200.917886,36.4856706 L199.584,36.4856706 L199.584,45.36 Z" id="Fill-41"></path>
                <polygon id="Fill-42" points="58.32 19.44 61.56 19.44 61.56 16.2 58.32 16.2"></polygon>
                <polygon id="Fill-43" points="58.32 29.16 61.56 29.16 61.56 25.92 58.32 25.92"></polygon>
            </g>
        </g>
    </g>
</svg>