<?xml version="1.0" encoding="UTF-8"?>
<svg width="229px" height="70px" viewBox="0 0 229 70" version="1.1" xmlns="http://www.w3.org/2000/svg" xmlns:xlink="http://www.w3.org/1999/xlink">
    <title>lpb_Logo_sw</title>
    <g id="Symbols" stroke="none" stroke-width="1" fill="none" fill-rule="evenodd">
        <g id="desktop/footer/startseite_bawü" transform="translate(-691.000000, -7.000000)" fill="#1A1919">
            <g id="Footer" transform="translate(0.000000, 6.000000)">
                <g id="lpb_Logo_sw" transform="translate(691.000000, 1.000000)">
                    <polygon id="Fill-1" points="41.64652 53.09432 41.64652 44.97152 42.51412 44.97152 42.51412 52.31912 46.66612 52.31912 46.66612 53.09432"></polygon>
                    <g id="Group-70" transform="translate(0.000000, 0.941040)">
                        <path d="M51.21316,49.56344 L49.63876,49.56344 C48.79516,49.56344 48.38476,49.90544 48.38476,50.55584 C48.38476,51.20624 48.78316,51.51464 49.67356,51.51464 C50.15236,51.51464 50.57476,51.48104 50.92756,51.13784 C51.12196,50.95544 51.21316,50.63624 51.21316,50.16824 L51.21316,49.56344 Z M51.21316,52.15304 L51.21316,51.61664 C50.75716,52.07384 50.34556,52.22144 49.59316,52.22144 C48.81796,52.22144 48.36196,52.07384 48.00796,51.70784 C47.73436,51.43544 47.58556,51.01304 47.58556,50.56784 C47.58556,49.58744 48.26956,48.94784 49.52476,48.94784 L51.21316,48.94784 L51.21316,48.41144 C51.21316,47.58944 50.80276,47.18024 49.77556,47.18024 C49.05676,47.18024 48.69196,47.35064 48.36196,47.81864 L47.80276,47.30504 C48.30436,46.65464 48.87436,46.47224 49.78756,46.47224 C51.29236,46.47224 52.03516,47.12264 52.03516,48.34304 L52.03516,52.15304 L51.21316,52.15304 Z" id="Fill-2"></path>
                        <path d="M57.62032,52.15328 L57.62032,48.69608 C57.62032,47.70488 57.08392,47.20208 56.24032,47.20208 C55.39552,47.20208 54.84832,47.71568 54.84832,48.69608 L54.84832,52.15328 L54.02632,52.15328 L54.02632,46.54088 L54.84832,46.54088 L54.84832,47.15648 C55.24672,46.70048 55.79512,46.47248 56.42272,46.47248 C57.02632,46.47248 57.51832,46.65488 57.86032,46.99688 C58.25872,47.38448 58.44232,47.91008 58.44232,48.56048 L58.44232,52.15328 L57.62032,52.15328 Z" id="Fill-4"></path>
                        <path d="M62.37292,47.2022 C61.15252,47.2022 60.95812,48.2522 60.95812,49.3466 C60.95812,50.4422 61.15252,51.491 62.37292,51.491 C63.59332,51.491 63.77572,50.4422 63.77572,49.3466 C63.77572,48.2522 63.59332,47.2022 62.37292,47.2022 L62.37292,47.2022 Z M63.78772,52.1534 L63.78772,51.4802 C63.33052,52.0742 62.80612,52.2218 62.19052,52.2218 C61.62052,52.2218 61.11772,52.0274 60.82132,51.731 C60.25132,51.161 60.13732,50.2262 60.13732,49.3466 C60.13732,48.4694 60.25132,47.5334 60.82132,46.9634 C61.11772,46.667 61.62052,46.4726 62.19052,46.4726 C62.80612,46.4726 63.31972,46.6094 63.77572,47.1914 L63.77572,44.0306 L64.59772,44.0306 L64.59772,52.1534 L63.78772,52.1534 Z" id="Fill-6"></path>
                        <path d="M69.9544,48.01196 C69.7372,47.49836 69.2356,47.16836 68.6428,47.16836 C68.05,47.16836 67.5472,47.49836 67.33,48.01196 C67.2052,48.32036 67.1824,48.49076 67.1596,48.94796 L70.126,48.94796 C70.1032,48.49076 70.0792,48.32036 69.9544,48.01196 L69.9544,48.01196 Z M67.1596,49.56356 C67.1596,50.79596 67.7416,51.50276 68.8132,51.50276 C69.4636,51.50276 69.8404,51.30956 70.2856,50.86436 L70.8448,51.35516 C70.2736,51.92516 69.7492,52.22156 68.7904,52.22156 C67.3072,52.22156 66.3388,51.33236 66.3388,49.34636 C66.3388,47.53436 67.2172,46.47236 68.6428,46.47236 C70.0912,46.47236 70.9468,47.52236 70.9468,49.18676 L70.9468,49.56356 L67.1596,49.56356 Z" id="Fill-8"></path>
                        <path d="M74.45668,52.22132 C73.50988,52.22132 72.76828,52.00412 72.15268,51.41132 L72.69988,50.86412 C73.14508,51.33212 73.74988,51.51452 74.44468,51.51452 C75.36868,51.51452 75.93988,51.18452 75.93988,50.52212 C75.93988,50.03132 75.65428,49.75772 75.00388,49.70012 L74.07988,49.62092 C72.98428,49.52972 72.40348,49.04012 72.40348,48.11492 C72.40348,47.08892 73.26988,46.47212 74.46748,46.47212 C75.26668,46.47212 75.98548,46.66652 76.48708,47.07692 L75.95068,47.61332 C75.55228,47.30492 75.03868,47.16812 74.45668,47.16812 C73.63468,47.16812 73.20148,47.52212 73.20148,48.09332 C73.20148,48.57092 73.47628,48.85652 74.18308,48.91292 L75.08428,48.99452 C76.06468,49.08452 76.73788,49.46132 76.73788,50.51012 C76.73788,51.59492 75.81388,52.22132 74.45668,52.22132" id="Fill-10"></path>
                        <polygon id="Fill-12" points="77.88616 52.15328 77.88616 51.44528 81.01216 47.27168 78.05776 47.27168 78.05776 46.54088 81.95896 46.54088 81.95896 47.23568 78.82216 51.42368 81.95896 51.42368 81.95896 52.15328"></polygon>
                        <path d="M86.88328,48.01196 C86.66608,47.49836 86.16448,47.16836 85.57168,47.16836 C84.97888,47.16836 84.47608,47.49836 84.25888,48.01196 C84.13408,48.32036 84.11128,48.49076 84.08848,48.94796 L87.05488,48.94796 C87.03208,48.49076 87.00808,48.32036 86.88328,48.01196 L86.88328,48.01196 Z M84.08848,49.56356 C84.08848,50.79596 84.67048,51.50276 85.74208,51.50276 C86.39248,51.50276 86.76928,51.30956 87.21448,50.86436 L87.77368,51.35516 C87.20248,51.92516 86.67808,52.22156 85.71928,52.22156 C84.23608,52.22156 83.26768,51.33236 83.26768,49.34636 C83.26768,47.53436 84.14608,46.47236 85.57168,46.47236 C87.02008,46.47236 87.87568,47.52236 87.87568,49.18676 L87.87568,49.56356 L84.08848,49.56356 Z" id="Fill-14"></path>
                        <path d="M93.21076,52.15328 L93.21076,48.69608 C93.21076,47.70488 92.67436,47.20208 91.83076,47.20208 C90.98596,47.20208 90.43876,47.71568 90.43876,48.69608 L90.43876,52.15328 L89.61676,52.15328 L89.61676,46.54088 L90.43876,46.54088 L90.43876,47.15648 C90.83716,46.70048 91.38556,46.47248 92.01316,46.47248 C92.61676,46.47248 93.10876,46.65488 93.45076,46.99688 C93.84916,47.38448 94.03276,47.91008 94.03276,48.56048 L94.03276,52.15328 L93.21076,52.15328 Z" id="Fill-16"></path>
                        <path d="M97.59832,52.15328 C96.64072,52.15328 96.16072,51.48008 96.16072,50.64728 L96.16072,47.20208 L95.45392,47.20208 L95.45392,46.57568 L96.16072,46.57568 L96.16072,44.81888 L96.98272,44.81888 L96.98272,46.57568 L98.18032,46.57568 L98.18032,47.20208 L96.98272,47.20208 L96.98272,50.62568 C96.98272,51.13808 97.22152,51.44528 97.74712,51.44528 L98.18032,51.44528 L98.18032,52.15328 L97.59832,52.15328 Z" id="Fill-18"></path>
                        <path d="M102.94552,47.61344 C102.63712,47.30504 102.40912,47.20184 101.97592,47.20184 C101.15392,47.20184 100.62952,47.85224 100.62952,48.70784 L100.62952,52.15304 L99.80872,52.15304 L99.80872,46.54064 L100.62952,46.54064 L100.62952,47.22584 C100.93792,46.75784 101.55352,46.47224 102.20392,46.47224 C102.74032,46.47224 103.15072,46.59704 103.55032,46.99664 L102.94552,47.61344 Z" id="Fill-20"></path>
                        <path d="M107.6764,49.56344 L106.102,49.56344 C105.2584,49.56344 104.848,49.90544 104.848,50.55584 C104.848,51.20624 105.2464,51.51464 106.1368,51.51464 C106.6156,51.51464 107.038,51.48104 107.3908,51.13784 C107.5852,50.95544 107.6764,50.63624 107.6764,50.16824 L107.6764,49.56344 Z M107.6764,52.15304 L107.6764,51.61664 C107.2204,52.07384 106.8088,52.22144 106.0564,52.22144 C105.2812,52.22144 104.8252,52.07384 104.4712,51.70784 C104.1976,51.43544 104.0488,51.01304 104.0488,50.56784 C104.0488,49.58744 104.7328,48.94784 105.988,48.94784 L107.6764,48.94784 L107.6764,48.41144 C107.6764,47.58944 107.266,47.18024 106.2388,47.18024 C105.52,47.18024 105.1552,47.35064 104.8252,47.81864 L104.266,47.30504 C104.7676,46.65464 105.3376,46.47224 106.2508,46.47224 C107.7556,46.47224 108.4984,47.12264 108.4984,48.34304 L108.4984,52.15304 L107.6764,52.15304 Z" id="Fill-22"></path>
                        <path d="M111.89344,52.15328 C110.91304,52.15328 110.46784,51.51488 110.46784,50.65928 L110.46784,44.03048 L111.28864,44.03048 L111.28864,50.62568 C111.28864,51.17288 111.47104,51.44528 112.04224,51.44528 L112.48624,51.44528 L112.48624,52.15328 L111.89344,52.15328 Z" id="Fill-24"></path>
                        <path d="M116.89732,48.01196 C116.68012,47.49836 116.17852,47.16836 115.58572,47.16836 C114.99292,47.16836 114.49012,47.49836 114.27292,48.01196 C114.14812,48.32036 114.12532,48.49076 114.10252,48.94796 L117.06892,48.94796 C117.04612,48.49076 117.02212,48.32036 116.89732,48.01196 L116.89732,48.01196 Z M114.10252,49.56356 C114.10252,50.79596 114.68452,51.50276 115.75612,51.50276 C116.40652,51.50276 116.78332,51.30956 117.22852,50.86436 L117.78772,51.35516 C117.21652,51.92516 116.69212,52.22156 115.73332,52.22156 C114.25012,52.22156 113.28172,51.33236 113.28172,49.34636 C113.28172,47.53436 114.16012,46.47236 115.58572,46.47236 C117.03412,46.47236 117.88972,47.52236 117.88972,49.18676 L117.88972,49.56356 L114.10252,49.56356 Z" id="Fill-26"></path>
                        <path d="M123.47332,47.2022 L123.47332,52.1534 L122.65252,52.1534 L122.65252,47.2022 L121.93372,47.2022 L121.93372,46.5758 L122.65252,46.5758 L122.65252,45.515 C122.65252,44.681 123.12052,44.009 124.07812,44.009 L124.67212,44.009 L124.67212,44.7158 L124.22572,44.7158 C123.70132,44.7158 123.47332,45.0242 123.47332,45.5366 L123.47332,46.5758 L124.67212,46.5758 L124.67212,47.2022 L123.47332,47.2022 Z" id="Fill-28"></path>
                        <path d="M128.992,45.2864 L129.814,45.2864 L129.814,44.2712 L128.992,44.2712 L128.992,45.2864 Z M126.574,45.2864 L127.3948,45.2864 L127.3948,44.2712 L126.574,44.2712 L126.574,45.2864 Z M129.5968,52.1528 L129.5968,51.5264 C129.1984,51.9824 128.6392,52.2212 128.0116,52.2212 C127.4068,52.2212 126.904,52.04 126.562,51.698 C126.1636,51.3092 125.992,50.7728 125.992,50.1224 L125.992,46.5416 L126.814,46.5416 L126.814,49.9976 C126.814,50.99 127.3384,51.4916 128.182,51.4916 C129.0268,51.4916 129.5848,50.978 129.5848,49.9976 L129.5848,46.5416 L130.4068,46.5416 L130.4068,52.1528 L129.5968,52.1528 Z" id="Fill-30"></path>
                        <path d="M135.604,47.61344 C135.2956,47.30504 135.0676,47.20184 134.6344,47.20184 C133.8136,47.20184 133.288,47.85224 133.288,48.70784 L133.288,52.15304 L132.4672,52.15304 L132.4672,46.54064 L133.288,46.54064 L133.288,47.22584 C133.5964,46.75784 134.212,46.47224 134.8624,46.47224 C135.3988,46.47224 135.8092,46.59704 136.2088,46.99664 L135.604,47.61344 Z" id="Fill-32"></path>
                        <path d="M142.34044,47.2022 C141.12004,47.2022 140.92564,48.2522 140.92564,49.3466 C140.92564,50.4422 141.12004,51.491 142.34044,51.491 C143.56084,51.491 143.74324,50.4422 143.74324,49.3466 C143.74324,48.2522 143.56084,47.2022 142.34044,47.2022 M143.88004,51.731 C143.58364,52.0274 143.08204,52.2218 142.51204,52.2218 C141.89524,52.2218 141.38284,52.0742 140.92564,51.491 L140.92564,54.6638 L140.10484,54.6638 L140.10484,46.541 L140.92564,46.541 L140.92564,47.2022 C141.38284,46.6094 141.89524,46.4726 142.51204,46.4726 C143.08204,46.4726 143.58364,46.667 143.88004,46.9634 C144.45124,47.5334 144.56524,48.4694 144.56524,49.3466 C144.56524,50.2262 144.45124,51.161 143.88004,51.731" id="Fill-33"></path>
                        <path d="M149.34004,47.61344 C149.07844,47.35064 148.71364,47.20184 148.31404,47.20184 C147.91444,47.20184 147.56044,47.35064 147.29764,47.61344 C146.88844,48.02384 146.84164,48.71984 146.84164,49.34624 C146.84164,49.97504 146.88844,50.67104 147.29764,51.08144 C147.56044,51.34304 147.91444,51.49064 148.31404,51.49064 C148.71364,51.49064 149.07844,51.34304 149.34004,51.08144 C149.75044,50.67104 149.78524,49.97504 149.78524,49.34624 C149.78524,48.71984 149.75044,48.02384 149.34004,47.61344 M149.92204,51.58304 C149.53444,51.97064 148.99804,52.22144 148.31404,52.22144 C147.62884,52.22144 147.09244,51.97064 146.70484,51.58304 C146.13484,51.00104 146.02084,50.21384 146.02084,49.34624 C146.02084,48.48104 146.13484,47.69264 146.70484,47.11064 C147.09244,46.72304 147.62884,46.47224 148.31404,46.47224 C148.99804,46.47224 149.53444,46.72304 149.92204,47.11064 C150.49204,47.69264 150.60604,48.48104 150.60604,49.34624 C150.60604,50.21384 150.49204,51.00104 149.92204,51.58304" id="Fill-34"></path>
                        <path d="M153.76276,52.15328 C152.78236,52.15328 152.33716,51.51488 152.33716,50.65928 L152.33716,44.03048 L153.15796,44.03048 L153.15796,50.62568 C153.15796,51.17288 153.34036,51.44528 153.91156,51.44528 L154.35556,51.44528 L154.35556,52.15328 L153.76276,52.15328 Z" id="Fill-35"></path>
                        <path d="M155.7448,52.154 L156.5668,52.154 L156.5668,46.5416 L155.7448,46.5416 L155.7448,52.154 Z M155.6992,44.9444 L156.6232,44.9444 L156.6232,44.0192 L155.6992,44.0192 L155.6992,44.9444 Z" id="Fill-36"></path>
                        <path d="M160.2034,52.15328 C159.2458,52.15328 158.7658,51.48008 158.7658,50.64728 L158.7658,47.20208 L158.059,47.20208 L158.059,46.57568 L158.7658,46.57568 L158.7658,44.81888 L159.5878,44.81888 L159.5878,46.57568 L160.7854,46.57568 L160.7854,47.20208 L159.5878,47.20208 L159.5878,50.62568 C159.5878,51.13808 159.8266,51.44528 160.3522,51.44528 L160.7854,51.44528 L160.7854,52.15328 L160.2034,52.15328 Z" id="Fill-37"></path>
                        <path d="M162.4132,52.154 L163.2352,52.154 L163.2352,46.5416 L162.4132,46.5416 L162.4132,52.154 Z M162.3676,44.9444 L163.2916,44.9444 L163.2916,44.0192 L162.3676,44.0192 L162.3676,44.9444 Z" id="Fill-38"></path>
                        <path d="M167.06584,52.22132 C166.11904,52.22132 165.37744,52.00412 164.76184,51.41132 L165.30904,50.86412 C165.75424,51.33212 166.35904,51.51452 167.05384,51.51452 C167.97784,51.51452 168.54904,51.18452 168.54904,50.52212 C168.54904,50.03132 168.26344,49.75772 167.61304,49.70012 L166.68904,49.62092 C165.59344,49.52972 165.01264,49.04012 165.01264,48.11492 C165.01264,47.08892 165.87904,46.47212 167.07664,46.47212 C167.87584,46.47212 168.59464,46.66652 169.09624,47.07692 L168.55984,47.61332 C168.16144,47.30492 167.64784,47.16812 167.06584,47.16812 C166.24384,47.16812 165.81064,47.52212 165.81064,48.09332 C165.81064,48.57092 166.08544,48.85652 166.79224,48.91292 L167.69344,48.99452 C168.67384,49.08452 169.34704,49.46132 169.34704,50.51012 C169.34704,51.59492 168.42304,52.22132 167.06584,52.22132" id="Fill-39"></path>
                        <path d="M173.13088,52.22132 C171.71608,52.22132 170.64448,51.26372 170.64448,49.34612 C170.64448,47.43092 171.71608,46.47212 173.13088,46.47212 C173.90608,46.47212 174.39688,46.67852 174.97888,47.30492 L174.41968,47.83052 C173.99728,47.36252 173.66728,47.20172 173.13088,47.20172 C172.58248,47.20172 172.12648,47.41892 171.83008,47.84132 C171.56728,48.20612 171.46528,48.64052 171.46528,49.34612 C171.46528,50.05412 171.56728,50.48852 171.83008,50.85212 C172.12648,51.27452 172.58248,51.49172 173.13088,51.49172 C173.66728,51.49172 173.99728,51.32012 174.41968,50.85212 L174.97888,51.38972 C174.39688,52.01612 173.90608,52.22132 173.13088,52.22132" id="Fill-40"></path>
                        <path d="M180.13108,52.15328 L180.13108,48.68528 C180.13108,47.70488 179.60668,47.20208 178.76188,47.20208 C177.91828,47.20208 177.35908,47.71568 177.35908,48.68528 L177.35908,52.15328 L176.53708,52.15328 L176.53708,44.03048 L177.35908,44.03048 L177.35908,47.15648 C177.76948,46.68848 178.30588,46.47248 178.93348,46.47248 C180.19948,46.47248 180.95308,47.28128 180.95308,48.54848 L180.95308,52.15328 L180.13108,52.15328 Z" id="Fill-41"></path>
                        <path d="M186.2524,48.01196 C186.0352,47.49836 185.5336,47.16836 184.9408,47.16836 C184.348,47.16836 183.8452,47.49836 183.628,48.01196 C183.5032,48.32036 183.4804,48.49076 183.4576,48.94796 L186.424,48.94796 C186.4012,48.49076 186.3772,48.32036 186.2524,48.01196 L186.2524,48.01196 Z M183.4576,49.56356 C183.4576,50.79596 184.0396,51.50276 185.1112,51.50276 C185.7616,51.50276 186.1384,51.30956 186.5836,50.86436 L187.1428,51.35516 C186.5716,51.92516 186.0472,52.22156 185.0884,52.22156 C183.6052,52.22156 182.6368,51.33236 182.6368,49.34636 C182.6368,47.53436 183.5152,46.47236 184.9408,46.47236 C186.3892,46.47236 187.2448,47.52236 187.2448,49.18676 L187.2448,49.56356 L183.4576,49.56356 Z" id="Fill-42"></path>
                        <path d="M195.0532,48.3998 L192.8404,48.3998 L192.8404,51.377 L195.0532,51.377 C196.0564,51.377 196.684,50.7962 196.684,49.883 C196.684,48.971 196.0564,48.3998 195.0532,48.3998 M194.962,44.807 L192.8404,44.807 L192.8404,47.6246 L194.962,47.6246 C195.8632,47.6246 196.5592,47.1794 196.5592,46.2098 C196.5592,45.2402 195.8632,44.807 194.962,44.807 M195.1324,52.1534 L191.9728,52.1534 L191.9728,44.0306 L195.0304,44.0306 C196.4452,44.0306 197.4256,44.8406 197.4256,46.199 C197.4256,47.0546 196.912,47.7266 196.228,47.9774 C197.0032,48.2642 197.5516,48.9362 197.5516,49.9058 C197.5516,51.377 196.57,52.1534 195.1324,52.1534" id="Fill-43"></path>
                        <path d="M199.4404,52.154 L200.2624,52.154 L200.2624,46.5416 L199.4404,46.5416 L199.4404,52.154 Z M199.3948,44.9444 L200.3188,44.9444 L200.3188,44.0192 L199.3948,44.0192 L199.3948,44.9444 Z" id="Fill-44"></path>
                        <path d="M203.7274,52.15328 C202.747,52.15328 202.3018,51.51488 202.3018,50.65928 L202.3018,44.03048 L203.1226,44.03048 L203.1226,50.62568 C203.1226,51.17288 203.305,51.44528 203.8762,51.44528 L204.3202,51.44528 L204.3202,52.15328 L203.7274,52.15328 Z" id="Fill-45"></path>
                        <path d="M207.64912,47.2022 C206.42872,47.2022 206.23432,48.2522 206.23432,49.3466 C206.23432,50.4422 206.42872,51.491 207.64912,51.491 C208.86952,51.491 209.05192,50.4422 209.05192,49.3466 C209.05192,48.2522 208.86952,47.2022 207.64912,47.2022 L207.64912,47.2022 Z M209.06392,52.1534 L209.06392,51.4802 C208.60672,52.0742 208.08232,52.2218 207.46672,52.2218 C206.89672,52.2218 206.39392,52.0274 206.09752,51.731 C205.52752,51.161 205.41352,50.2262 205.41352,49.3466 C205.41352,48.4694 205.52752,47.5334 206.09752,46.9634 C206.39392,46.667 206.89672,46.4726 207.46672,46.4726 C208.08232,46.4726 208.59592,46.6094 209.05192,47.1914 L209.05192,44.0306 L209.87392,44.0306 L209.87392,52.1534 L209.06392,52.1534 Z" id="Fill-46"></path>
                        <path d="M215.47012,52.15328 L215.47012,51.52688 C215.07052,51.98168 214.51252,52.22168 213.88492,52.22168 C213.28012,52.22168 212.77732,52.03928 212.43532,51.69728 C212.03692,51.30968 211.86532,50.77328 211.86532,50.12288 L211.86532,46.54088 L212.68732,46.54088 L212.68732,49.99688 C212.68732,50.98928 213.21172,51.49088 214.05532,51.49088 C214.90012,51.49088 215.45932,50.97848 215.45932,49.99688 L215.45932,46.54088 L216.28012,46.54088 L216.28012,52.15328 L215.47012,52.15328 Z" id="Fill-47"></path>
                        <path d="M221.92252,52.15328 L221.92252,48.69608 C221.92252,47.70488 221.38612,47.20208 220.54252,47.20208 C219.69772,47.20208 219.15052,47.71568 219.15052,48.69608 L219.15052,52.15328 L218.32852,52.15328 L218.32852,46.54088 L219.15052,46.54088 L219.15052,47.15648 C219.54892,46.70048 220.09732,46.47248 220.72492,46.47248 C221.32852,46.47248 221.82052,46.65488 222.16252,46.99688 C222.56092,47.38448 222.74452,47.91008 222.74452,48.56048 L222.74452,52.15328 L221.92252,52.15328 Z" id="Fill-48"></path>
                        <path d="M226.66336,47.2022 C225.44296,47.2022 225.26056,48.2522 225.26056,49.301 C225.26056,50.351 225.44296,51.401 226.66336,51.401 C227.88496,51.401 228.05536,50.351 228.05536,49.301 C228.05536,48.2522 227.88496,47.2022 226.66336,47.2022 M226.53856,54.731 C225.69376,54.731 225.22576,54.515 224.63296,53.9786 L225.16936,53.4542 C225.57976,53.819 225.86536,54.0134 226.51456,54.0134 C227.59936,54.0134 228.05536,53.2478 228.05536,52.2902 L228.05536,51.4118 C227.59936,51.9938 227.08576,52.1414 226.48096,52.1414 C225.91096,52.1414 225.42016,51.9362 225.12376,51.6398 C224.56456,51.0806 224.43856,50.2142 224.43856,49.301 C224.43856,48.389 224.56456,47.5226 225.12376,46.9634 C225.42016,46.667 225.92176,46.4726 226.49176,46.4726 C227.10856,46.4726 227.61016,46.6094 228.06616,47.2022 L228.06616,46.541 L228.87616,46.541 L228.87616,52.325 C228.87616,53.717 228.00976,54.731 226.53856,54.731" id="Fill-49"></path>
                        <path d="M44.7268,62.1998 L42.514,62.1998 L42.514,65.177 L44.7268,65.177 C45.73,65.177 46.3576,64.5962 46.3576,63.683 C46.3576,62.771 45.73,62.1998 44.7268,62.1998 M44.6356,58.607 L42.514,58.607 L42.514,61.4246 L44.6356,61.4246 C45.5368,61.4246 46.2328,60.9794 46.2328,60.0098 C46.2328,59.0402 45.5368,58.607 44.6356,58.607 M44.806,65.9534 L41.6464,65.9534 L41.6464,57.8306 L44.704,57.8306 C46.1188,57.8306 47.0992,58.6406 47.0992,59.999 C47.0992,60.8546 46.5856,61.5266 45.9016,61.7774 C46.6768,62.0642 47.2252,62.7362 47.2252,63.7058 C47.2252,65.177 46.2436,65.9534 44.806,65.9534" id="Fill-50"></path>
                        <path d="M52.29652,63.36344 L50.72212,63.36344 C49.87852,63.36344 49.46812,63.70544 49.46812,64.35584 C49.46812,65.00624 49.86652,65.31464 50.75692,65.31464 C51.23572,65.31464 51.65812,65.28104 52.01092,64.93784 C52.20532,64.75544 52.29652,64.43624 52.29652,63.96824 L52.29652,63.36344 Z M52.29652,65.95304 L52.29652,65.41664 C51.84052,65.87384 51.42892,66.02144 50.67652,66.02144 C49.90132,66.02144 49.44532,65.87384 49.09132,65.50784 C48.81772,65.23544 48.66892,64.81304 48.66892,64.36784 C48.66892,63.38744 49.35292,62.74784 50.60812,62.74784 L52.29652,62.74784 L52.29652,62.21144 C52.29652,61.38944 51.88612,60.98024 50.85892,60.98024 C50.14012,60.98024 49.77532,61.15064 49.44532,61.61864 L48.88612,61.10504 C49.38772,60.45464 49.95772,60.27224 50.87092,60.27224 C52.37572,60.27224 53.11852,60.92264 53.11852,62.14304 L53.11852,65.95304 L52.29652,65.95304 Z" id="Fill-51"></path>
                        <path d="M57.04972,61.0022 C55.82932,61.0022 55.63492,62.0522 55.63492,63.1466 C55.63492,64.2422 55.82932,65.291 57.04972,65.291 C58.27012,65.291 58.45252,64.2422 58.45252,63.1466 C58.45252,62.0522 58.27012,61.0022 57.04972,61.0022 L57.04972,61.0022 Z M58.46452,65.9534 L58.46452,65.2802 C58.00732,65.8742 57.48292,66.0218 56.86732,66.0218 C56.29732,66.0218 55.79452,65.8274 55.49812,65.531 C54.92812,64.961 54.81412,64.0262 54.81412,63.1466 C54.81412,62.2694 54.92812,61.3334 55.49812,60.7634 C55.79452,60.467 56.29732,60.2726 56.86732,60.2726 C57.48292,60.2726 57.99652,60.4094 58.45252,60.9914 L58.45252,57.8306 L59.27452,57.8306 L59.27452,65.9534 L58.46452,65.9534 Z" id="Fill-52"></path>
                        <path d="M64.63108,61.81196 C64.41388,61.29836 63.91228,60.96836 63.31948,60.96836 C62.72668,60.96836 62.22388,61.29836 62.00668,61.81196 C61.88188,62.12036 61.85908,62.29076 61.83628,62.74796 L64.80268,62.74796 C64.77988,62.29076 64.75588,62.12036 64.63108,61.81196 L64.63108,61.81196 Z M61.83628,63.36356 C61.83628,64.59596 62.41828,65.30276 63.48988,65.30276 C64.14028,65.30276 64.51708,65.10956 64.96228,64.66436 L65.52148,65.15516 C64.95028,65.72516 64.42588,66.02156 63.46708,66.02156 C61.98388,66.02156 61.01548,65.13236 61.01548,63.14636 C61.01548,61.33436 61.89388,60.27236 63.31948,60.27236 C64.76788,60.27236 65.62348,61.32236 65.62348,62.98676 L65.62348,63.36356 L61.83628,63.36356 Z" id="Fill-53"></path>
                        <path d="M70.95868,65.95328 L70.95868,62.49608 C70.95868,61.50488 70.42228,61.00208 69.57868,61.00208 C68.73388,61.00208 68.18668,61.51568 68.18668,62.49608 L68.18668,65.95328 L67.36468,65.95328 L67.36468,60.34088 L68.18668,60.34088 L68.18668,60.95648 C68.58508,60.50048 69.13348,60.27248 69.76108,60.27248 C70.36468,60.27248 70.85668,60.45488 71.19868,60.79688 C71.59708,61.18448 71.78068,61.71008 71.78068,62.36048 L71.78068,65.95328 L70.95868,65.95328 Z" id="Fill-54"></path>
                        <polygon id="Fill-55" points="73.612 63.2624 76.7368 63.2624 76.7368 62.4968 73.612 62.4968"></polygon>
                        <polygon id="Fill-56" points="85.08448 65.95328 84.27448 65.95328 82.47208 59.45048 80.66968 65.95328 79.85968 65.95328 77.78368 57.83048 78.70768 57.83048 80.29408 64.37888 82.08448 57.83048 82.85968 57.83048 84.65128 64.37888 86.23648 57.83048 87.16048 57.83048"></polygon>
                        <path d="M91.306,59.0864 L92.128,59.0864 L92.128,58.0712 L91.306,58.0712 L91.306,59.0864 Z M88.888,59.0864 L89.71,59.0864 L89.71,58.0712 L88.888,58.0712 L88.888,59.0864 Z M91.9108,65.9528 L91.9108,65.3264 C91.5124,65.7824 90.9532,66.0212 90.3256,66.0212 C89.7208,66.0212 89.2192,65.84 88.8772,65.498 C88.4776,65.1092 88.306,64.5728 88.306,63.9224 L88.306,60.3416 L89.128,60.3416 L89.128,63.7976 C89.128,64.79 89.6524,65.2916 90.4972,65.2916 C91.3408,65.2916 91.9,64.778 91.9,63.7976 L91.9,60.3416 L92.7208,60.3416 L92.7208,65.9528 L91.9108,65.9528 Z" id="Fill-57"></path>
                        <path d="M97.91884,61.41344 C97.61044,61.10504 97.38244,61.00184 96.94924,61.00184 C96.12844,61.00184 95.60284,61.65224 95.60284,62.50784 L95.60284,65.95304 L94.78204,65.95304 L94.78204,60.34064 L95.60284,60.34064 L95.60284,61.02584 C95.91124,60.55784 96.52684,60.27224 97.17724,60.27224 C97.71364,60.27224 98.12404,60.39704 98.52364,60.79664 L97.91884,61.41344 Z" id="Fill-58"></path>
                        <path d="M101.15548,65.95328 C100.19668,65.95328 99.71788,65.28008 99.71788,64.44728 L99.71788,61.00208 L99.01108,61.00208 L99.01108,60.37568 L99.71788,60.37568 L99.71788,58.61888 L100.53988,58.61888 L100.53988,60.37568 L101.73748,60.37568 L101.73748,61.00208 L100.53988,61.00208 L100.53988,64.42568 C100.53988,64.93808 100.77868,65.24528 101.30428,65.24528 L101.73748,65.24528 L101.73748,65.95328 L101.15548,65.95328 Z" id="Fill-59"></path>
                        <path d="M104.94004,65.95328 C103.98244,65.95328 103.50244,65.28008 103.50244,64.44728 L103.50244,61.00208 L102.79564,61.00208 L102.79564,60.37568 L103.50244,60.37568 L103.50244,58.61888 L104.32444,58.61888 L104.32444,60.37568 L105.52204,60.37568 L105.52204,61.00208 L104.32444,61.00208 L104.32444,64.42568 C104.32444,64.93808 104.56324,65.24528 105.08884,65.24528 L105.52204,65.24528 L105.52204,65.95328 L104.94004,65.95328 Z" id="Fill-60"></path>
                        <path d="M110.36644,61.81196 C110.14924,61.29836 109.64764,60.96836 109.05484,60.96836 C108.46204,60.96836 107.95924,61.29836 107.74204,61.81196 C107.61724,62.12036 107.59444,62.29076 107.57164,62.74796 L110.53804,62.74796 C110.51524,62.29076 110.49124,62.12036 110.36644,61.81196 L110.36644,61.81196 Z M107.57164,63.36356 C107.57164,64.59596 108.15364,65.30276 109.22524,65.30276 C109.87564,65.30276 110.25244,65.10956 110.69764,64.66436 L111.25684,65.15516 C110.68564,65.72516 110.16124,66.02156 109.20244,66.02156 C107.71924,66.02156 106.75084,65.13236 106.75084,63.14636 C106.75084,61.33436 107.62924,60.27236 109.05484,60.27236 C110.50324,60.27236 111.35884,61.32236 111.35884,62.98676 L111.35884,63.36356 L107.57164,63.36356 Z" id="Fill-61"></path>
                        <path d="M120.30988,65.95328 L120.30988,62.49608 C120.30988,61.50488 119.77348,61.00208 118.92988,61.00208 C118.10908,61.00208 117.52708,61.51568 117.52708,62.40608 L117.52708,65.95328 L116.70508,65.95328 L116.70508,62.49608 C116.70508,61.50488 116.16868,61.00208 115.32508,61.00208 C114.48148,61.00208 113.92228,61.51568 113.92228,62.49608 L113.92228,65.95328 L113.10028,65.95328 L113.10028,60.34088 L113.92228,60.34088 L113.92228,60.95648 C114.32068,60.50048 114.87988,60.27248 115.50748,60.27248 C116.28388,60.27248 116.88748,60.59168 117.23068,61.20728 C117.66388,60.59168 118.29028,60.27248 119.07868,60.27248 C119.68348,60.27248 120.18508,60.46688 120.52708,60.79688 C120.92668,61.18448 121.13188,61.71008 121.13188,62.36048 L121.13188,65.95328 L120.30988,65.95328 Z" id="Fill-62"></path>
                        <path d="M125.35708,61.0022 C124.13668,61.0022 123.94228,62.0522 123.94228,63.1466 C123.94228,64.2422 124.13668,65.291 125.35708,65.291 C126.57748,65.291 126.75988,64.2422 126.75988,63.1466 C126.75988,62.0522 126.57748,61.0022 125.35708,61.0022 M126.89668,65.531 C126.60028,65.8274 126.09868,66.0218 125.52868,66.0218 C124.91188,66.0218 124.39948,65.8742 123.94228,65.2802 L123.94228,65.9534 L123.12148,65.9534 L123.12148,57.8306 L123.94228,57.8306 L123.94228,60.9914 C124.39948,60.4094 124.91188,60.2726 125.52868,60.2726 C126.09868,60.2726 126.60028,60.467 126.89668,60.7634 C127.46788,61.3334 127.58188,62.2694 127.58188,63.1466 C127.58188,64.0262 127.46788,64.961 126.89668,65.531" id="Fill-63"></path>
                        <path d="M132.64204,61.81196 C132.42484,61.29836 131.92324,60.96836 131.33044,60.96836 C130.73764,60.96836 130.23484,61.29836 130.01764,61.81196 C129.89284,62.12036 129.87004,62.29076 129.84724,62.74796 L132.81364,62.74796 C132.79084,62.29076 132.76684,62.12036 132.64204,61.81196 L132.64204,61.81196 Z M129.84724,63.36356 C129.84724,64.59596 130.42924,65.30276 131.50084,65.30276 C132.15124,65.30276 132.52804,65.10956 132.97324,64.66436 L133.53244,65.15516 C132.96124,65.72516 132.43684,66.02156 131.47804,66.02156 C129.99484,66.02156 129.02644,65.13236 129.02644,63.14636 C129.02644,61.33436 129.90484,60.27236 131.33044,60.27236 C132.77884,60.27236 133.63444,61.32236 133.63444,62.98676 L133.63444,63.36356 L129.84724,63.36356 Z" id="Fill-64"></path>
                        <path d="M138.51316,61.41344 C138.20476,61.10504 137.97676,61.00184 137.54356,61.00184 C136.72156,61.00184 136.19716,61.65224 136.19716,62.50784 L136.19716,65.95304 L135.37636,65.95304 L135.37636,60.34064 L136.19716,60.34064 L136.19716,61.02584 C136.50556,60.55784 137.12116,60.27224 137.77156,60.27224 C138.30796,60.27224 138.71836,60.39704 139.11796,60.79664 L138.51316,61.41344 Z" id="Fill-65"></path>
                        <path d="M141.71356,61.0022 C140.49316,61.0022 140.31076,62.0522 140.31076,63.101 C140.31076,64.151 140.49316,65.201 141.71356,65.201 C142.93516,65.201 143.10556,64.151 143.10556,63.101 C143.10556,62.0522 142.93516,61.0022 141.71356,61.0022 M141.58876,68.531 C140.74396,68.531 140.27596,68.315 139.68316,67.7786 L140.21956,67.2542 C140.62996,67.619 140.91556,67.8134 141.56476,67.8134 C142.64956,67.8134 143.10556,67.0478 143.10556,66.0902 L143.10556,65.2118 C142.64956,65.7938 142.13596,65.9414 141.53116,65.9414 C140.96116,65.9414 140.47036,65.7362 140.17396,65.4398 C139.61476,64.8806 139.48876,64.0142 139.48876,63.101 C139.48876,62.189 139.61476,61.3226 140.17396,60.7634 C140.47036,60.467 140.97196,60.2726 141.54196,60.2726 C142.15876,60.2726 142.66036,60.4094 143.11636,61.0022 L143.11636,60.341 L143.92636,60.341 L143.92636,66.125 C143.92636,67.517 143.05996,68.531 141.58876,68.531" id="Fill-66"></path>
                        <path d="M25.89976,14.52548 C21.29896,14.52548 20.59816,18.42668 20.59816,22.92788 C20.59816,27.42908 21.29896,31.38068 25.89976,31.38068 C30.50056,31.38068 31.15096,27.42908 31.15096,22.92788 C31.15096,18.42668 30.50056,14.52548 25.89976,14.52548 M33.40216,33.68108 C32.00176,35.08148 29.80096,35.93228 27.24976,35.93228 C24.54856,35.93228 22.44856,35.23148 20.59816,33.03068 L20.59816,44.22788 L15.49576,44.22788 L15.49576,10.27388 L20.49856,10.27388 L20.49856,12.97508 C22.39816,10.67348 24.44896,9.97388 27.19936,9.97388 C29.75056,9.97388 32.00176,10.82348 33.40216,12.22508 C35.95216,14.77628 36.25216,19.07708 36.25216,22.92788 C36.25216,26.77868 35.95216,31.12988 33.40216,33.68108" id="Fill-67"></path>
                        <path d="M6.96592,35.63132 C2.11552,35.63132 0.01552,32.38172 0.01552,28.63172 L0.01552,0.03212 L5.11552,0.03212 L5.11552,28.33172 C5.11552,30.28172 5.81632,31.28132 7.86592,31.28132 L10.11592,31.28132 L10.11592,35.63132 L6.96592,35.63132 Z" id="Fill-68"></path>
                        <path d="M52.05376,14.5322 C47.45416,14.5322 46.75336,18.431 46.75336,22.9322 C46.75336,27.431 47.45416,31.3814 52.05376,31.3814 C56.65336,31.3814 57.30376,27.431 57.30376,22.9322 C57.30376,18.431 56.65336,14.5322 52.05376,14.5322 M59.55376,33.6806 C58.15336,35.0822 55.90336,35.9306 53.35336,35.9306 C50.60416,35.9306 48.55336,35.231 46.65376,32.9318 L46.65376,35.6318 L41.65456,35.6318 L41.65456,0.0326 L46.75336,0.0326 L46.75336,12.8318 C48.60376,10.6322 50.70376,9.9818 53.40376,9.9818 C55.95376,9.9818 58.15336,10.8314 59.55376,12.2318 C62.10376,14.7818 62.40376,19.0826 62.40376,22.9322 C62.40376,26.7818 62.10376,31.1306 59.55376,33.6806" id="Fill-69"></path>
                    </g>
                </g>
            </g>
        </g>
    </g>
</svg>