<?xml version="1.0" encoding="UTF-8"?>
<svg width="265px" height="50px" viewBox="0 0 265 50" version="1.1" xmlns="http://www.w3.org/2000/svg" xmlns:xlink="http://www.w3.org/1999/xlink">
    <title>LZ_Logo_H_RGB</title>
    <g id="1_Startseite" stroke="none" stroke-width="1" fill="none" fill-rule="evenodd">
        <g id="startseite_1920-1440-berlin" transform="translate(-634.000000, -1011.000000)">
            <g id="desktop/footer" transform="translate(238.000000, 999.000000)">
                <g id="LZ_Logo_H_RGB" transform="translate(396.000000, 12.000000)">
                    <polygon id="Fill-1" fill="#000000" points="0 50 265 50 265 0 0 0"></polygon>
                    <polygon id="Fill-2" fill="#FFFFFF" points="1.00946445 49.0000529 113.572497 49.0000529 113.572497 1.00012347 1.00946445 1.00012347"></polygon>
                    <polygon id="Fill-3" fill="#FFFFFF" points="114.581961 49.0000529 214.524106 49.0000529 214.524106 1.00012347 114.581961 1.00012347"></polygon>
                    <polygon id="Fill-4" fill="#FFFFFF" points="215.533749 49.0000529 263.990357 49.0000529 263.990357 1.00012347 215.533749 1.00012347"></polygon>
                    <path d="M135.083403,24.6420193 C136.28518,23.8810788 137.005997,22.6918667 137.005997,21.1456441 C137.005997,18.6007091 135.227637,16.6500273 131.959209,16.6500273 L126.479539,16.6500273 C126.311443,16.6500273 126.191426,16.7689133 126.191426,16.9356005 L126.191426,33.0144815 C126.191426,33.1806396 126.311443,33.3000547 126.479539,33.3000547 L132.175561,33.3000547 C135.539968,33.3000547 137.318328,31.2779355 137.318328,28.614291 C137.318328,26.877745 136.477315,25.569647 135.083403,24.8323426 C134.987068,24.7609052 134.987068,24.6894678 135.083403,24.6420193 L135.083403,24.6420193 Z M131.574761,19.4090981 C133.088691,19.4090981 133.929704,20.2178399 133.929704,21.4546769 C133.929704,22.6918667 133.088691,23.5240682 131.574761,23.5240682 L129.267185,23.5240682 C129.171385,23.5240682 129.123485,23.4767961 129.123485,23.3813698 L129.123485,19.5519729 C129.123485,19.4568994 129.171385,19.4090981 129.267185,19.4090981 L131.574761,19.4090981 Z M131.814974,30.5404547 L129.267185,30.5404547 C129.171385,30.5404547 129.123485,30.4695465 129.123485,30.3981091 L129.123485,26.4020249 C129.123485,26.3071279 129.171385,26.2591502 129.267185,26.2591502 L131.814974,26.2591502 C133.37716,26.2591502 134.24239,27.1395058 134.24239,28.4001552 C134.24239,29.6842644 133.37716,30.5404547 131.814974,30.5404547 L131.814974,30.5404547 Z M150.551411,19.1238777 L150.551411,16.9356005 C150.551411,16.7689133 150.431394,16.6500273 150.262942,16.6500273 L141.5152,16.6500273 C141.34657,16.6500273 141.226552,16.7689133 141.226552,16.9356005 L141.226552,33.0144815 C141.226552,33.1806396 141.34657,33.3000547 141.5152,33.3000547 L150.262942,33.3000547 C150.431394,33.3000547 150.551411,33.1806396 150.551411,33.0144815 L150.551411,30.8262043 C150.551411,30.6598698 150.431394,30.5404547 150.262942,30.5404547 L144.302846,30.5404547 C144.206511,30.5404547 144.158611,30.4695465 144.158611,30.3981091 L144.158611,26.4020249 C144.158611,26.3071279 144.230728,26.2591502 144.302846,26.2591502 L150.262942,26.2591502 C150.431394,26.2591502 150.551411,26.1404406 150.551411,25.9741062 L150.551411,23.8096414 C150.551411,23.6429542 150.431394,23.5240682 150.262942,23.5240682 L144.302846,23.5240682 C144.206511,23.5240682 144.158611,23.4767961 144.158611,23.3813698 L144.158611,19.5519729 C144.158611,19.4568994 144.230728,19.4090981 144.302846,19.4090981 L150.262942,19.4090981 C150.431394,19.4090981 150.551411,19.2902122 150.551411,19.1238777 L150.551411,19.1238777 Z M163.596455,33.3000547 L166.624315,33.3000547 C166.864884,33.3000547 166.936645,33.1333674 166.792944,32.9430441 L163.187969,28.114582 C163.139534,28.0431447 163.139534,27.9482476 163.235869,27.900799 C165.374815,27.0446087 166.792944,25.1651879 166.792944,22.5489919 C166.792944,18.8384809 163.956686,16.6500273 160.35171,16.6500273 L155.208944,16.6500273 C155.040492,16.6500273 154.920474,16.7689133 154.920474,16.9356005 L154.920474,33.0144815 C154.920474,33.1806396 155.040492,33.3000547 155.208944,33.3000547 L157.588103,33.3000547 C157.756199,33.3000547 157.876572,33.1806396 157.876572,33.0144815 L157.876572,28.5903022 C157.876572,28.4954051 157.948334,28.4476038 158.020451,28.4476038 L159.847245,28.4476038 C159.919362,28.4476038 159.99148,28.4954051 160.03938,28.5428536 L163.259908,33.1092022 C163.332203,33.2286173 163.452221,33.3000547 163.596455,33.3000547 L163.596455,33.3000547 Z M158.020451,19.4090981 L160.207832,19.4090981 C162.154109,19.4090981 163.716473,20.4321521 163.716473,22.5489919 C163.716473,24.6660081 162.154109,25.688533 160.183614,25.688533 L158.020451,25.688533 C157.924651,25.688533 157.876572,25.6170956 157.876572,25.5458346 L157.876572,19.5519729 C157.876572,19.4568994 157.924651,19.4090981 158.020451,19.4090981 L158.020451,19.4090981 Z M173.564672,30.3981091 L173.564672,16.9356005 C173.564672,16.7689133 173.444655,16.6500273 173.276737,16.6500273 L170.897043,16.6500273 C170.729126,16.6500273 170.60893,16.7689133 170.60893,16.9356005 L170.60893,33.0144815 C170.60893,33.1806396 170.729126,33.3000547 170.897043,33.3000547 L179.092242,33.3000547 C179.260872,33.3000547 179.38089,33.1806396 179.38089,33.0144815 L179.38089,30.8262043 C179.38089,30.6598698 179.260872,30.5404547 179.092242,30.5404547 L173.709085,30.5404547 C173.613106,30.5404547 173.564672,30.4695465 173.564672,30.3981091 L173.564672,30.3981091 Z M183.052819,33.3000547 L185.432334,33.3000547 C185.60043,33.3000547 185.720448,33.1806396 185.720448,33.0144815 L185.720448,16.9356005 C185.720448,16.7689133 185.60043,16.6500273 185.432334,16.6500273 L183.052819,16.6500273 C182.884723,16.6500273 182.764706,16.7689133 182.764706,16.9356005 L182.764706,33.0144815 C182.764706,33.1806396 182.884723,33.3000547 183.052819,33.3000547 L183.052819,33.3000547 Z M200.033154,16.9356005 L200.033154,27.9482476 C200.033154,28.0911224 199.93682,28.1383945 199.864524,27.9956961 L193.520159,16.8403507 C193.448041,16.7214647 193.303807,16.6500273 193.159394,16.6500273 L190.443865,16.6500273 C190.275413,16.6500273 190.155218,16.7689133 190.155218,16.9356005 L190.155218,33.0144815 C190.155218,33.1806396 190.275413,33.3000547 190.443865,33.3000547 L192.798807,33.3000547 C192.967259,33.3000547 193.087455,33.1806396 193.087455,33.0144815 L193.087455,22.0258233 C193.087455,21.8829485 193.183789,21.8355 193.255728,21.9778456 L199.600272,33.1092022 C199.672389,33.2286173 199.816624,33.3000547 199.960859,33.3000547 L202.676566,33.3000547 C202.845017,33.3000547 202.965035,33.1806396 202.965035,33.0144815 L202.965035,16.9356005 C202.965035,16.7689133 202.845017,16.6500273 202.676566,16.6500273 L200.321089,16.6500273 C200.153172,16.6500273 200.033154,16.7689133 200.033154,16.9356005 L200.033154,16.9356005 Z" id="Fill-5" fill="#000000"></path>
                    <path d="M247.178296,39.1861429 C247.178296,39.1861429 246.295972,33.3887782 245.878938,30.9445611 C245.99664,30.9207486 246.061279,30.9066375 246.061279,30.9066375 C246.447863,30.8403154 246.593344,30.4019897 246.420619,30.1072443 C245.422195,28.4042122 245.064991,26.2820807 245.064991,24.1726492 C245.064991,22.8728414 245.283836,21.6231281 245.689118,20.4596687 C245.712088,20.3929938 245.736662,20.3266717 245.761235,20.2607024 C245.775302,20.220133 245.804684,20.1305276 245.810204,20.1165929 C246.07962,19.5360979 246.564497,18.2768596 246.70802,16.8662798 C246.824654,15.7243399 246.678461,14.7721941 246.475998,13.8798441 C246.380019,13.4480447 246.134464,12.7375514 245.977943,12.407881 C245.951411,12.359727 245.924167,12.3128076 245.897101,12.2665938 C246.256797,11.9078193 246.327133,11.3352618 246.05006,10.8597181 C245.723663,10.3019773 245.053773,10.0811388 244.553938,10.3672411 C244.501408,10.3972272 244.377473,10.4831284 244.322628,10.5229923 C244.231279,10.4566701 244.177859,10.4233327 244.177859,10.4233327 C244.175366,10.4213924 244.037008,10.331787 243.915922,10.2688163 C243.915566,10.2684635 243.870515,10.2457093 243.869624,10.2450038 C243.3559,10.0195791 242.799083,9.89998765 242.200776,9.89998765 C241.908033,9.89998765 241.623125,9.92997372 241.346765,9.98677085 C240.749348,10.1098901 240.199832,10.3596564 239.726351,10.7069656 C239.479727,10.7854585 239.213516,10.8032738 239.213516,10.8032738 L238.536326,10.8355529 C238.217941,10.848782 237.854327,10.8332598 237.854327,10.8332598 C237.695313,10.8332598 237.566392,10.961318 237.566392,11.118833 C237.566392,11.1329441 237.67074,12.054751 237.671096,12.0577496 C237.69656,12.2884659 237.794853,12.5063059 237.989481,12.6315418 L238.012273,12.6472404 C238.074953,12.6885153 238.106293,12.7216764 238.119648,12.7569541 C238.19408,12.9576844 238.345437,13.1580618 238.447826,13.2190923 C238.494124,13.2474909 238.566241,13.2335562 238.579596,13.1811688 C238.708695,12.6791667 239.011232,13.2210326 239.586746,12.9118233 C239.735076,12.8322721 239.81396,13.1880479 239.751636,13.3434463 L239.698216,13.4778544 C239.579445,13.7771859 239.305399,13.9920272 238.982563,14.0382411 C238.727392,14.0749299 238.580843,14.1006826 238.584226,14.1356076 C238.614854,14.4201224 238.580843,14.6644207 238.872695,14.8355176 C238.958346,14.8806731 239.000192,14.8914328 239.000192,14.8914328 C239.447319,15.0076729 240.751485,15.5029721 239.093143,17.4413067 C239.093143,17.4413067 238.935731,17.615755 238.814467,17.7887923 C238.779566,17.8385339 238.749294,17.8910977 238.722762,17.9457781 L238.688217,18.0154516 L233.703041,16.1672517 C233.552574,16.1095726 233.359192,15.9471187 233.267131,15.8164147 L232.776556,14.9805091 C232.47117,14.5626444 232.205315,14.4038947 231.675386,14.3610322 C231.293432,14.3299878 230.981814,14.3587392 230.981814,14.3587392 C230.833661,14.3663239 230.747833,14.4008961 230.716493,14.4864445 C230.681948,14.5794013 230.678743,14.8131163 230.824224,15.1052158 L231.252298,15.8834424 C231.28987,15.9388284 231.829415,17.1338613 231.829415,17.1338613 C231.883013,17.2811458 231.975786,17.4111442 232.09705,17.5111566 C232.108268,17.5201524 237.215599,21.3428466 237.215599,21.3428466 L231.82158,24.008255 C231.666305,24.0916868 231.483608,24.1105604 231.314444,24.0599369 C231.116076,24.0003175 230.833305,23.9151218 230.831169,23.914769 C229.948844,23.5251266 229.284296,23.7962359 228.894863,24.1193798 C228.89148,24.1223784 228.742615,24.2626074 228.742615,24.2626074 C228.59571,24.4075988 228.650376,24.6048013 228.816691,24.6859401 C228.816691,24.6859401 229.668032,25.1815921 229.855537,25.3085919 L231.181071,26.0861129 C231.386561,26.2042933 231.629089,26.2434516 231.862357,26.196003 L237.098965,25.1498421 C237.225393,27.1356252 237.73057,28.7864463 237.73057,28.7864463 C236.786279,29.6851463 235.485318,31.4029951 235.057956,33.7584887 C234.804032,35.1590143 234.886833,36.4283068 235.272527,37.9203782 C234.541204,37.9600656 233.835345,38.0673099 233.249147,38.4708871 C232.691439,38.8550615 232.576942,39.5392729 232.573559,39.8809377 L236.6627,39.8901099 L237.008685,39.8881696 C237.439074,39.8827016 237.550188,39.4600744 237.550722,39.4590161 C237.592568,39.330958 237.606457,39.1633888 237.625867,39.0388584 C237.75639,38.2283527 237.860026,37.3868026 238.586897,35.9335368 C239.174698,34.7591413 240.215146,33.7022207 240.215324,33.7022207 C240.217817,33.7055721 241.936168,36.2254599 244.840804,37.9540684 C244.284165,37.988817 243.564595,38.1712028 243.137233,38.4065052 C242.460398,38.7788616 242.273962,39.5445646 242.28981,39.8999877 L246.525857,39.8999877 C246.816997,39.8999877 247.060593,39.7135449 247.148024,39.4593689 C247.156928,39.433087 247.164229,39.4059231 247.169927,39.3782301 C247.173844,39.358651 247.176693,39.3385427 247.178652,39.3184344 C247.182926,39.2752192 247.183282,39.2307692 247.178296,39.1861429" id="Fill-6" fill="#000000"></path>
                    <path d="M14.8052412,15.9360062 L13.0249227,15.9360062 C12.9716806,15.9360062 12.9360671,15.9711075 12.9360671,16.0240241 L12.9360671,22.0203552 C12.9360671,22.0732718 12.9716806,22.1083732 13.0249227,22.1083732 L14.823048,22.1083732 C16.0789578,22.1083732 16.7278356,21.3685993 16.7278356,20.415748 C16.7278356,19.7715767 16.3722349,19.2422345 15.8383887,18.9780043 C15.7849684,18.9517224 15.776065,18.9164447 15.8383887,18.881167 C16.2833793,18.6259327 16.5944631,18.1405112 16.5944631,17.5668954 C16.5944631,16.6493218 15.9632139,15.9360062 14.8052412,15.9360062 Z M13.6383651,16.5609511 L14.7251109,16.5609511 C15.5089638,16.5609511 15.9097937,16.9669977 15.9097937,17.6109925 C15.9097937,18.2551638 15.5089638,18.6523909 14.7251109,18.6523909 L13.6383651,18.6523909 C13.611655,18.6523909 13.5938483,18.6347521 13.5938483,18.6081174 L13.5938483,16.6050482 C13.5938483,16.5785899 13.611655,16.5609511 13.6383651,16.5609511 Z M13.6383651,19.2773358 L14.7607244,19.2773358 C15.6158043,19.2773358 16.0433443,19.7010213 16.0433443,20.3802939 C16.0433443,21.0597428 15.6158043,21.4834283 14.7607244,21.4834283 L13.6383651,21.4834283 C13.611655,21.4834283 13.5938483,21.4657894 13.5938483,21.4391547 L13.5938483,19.321433 C13.5938483,19.2949747 13.611655,19.2773358 13.6383651,19.2773358 L13.6383651,19.2773358 Z" id="Fill-7" fill="#000000"></path>
                    <path d="M19.7555167,22.2053869 C20.3880124,22.2053869 20.9491029,21.9413331 21.3668492,21.5097102 C21.4024627,21.4744325 21.4024627,21.4303353 21.3668492,21.3950576 L21.0735721,21.0772053 C21.0290552,21.0331081 20.9847164,21.050747 20.9223928,21.112483 C20.6373068,21.403877 20.2453803,21.6245392 19.7555167,21.6245392 C18.9627604,21.6245392 18.4372833,21.1213025 18.3393462,20.3534828 C18.3215394,20.2652885 18.3571529,20.2386538 18.4194765,20.2386538 L21.5623673,20.2386538 C21.6157875,20.2386538 21.6424976,20.2123719 21.651401,20.1682747 C21.6603044,20.0978957 21.6603044,20.0275166 21.6603044,19.965957 C21.6603044,18.7838005 20.806649,17.9291976 19.666483,17.9291976 C18.526317,17.9291976 17.6548549,18.7661616 17.6548549,20.0627943 C17.6548549,21.3596035 18.526317,22.2053869 19.7555167,22.2053869 Z M20.8867793,19.7283615 L18.4372833,19.7283615 C18.3571529,19.7283615 18.3393462,19.7017268 18.3571529,19.6311714 C18.4639934,18.9780043 18.9894705,18.5100453 19.666483,18.5100453 C20.3522208,18.5100453 20.8511658,18.9603655 20.9669097,19.622352 C20.9847164,19.7017268 20.9580063,19.7283615 20.8867793,19.7283615 L20.8867793,19.7283615 Z" id="Fill-8" fill="#000000"></path>
                    <path d="M24.4737703,17.9291976 C23.9484713,17.9291976 23.583433,18.1756125 23.3519453,18.4484857 C23.3163318,18.4837634 23.2896217,18.4661246 23.2896217,18.4222038 L23.2896217,18.1055862 C23.2896217,18.0526696 23.2540082,18.0173919 23.200766,18.0173919 L22.7741164,18.0173919 C22.7208742,18.0173919 22.6852607,18.0526696 22.6852607,18.1055862 L22.6852607,22.0203552 C22.6852607,22.0730954 22.7208742,22.1083732 22.7741164,22.1083732 L23.2451048,22.1083732 C23.2985251,22.1083732 23.3341386,22.0730954 23.3341386,22.0203552 L23.3341386,19.2861553 C23.3341386,19.2067804 23.3430419,19.1450444 23.3964622,19.0656695 C23.6012398,18.7658088 23.9128578,18.5453231 24.3758332,18.5453231 C24.4381568,18.5453231 24.5182872,18.5541425 24.5895142,18.5629619 C24.6518378,18.5806008 24.6874513,18.5541425 24.6874513,18.4925829 L24.6874513,18.026035 C24.6874513,17.9731184 24.6607412,17.938017 24.6073209,17.938017 C24.5628041,17.9291976 24.5182872,17.9291976 24.4737703,17.9291976" id="Fill-9" fill="#000000"></path>
                    <path d="M26.5304495,21.5716226 L26.4058023,21.5716226 C26.2099281,21.5716226 26.1387011,21.4481506 26.1387011,21.2541231 L26.1387011,15.8125342 C26.1387011,15.7596176 26.1030876,15.7243399 26.0496674,15.7243399 L25.5786789,15.7243399 C25.5254368,15.7243399 25.4898233,15.7596176 25.4898233,15.8125342 L25.4898233,21.333498 C25.4898233,21.897236 25.8276173,22.1436509 26.3701888,22.1436509 L26.5304495,22.1436509 C26.5838698,22.1436509 26.6194833,22.1085496 26.6194833,22.055633 L26.6194833,21.6596405 C26.6194833,21.6067239 26.5838698,21.5716226 26.5304495,21.5716226" id="Fill-10" fill="#000000"></path>
                    <path d="M27.9738089,17.0636587 C28.2228126,17.0636587 28.4456148,16.8347062 28.4456148,16.5792955 C28.4456148,16.3237084 28.2228126,16.1035754 27.9738089,16.1035754 C27.7068028,16.1035754 27.4841789,16.3237084 27.4841789,16.5792955 C27.4841789,16.8347062 27.7068028,17.0636587 27.9738089,17.0636587 Z M27.724627,22.1083732 L28.1960763,22.1083732 C28.2495489,22.1083732 28.2851972,22.0730954 28.2851972,22.0203552 L28.2851972,18.1055862 C28.2851972,18.0526696 28.2495489,18.0173919 28.1960763,18.0173919 L27.724627,18.0173919 C27.6713327,18.0173919 27.6356843,18.0526696 27.6356843,18.1055862 L27.6356843,22.0203552 C27.6356843,22.0730954 27.6713327,22.1083732 27.724627,22.1083732 L27.724627,22.1083732 Z" id="Fill-11" fill="#000000"></path>
                    <path d="M30.287673,22.0203552 L30.287673,19.2685164 C30.287673,19.1979609 30.2965764,19.1538638 30.3321899,19.0833083 C30.5458709,18.7128922 30.8756518,18.5012259 31.2675783,18.5012259 C31.8199436,18.5012259 32.1317397,18.809906 32.1317397,19.383169 L32.1317397,22.0201789 C32.1317397,22.0730954 32.1673532,22.1083732 32.2205954,22.1083732 L32.6915838,22.1083732 C32.745004,22.1083732 32.7806175,22.0730954 32.7806175,22.0201789 L32.7806175,19.2773358 C32.7806175,18.5276842 32.309451,17.9291976 31.3922255,17.9291976 C30.9112653,17.9291976 30.5816624,18.1140529 30.3143831,18.413208 C30.2787697,18.4573051 30.2431562,18.4396663 30.2431562,18.3957455 L30.2431562,18.1052335 C30.2431562,18.0526696 30.2075427,18.0173919 30.1543005,18.0173919 L29.7276509,18.0173919 C29.6744087,18.0173919 29.6387952,18.0526696 29.6387952,18.1055862 L29.6387952,22.0203552 C29.6387952,22.0730954 29.6744087,22.1083732 29.7276509,22.1083732 L30.1986393,22.1083732 C30.2520595,22.1083732 30.287673,22.0730954 30.287673,22.0203552" id="Fill-12" fill="#000000"></path>
                    <path d="M35.8973323,22.2053869 C36.529828,22.2053869 37.0909186,21.9413331 37.5086648,21.5097102 C37.5442783,21.4744325 37.5442783,21.4303353 37.5086648,21.3950576 L37.2153877,21.0772053 C37.1708709,21.0331081 37.1265321,21.050747 37.0642084,21.112483 C36.7791224,21.403877 36.3871959,21.6245392 35.8973323,21.6245392 C35.104576,21.6245392 34.5790989,21.1213025 34.4811618,20.3534828 C34.4633551,20.2652885 34.4989686,20.2386538 34.5612922,20.2386538 L37.7041829,20.2386538 C37.7576031,20.2386538 37.7843133,20.2123719 37.7932166,20.1682747 C37.80212,20.0978957 37.80212,20.0275166 37.80212,19.965957 C37.80212,18.7838005 36.9484646,17.9291976 35.8082986,17.9291976 C34.6681326,17.9291976 33.7966705,18.7661616 33.7966705,20.0627943 C33.7966705,21.3596035 34.6681326,22.2053869 35.8973323,22.2053869 Z M37.0285949,19.7283615 L34.5790989,19.7283615 C34.4989686,19.7283615 34.4811618,19.7017268 34.4989686,19.6311714 C34.605809,18.9780043 35.1312861,18.5100453 35.8082986,18.5100453 C36.4940364,18.5100453 36.9929815,18.9603655 37.1087253,19.622352 C37.1265321,19.7017268 37.0998219,19.7283615 37.0285949,19.7283615 L37.0285949,19.7283615 Z" id="Fill-13" fill="#000000"></path>
                    <path d="M40.6155859,17.9291976 C40.0902869,17.9291976 39.7252486,18.1756125 39.4937609,18.4484857 C39.4581474,18.4837634 39.4314373,18.4661246 39.4314373,18.4222038 L39.4314373,18.1055862 C39.4314373,18.0526696 39.3958238,18.0173919 39.3425816,18.0173919 L38.915932,18.0173919 C38.8626898,18.0173919 38.8270763,18.0526696 38.8270763,18.1055862 L38.8270763,22.0203552 C38.8270763,22.0730954 38.8626898,22.1083732 38.915932,22.1083732 L39.3869204,22.1083732 C39.4403407,22.1083732 39.4759542,22.0730954 39.4759542,22.0203552 L39.4759542,19.2861553 C39.4759542,19.2067804 39.4848575,19.1450444 39.5382778,19.0656695 C39.7430554,18.7658088 40.0546734,18.5453231 40.5176488,18.5453231 C40.5799724,18.5453231 40.6601028,18.5541425 40.7313298,18.5629619 C40.7936534,18.5806008 40.8292669,18.5541425 40.8292669,18.4925829 L40.8292669,18.026035 C40.8292669,17.9731184 40.8025568,17.938017 40.7491365,17.938017 C40.7046197,17.9291976 40.6601028,17.9291976 40.6155859,17.9291976" id="Fill-14" fill="#000000"></path>
                    <path d="M43.9109024,16.0242005 L43.9109024,22.0203552 C43.9109024,22.0732718 43.9465159,22.1083732 43.9997581,22.1083732 L46.9191742,22.1083732 C46.9725944,22.1083732 47.0082079,22.0732718 47.0082079,22.0203552 L47.0082079,21.5714462 C47.0082079,21.5185296 46.9725944,21.4834283 46.9191742,21.4834283 L44.6132005,21.4834283 C44.5864904,21.4834283 44.5686836,21.4657894 44.5686836,21.4393311 L44.5686836,16.0242005 C44.5686836,15.9712839 44.5330702,15.9360062 44.4796499,15.9360062 L43.9997581,15.9360062 C43.9465159,15.9360062 43.9109024,15.9712839 43.9109024,16.0242005" id="Fill-15" fill="#000000"></path>
                    <path d="M49.5016866,22.1965675 C50.0894873,22.1965675 50.5170273,21.9766109 50.8466302,21.6508211 C50.8733403,21.6245392 50.9000504,21.6420017 50.9000504,21.6772794 L50.9000504,22.0201789 C50.9000504,22.0730954 50.9354858,22.1083732 50.9889061,22.1083732 L51.424281,22.1083732 C51.4777012,22.1083732 51.5133147,22.0730954 51.5133147,22.0203552 L51.5133147,18.1055862 C51.5133147,18.0526696 51.4777012,18.0173919 51.424281,18.0173919 L50.9889061,18.0173919 C50.9354858,18.0173919 50.9000504,18.0526696 50.9000504,18.1055862 L50.9000504,18.4484857 C50.9000504,18.4837634 50.8733403,18.5012259 50.8466302,18.474944 C50.5437374,18.1228723 50.0894873,17.9291976 49.5016866,17.9291976 C48.3526173,17.9291976 47.4722517,18.7836241 47.4722517,20.0629707 C47.4722517,21.342141 48.3526173,22.1965675 49.5016866,22.1965675 Z M49.5996237,21.6157198 C48.7178336,21.6157198 48.1300329,20.9891874 48.1300329,20.0629707 C48.1300329,19.1365777 48.7178336,18.5100453 49.5996237,18.5100453 C50.1607143,18.5100453 50.606061,18.7748046 50.8288234,19.163036 C50.8555335,19.2159526 50.8644369,19.2512303 50.8644369,19.3217858 L50.8644369,20.8039793 C50.8644369,20.8745348 50.8555335,20.9098125 50.8288234,20.9627291 C50.6238678,21.3597799 50.1607143,21.6157198 49.5996237,21.6157198 L49.5996237,21.6157198 Z" id="Fill-16" fill="#000000"></path>
                    <path d="M53.5254771,22.0203552 L53.5254771,19.2685164 C53.5254771,19.1979609 53.5343805,19.1538638 53.569994,19.0833083 C53.7836749,18.7128922 54.1134559,18.5012259 54.5053823,18.5012259 C55.0577476,18.5012259 55.3695437,18.809906 55.3695437,19.383169 L55.3695437,22.0201789 C55.3695437,22.0730954 55.4051572,22.1083732 55.4583994,22.1083732 L55.9293879,22.1083732 C55.9828081,22.1083732 56.0184216,22.0730954 56.0184216,22.0201789 L56.0184216,19.2773358 C56.0184216,18.5276842 55.5472551,17.9291976 54.6300296,17.9291976 C54.1490693,17.9291976 53.8194665,18.1140529 53.5521872,18.413208 C53.5165737,18.4573051 53.4809602,18.4396663 53.4809602,18.3957455 L53.4809602,18.1052335 C53.4809602,18.0526696 53.4453467,18.0173919 53.3921046,18.0173919 L52.9654549,18.0173919 C52.9122127,18.0173919 52.8765992,18.0526696 52.8765992,18.1055862 L52.8765992,22.0203552 C52.8765992,22.0730954 52.9122127,22.1083732 52.9654549,22.1083732 L53.4364434,22.1083732 C53.4898636,22.1083732 53.5254771,22.0730954 53.5254771,22.0203552" id="Fill-17" fill="#000000"></path>
                    <path d="M60.4266597,15.8125342 L60.4266597,18.3692872 C60.4266597,18.4220274 60.3999496,18.4484857 60.3465294,18.3957455 C60.0436366,18.1052335 59.6160966,17.9291976 59.0639094,17.9291976 C57.9148401,17.9291976 57.0344745,18.7836241 57.0344745,20.0629707 C57.0344745,21.342141 57.9148401,22.1965675 59.0639094,22.1965675 C59.6428067,22.1965675 60.0881535,22.0205316 60.3821429,21.6949182 C60.4266597,21.6420017 60.4622732,21.6508211 60.4622732,21.7125571 L60.4622732,22.0205316 C60.4622732,22.0730954 60.4977086,22.1083732 60.5511289,22.1083732 L60.9865038,22.1083732 C61.0399241,22.1083732 61.0755376,22.0730954 61.0755376,22.0201789 L61.0755376,15.8125342 C61.0755376,15.7596176 61.0399241,15.7243399 60.9865038,15.7243399 L60.5155154,15.7243399 C60.4622732,15.7243399 60.4266597,15.7596176 60.4266597,15.8125342 Z M59.1618465,21.6157198 C58.2800564,21.6157198 57.6922557,20.9891874 57.6922557,20.0629707 C57.6922557,19.1365777 58.2800564,18.5100453 59.1618465,18.5100453 C59.7229371,18.5100453 60.1593805,18.7748046 60.3910462,19.163036 C60.4177563,19.2159526 60.4266597,19.2512303 60.4266597,19.3041469 L60.4266597,20.8216182 C60.4266597,20.8745348 60.4177563,20.9098125 60.3910462,20.9627291 C60.1593805,21.3509604 59.7229371,21.6157198 59.1618465,21.6157198 L59.1618465,21.6157198 Z" id="Fill-18" fill="#000000"></path>
                    <path d="M64.1477355,22.2053869 C64.7802312,22.2053869 65.3413217,21.9413331 65.759068,21.5097102 C65.7946815,21.4744325 65.7946815,21.4303353 65.759068,21.3950576 L65.4657909,21.0772053 C65.421274,21.0331081 65.3769352,21.050747 65.3146116,21.112483 C65.0295256,21.403877 64.6375991,21.6245392 64.1477355,21.6245392 C63.3549792,21.6245392 62.8295021,21.1213025 62.731565,20.3534828 C62.7137582,20.2652885 62.7493717,20.2386538 62.8116953,20.2386538 L65.9545861,20.2386538 C66.0080063,20.2386538 66.0347164,20.2123719 66.0436198,20.1682747 C66.0525232,20.0978957 66.0525232,20.0275166 66.0525232,19.965957 C66.0525232,18.7838005 65.1988678,17.9291976 64.0587018,17.9291976 C62.9185358,17.9291976 62.0470736,18.7661616 62.0470736,20.0627943 C62.0470736,21.3596035 62.9185358,22.2053869 64.1477355,22.2053869 Z M65.2789981,19.7283615 L62.8295021,19.7283615 C62.7493717,19.7283615 62.731565,19.7017268 62.7493717,19.6311714 C62.8562122,18.9780043 63.3816893,18.5100453 64.0587018,18.5100453 C64.7444396,18.5100453 65.2433846,18.9603655 65.3591285,19.622352 C65.3769352,19.7017268 65.3502251,19.7283615 65.2789981,19.7283615 L65.2789981,19.7283615 Z" id="Fill-19" fill="#000000"></path>
                    <path d="M68.1807855,22.2053869 C69.0627537,22.2053869 69.5871623,21.6860988 69.5871623,20.9980068 C69.5871623,20.2834565 69.1070925,19.8864057 68.474953,19.7629337 L68.1273653,19.6923782 C67.7354388,19.6130034 67.5215798,19.4452578 67.5215798,19.0836611 C67.5215798,18.7395269 67.7977624,18.4924065 68.2165771,18.4924065 C68.5996002,18.4924065 68.8490727,18.7130686 68.9382845,19.0570264 C68.9471879,19.1101194 68.9915267,19.1365777 69.0449469,19.1189388 L69.4626932,19.0129293 C69.5159354,18.9952904 69.5426455,18.9600127 69.5248387,18.8982767 C69.3471274,18.2724499 68.8579761,17.9291976 68.2165771,17.9291976 C67.432546,17.9291976 66.8816053,18.4484857 66.8816053,19.1101194 C66.8816053,19.6923782 67.2637381,20.151165 67.8689894,20.2658176 L68.2254804,20.3363731 C68.6442951,20.415748 68.9471879,20.592313 68.9471879,20.9980068 C68.9471879,21.3597799 68.6977154,21.642178 68.1807855,21.642178 C67.8511826,21.642178 67.503773,21.4391547 67.3882072,21.042104 C67.3704005,20.9891874 67.3260617,20.9627291 67.2726414,20.9803679 L66.8459918,21.1304747 C66.7925716,21.1481135 66.7747648,21.1833912 66.7925716,21.2363078 C66.9793643,21.800575 67.4503528,22.2053869 68.1807855,22.2053869" id="Fill-20" fill="#000000"></path>
                    <path d="M71.2973223,21.5010672 L73.4245162,18.1934278 C73.4779364,18.1054098 73.4512263,18.0173919 73.3532892,18.0173919 L70.3984377,18.0173919 C70.3450175,18.0173919 70.309404,18.0524933 70.309404,18.1054098 L70.309404,18.4837634 C70.309404,18.53668 70.3450175,18.5717813 70.3984377,18.5717813 L72.4187912,18.5717813 C72.4544046,18.5717813 72.463308,18.5894202 72.4455013,18.6248743 L70.3272107,21.9323373 C70.2737905,22.0203552 70.3005006,22.1083732 70.4073411,22.1083732 L73.4779364,22.1083732 C73.5313567,22.1083732 73.5669702,22.0732718 73.5669702,22.0203552 L73.5669702,21.6508211 C73.5669702,21.5890851 73.5313567,21.5539837 73.4779364,21.5539837 L71.3329358,21.5539837 C71.2973223,21.5539837 71.2795155,21.5363449 71.2973223,21.5010672" id="Fill-21" fill="#000000"></path>
                    <path d="M76.229613,22.2053869 C76.8621086,22.2053869 77.4231992,21.9413331 77.8409454,21.5097102 C77.8765589,21.4744325 77.8765589,21.4303353 77.8409454,21.3950576 L77.5476683,21.0772053 C77.5031515,21.0331081 77.4588127,21.050747 77.396489,21.112483 C77.111403,21.403877 76.7194765,21.6245392 76.229613,21.6245392 C75.4368566,21.6245392 74.9113795,21.1213025 74.8134424,20.3534828 C74.7956357,20.2652885 74.8312492,20.2386538 74.8935728,20.2386538 L78.0364635,20.2386538 C78.0898838,20.2386538 78.1165939,20.2123719 78.1254972,20.1682747 C78.1344006,20.0978957 78.1344006,20.0275166 78.1344006,19.965957 C78.1344006,18.7838005 77.2807452,17.9291976 76.1405792,17.9291976 C75.0004133,17.9291976 74.1289511,18.7661616 74.1289511,20.0627943 C74.1289511,21.3596035 75.0004133,22.2053869 76.229613,22.2053869 Z M77.3608756,19.7283615 L74.9113795,19.7283615 C74.8312492,19.7283615 74.8134424,19.7017268 74.8312492,19.6311714 C74.9380896,18.9780043 75.4635667,18.5100453 76.1405792,18.5100453 C76.826317,18.5100453 77.3252621,18.9603655 77.4410059,19.622352 C77.4588127,19.7017268 77.4321025,19.7283615 77.3608756,19.7283615 L77.3608756,19.7283615 Z" id="Fill-22" fill="#000000"></path>
                    <path d="M79.8082348,22.0203552 L79.8082348,19.2685164 C79.8082348,19.1979609 79.8171382,19.1538638 79.8527516,19.0833083 C80.0664326,18.7128922 80.3962135,18.5012259 80.78814,18.5012259 C81.3405053,18.5012259 81.6523014,18.809906 81.6523014,19.383169 L81.6523014,22.0201789 C81.6523014,22.0730954 81.6879149,22.1083732 81.7411571,22.1083732 L82.2121455,22.1083732 C82.2655658,22.1083732 82.3011793,22.0730954 82.3011793,22.0201789 L82.3011793,19.2773358 C82.3011793,18.5276842 81.8300128,17.9291976 80.9127873,17.9291976 C80.431827,17.9291976 80.1022242,18.1140529 79.8349449,18.413208 C79.7993314,18.4573051 79.7637179,18.4396663 79.7637179,18.3957455 L79.7637179,18.1052335 C79.7637179,18.0526696 79.7281044,18.0173919 79.6748622,18.0173919 L79.2482126,18.0173919 C79.1949704,18.0173919 79.1593569,18.0526696 79.1593569,18.1055862 L79.1593569,22.0203552 C79.1593569,22.0730954 79.1949704,22.1083732 79.2482126,22.1083732 L79.719201,22.1083732 C79.7726213,22.1083732 79.8082348,22.0730954 79.8082348,22.0203552" id="Fill-23" fill="#000000"></path>
                    <path d="M83.7802076,16.5269081 L83.7802076,17.9732948 C83.7802076,17.9997531 83.7624009,18.0173919 83.7356908,18.0173919 L83.2460052,18.0173919 C83.192585,18.0173919 83.1569715,18.0524933 83.1569715,18.1054098 L83.1569715,18.4837634 C83.1569715,18.53668 83.192585,18.5717813 83.2460052,18.5717813 L83.7356908,18.5717813 C83.7624009,18.5717813 83.7802076,18.5894202 83.7802076,18.6158785 L83.7802076,22.0201789 C83.7802076,22.0730954 83.8158211,22.1083732 83.8690633,22.1083732 L84.3400517,22.1083732 C84.393472,22.1083732 84.4290855,22.0730954 84.4290855,22.0201789 L84.4290855,18.6158785 C84.4290855,18.5894202 84.4468922,18.5717813 84.4736023,18.5717813 L84.9632879,18.5717813 C85.0167081,18.5717813 85.0523216,18.53668 85.0523216,18.4837634 L85.0523216,18.1054098 C85.0523216,18.0524933 85.0167081,18.0173919 84.9632879,18.0173919 L84.4736023,18.0173919 C84.4468922,18.0173919 84.4290855,17.9997531 84.4290855,17.9732948 L84.4290855,16.2270474 C84.4290855,16.1653114 84.3845686,16.1388531 84.3224231,16.1653114 L83.8423532,16.4210749 C83.7980144,16.4387138 83.7802076,16.4828109 83.7802076,16.5269081" id="Fill-24" fill="#000000"></path>
                    <path d="M87.7856572,17.9291976 C87.2603582,17.9291976 86.8953198,18.1756125 86.6638321,18.4484857 C86.6282187,18.4837634 86.6015085,18.4661246 86.6015085,18.4222038 L86.6015085,18.1055862 C86.6015085,18.0526696 86.565895,18.0173919 86.5126529,18.0173919 L86.0860032,18.0173919 C86.0327611,18.0173919 85.9971476,18.0526696 85.9971476,18.1055862 L85.9971476,22.0203552 C85.9971476,22.0730954 86.0327611,22.1083732 86.0860032,22.1083732 L86.5569917,22.1083732 C86.6104119,22.1083732 86.6460254,22.0730954 86.6460254,22.0203552 L86.6460254,19.2861553 C86.6460254,19.2067804 86.6549288,19.1450444 86.708349,19.0656695 C86.9131266,18.7658088 87.2247447,18.5453231 87.6877201,18.5453231 C87.7500437,18.5453231 87.830174,18.5541425 87.901401,18.5629619 C87.9637246,18.5806008 87.9993381,18.5541425 87.9993381,18.4925829 L87.9993381,18.026035 C87.9993381,17.9731184 87.972628,17.938017 87.9192078,17.938017 C87.8746909,17.9291976 87.830174,17.9291976 87.7856572,17.9291976" id="Fill-25" fill="#000000"></path>
                    <path d="M90.4215898,22.1965675 C91.0093905,22.1965675 91.4369305,21.9766109 91.7665334,21.6508211 C91.7932435,21.6245392 91.8199536,21.6420017 91.8199536,21.6772794 L91.8199536,22.0201789 C91.8199536,22.0730954 91.8553891,22.1083732 91.9088093,22.1083732 L92.3441842,22.1083732 C92.3976045,22.1083732 92.433218,22.0730954 92.433218,22.0203552 L92.433218,18.1055862 C92.433218,18.0526696 92.3976045,18.0173919 92.3441842,18.0173919 L91.9088093,18.0173919 C91.8553891,18.0173919 91.8199536,18.0526696 91.8199536,18.1055862 L91.8199536,18.4484857 C91.8199536,18.4837634 91.7932435,18.5012259 91.7665334,18.474944 C91.4636406,18.1228723 91.0093905,17.9291976 90.4215898,17.9291976 C89.2725205,17.9291976 88.392155,18.7836241 88.392155,20.0629707 C88.392155,21.342141 89.2725205,22.1965675 90.4215898,22.1965675 Z M90.5195269,21.6157198 C89.6377369,21.6157198 89.0499362,20.9891874 89.0499362,20.0629707 C89.0499362,19.1365777 89.6377369,18.5100453 90.5195269,18.5100453 C91.0806175,18.5100453 91.5259643,18.7748046 91.7487266,19.163036 C91.7754368,19.2159526 91.7843401,19.2512303 91.7843401,19.3217858 L91.7843401,20.8039793 C91.7843401,20.8745348 91.7754368,20.9098125 91.7487266,20.9627291 C91.543771,21.3597799 91.0806175,21.6157198 90.5195269,21.6157198 L90.5195269,21.6157198 Z" id="Fill-26" fill="#000000"></path>
                    <path d="M94.8104186,21.5716226 L94.6857714,21.5716226 C94.4898972,21.5716226 94.4186702,21.4481506 94.4186702,21.2541231 L94.4186702,15.8125342 C94.4186702,15.7596176 94.3830567,15.7243399 94.3296365,15.7243399 L93.858648,15.7243399 C93.8054059,15.7243399 93.7697924,15.7596176 93.7697924,15.8125342 L93.7697924,21.333498 C93.7697924,21.897236 94.1075863,22.1436509 94.6501579,22.1436509 L94.8104186,22.1436509 C94.8638389,22.1436509 94.8994524,22.1085496 94.8994524,22.055633 L94.8994524,21.6596405 C94.8994524,21.6067239 94.8638389,21.5716226 94.8104186,21.5716226" id="Fill-27" fill="#000000"></path>
                    <path d="M97.6422255,22.2053869 C98.2747211,22.2053869 98.8358117,21.9413331 99.253558,21.5097102 C99.2891715,21.4744325 99.2891715,21.4303353 99.253558,21.3950576 L98.9602809,21.0772053 C98.915764,21.0331081 98.8714252,21.050747 98.8091016,21.112483 C98.5240156,21.403877 98.1320891,21.6245392 97.6422255,21.6245392 C96.8494692,21.6245392 96.3239921,21.1213025 96.226055,20.3534828 C96.2082482,20.2652885 96.2438617,20.2386538 96.3061853,20.2386538 L99.4490761,20.2386538 C99.5024963,20.2386538 99.5292064,20.2123719 99.5381098,20.1682747 C99.5470132,20.0978957 99.5470132,20.0275166 99.5470132,19.965957 C99.5470132,18.7838005 98.6933577,17.9291976 97.5531918,17.9291976 C96.4130258,17.9291976 95.5415636,18.7661616 95.5415636,20.0627943 C95.5415636,21.3596035 96.4130258,22.2053869 97.6422255,22.2053869 Z M98.7734881,19.7283615 L96.3239921,19.7283615 C96.2438617,19.7283615 96.226055,19.7017268 96.2438617,19.6311714 C96.3507022,18.9780043 96.8761793,18.5100453 97.5531918,18.5100453 C98.2389296,18.5100453 98.7378746,18.9603655 98.8536185,19.622352 C98.8714252,19.7017268 98.8447151,19.7283615 98.7734881,19.7283615 L98.7734881,19.7283615 Z" id="Fill-28" fill="#000000"></path>
                    <path d="M12.9804059,33.5736334 L13.4602977,33.5736334 C13.5048145,33.5736334 13.540428,33.5383557 13.540428,33.4854391 L13.540428,30.0811388 C13.540428,30.0546805 13.5582348,30.0370416 13.5849449,30.0370416 L14.136954,30.0370416 C14.1903743,30.0370416 14.2259878,30.0019403 14.2259878,29.9578431 L14.2259878,29.5706701 C14.2259878,29.5177535 14.1903743,29.4826522 14.136954,29.4826522 L13.5849449,29.4826522 C13.5582348,29.4826522 13.540428,29.4650133 13.540428,29.4383786 L13.540428,28.167675 C13.540428,27.8499991 13.682882,27.691073 13.9054663,27.691073 C13.9855967,27.691073 14.0746304,27.7177077 14.1636642,27.7618048 C14.2170844,27.7882631 14.2616013,27.7882631 14.279408,27.7265271 L14.4040552,27.312543 C14.421862,27.2598028 14.3951519,27.2333445 14.3417316,27.2068862 C14.1992777,27.1453266 14.0301136,27.0925864 13.8520461,27.0925864 C13.2204408,27.0925864 12.8915502,27.4973983 12.8915502,28.1323973 L12.8915502,29.4383786 C12.8915502,29.4650133 12.8737434,29.4826522 12.8470333,29.4826522 L12.4908984,29.4826522 C12.4374782,29.4826522 12.4018647,29.5177535 12.4018647,29.5706701 L12.4018647,29.9578431 C12.4018647,30.0019403 12.4374782,30.0370416 12.4908984,30.0370416 L12.8470333,30.0370416 C12.8737434,30.0370416 12.8915502,30.0546805 12.8915502,30.0811388 L12.8915502,33.4854391 C12.8915502,33.5383557 12.9271637,33.5736334 12.9804059,33.5736334" id="Fill-29" fill="#000000"></path>
                    <path d="M15.7751747,28.5289189 C16.0335506,28.5289189 16.2561349,28.2999665 16.2561349,28.0445558 C16.2561349,27.7889687 16.0335506,27.5688357 15.7751747,27.5688357 C15.5084296,27.5688357 15.2951048,27.7889687 15.2951048,28.0445558 C15.2951048,28.2999665 15.5084296,28.5289189 15.7751747,28.5289189 Z M17.5302076,28.5289189 C17.7880493,28.5289189 18.0102775,28.2999665 18.0102775,28.0445558 C18.0102775,27.7889687 17.7880493,27.5688357 17.5302076,27.5688357 C17.2629284,27.5688357 17.0490693,27.7889687 17.0490693,28.0445558 C17.0490693,28.2999665 17.2629284,28.5289189 17.5302076,28.5289189 Z M17.5658211,29.5708465 L17.5658211,32.322509 C17.5658211,32.3930644 17.5569178,32.4371616 17.5213043,32.507717 C17.3074452,32.8781331 16.9778424,33.0897994 16.5859159,33.0897994 C16.0335506,33.0897994 15.7217545,32.7811194 15.7217545,32.2078563 L15.7217545,29.5708465 C15.7217545,29.5179299 15.686141,29.4826522 15.6327207,29.4826522 L15.1617323,29.4826522 C15.1084901,29.4826522 15.0728766,29.5179299 15.0728766,29.5708465 L15.0728766,32.3136895 C15.0728766,33.0633412 15.5438651,33.6618277 16.4521872,33.6618277 C16.9422289,33.6618277 17.2718317,33.4769725 17.5302076,33.1778174 C17.5747245,33.1337202 17.6101599,33.1513591 17.6101599,33.1952798 L17.6101599,33.4857919 C17.6101599,33.5383557 17.6457734,33.5736334 17.6991937,33.5736334 L18.1256652,33.5736334 C18.1790855,33.5736334 18.214699,33.5383557 18.214699,33.4856155 L18.214699,29.5708465 C18.214699,29.5179299 18.1790855,29.4826522 18.1256652,29.4826522 L17.6546768,29.4826522 C17.6014346,29.4826522 17.5658211,29.5179299 17.5658211,29.5708465 L17.5658211,29.5708465 Z" id="Fill-30" fill="#000000"></path>
                    <path d="M21.3575897,29.3944579 C20.8322907,29.3944579 20.4672524,29.6408728 20.2357647,29.913746 C20.2001512,29.9490237 20.1734411,29.9313848 20.1734411,29.8874641 L20.1734411,29.5708465 C20.1734411,29.5179299 20.1378276,29.4826522 20.0845854,29.4826522 L19.6579358,29.4826522 C19.6046936,29.4826522 19.5690801,29.5179299 19.5690801,29.5708465 L19.5690801,33.4856155 C19.5690801,33.5383557 19.6046936,33.5736334 19.6579358,33.5736334 L20.1289242,33.5736334 C20.1823444,33.5736334 20.2179579,33.5383557 20.2179579,33.4856155 L20.2179579,30.7514155 C20.2179579,30.6720406 20.2268613,30.6103046 20.2802815,30.5309297 C20.4850591,30.2310691 20.7966772,30.0105833 21.2596526,30.0105833 C21.3219762,30.0105833 21.4021066,30.0194027 21.4733336,30.0282222 C21.5356572,30.045861 21.5712707,30.0194027 21.5712707,29.9578431 L21.5712707,29.4912952 C21.5712707,29.4383786 21.5445605,29.4032773 21.4911403,29.4032773 C21.4466234,29.3944579 21.4021066,29.3944579 21.3575897,29.3944579" id="Fill-31" fill="#000000"></path>
                    <path d="M25.1059098,35.222867 L25.1059098,33.2217381 C25.1059098,33.1689979 25.1326199,33.1425396 25.1860402,33.1952798 C25.4798515,33.4857919 25.9073915,33.6618277 26.4597568,33.6618277 C27.6175514,33.6618277 28.498095,32.8074013 28.498095,31.528231 C28.498095,30.2488843 27.6175514,29.3944579 26.4597568,29.3944579 C25.8806814,29.3944579 25.4353346,29.5616743 25.1415233,29.8961071 C25.0970065,29.9490237 25.061393,29.9402043 25.061393,29.8784682 L25.061393,29.5704937 C25.061393,29.5179299 25.0257795,29.4826522 24.9725373,29.4826522 L24.5458876,29.4826522 C24.4926455,29.4826522 24.457032,29.5179299 24.457032,29.5708465 L24.457032,35.222867 C24.457032,35.2757836 24.4926455,35.3110613 24.5458876,35.3110613 L25.0168761,35.3110613 C25.0702963,35.3110613 25.1059098,35.2757836 25.1059098,35.222867 Z M26.370723,33.08098 C25.8094544,33.08098 25.3463009,32.8340359 25.1415233,32.4283421 C25.1148132,32.3754255 25.1059098,32.3401478 25.1059098,32.2872312 L25.1059098,30.7702891 C25.1059098,30.7173725 25.1148132,30.6820948 25.1415233,30.6291782 C25.3463009,30.222426 25.8094544,29.9753056 26.370723,29.9753056 C27.2525131,29.9753056 27.8403138,30.601838 27.8403138,31.528231 C27.8403138,32.4544476 27.2525131,33.08098 26.370723,33.08098 L26.370723,33.08098 Z" id="Fill-32" fill="#000000"></path>
                    <path d="M31.3388053,33.6618277 C32.5411168,33.6618277 33.4216604,32.7015681 33.4216604,31.528231 C33.4216604,30.3547175 32.5411168,29.3944579 31.3388053,29.3944579 C30.1363157,29.3944579 29.2559501,30.3547175 29.2559501,31.528231 C29.2559501,32.7015681 30.1363157,33.6618277 31.3388053,33.6618277 Z M31.3388053,33.0721606 C30.4926287,33.0721606 29.9137314,32.3750728 29.9137314,31.528231 C29.9137314,30.6812128 30.4926287,29.984125 31.3388053,29.984125 C32.1849819,29.984125 32.7638792,30.6812128 32.7638792,31.528231 C32.7638792,32.3750728 32.1849819,33.0721606 31.3388053,33.0721606 L31.3388053,33.0721606 Z" id="Fill-33" fill="#000000"></path>
                    <path d="M35.4961464,33.0368829 L35.3714991,33.0368829 C35.1756249,33.0368829 35.1043979,32.9134108 35.1043979,32.7193833 L35.1043979,27.2777944 C35.1043979,27.2248779 35.0687844,27.1896001 35.0153642,27.1896001 L34.5443758,27.1896001 C34.4911336,27.1896001 34.4555201,27.2248779 34.4555201,27.2777944 L34.4555201,32.7987582 C34.4555201,33.3624963 34.7933141,33.6089112 35.3358856,33.6089112 L35.4961464,33.6089112 C35.5495666,33.6089112 35.5851801,33.5738098 35.5851801,33.5208932 L35.5851801,33.1249008 C35.5851801,33.0719842 35.5495666,33.0368829 35.4961464,33.0368829" id="Fill-34" fill="#000000"></path>
                    <path d="M36.9395057,28.5289189 C37.1885094,28.5289189 37.4113116,28.2999665 37.4113116,28.0445558 C37.4113116,27.7889687 37.1885094,27.5688357 36.9395057,27.5688357 C36.6724996,27.5688357 36.4498757,27.7889687 36.4498757,28.0445558 C36.4498757,28.2999665 36.6724996,28.5289189 36.9395057,28.5289189 Z M36.6903238,33.5736334 L37.1617732,33.5736334 C37.2152457,33.5736334 37.250894,33.5383557 37.250894,33.4856155 L37.250894,29.5708465 C37.250894,29.5179299 37.2152457,29.4826522 37.1617732,29.4826522 L36.6903238,29.4826522 C36.6370295,29.4826522 36.6013812,29.5179299 36.6013812,29.5708465 L36.6013812,33.4856155 C36.6013812,33.5383557 36.6370295,33.5736334 36.6903238,33.5736334 L36.6903238,33.5736334 Z" id="Fill-35" fill="#000000"></path>
                    <path d="M38.8092696,27.9921683 L38.8092696,29.438555 C38.8092696,29.4650133 38.7914628,29.4826522 38.7647527,29.4826522 L38.2750672,29.4826522 C38.221647,29.4826522 38.1860335,29.5177535 38.1860335,29.5706701 L38.1860335,29.9490237 C38.1860335,30.0019403 38.221647,30.0370416 38.2750672,30.0370416 L38.7647527,30.0370416 C38.7914628,30.0370416 38.8092696,30.0546805 38.8092696,30.0811388 L38.8092696,33.4854391 C38.8092696,33.5383557 38.8448831,33.5736334 38.8981253,33.5736334 L39.3691137,33.5736334 C39.4225339,33.5736334 39.4581474,33.5383557 39.4581474,33.4854391 L39.4581474,30.0811388 C39.4581474,30.0546805 39.4759542,30.0370416 39.5026643,30.0370416 L39.9923498,30.0370416 C40.0457701,30.0370416 40.0813836,30.0019403 40.0813836,29.9490237 L40.0813836,29.5706701 C40.0813836,29.5177535 40.0457701,29.4826522 39.9923498,29.4826522 L39.5026643,29.4826522 C39.4759542,29.4826522 39.4581474,29.4650133 39.4581474,29.438555 L39.4581474,27.6923077 C39.4581474,27.6305717 39.4136306,27.6041134 39.351485,27.6305717 L38.8714151,27.8863352 C38.8270763,27.903974 38.8092696,27.9480712 38.8092696,27.9921683" id="Fill-36" fill="#000000"></path>
                    <path d="M41.3644822,28.5289189 C41.6134859,28.5289189 41.8362881,28.2999665 41.8362881,28.0445558 C41.8362881,27.7889687 41.6134859,27.5688357 41.3644822,27.5688357 C41.0974761,27.5688357 40.8748522,27.7889687 40.8748522,28.0445558 C40.8748522,28.2999665 41.0974761,28.5289189 41.3644822,28.5289189 Z M41.1153003,33.5736334 L41.5867496,33.5736334 C41.6402222,33.5736334 41.6758705,33.5383557 41.6758705,33.4856155 L41.6758705,29.5708465 C41.6758705,29.5179299 41.6402222,29.4826522 41.5867496,29.4826522 L41.1153003,29.4826522 C41.062006,29.4826522 41.0263576,29.5179299 41.0263576,29.5708465 L41.0263576,33.4856155 C41.0263576,33.5383557 41.062006,33.5736334 41.1153003,33.5736334 L41.1153003,33.5736334 Z" id="Fill-37" fill="#000000"></path>
                    <path d="M44.1327745,33.6706472 C45.0147426,33.6706472 45.5391513,33.1513591 45.5391513,32.4632671 C45.5391513,31.7487168 45.0590814,31.351666 44.4269419,31.228194 L44.0793543,31.1576385 C43.6874278,31.0782636 43.4735687,30.9105181 43.4735687,30.5489214 C43.4735687,30.2047872 43.7497514,29.9576667 44.1685661,29.9576667 C44.5515892,29.9576667 44.8010617,30.1783289 44.8902735,30.5222867 C44.8991769,30.5753797 44.9435157,30.601838 44.9969359,30.5841991 L45.4146822,30.4781895 C45.4679243,30.4605507 45.4946345,30.425273 45.4768277,30.3635369 C45.2991164,29.7377101 44.8099651,29.3944579 44.1685661,29.3944579 C43.384535,29.3944579 42.8335943,29.913746 42.8335943,30.5753797 C42.8335943,31.1576385 43.2157271,31.6164253 43.8209784,31.7310779 L44.1774694,31.8016334 C44.5962841,31.8810082 44.8991769,32.0575732 44.8991769,32.4632671 C44.8991769,32.8250401 44.6497043,33.1074383 44.1327745,33.1074383 C43.8031716,33.1074383 43.455762,32.904415 43.3401962,32.5073642 C43.3223895,32.4544476 43.2780507,32.4279893 43.2246304,32.4456282 L42.7979808,32.5957349 C42.7445605,32.6133738 42.7267538,32.6486515 42.7445605,32.7015681 C42.9313533,33.2658353 43.4023418,33.6706472 44.1327745,33.6706472" id="Fill-38" fill="#000000"></path>
                    <path d="M46.3237166,31.528231 C46.3237166,32.8074013 47.1862754,33.6618277 48.3882307,33.6618277 C49.0915972,33.6618277 49.7593502,33.3801351 50.0531615,32.7985818 C50.0798717,32.7456652 50.0620649,32.7015681 50.017548,32.6751098 L49.634703,32.4632671 C49.5901861,32.4368088 49.5456693,32.4456282 49.5100558,32.4985448 C49.2696647,32.8514984 48.8779163,33.0721606 48.3882307,33.0721606 C47.5335069,33.0721606 46.9814978,32.4456282 46.9814978,31.528231 C46.9814978,30.6106574 47.5335069,29.984125 48.3882307,29.984125 C48.8779163,29.984125 49.2874714,30.1959678 49.5100558,30.5577408 C49.5456693,30.6106574 49.5901861,30.6194768 49.634703,30.5930185 L50.017548,30.3811758 C50.0620649,30.3547175 50.0798717,30.3106204 50.0531615,30.2577038 C49.7148334,29.7024324 49.0915972,29.3944579 48.3882307,29.3944579 C47.1862754,29.3944579 46.3237166,30.2488843 46.3237166,31.528231" id="Fill-39" fill="#000000"></path>
                    <path d="M51.7180923,33.4854391 L51.7180923,30.7337767 C51.7180923,30.6632212 51.7269957,30.6191241 51.7626092,30.5485686 C51.9673868,30.1693331 52.3060711,29.9664862 52.6979976,29.9664862 C53.2503629,29.9664862 53.562159,30.2751662 53.562159,30.8484293 L53.562159,33.4854391 C53.562159,33.5383557 53.5977725,33.5736334 53.6510146,33.5736334 L54.1220031,33.5736334 C54.1754233,33.5736334 54.2110368,33.5383557 54.2110368,33.4854391 L54.2110368,30.7425961 C54.2110368,29.9929445 53.7398703,29.3944579 52.8226448,29.3944579 C52.3772981,29.3944579 52.0209851,29.5704937 51.7804159,29.8345475 C51.7448024,29.8784682 51.7180923,29.8696488 51.7180923,29.8169086 L51.7180923,27.2777944 C51.7180923,27.2248779 51.6824788,27.1896001 51.6290586,27.1896001 L51.1580702,27.1896001 C51.104828,27.1896001 51.0692145,27.2248779 51.0692145,27.2777944 L51.0692145,33.4854391 C51.0692145,33.5383557 51.104828,33.5736334 51.1580702,33.5736334 L51.6290586,33.5736334 C51.6824788,33.5736334 51.7180923,33.5383557 51.7180923,33.4854391" id="Fill-40" fill="#000000"></path>
                    <path d="M57.3277516,33.6706472 C57.9602473,33.6706472 58.5213379,33.4065934 58.9390841,32.9749705 C58.9746976,32.9396927 58.9746976,32.8955956 58.9390841,32.8603179 L58.645807,32.5424656 C58.6012901,32.4983684 58.5569514,32.5160073 58.4946277,32.5777433 C58.2095417,32.8691373 57.8176152,33.0897994 57.3277516,33.0897994 C56.5349953,33.0897994 56.0095182,32.5865627 55.9115811,31.8187431 C55.8937744,31.7305487 55.9293879,31.7039141 55.9917115,31.7039141 L59.1346022,31.7039141 C59.1880224,31.7039141 59.2147326,31.6776322 59.2236359,31.633535 C59.2325393,31.5631559 59.2325393,31.4927769 59.2325393,31.4312173 C59.2325393,30.2490607 58.3788839,29.3944579 57.2387179,29.3944579 C56.0985519,29.3944579 55.2270898,30.2314219 55.2270898,31.5280546 C55.2270898,32.8248637 56.0985519,33.6706472 57.3277516,33.6706472 Z M58.4590142,31.1936218 L56.0095182,31.1936218 C55.9293879,31.1936218 55.9115811,31.1669871 55.9293879,31.0964317 C56.0362283,30.4432646 56.5617054,29.9753056 57.2387179,29.9753056 C57.9244557,29.9753056 58.4234008,30.4256257 58.5391446,31.0876122 C58.5569514,31.1669871 58.5302412,31.1936218 58.4590142,31.1936218 L58.4590142,31.1936218 Z" id="Fill-41" fill="#000000"></path>
                    <path d="M64.6018076,27.4012665 L62.821489,27.4012665 C62.7682469,27.4012665 62.7326334,27.4363678 62.7326334,27.4892844 L62.7326334,33.4856155 C62.7326334,33.5385321 62.7682469,33.5736334 62.821489,33.5736334 L64.6196143,33.5736334 C65.8755241,33.5736334 66.524402,32.8338596 66.524402,31.8810082 C66.524402,31.236837 66.1688012,30.7074948 65.634955,30.4432646 C65.5815347,30.4169827 65.5726314,30.381705 65.634955,30.3464272 C66.0799456,30.0911929 66.3910294,29.6057714 66.3910294,29.0321556 C66.3910294,28.114582 65.7597803,27.4012665 64.6018076,27.4012665 Z M63.4349315,28.0262113 L64.5216772,28.0262113 C65.3055302,28.0262113 65.70636,28.432258 65.70636,29.0762528 C65.70636,29.720424 65.3055302,30.1176512 64.5216772,30.1176512 L63.4349315,30.1176512 C63.4082213,30.1176512 63.3904146,30.1000123 63.3904146,30.0733777 L63.3904146,28.0703085 C63.3904146,28.0438502 63.4082213,28.0262113 63.4349315,28.0262113 Z M63.4349315,30.7425961 L64.5572907,30.7425961 C65.4123706,30.7425961 65.8399106,31.1662816 65.8399106,31.8455541 C65.8399106,32.5250031 65.4123706,32.9486886 64.5572907,32.9486886 L63.4349315,32.9486886 C63.4082213,32.9486886 63.3904146,32.9310497 63.3904146,32.904415 L63.3904146,30.7866932 C63.3904146,30.7602349 63.4082213,30.7425961 63.4349315,30.7425961 L63.4349315,30.7425961 Z" id="Fill-42" fill="#000000"></path>
                    <path d="M68.0300849,28.5289189 C68.2790886,28.5289189 68.5018908,28.2999665 68.5018908,28.0445558 C68.5018908,27.7889687 68.2790886,27.5688357 68.0300849,27.5688357 C67.7630788,27.5688357 67.5404549,27.7889687 67.5404549,28.0445558 C67.5404549,28.2999665 67.7630788,28.5289189 68.0300849,28.5289189 Z M67.780903,33.5736334 L68.2523524,33.5736334 C68.3058249,33.5736334 68.3414732,33.5383557 68.3414732,33.4856155 L68.3414732,29.5708465 C68.3414732,29.5179299 68.3058249,29.4826522 68.2523524,29.4826522 L67.780903,29.4826522 C67.7276087,29.4826522 67.6919604,29.5179299 67.6919604,29.5708465 L67.6919604,33.4856155 C67.6919604,33.5383557 67.7276087,33.5736334 67.780903,33.5736334 L67.780903,33.5736334 Z" id="Fill-43" fill="#000000"></path>
                    <path d="M70.7089874,33.0368829 L70.5843401,33.0368829 C70.3884659,33.0368829 70.3172389,32.9134108 70.3172389,32.7193833 L70.3172389,27.2777944 C70.3172389,27.2248779 70.2816255,27.1896001 70.2282052,27.1896001 L69.7572168,27.1896001 C69.7039746,27.1896001 69.6683611,27.2248779 69.6683611,27.2777944 L69.6683611,32.7987582 C69.6683611,33.3624963 70.0061551,33.6089112 70.5487266,33.6089112 L70.7089874,33.6089112 C70.7624076,33.6089112 70.7980211,33.5738098 70.7980211,33.5208932 L70.7980211,33.1249008 C70.7980211,33.0719842 70.7624076,33.0368829 70.7089874,33.0368829" id="Fill-44" fill="#000000"></path>
                    <path d="M74.8768344,27.2777944 L74.8768344,29.8345475 C74.8768344,29.8872877 74.8501243,29.913746 74.7967041,29.8610058 C74.4938113,29.5704937 74.0662713,29.3944579 73.5140841,29.3944579 C72.3650148,29.3944579 71.4846492,30.2488843 71.4846492,31.528231 C71.4846492,32.8074013 72.3650148,33.6618277 73.5140841,33.6618277 C74.0929815,33.6618277 74.5383282,33.4857919 74.8323176,33.1601785 C74.8768344,33.1072619 74.9124479,33.1160814 74.9124479,33.1778174 L74.9124479,33.4857919 C74.9124479,33.5383557 74.9478833,33.5736334 75.0013036,33.5736334 L75.4366785,33.5736334 C75.4900988,33.5736334 75.5257123,33.5383557 75.5257123,33.4854391 L75.5257123,27.2777944 C75.5257123,27.2248779 75.4900988,27.1896001 75.4366785,27.1896001 L74.9656901,27.1896001 C74.9124479,27.1896001 74.8768344,27.2248779 74.8768344,27.2777944 Z M73.6120212,33.08098 C72.7302312,33.08098 72.1424305,32.4544476 72.1424305,31.528231 C72.1424305,30.601838 72.7302312,29.9753056 73.6120212,29.9753056 C74.1731118,29.9753056 74.6095552,30.2400649 74.8412209,30.6282963 C74.8679311,30.6812128 74.8768344,30.7164906 74.8768344,30.7694072 L74.8768344,32.2868785 C74.8768344,32.339795 74.8679311,32.3750728 74.8412209,32.4279893 C74.6095552,32.8162207 74.1731118,33.08098 73.6120212,33.08098 L73.6120212,33.08098 Z" id="Fill-45" fill="#000000"></path>
                    <path d="M79.3196177,29.5708465 L79.3196177,32.322509 C79.3196177,32.3930644 79.3107143,32.4371616 79.2751008,32.507717 C79.0612418,32.8781331 78.7316389,33.0897994 78.3397124,33.0897994 C77.7873471,33.0897994 77.475551,32.7811194 77.475551,32.2078563 L77.475551,29.5708465 C77.475551,29.5179299 77.4399375,29.4826522 77.3865173,29.4826522 L76.9155288,29.4826522 C76.8622867,29.4826522 76.8266732,29.5179299 76.8266732,29.5708465 L76.8266732,32.3136895 C76.8266732,33.0633412 77.2976616,33.6618277 78.2059837,33.6618277 C78.6960254,33.6618277 79.0256283,33.4769725 79.2840042,33.1778174 C79.328521,33.1337202 79.3639565,33.1513591 79.3639565,33.1952798 L79.3639565,33.4857919 C79.3639565,33.5383557 79.39957,33.5736334 79.4529902,33.5736334 L79.8794618,33.5736334 C79.932882,33.5736334 79.9684955,33.5383557 79.9684955,33.4856155 L79.9684955,29.5708465 C79.9684955,29.5179299 79.932882,29.4826522 79.8794618,29.4826522 L79.4084733,29.4826522 C79.3552312,29.4826522 79.3196177,29.5179299 79.3196177,29.5708465" id="Fill-46" fill="#000000"></path>
                    <path d="M81.9717545,33.4856155 L81.9717545,30.7337767 C81.9717545,30.6632212 81.9806578,30.6191241 82.0162713,30.5485686 C82.2299523,30.1781525 82.5597332,29.9664862 82.9516597,29.9664862 C83.504025,29.9664862 83.8158211,30.2751662 83.8158211,30.8484293 L83.8158211,33.4854391 C83.8158211,33.5383557 83.8514346,33.5736334 83.9046768,33.5736334 L84.3756652,33.5736334 C84.4290855,33.5736334 84.464699,33.5383557 84.464699,33.4854391 L84.464699,30.7425961 C84.464699,29.9929445 83.9935325,29.3944579 83.0763069,29.3944579 C82.5953467,29.3944579 82.2657439,29.5793131 81.9984646,29.8784682 C81.9628511,29.9225654 81.9272376,29.9049265 81.9272376,29.8610058 L81.9272376,29.5704937 C81.9272376,29.5179299 81.8916241,29.4826522 81.8383819,29.4826522 L81.4117323,29.4826522 C81.3584901,29.4826522 81.3228766,29.5179299 81.3228766,29.5708465 L81.3228766,33.4856155 C81.3228766,33.5383557 81.3584901,33.5736334 81.4117323,33.5736334 L81.8827207,33.5736334 C81.936141,33.5736334 81.9717545,33.5383557 81.9717545,33.4856155" id="Fill-47" fill="#000000"></path>
                    <path d="M87.5101868,35.3904362 C88.6590781,35.3904362 89.4862015,34.7919496 89.4862015,33.6972819 L89.4862015,29.5708465 C89.4862015,29.5179299 89.450588,29.4826522 89.3971677,29.4826522 L88.9617928,29.4826522 C88.9172759,29.4826522 88.8729371,29.5179299 88.8729371,29.5708465 L88.8729371,29.8618877 C88.8729371,29.9148043 88.8373236,29.9324432 88.7928067,29.888346 C88.489914,29.5704937 88.0534706,29.3944579 87.5012834,29.3944579 C86.3700208,29.3944579 85.4896553,30.2136066 85.4896553,31.4310409 C85.4896553,32.6662904 86.3522141,33.4854391 87.4656699,33.4854391 C88.0178571,33.4854391 88.4453971,33.3094033 88.7482899,33.0188912 C88.7928067,32.9749705 88.8373236,32.9926093 88.8373236,33.0365301 L88.8373236,33.6443653 C88.8373236,34.4388196 88.3296533,34.8007691 87.5101868,34.8007691 C86.9578215,34.8007691 86.5660731,34.5801069 86.3076972,34.271074 C86.2631804,34.2269769 86.2186635,34.2269769 86.18305,34.271074 L85.8806914,34.5977458 C85.845256,34.6330235 85.845256,34.6771206 85.8806914,34.7212178 C86.2364702,35.117563 86.7797541,35.3904362 87.5101868,35.3904362 Z M87.5903172,32.895772 C86.7352372,32.895772 86.1563399,32.3045173 86.1563399,31.4310409 C86.1563399,30.5753797 86.7352372,29.9753056 87.5903172,29.9753056 C88.1514077,29.9753056 88.5700443,30.2312455 88.8017101,30.5930185 C88.8373236,30.6459351 88.846227,30.6900323 88.846227,30.7517683 L88.846227,32.1193093 C88.846227,32.1810453 88.8373236,32.2251424 88.8017101,32.278059 C88.5700443,32.6398321 88.1514077,32.895772 87.5903172,32.895772 L87.5903172,32.895772 Z" id="Fill-48" fill="#000000"></path>
                </g>
            </g>
        </g>
    </g>
</svg>