<?xml version="1.0" encoding="utf-8"?>
<!-- Generator: Adobe Illustrator 24.3.0, SVG Export Plug-In . SVG Version: 6.00 Build 0)  -->
<svg version="1.1" id="Ebene_1" xmlns="http://www.w3.org/2000/svg" xmlns:xlink="http://www.w3.org/1999/xlink" x="0px" y="0px"
	 viewBox="0 0 75 62" style="enable-background:new 0 0 75 62;" xml:space="preserve">
<style type="text/css">
	.st0{fill:#FFFFFF;}
</style>
<circle class="st0" cx="38" cy="17.1" r="5.2"/>
<circle class="st0" cx="57.9" cy="45.9" r="5.2"/>
<circle class="st0" cx="16.9" cy="39" r="5.2"/>
<g id="Symbols">
	<g id="desktop_x2F_icon-leiste_x2F_small_x2F_variante-1" transform="translate(-368.000000, 1.000000)">
		<g id="Reiter" transform="translate(160.000000, -2.000000)">
			<g id="tuning" transform="translate(203.750000, 3.000000)">
				
					<g transform="translate(32.500000, 27.000000) rotate(-270.000000) translate(-32.500000, -27.000000) translate(6.000000, 1.000000)">
					<path d="M43.5-11.7c-3.9,0-7.1,2.8-7.8,6.4H2c-0.9,0-1.6,0.7-1.6,1.6S1.1-2.2,2-2.2h33.7c0.7,3.6,4,6.4,7.8,6.4
						c3.9,0,7.1-2.8,7.8-6.4H55c0.9,0,1.6-0.7,1.6-1.6S55.9-5.3,55-5.3h-3.7C50.6-9,47.4-11.7,43.5-11.7z M48.5-3.8c0,2.8-2.2,5-5,5
						s-5-2.2-5-5s2.2-5,5-5C46.3-8.7,48.5-6.5,48.5-3.8z"/>
					<path d="M14.5,8.3c-3.9,0-7.1,2.8-7.8,6.4H2c-0.9,0-1.6,0.7-1.6,1.6c0,0.9,0.7,1.6,1.6,1.6h4.7c0.7,3.7,4,6.5,7.8,6.5
						c3.9,0,7.1-2.8,7.8-6.5H55c0.9,0,1.6-0.7,1.6-1.6s-0.7-1.6-1.6-1.6H22.3C21.6,11,18.4,8.3,14.5,8.3z M19.5,16.3
						c0,2.8-2.2,5-5,5s-5-2.3-5-5c0-2.8,2.2-5,5-5S19.5,13.5,19.5,16.3z"/>
					<path d="M36.5,29.4c-3.9,0-7.1,2.8-7.8,6.5H2c-0.9,0-1.6,0.7-1.6,1.6s0.7,1.6,1.6,1.6h26.8c0.8,3.5,4,6.1,7.7,6.1
						s6.8-2.6,7.7-6.1h10.6c0.9,0,1.6-0.7,1.6-1.6s-0.7-1.6-1.6-1.6H44.3C43.6,32.2,40.4,29.4,36.5,29.4z M41.6,37.3
						c0,2.8-2.3,5.1-5.1,5.1s-5.1-2.3-5.1-5.1s2.3-5.1,5.1-5.1S41.6,34.4,41.6,37.3z"/>
				</g>
			</g>
		</g>
	</g>
</g>
</svg>
