<?xml version="1.0" encoding="UTF-8"?>
<svg width="956px" height="125px" viewBox="0 0 956 125" version="1.1" xmlns="http://www.w3.org/2000/svg" xmlns:xlink="http://www.w3.org/1999/xlink">
    <title>Logo</title>
    <g id="Symbols" stroke="none" stroke-width="1" fill="none" fill-rule="evenodd">
        <g id="Logo" transform="translate(2.000000, 1.000000)">
            <polygon id="Fill-1" stroke="#000000" stroke-width="2.2" fill="#000000" points="132.870849 3.79164547 106.210793 90.1844608 79.5436588 3.79164547 68.4563412 3.79164547 41.9260582 90.1844608 15.1291511 3.79164547 0 3.79164547 35.501124 118.791645 47.7870705 118.791645 73.9327541 33.4577535 100.217648 118.791645 112.498876 118.791645 148 3.79164547"></polygon>
            <g id="Group-15" transform="translate(146.000000, 0.791645)">
                <path d="M68.5730013,119.222247 L68.5730013,68.4980756 C68.5730013,48.9542538 56.0188706,40.4500948 35.0961042,40.4500948 C25.9788816,40.4500948 16.3673093,42.2547906 9.2392561,44.4777623 L12.3772002,56.2646818 C18.9544065,54.1756524 25.9788816,52.9842712 32.8550518,52.9842712 C47.4995759,52.9842712 54.524051,58.9505768 54.524051,70.1382809 L54.524051,74.3539375 C49.6864852,68.2207916 41.0706745,65.2153151 31.805147,65.2153151 C13.1257871,65.2153151 0.420997441,75.8367019 0.420997441,93.1152544 C0.420997441,109.82279 12.9751281,121.160885 31.0589143,121.160885 C41.4331977,121.160885 50.0960893,117.499797 55.1219788,110.899028 L55.1219788,119.222247 L68.5730013,119.222247 Z M53.1798904,92.9625132 C53.1798904,102.958836 45.5574874,109.970831 33.9002485,109.970831 C22.8409375,110.121223 15.2161805,103.109227 15.2161805,92.8144718 C15.2161805,82.6677575 22.6902785,76.1045864 33.9002485,76.1045864 C45.5574874,76.1045864 53.1798904,82.8204987 53.1798904,92.9625132 L53.1798904,92.9625132 Z" id="Fill-2" stroke="#000000" stroke-width="2.2" fill="#000000"></path>
                <path d="M128.562113,40.2999385 C117.51928,40.2999385 108.404412,44.8140279 103.157242,53.6589172 L103.157242,2.85250032 L88.2090458,2.85250032 L88.2090458,119.222482 L103.157242,119.222482 L103.157242,77.5993351 C103.157242,62.0831809 111.822487,53.4286305 124.826241,53.4286305 C135.885552,53.4286305 142.759368,61.0374913 142.759368,73.270885 L142.759368,119.222482 L157.70521,119.222482 L157.70521,68.3502691 C157.70521,51.4899925 146.346935,40.2999385 128.562113,40.2999385" id="Fill-4" stroke="#000000" stroke-width="2.2" fill="#000000"></path>
                <polygon id="Fill-6" stroke="#000000" stroke-width="2.2" fill="#000000" points="178.780283 119.222717 193.726125 119.222717 193.726125 2.85508517 178.780283 2.85508517"></polygon>
                <path d="M398.810667,60.8887449 C398.810667,26.0214578 372.911446,0.915507147 337.982103,0.915507147 C302.876205,0.915507147 276.854574,26.0825542 276.854574,61.0367863 C276.854574,95.9910184 302.756149,121.160415 337.683139,121.160415 C372.789036,121.160415 398.810667,95.9322718 398.810667,60.8887449 M383.266897,61.0367863 C383.266897,87.6677989 363.867199,106.837992 337.982103,106.837992 C311.918098,106.837992 292.398344,87.6067024 292.398344,60.8887449 C292.398344,34.3470271 311.856893,15.2379303 337.833798,15.2379303 C363.808348,15.2379303 383.266897,34.4081236 383.266897,61.0367863" id="Fill-8" stroke="#000000" stroke-width="2.2" fill="#000000"></path>
                <polygon id="Fill-9" stroke="#000000" stroke-width="2.2" fill="#000000" points="581.187369 2.85344027 537.98826 74.9049807 494.654969 2.85344027 481.500557 2.85344027 481.500557 119.221072 496.448753 119.221072 496.448753 33.4933214 533.960486 95.9480159 541.731194 95.9480159 579.393586 33.4627732 579.393586 119.221072 594.339428 119.221072 594.339428 2.85344027"></polygon>
                <path d="M679.627243,119.222247 L679.627243,68.4980756 C679.627243,48.9542538 667.073113,40.4500948 646.147992,40.4500948 C637.03077,40.4500948 627.421551,42.2547906 620.293498,44.4777623 L623.431442,56.2646818 C630.008648,54.1756524 637.03077,52.9842712 643.904586,52.9842712 C658.553818,52.9842712 665.578293,58.9505768 665.578293,70.1382809 L665.578293,74.3539375 C660.740727,68.2207916 652.124916,65.2153151 642.859389,65.2153151 C624.177675,65.2153151 611.475239,75.8367019 611.475239,93.1152544 C611.475239,109.82279 624.02937,121.160885 642.110802,121.160885 C652.48744,121.160885 661.147977,117.499797 666.176221,110.899028 L666.176221,119.222247 L679.627243,119.222247 Z M664.231778,92.9625132 C664.231778,102.958836 656.611729,109.970831 644.95449,109.970831 C633.892825,110.121223 626.270422,103.109227 626.270422,92.8144718 C626.270422,82.6677575 633.74452,76.1045864 644.95449,76.1045864 C656.611729,76.1045864 664.231778,82.8204987 664.231778,92.9625132 L664.231778,92.9625132 Z" id="Fill-10" stroke="#000000" stroke-width="2.2" fill="#000000"></path>
                <path d="M745.400483,105.57071 C742.891069,106.837287 739.602466,107.734935 735.565276,107.734935 C728.392496,107.734935 724.955588,104.449825 724.955588,97.141747 L724.955588,54.9193845 L748.119407,54.9193845 L748.119407,42.2395165 L724.955588,42.2395165 L724.955588,16.2805651 L710.0121,19.8617584 L710.0121,42.2395165 L692.375583,42.2395165 L692.375583,54.9193845 L710.0121,54.9193845 L710.0121,99.3788178 C710.0121,113.254767 717.933467,121.15971 731.980063,121.15971 C740.499358,121.15971 744.981463,119.815588 750.214508,116.83361 L745.400483,105.57071 Z" id="Fill-11" stroke="#000000" stroke-width="2.2" fill="#000000"></path>
                <polygon id="Fill-12" stroke="#000000" stroke-width="2.2" fill="#000000" points="211.864055 72.509764 262.09941 72.509764 262.09941 59.1272866 211.864055 59.1272866"></polygon>
                <polygon id="Fill-13" stroke="#000000" stroke-width="2.2" fill="#000000" points="413.57054 72.509764 463.805895 72.509764 463.805895 59.1272866 413.57054 59.1272866"></polygon>
                <path d="M782.963999,1 C768.649041,1 757.85103,11.7318304 757.85103,25.8169173 C757.85103,39.9607508 768.649041,50.7560276 782.963999,50.7560276 C797.128297,50.7560276 807.94985,40.0218472 807.94985,25.8169173 C807.94985,11.670734 797.215397,1 782.963999,1 M782.963999,45.1727499 C771.975309,45.1727499 763.75027,36.7954835 763.75027,25.8169173 C763.75027,14.8360012 771.975309,6.58327767 782.963999,6.58327767 C793.889129,6.58327767 802.048255,14.8360012 802.048255,25.8169173 C802.048255,36.7954835 793.849111,45.1727499 782.963999,45.1727499 M791.622182,21.2605303 C791.622182,16.346964 787.818043,13.0548041 781.72577,13.0548041 L774.049224,13.0548041 L774.049224,38.4168899 L779.635377,38.4168899 L779.635377,29.6518959 L786.765784,38.4168899 L793.769073,38.4168899 L785.701755,28.975135 C789.376422,27.8518998 791.622182,25.07671 791.622182,21.2605303 M785.732358,21.5989108 C785.732358,24.1485136 784.098649,25.3281455 781.224358,25.3281455 L779.635377,25.3281455 L779.635377,17.8814254 L781.149029,17.8814254 C784.030382,17.8814254 785.732358,19.1973495 785.732358,21.5989108" id="Fill-14-Copy" fill="#1D1D1B"></path>
            </g>
        </g>
    </g>
</svg>