<?xml version="1.0" encoding="utf-8"?>
<!-- Generator: Adobe Illustrator 24.3.0, SVG Export Plug-In . SVG Version: 6.00 Build 0)  -->
<svg version="1.1" id="Ebene_1" xmlns="http://www.w3.org/2000/svg" xmlns:xlink="http://www.w3.org/1999/xlink" x="0px" y="0px"
	 viewBox="0 0 75 62" style="enable-background:new 0 0 75 62;" xml:space="preserve">
<style type="text/css">
	.st0{fill-rule:evenodd;clip-rule:evenodd;fill:#FFFFFE;}
	.st1{fill:none;}
	.st2{fill:#1A1919;}
</style>
<g id="Symbols">
	<g id="desktop_x2F_icon-leiste_x2F_small_x2F_variante-1" transform="translate(-566.000000, -5.000000)">
		<g id="Reiter" transform="translate(160.000000, -3.000000)">
			<g id="parteienvergleich_1_" transform="translate(360.500000, 9.000000)">
				<g id="Group-29" transform="translate(48.000000, 0.000000)">
					<g id="parteienvergleich" transform="translate(0.000000, 0.396011)">
						<g id="Group-11" transform="translate(0.000000, 10.450000)">
						</g>
						<path id="Fill-12_1_" class="st0" d="M47.6,31c0,5.1,4.7,9.3,10.7,9.3s10.8-4,10.8-9.2L47.6,31z"/>
						<path id="Fill-12_2_" class="st0" d="M1.3,37.8c0,5.1,4.7,9.3,10.7,9.3s10.8-4,10.8-9.2L1.3,37.8z"/>
						<line id="Fill-16" class="st1" x1="41.4" y1="13.6" x2="58.6" y2="11"/>
						<line id="Fill-20" class="st1" x1="11.8" y1="17.9" x2="28.7" y2="15.5"/>
						<path class="st2" d="M59.7,10.4c-0.3-0.5-0.8-0.7-1.3-0.8c0,0,0,0-0.1,0l0,0l-15.6,2.3c-1.3-3.5-4.8-5.7-8.6-5.2
							c-2.1,0.3-3.9,1.4-5.2,3.1c-1,1.3-1.5,2.8-1.6,4.3l-15.2,2.4l0,0c0,0,0,0-0.1,0l-0.5,0.1l0,0c-0.3,0.1-0.6,0.3-0.8,0.6
							L-0.3,36.1h-0.1v1.7c0,6,5.5,10.9,12.3,11c0,0,0,0,0.1,0c6.8,0,12.3-4.8,12.3-10.9v-1.6l0,0l-9.9-17.2l13.1-2
							c1.1,3.3,4.1,5.4,7.6,5.4c0.4,0,0.7,0,1.1-0.1c3.9-0.5,6.7-3.8,6.9-7.7L55.6,13L46,29.3h-0.1V31c0,6,5.5,10.9,12.3,11
							c0,0,0,0,0.1,0c6.8,0,12.3-4.8,12.3-10.9v-1.6l0,0L59.7,10.4z M11.9,45.4L11.9,45.4c-4.3,0-8-2.6-8.9-6l17.8,0.1
							C19.9,42.9,16.3,45.4,11.9,45.4z M3.1,36.1l9-15.3l8.9,15.3H3.1z M35.9,19.6c-2.7,0.4-5.2-1.5-5.6-4.2v-0.1
							c-0.2-1.3,0.2-2.7,1-3.7s2-1.8,3.3-2c2.8-0.4,5.2,1.6,5.6,4.2S38.6,19.2,35.9,19.6z M58.3,38.7L58.3,38.7c-4.3,0-8-2.6-8.9-6
							l17.8,0.1C66.3,36.1,62.7,38.7,58.3,38.7z M49.4,29.4l9-15.3l8.9,15.3H49.4z"/>
					</g>
				</g>
			</g>
		</g>
	</g>
</g>
</svg>
