<?xml version="1.0" encoding="utf-8"?>
<!-- Generator: Adobe Illustrator 24.3.0, SVG Export Plug-In . SVG Version: 6.00 Build 0)  -->
<svg version="1.1" id="Ebene_1" xmlns="http://www.w3.org/2000/svg" xmlns:xlink="http://www.w3.org/1999/xlink" x="0px" y="0px"
	 viewBox="0 0 77 62" style="enable-background:new 0 0 77 62;" xml:space="preserve">
<style type="text/css">
	.st0{fill-rule:evenodd;clip-rule:evenodd;fill:#FFFFFF;}
	.st1{fill-rule:evenodd;clip-rule:evenodd;}
</style>
<g id="Symbols">
	<g id="desktop_x2F_icon-leiste_x2F_small_x2F_variante-1" transform="translate(-178.000000, -2.000000)">
		<g id="Reiter" transform="translate(160.000000, -3.000000)">
			<g id="Group-3" transform="translate(0.000000, 5.000000)">
				<g id="ranking" transform="translate(18.000000, 0.000000)">
					<g id="Group-2">
						<polygon id="Rectangle-Copy-11" class="st0" points="0,8.5 76.4,8.5 76.4,15.5 0,15.5 						"/>
						<path id="Rectangle-Copy-7" class="st1" d="M0,6.8h56.7c1.6,0,2.9,1.3,2.9,2.9s-1.3,2.9-2.9,2.9H0l0,0V6.8z"/>
						<polygon id="Rectangle-Copy-16" class="st0" points="0,48.8 76.4,48.8 76.4,55.8 0,55.8 						"/>
						<path id="Rectangle-Copy-9" class="st1" d="M0,47.1h46.6c1.6,0,2.9,1.3,2.9,2.9c0,1.6-1.3,2.9-2.9,2.9H0l0,0V47.1z"/>
						<polygon id="Rectangle-Copy-15" class="st0" points="0,28.6 76.4,28.6 76.4,35.6 0,35.6 						"/>
						<path id="Rectangle-Copy-8" class="st1" d="M0,26.9h51.7c1.6,0,2.9,1.3,2.9,2.9c0,1.6-1.3,2.9-2.9,2.9H0l0,0V26.9z"/>
					</g>
					<g id="Group-32" transform="translate(0.000000, 20.160000)">
					</g>
				</g>
			</g>
		</g>
	</g>
</g>
</svg>
