<?xml version="1.0" encoding="utf-8"?>
<!-- Generator: Adobe Illustrator 24.3.0, SVG Export Plug-In . SVG Version: 6.00 Build 0)  -->
<svg version="1.1" id="Ebene_1" xmlns="http://www.w3.org/2000/svg" xmlns:xlink="http://www.w3.org/1999/xlink" x="0px" y="0px"
	 viewBox="0 0 75 62" style="enable-background:new 0 0 75 62;" xml:space="preserve">
<style type="text/css">
	.st0{fill-rule:evenodd;clip-rule:evenodd;fill:#FFFFFF;}
	.st1{fill-rule:evenodd;clip-rule:evenodd;}
</style>
<g id="Symbols">
	<g id="desktop_x2F_icon-leiste_x2F_small_x2F_variante-1" transform="translate(-1047.000000, 1.000000)">
		<g id="Reiter" transform="translate(160.000000, -2.000000)">
			<g id="standpunkte" transform="translate(849.000000, 1.000000)">
				<g transform="translate(40.000000, 0.000000)">
					<g>
						<polygon id="Fill-1-Copy_1_" class="st0" points="63.5,29 50.1,29 50.1,19.5 50.1,19.5 42.5,29 7.5,29 7.5,57.5 63.5,57.5 
													"/>
						<path d="M63.5,59L63.5,59h-56C6.7,59,6,58.3,6,57.5V29c0-0.8,0.7-1.5,1.5-1.5l0,0h34.2l7.2-9c0.4-0.5,1.1-0.7,1.7-0.5
							s1,0.8,1,1.4v8h11.9c0.8,0,1.5,0.7,1.5,1.5v28.5c0,0.4-0.2,0.8-0.4,1.1C64.4,58.8,63.9,59,63.5,59z M9,56h53V30.5H50.1
							c-0.8,0-1.5-0.7-1.5-1.5v-5.3l-5,6.2c-0.3,0.4-0.7,0.6-1.1,0.6l0,0H9V56z"/>
					</g>
				</g>
			</g>
		</g>
	</g>
</g>
<g>
	<path id="Rectangle-Copy" class="st1" d="M16,2.5h9c0.6,0,1,0.4,1,1v9c0,0.6-0.4,1-1,1h-9c-0.6,0-1-0.4-1-1v-9
		C15,2.9,15.4,2.5,16,2.5z"/>
	<path id="Rectangle-Copy-2" class="st1" d="M33,2.5h9c0.6,0,1,0.4,1,1v9c0,0.6-0.4,1-1,1h-9c-0.6,0-1-0.4-1-1v-9
		C32,2.9,32.4,2.5,33,2.5z"/>
	<path id="Rectangle-Copy-3" class="st1" d="M50,2.5h9c0.6,0,1,0.4,1,1v9c0,0.6-0.4,1-1,1h-9c-0.6,0-1-0.4-1-1v-9
		C49,2.9,49.4,2.5,50,2.5z"/>
</g>
</svg>
