<?xml version="1.0" encoding="utf-8" standalone="no"?>
<!DOCTYPE svg PUBLIC "-//W3C//DTD SVG 1.1//EN"
  "http://www.w3.org/Graphics/SVG/1.1/DTD/svg11.dtd">
<svg height="602.4513pt" version="1.1" viewBox="0 0 603.8628 602.4513" width="603.8628pt" xmlns="http://www.w3.org/2000/svg" xmlns:xlink="http://www.w3.org/1999/xlink">
 <metadata>
  <rdf:RDF xmlns:cc="http://creativecommons.org/ns#" xmlns:dc="http://purl.org/dc/elements/1.1/" xmlns:rdf="http://www.w3.org/1999/02/22-rdf-syntax-ns#">
   <cc:Work>
    <dc:type rdf:resource="http://purl.org/dc/dcmitype/StillImage"/>
    <dc:date>2021-10-09T21:44:04.382821</dc:date>
    <dc:format>image/svg+xml</dc:format>
    <dc:creator>
     <cc:Agent>
      <dc:title>Matplotlib v3.4.3, https://matplotlib.org/</dc:title>
     </cc:Agent>
    </dc:creator>
   </cc:Work>
  </rdf:RDF>
 </metadata>
 <defs>
  <style type="text/css">*{stroke-linecap:butt;stroke-linejoin:round;}</style>
 </defs>
 <g id="figure_1">
  <g id="patch_1">
   <path d="M 0 602.4513 
L 603.8628 602.4513 
L 603.8628 0 
L 0 0 
z
" style="fill:#ffffff;"/>
  </g>
  <g id="axes_1">
   <g id="patch_2">
    <path d="M 38.6628 563.7885 
L 596.6628 563.7885 
L 596.6628 20.1885 
L 38.6628 20.1885 
z
" style="fill:#eaeaf2;"/>
   </g>
   <g id="matplotlib.axis_1">
    <g id="xtick_1">
     <g id="line2d_1">
      <path clip-path="url(#p3e7f060e57)" d="M 278.534539 563.7885 
L 278.534539 20.1885 
" style="fill:none;stroke:#ffffff;stroke-linecap:round;stroke-width:1.2;"/>
     </g>
    </g>
    <g id="xtick_2">
     <g id="line2d_2">
      <path clip-path="url(#p3e7f060e57)" d="M 84.277862 563.7885 
L 84.277862 20.1885 
" style="fill:none;stroke:#ffffff;stroke-linecap:round;stroke-width:0.3;"/>
     </g>
    </g>
    <g id="xtick_3">
     <g id="line2d_3">
      <path clip-path="url(#p3e7f060e57)" d="M 181.406201 563.7885 
L 181.406201 20.1885 
" style="fill:none;stroke:#ffffff;stroke-linecap:round;stroke-width:0.3;"/>
     </g>
    </g>
    <g id="xtick_4">
     <g id="line2d_4">
      <path clip-path="url(#p3e7f060e57)" d="M 375.662877 563.7885 
L 375.662877 20.1885 
" style="fill:none;stroke:#ffffff;stroke-linecap:round;stroke-width:0.3;"/>
     </g>
    </g>
    <g id="xtick_5">
     <g id="line2d_5">
      <path clip-path="url(#p3e7f060e57)" d="M 472.791216 563.7885 
L 472.791216 20.1885 
" style="fill:none;stroke:#ffffff;stroke-linecap:round;stroke-width:0.3;"/>
     </g>
    </g>
    <g id="xtick_6">
     <g id="line2d_6">
      <path clip-path="url(#p3e7f060e57)" d="M 569.919554 563.7885 
L 569.919554 20.1885 
" style="fill:none;stroke:#ffffff;stroke-linecap:round;stroke-width:0.3;"/>
     </g>
    </g>
    <g id="text_1">
     <!-- Komponente X (PC1) -->
     <g style="fill:#262626;" transform="translate(272.0418 583.077)scale(0.096 -0.096)">
      <defs>
       <path d="M 469 0 
L 469 4581 
L 1075 4581 
L 1075 2309 
L 3350 4581 
L 4172 4581 
L 2250 2725 
L 4256 0 
L 3456 0 
L 1825 2319 
L 1075 1588 
L 1075 0 
L 469 0 
z
" id="ArialMT-4b" transform="scale(0.015625)"/>
       <path d="M 213 1659 
Q 213 2581 725 3025 
Q 1153 3394 1769 3394 
Q 2453 3394 2887 2945 
Q 3322 2497 3322 1706 
Q 3322 1066 3130 698 
Q 2938 331 2570 128 
Q 2203 -75 1769 -75 
Q 1072 -75 642 372 
Q 213 819 213 1659 
z
M 791 1659 
Q 791 1022 1069 705 
Q 1347 388 1769 388 
Q 2188 388 2466 706 
Q 2744 1025 2744 1678 
Q 2744 2294 2464 2611 
Q 2184 2928 1769 2928 
Q 1347 2928 1069 2612 
Q 791 2297 791 1659 
z
" id="ArialMT-6f" transform="scale(0.015625)"/>
       <path d="M 422 0 
L 422 3319 
L 925 3319 
L 925 2853 
Q 1081 3097 1340 3245 
Q 1600 3394 1931 3394 
Q 2300 3394 2536 3241 
Q 2772 3088 2869 2813 
Q 3263 3394 3894 3394 
Q 4388 3394 4653 3120 
Q 4919 2847 4919 2278 
L 4919 0 
L 4359 0 
L 4359 2091 
Q 4359 2428 4304 2576 
Q 4250 2725 4106 2815 
Q 3963 2906 3769 2906 
Q 3419 2906 3187 2673 
Q 2956 2441 2956 1928 
L 2956 0 
L 2394 0 
L 2394 2156 
Q 2394 2531 2256 2718 
Q 2119 2906 1806 2906 
Q 1569 2906 1367 2781 
Q 1166 2656 1075 2415 
Q 984 2175 984 1722 
L 984 0 
L 422 0 
z
" id="ArialMT-6d" transform="scale(0.015625)"/>
       <path d="M 422 -1272 
L 422 3319 
L 934 3319 
L 934 2888 
Q 1116 3141 1344 3267 
Q 1572 3394 1897 3394 
Q 2322 3394 2647 3175 
Q 2972 2956 3137 2557 
Q 3303 2159 3303 1684 
Q 3303 1175 3120 767 
Q 2938 359 2589 142 
Q 2241 -75 1856 -75 
Q 1575 -75 1351 44 
Q 1128 163 984 344 
L 984 -1272 
L 422 -1272 
z
M 931 1641 
Q 931 1000 1190 694 
Q 1450 388 1819 388 
Q 2194 388 2461 705 
Q 2728 1022 2728 1688 
Q 2728 2322 2467 2637 
Q 2206 2953 1844 2953 
Q 1484 2953 1207 2617 
Q 931 2281 931 1641 
z
" id="ArialMT-70" transform="scale(0.015625)"/>
       <path d="M 422 0 
L 422 3319 
L 928 3319 
L 928 2847 
Q 1294 3394 1984 3394 
Q 2284 3394 2536 3286 
Q 2788 3178 2913 3003 
Q 3038 2828 3088 2588 
Q 3119 2431 3119 2041 
L 3119 0 
L 2556 0 
L 2556 2019 
Q 2556 2363 2490 2533 
Q 2425 2703 2258 2804 
Q 2091 2906 1866 2906 
Q 1506 2906 1245 2678 
Q 984 2450 984 1813 
L 984 0 
L 422 0 
z
" id="ArialMT-6e" transform="scale(0.015625)"/>
       <path d="M 2694 1069 
L 3275 997 
Q 3138 488 2766 206 
Q 2394 -75 1816 -75 
Q 1088 -75 661 373 
Q 234 822 234 1631 
Q 234 2469 665 2931 
Q 1097 3394 1784 3394 
Q 2450 3394 2872 2941 
Q 3294 2488 3294 1666 
Q 3294 1616 3291 1516 
L 816 1516 
Q 847 969 1125 678 
Q 1403 388 1819 388 
Q 2128 388 2347 550 
Q 2566 713 2694 1069 
z
M 847 1978 
L 2700 1978 
Q 2663 2397 2488 2606 
Q 2219 2931 1791 2931 
Q 1403 2931 1139 2672 
Q 875 2413 847 1978 
z
" id="ArialMT-65" transform="scale(0.015625)"/>
       <path d="M 1650 503 
L 1731 6 
Q 1494 -44 1306 -44 
Q 1000 -44 831 53 
Q 663 150 594 308 
Q 525 466 525 972 
L 525 2881 
L 113 2881 
L 113 3319 
L 525 3319 
L 525 4141 
L 1084 4478 
L 1084 3319 
L 1650 3319 
L 1650 2881 
L 1084 2881 
L 1084 941 
Q 1084 700 1114 631 
Q 1144 563 1211 522 
Q 1278 481 1403 481 
Q 1497 481 1650 503 
z
" id="ArialMT-74" transform="scale(0.015625)"/>
       <path id="ArialMT-20" transform="scale(0.015625)"/>
       <path d="M 28 0 
L 1800 2388 
L 238 4581 
L 959 4581 
L 1791 3406 
Q 2050 3041 2159 2844 
Q 2313 3094 2522 3366 
L 3444 4581 
L 4103 4581 
L 2494 2422 
L 4228 0 
L 3478 0 
L 2325 1634 
Q 2228 1775 2125 1941 
Q 1972 1691 1906 1597 
L 756 0 
L 28 0 
z
" id="ArialMT-58" transform="scale(0.015625)"/>
       <path d="M 1497 -1347 
Q 1031 -759 709 28 
Q 388 816 388 1659 
Q 388 2403 628 3084 
Q 909 3875 1497 4659 
L 1900 4659 
Q 1522 4009 1400 3731 
Q 1209 3300 1100 2831 
Q 966 2247 966 1656 
Q 966 153 1900 -1347 
L 1497 -1347 
z
" id="ArialMT-28" transform="scale(0.015625)"/>
       <path d="M 494 0 
L 494 4581 
L 2222 4581 
Q 2678 4581 2919 4538 
Q 3256 4481 3484 4323 
Q 3713 4166 3852 3881 
Q 3991 3597 3991 3256 
Q 3991 2672 3619 2267 
Q 3247 1863 2275 1863 
L 1100 1863 
L 1100 0 
L 494 0 
z
M 1100 2403 
L 2284 2403 
Q 2872 2403 3119 2622 
Q 3366 2841 3366 3238 
Q 3366 3525 3220 3729 
Q 3075 3934 2838 4000 
Q 2684 4041 2272 4041 
L 1100 4041 
L 1100 2403 
z
" id="ArialMT-50" transform="scale(0.015625)"/>
       <path d="M 3763 1606 
L 4369 1453 
Q 4178 706 3683 314 
Q 3188 -78 2472 -78 
Q 1731 -78 1267 223 
Q 803 525 561 1097 
Q 319 1669 319 2325 
Q 319 3041 592 3573 
Q 866 4106 1370 4382 
Q 1875 4659 2481 4659 
Q 3169 4659 3637 4309 
Q 4106 3959 4291 3325 
L 3694 3184 
Q 3534 3684 3231 3912 
Q 2928 4141 2469 4141 
Q 1941 4141 1586 3887 
Q 1231 3634 1087 3207 
Q 944 2781 944 2328 
Q 944 1744 1114 1308 
Q 1284 872 1643 656 
Q 2003 441 2422 441 
Q 2931 441 3284 734 
Q 3638 1028 3763 1606 
z
" id="ArialMT-43" transform="scale(0.015625)"/>
       <path d="M 2384 0 
L 1822 0 
L 1822 3584 
Q 1619 3391 1289 3197 
Q 959 3003 697 2906 
L 697 3450 
Q 1169 3672 1522 3987 
Q 1875 4303 2022 4600 
L 2384 4600 
L 2384 0 
z
" id="ArialMT-31" transform="scale(0.015625)"/>
       <path d="M 791 -1347 
L 388 -1347 
Q 1322 153 1322 1656 
Q 1322 2244 1188 2822 
Q 1081 3291 891 3722 
Q 769 4003 388 4659 
L 791 4659 
Q 1378 3875 1659 3084 
Q 1900 2403 1900 1659 
Q 1900 816 1576 28 
Q 1253 -759 791 -1347 
z
" id="ArialMT-29" transform="scale(0.015625)"/>
      </defs>
      <use xlink:href="#ArialMT-4b"/>
      <use x="66.699219" xlink:href="#ArialMT-6f"/>
      <use x="122.314453" xlink:href="#ArialMT-6d"/>
      <use x="205.615234" xlink:href="#ArialMT-70"/>
      <use x="261.230469" xlink:href="#ArialMT-6f"/>
      <use x="316.845703" xlink:href="#ArialMT-6e"/>
      <use x="372.460938" xlink:href="#ArialMT-65"/>
      <use x="428.076172" xlink:href="#ArialMT-6e"/>
      <use x="483.691406" xlink:href="#ArialMT-74"/>
      <use x="511.474609" xlink:href="#ArialMT-65"/>
      <use x="567.089844" xlink:href="#ArialMT-20"/>
      <use x="594.873047" xlink:href="#ArialMT-58"/>
      <use x="661.572266" xlink:href="#ArialMT-20"/>
      <use x="689.355469" xlink:href="#ArialMT-28"/>
      <use x="722.65625" xlink:href="#ArialMT-50"/>
      <use x="789.355469" xlink:href="#ArialMT-43"/>
      <use x="861.572266" xlink:href="#ArialMT-31"/>
      <use x="917.1875" xlink:href="#ArialMT-29"/>
     </g>
     <!-- 37% Varianzanteil -->
     <g style="fill:#262626;" transform="translate(279.32805 593.3433)scale(0.096 -0.096)">
      <defs>
       <path d="M 269 1209 
L 831 1284 
Q 928 806 1161 595 
Q 1394 384 1728 384 
Q 2125 384 2398 659 
Q 2672 934 2672 1341 
Q 2672 1728 2419 1979 
Q 2166 2231 1775 2231 
Q 1616 2231 1378 2169 
L 1441 2663 
Q 1497 2656 1531 2656 
Q 1891 2656 2178 2843 
Q 2466 3031 2466 3422 
Q 2466 3731 2256 3934 
Q 2047 4138 1716 4138 
Q 1388 4138 1169 3931 
Q 950 3725 888 3313 
L 325 3413 
Q 428 3978 793 4289 
Q 1159 4600 1703 4600 
Q 2078 4600 2393 4439 
Q 2709 4278 2876 4000 
Q 3044 3722 3044 3409 
Q 3044 3113 2884 2869 
Q 2725 2625 2413 2481 
Q 2819 2388 3044 2092 
Q 3269 1797 3269 1353 
Q 3269 753 2831 336 
Q 2394 -81 1725 -81 
Q 1122 -81 723 278 
Q 325 638 269 1209 
z
" id="ArialMT-33" transform="scale(0.015625)"/>
       <path d="M 303 3981 
L 303 4522 
L 3269 4522 
L 3269 4084 
Q 2831 3619 2401 2847 
Q 1972 2075 1738 1259 
Q 1569 684 1522 0 
L 944 0 
Q 953 541 1156 1306 
Q 1359 2072 1739 2783 
Q 2119 3494 2547 3981 
L 303 3981 
z
" id="ArialMT-37" transform="scale(0.015625)"/>
       <path d="M 372 3481 
Q 372 3972 619 4315 
Q 866 4659 1334 4659 
Q 1766 4659 2048 4351 
Q 2331 4044 2331 3447 
Q 2331 2866 2045 2552 
Q 1759 2238 1341 2238 
Q 925 2238 648 2547 
Q 372 2856 372 3481 
z
M 1350 4272 
Q 1141 4272 1002 4090 
Q 863 3909 863 3425 
Q 863 2984 1003 2804 
Q 1144 2625 1350 2625 
Q 1563 2625 1702 2806 
Q 1841 2988 1841 3469 
Q 1841 3913 1700 4092 
Q 1559 4272 1350 4272 
z
M 1353 -169 
L 3859 4659 
L 4316 4659 
L 1819 -169 
L 1353 -169 
z
M 3334 1075 
Q 3334 1569 3581 1911 
Q 3828 2253 4300 2253 
Q 4731 2253 5014 1945 
Q 5297 1638 5297 1041 
Q 5297 459 5011 145 
Q 4725 -169 4303 -169 
Q 3888 -169 3611 142 
Q 3334 453 3334 1075 
z
M 4316 1866 
Q 4103 1866 3964 1684 
Q 3825 1503 3825 1019 
Q 3825 581 3965 400 
Q 4106 219 4313 219 
Q 4528 219 4667 400 
Q 4806 581 4806 1063 
Q 4806 1506 4665 1686 
Q 4525 1866 4316 1866 
z
" id="ArialMT-25" transform="scale(0.015625)"/>
       <path d="M 1803 0 
L 28 4581 
L 684 4581 
L 1875 1253 
Q 2019 853 2116 503 
Q 2222 878 2363 1253 
L 3600 4581 
L 4219 4581 
L 2425 0 
L 1803 0 
z
" id="ArialMT-56" transform="scale(0.015625)"/>
       <path d="M 2588 409 
Q 2275 144 1986 34 
Q 1697 -75 1366 -75 
Q 819 -75 525 192 
Q 231 459 231 875 
Q 231 1119 342 1320 
Q 453 1522 633 1644 
Q 813 1766 1038 1828 
Q 1203 1872 1538 1913 
Q 2219 1994 2541 2106 
Q 2544 2222 2544 2253 
Q 2544 2597 2384 2738 
Q 2169 2928 1744 2928 
Q 1347 2928 1158 2789 
Q 969 2650 878 2297 
L 328 2372 
Q 403 2725 575 2942 
Q 747 3159 1072 3276 
Q 1397 3394 1825 3394 
Q 2250 3394 2515 3294 
Q 2781 3194 2906 3042 
Q 3031 2891 3081 2659 
Q 3109 2516 3109 2141 
L 3109 1391 
Q 3109 606 3145 398 
Q 3181 191 3288 0 
L 2700 0 
Q 2613 175 2588 409 
z
M 2541 1666 
Q 2234 1541 1622 1453 
Q 1275 1403 1131 1340 
Q 988 1278 909 1158 
Q 831 1038 831 891 
Q 831 666 1001 516 
Q 1172 366 1500 366 
Q 1825 366 2078 508 
Q 2331 650 2450 897 
Q 2541 1088 2541 1459 
L 2541 1666 
z
" id="ArialMT-61" transform="scale(0.015625)"/>
       <path d="M 416 0 
L 416 3319 
L 922 3319 
L 922 2816 
Q 1116 3169 1280 3281 
Q 1444 3394 1641 3394 
Q 1925 3394 2219 3213 
L 2025 2691 
Q 1819 2813 1613 2813 
Q 1428 2813 1281 2702 
Q 1134 2591 1072 2394 
Q 978 2094 978 1738 
L 978 0 
L 416 0 
z
" id="ArialMT-72" transform="scale(0.015625)"/>
       <path d="M 425 3934 
L 425 4581 
L 988 4581 
L 988 3934 
L 425 3934 
z
M 425 0 
L 425 3319 
L 988 3319 
L 988 0 
L 425 0 
z
" id="ArialMT-69" transform="scale(0.015625)"/>
       <path d="M 125 0 
L 125 456 
L 2238 2881 
Q 1878 2863 1603 2863 
L 250 2863 
L 250 3319 
L 2963 3319 
L 2963 2947 
L 1166 841 
L 819 456 
Q 1197 484 1528 484 
L 3063 484 
L 3063 0 
L 125 0 
z
" id="ArialMT-7a" transform="scale(0.015625)"/>
       <path d="M 409 0 
L 409 4581 
L 972 4581 
L 972 0 
L 409 0 
z
" id="ArialMT-6c" transform="scale(0.015625)"/>
      </defs>
      <use xlink:href="#ArialMT-33"/>
      <use x="55.615234" xlink:href="#ArialMT-37"/>
      <use x="111.230469" xlink:href="#ArialMT-25"/>
      <use x="200.146484" xlink:href="#ArialMT-20"/>
      <use x="227.929688" xlink:href="#ArialMT-56"/>
      <use x="287.253906" xlink:href="#ArialMT-61"/>
      <use x="342.869141" xlink:href="#ArialMT-72"/>
      <use x="376.169922" xlink:href="#ArialMT-69"/>
      <use x="398.386719" xlink:href="#ArialMT-61"/>
      <use x="454.001953" xlink:href="#ArialMT-6e"/>
      <use x="509.617188" xlink:href="#ArialMT-7a"/>
      <use x="559.617188" xlink:href="#ArialMT-61"/>
      <use x="615.232422" xlink:href="#ArialMT-6e"/>
      <use x="670.847656" xlink:href="#ArialMT-74"/>
      <use x="698.630859" xlink:href="#ArialMT-65"/>
      <use x="754.246094" xlink:href="#ArialMT-69"/>
      <use x="776.462891" xlink:href="#ArialMT-6c"/>
     </g>
    </g>
   </g>
   <g id="matplotlib.axis_2">
    <g id="ytick_1">
     <g id="line2d_7">
      <path clip-path="url(#p3e7f060e57)" d="M 38.6628 304.705802 
L 596.6628 304.705802 
" style="fill:none;stroke:#ffffff;stroke-linecap:round;stroke-width:1.2;"/>
     </g>
    </g>
    <g id="ytick_2">
     <g id="line2d_8">
      <path clip-path="url(#p3e7f060e57)" d="M 38.6628 558.16841 
L 596.6628 558.16841 
" style="fill:none;stroke:#ffffff;stroke-linecap:round;stroke-width:0.3;"/>
     </g>
    </g>
    <g id="ytick_3">
     <g id="line2d_9">
      <path clip-path="url(#p3e7f060e57)" d="M 38.6628 494.802758 
L 596.6628 494.802758 
" style="fill:none;stroke:#ffffff;stroke-linecap:round;stroke-width:0.3;"/>
     </g>
    </g>
    <g id="ytick_4">
     <g id="line2d_10">
      <path clip-path="url(#p3e7f060e57)" d="M 38.6628 431.437106 
L 596.6628 431.437106 
" style="fill:none;stroke:#ffffff;stroke-linecap:round;stroke-width:0.3;"/>
     </g>
    </g>
    <g id="ytick_5">
     <g id="line2d_11">
      <path clip-path="url(#p3e7f060e57)" d="M 38.6628 368.071454 
L 596.6628 368.071454 
" style="fill:none;stroke:#ffffff;stroke-linecap:round;stroke-width:0.3;"/>
     </g>
    </g>
    <g id="ytick_6">
     <g id="line2d_12">
      <path clip-path="url(#p3e7f060e57)" d="M 38.6628 241.34015 
L 596.6628 241.34015 
" style="fill:none;stroke:#ffffff;stroke-linecap:round;stroke-width:0.3;"/>
     </g>
    </g>
    <g id="ytick_7">
     <g id="line2d_13">
      <path clip-path="url(#p3e7f060e57)" d="M 38.6628 177.974498 
L 596.6628 177.974498 
" style="fill:none;stroke:#ffffff;stroke-linecap:round;stroke-width:0.3;"/>
     </g>
    </g>
    <g id="ytick_8">
     <g id="line2d_14">
      <path clip-path="url(#p3e7f060e57)" d="M 38.6628 114.608846 
L 596.6628 114.608846 
" style="fill:none;stroke:#ffffff;stroke-linecap:round;stroke-width:0.3;"/>
     </g>
    </g>
    <g id="ytick_9">
     <g id="line2d_15">
      <path clip-path="url(#p3e7f060e57)" d="M 38.6628 51.243194 
L 596.6628 51.243194 
" style="fill:none;stroke:#ffffff;stroke-linecap:round;stroke-width:0.3;"/>
     </g>
    </g>
    <g id="text_2">
     <!-- Komponente Y (PC2) -->
     <g style="fill:#262626;" transform="translate(14.1885 337.4415)rotate(-90)scale(0.096 -0.096)">
      <defs>
       <path d="M 1784 0 
L 1784 1941 
L 19 4581 
L 756 4581 
L 1659 3200 
Q 1909 2813 2125 2425 
Q 2331 2784 2625 3234 
L 3513 4581 
L 4219 4581 
L 2391 1941 
L 2391 0 
L 1784 0 
z
" id="ArialMT-59" transform="scale(0.015625)"/>
       <path d="M 3222 541 
L 3222 0 
L 194 0 
Q 188 203 259 391 
Q 375 700 629 1000 
Q 884 1300 1366 1694 
Q 2113 2306 2375 2664 
Q 2638 3022 2638 3341 
Q 2638 3675 2398 3904 
Q 2159 4134 1775 4134 
Q 1369 4134 1125 3890 
Q 881 3647 878 3216 
L 300 3275 
Q 359 3922 746 4261 
Q 1134 4600 1788 4600 
Q 2447 4600 2831 4234 
Q 3216 3869 3216 3328 
Q 3216 3053 3103 2787 
Q 2991 2522 2730 2228 
Q 2469 1934 1863 1422 
Q 1356 997 1212 845 
Q 1069 694 975 541 
L 3222 541 
z
" id="ArialMT-32" transform="scale(0.015625)"/>
      </defs>
      <use xlink:href="#ArialMT-4b"/>
      <use x="66.699219" xlink:href="#ArialMT-6f"/>
      <use x="122.314453" xlink:href="#ArialMT-6d"/>
      <use x="205.615234" xlink:href="#ArialMT-70"/>
      <use x="261.230469" xlink:href="#ArialMT-6f"/>
      <use x="316.845703" xlink:href="#ArialMT-6e"/>
      <use x="372.460938" xlink:href="#ArialMT-65"/>
      <use x="428.076172" xlink:href="#ArialMT-6e"/>
      <use x="483.691406" xlink:href="#ArialMT-74"/>
      <use x="511.474609" xlink:href="#ArialMT-65"/>
      <use x="567.089844" xlink:href="#ArialMT-20"/>
      <use x="593.123047" xlink:href="#ArialMT-59"/>
      <use x="658.072266" xlink:href="#ArialMT-20"/>
      <use x="685.855469" xlink:href="#ArialMT-28"/>
      <use x="719.15625" xlink:href="#ArialMT-50"/>
      <use x="785.855469" xlink:href="#ArialMT-43"/>
      <use x="858.072266" xlink:href="#ArialMT-32"/>
      <use x="913.6875" xlink:href="#ArialMT-29"/>
     </g>
     <!-- 11% Varianzanteil -->
     <g style="fill:#262626;" transform="translate(24.4548 329.96925)rotate(-90)scale(0.096 -0.096)">
      <use xlink:href="#ArialMT-31"/>
      <use x="48.240234" xlink:href="#ArialMT-31"/>
      <use x="103.855469" xlink:href="#ArialMT-25"/>
      <use x="192.771484" xlink:href="#ArialMT-20"/>
      <use x="220.554688" xlink:href="#ArialMT-56"/>
      <use x="279.878906" xlink:href="#ArialMT-61"/>
      <use x="335.494141" xlink:href="#ArialMT-72"/>
      <use x="368.794922" xlink:href="#ArialMT-69"/>
      <use x="391.011719" xlink:href="#ArialMT-61"/>
      <use x="446.626953" xlink:href="#ArialMT-6e"/>
      <use x="502.242188" xlink:href="#ArialMT-7a"/>
      <use x="552.242188" xlink:href="#ArialMT-61"/>
      <use x="607.857422" xlink:href="#ArialMT-6e"/>
      <use x="663.472656" xlink:href="#ArialMT-74"/>
      <use x="691.255859" xlink:href="#ArialMT-65"/>
      <use x="746.871094" xlink:href="#ArialMT-69"/>
      <use x="769.087891" xlink:href="#ArialMT-6c"/>
     </g>
    </g>
   </g>
   <g id="PathCollection_1">
    <defs>
     <path d="M 0 2.4 
C 0.636487 2.4 1.246992 2.147121 1.697056 1.697056 
C 2.147121 1.246992 2.4 0.636487 2.4 -0 
C 2.4 -0.636487 2.147121 -1.246992 1.697056 -1.697056 
C 1.246992 -2.147121 0.636487 -2.4 0 -2.4 
C -0.636487 -2.4 -1.246992 -2.147121 -1.697056 -1.697056 
C -2.147121 -1.246992 -2.4 -0.636487 -2.4 0 
C -2.4 0.636487 -2.147121 1.246992 -1.697056 1.697056 
C -1.246992 2.147121 -0.636487 2.4 0 2.4 
z
" id="C0_0_4ec54f6d92"/>
    </defs>
    <g clip-path="url(#p3e7f060e57)">
     <use style="fill:#023eff;stroke:#ffffff;stroke-width:0.384;" x="571.299164" xlink:href="#C0_0_4ec54f6d92" y="293.365868"/>
    </g>
    <g clip-path="url(#p3e7f060e57)">
     <use style="fill:#023eff;stroke:#ffffff;stroke-width:0.384;" x="510.444699" xlink:href="#C0_0_4ec54f6d92" y="262.611126"/>
    </g>
    <g clip-path="url(#p3e7f060e57)">
     <use style="fill:#023eff;stroke:#ffffff;stroke-width:0.384;" x="447.793971" xlink:href="#C0_0_4ec54f6d92" y="343.741357"/>
    </g>
    <g clip-path="url(#p3e7f060e57)">
     <use style="fill:#1ac938;stroke:#ffffff;stroke-width:0.384;" x="384.211531" xlink:href="#C0_0_4ec54f6d92" y="349.233608"/>
    </g>
    <g clip-path="url(#p3e7f060e57)">
     <use style="fill:#1ac938;stroke:#ffffff;stroke-width:0.384;" x="420.8153" xlink:href="#C0_0_4ec54f6d92" y="437.228452"/>
    </g>
    <g clip-path="url(#p3e7f060e57)">
     <use style="fill:#023eff;stroke:#ffffff;stroke-width:0.384;" x="488.674071" xlink:href="#C0_0_4ec54f6d92" y="242.153697"/>
    </g>
    <g clip-path="url(#p3e7f060e57)">
     <use style="fill:#9f4800;stroke:#ffffff;stroke-width:0.384;" x="484.846609" xlink:href="#C0_0_4ec54f6d92" y="128.414601"/>
    </g>
    <g clip-path="url(#p3e7f060e57)">
     <use style="fill:#ff7c00;stroke:#ffffff;stroke-width:0.384;" x="64.026436" xlink:href="#C0_0_4ec54f6d92" y="346.416448"/>
    </g>
    <g clip-path="url(#p3e7f060e57)">
     <use style="fill:#ff7c00;stroke:#ffffff;stroke-width:0.384;" x="128.706099" xlink:href="#C0_0_4ec54f6d92" y="406.219024"/>
    </g>
    <g clip-path="url(#p3e7f060e57)">
     <use style="fill:#ff7c00;stroke:#ffffff;stroke-width:0.384;" x="90.212751" xlink:href="#C0_0_4ec54f6d92" y="308.051335"/>
    </g>
    <g clip-path="url(#p3e7f060e57)">
     <use style="fill:#1ac938;stroke:#ffffff;stroke-width:0.384;" x="355.598238" xlink:href="#C0_0_4ec54f6d92" y="394.166067"/>
    </g>
    <g clip-path="url(#p3e7f060e57)">
     <use style="fill:#e8000b;stroke:#ffffff;stroke-width:0.384;" x="249.379967" xlink:href="#C0_0_4ec54f6d92" y="156.280036"/>
    </g>
    <g clip-path="url(#p3e7f060e57)">
     <use style="fill:#ff7c00;stroke:#ffffff;stroke-width:0.384;" x="96.011994" xlink:href="#C0_0_4ec54f6d92" y="277.617127"/>
    </g>
    <g clip-path="url(#p3e7f060e57)">
     <use style="fill:#9f4800;stroke:#ffffff;stroke-width:0.384;" x="401.249047" xlink:href="#C0_0_4ec54f6d92" y="44.897591"/>
    </g>
    <g clip-path="url(#p3e7f060e57)">
     <use style="fill:#9f4800;stroke:#ffffff;stroke-width:0.384;" x="415.117837" xlink:href="#C0_0_4ec54f6d92" y="132.20944"/>
    </g>
    <g clip-path="url(#p3e7f060e57)">
     <use style="fill:#ff7c00;stroke:#ffffff;stroke-width:0.384;" x="76.724861" xlink:href="#C0_0_4ec54f6d92" y="247.684837"/>
    </g>
    <g clip-path="url(#p3e7f060e57)">
     <use style="fill:#1ac938;stroke:#ffffff;stroke-width:0.384;" x="441.557465" xlink:href="#C0_0_4ec54f6d92" y="539.079409"/>
    </g>
    <g clip-path="url(#p3e7f060e57)">
     <use style="fill:#e8000b;stroke:#ffffff;stroke-width:0.384;" x="350.461421" xlink:href="#C0_0_4ec54f6d92" y="233.462232"/>
    </g>
    <g clip-path="url(#p3e7f060e57)">
     <use style="fill:#023eff;stroke:#ffffff;stroke-width:0.384;" x="513.084584" xlink:href="#C0_0_4ec54f6d92" y="249.828638"/>
    </g>
    <g clip-path="url(#p3e7f060e57)">
     <use style="fill:#8b2be2;stroke:#ffffff;stroke-width:0.384;" x="192.422338" xlink:href="#C0_0_4ec54f6d92" y="329.667931"/>
    </g>
    <g clip-path="url(#p3e7f060e57)">
     <use style="fill:#1ac938;stroke:#ffffff;stroke-width:0.384;" x="305.741781" xlink:href="#C0_0_4ec54f6d92" y="480.465194"/>
    </g>
    <g clip-path="url(#p3e7f060e57)">
     <use style="fill:#ff7c00;stroke:#ffffff;stroke-width:0.384;" x="138.691247" xlink:href="#C0_0_4ec54f6d92" y="369.246136"/>
    </g>
    <g clip-path="url(#p3e7f060e57)">
     <use style="fill:#1ac938;stroke:#ffffff;stroke-width:0.384;" x="441.317761" xlink:href="#C0_0_4ec54f6d92" y="527.715001"/>
    </g>
    <g clip-path="url(#p3e7f060e57)">
     <use style="fill:#8b2be2;stroke:#ffffff;stroke-width:0.384;" x="198.662956" xlink:href="#C0_0_4ec54f6d92" y="244.646928"/>
    </g>
    <g clip-path="url(#p3e7f060e57)">
     <use style="fill:#e8000b;stroke:#ffffff;stroke-width:0.384;" x="279.19951" xlink:href="#C0_0_4ec54f6d92" y="180.492604"/>
    </g>
    <g clip-path="url(#p3e7f060e57)">
     <use style="fill:#ff7c00;stroke:#ffffff;stroke-width:0.384;" x="129.003266" xlink:href="#C0_0_4ec54f6d92" y="372.528085"/>
    </g>
    <g clip-path="url(#p3e7f060e57)">
     <use style="fill:#8b2be2;stroke:#ffffff;stroke-width:0.384;" x="208.065533" xlink:href="#C0_0_4ec54f6d92" y="194.308259"/>
    </g>
    <g clip-path="url(#p3e7f060e57)">
     <use style="fill:#8b2be2;stroke:#ffffff;stroke-width:0.384;" x="181.807055" xlink:href="#C0_0_4ec54f6d92" y="260.660142"/>
    </g>
    <g clip-path="url(#p3e7f060e57)">
     <use style="fill:#e8000b;stroke:#ffffff;stroke-width:0.384;" x="313.780281" xlink:href="#C0_0_4ec54f6d92" y="218.161887"/>
    </g>
    <g clip-path="url(#p3e7f060e57)">
     <use style="fill:#8b2be2;stroke:#ffffff;stroke-width:0.384;" x="208.357023" xlink:href="#C0_0_4ec54f6d92" y="328.780622"/>
    </g>
    <g clip-path="url(#p3e7f060e57)">
     <use style="fill:#ff7c00;stroke:#ffffff;stroke-width:0.384;" x="76.100366" xlink:href="#C0_0_4ec54f6d92" y="281.871317"/>
    </g>
    <g clip-path="url(#p3e7f060e57)">
     <use style="fill:#1ac938;stroke:#ffffff;stroke-width:0.384;" x="379.996223" xlink:href="#C0_0_4ec54f6d92" y="427.829619"/>
    </g>
    <g clip-path="url(#p3e7f060e57)">
     <use style="fill:#ff7c00;stroke:#ffffff;stroke-width:0.384;" x="100.789189" xlink:href="#C0_0_4ec54f6d92" y="263.127507"/>
    </g>
    <g clip-path="url(#p3e7f060e57)">
     <use style="fill:#ff7c00;stroke:#ffffff;stroke-width:0.384;" x="108.018639" xlink:href="#C0_0_4ec54f6d92" y="267.942374"/>
    </g>
    <g clip-path="url(#p3e7f060e57)">
     <use style="fill:#1ac938;stroke:#ffffff;stroke-width:0.384;" x="357.704434" xlink:href="#C0_0_4ec54f6d92" y="468.398412"/>
    </g>
    <g clip-path="url(#p3e7f060e57)">
     <use style="fill:#ff7c00;stroke:#ffffff;stroke-width:0.384;" x="75.710394" xlink:href="#C0_0_4ec54f6d92" y="346.147277"/>
    </g>
    <g clip-path="url(#p3e7f060e57)">
     <use style="fill:#ff7c00;stroke:#ffffff;stroke-width:0.384;" x="120.193906" xlink:href="#C0_0_4ec54f6d92" y="319.4645"/>
    </g>
   </g>
   <g id="PathCollection_2"/>
   <g id="PathCollection_3"/>
   <g id="PathCollection_4"/>
   <g id="PathCollection_5"/>
   <g id="PathCollection_6"/>
   <g id="PathCollection_7"/>
   <g id="patch_3">
    <path d="M 38.6628 563.7885 
L 38.6628 20.1885 
" style="fill:none;stroke:#ffffff;stroke-linecap:square;stroke-linejoin:miter;"/>
   </g>
   <g id="patch_4">
    <path d="M 596.6628 563.7885 
L 596.6628 20.1885 
" style="fill:none;stroke:#ffffff;stroke-linecap:square;stroke-linejoin:miter;"/>
   </g>
   <g id="patch_5">
    <path d="M 38.6628 563.7885 
L 596.6628 563.7885 
" style="fill:none;stroke:#ffffff;stroke-linecap:square;stroke-linejoin:miter;"/>
   </g>
   <g id="patch_6">
    <path d="M 38.6628 20.1885 
L 596.6628 20.1885 
" style="fill:none;stroke:#ffffff;stroke-linecap:square;stroke-linejoin:miter;"/>
   </g>
   <g id="text_3">
    <!-- AfD -->
    <g style="fill:#00008b;" transform="translate(573.727372 290.197585)scale(0.079968 -0.079968)">
     <defs>
      <path d="M 4597 0 
L 3591 0 
L 3191 1041 
L 1359 1041 
L 981 0 
L 0 0 
L 1784 4581 
L 2763 4581 
L 4597 0 
z
M 2894 1813 
L 2263 3513 
L 1644 1813 
L 2894 1813 
z
" id="Arial-BoldMT-41" transform="scale(0.015625)"/>
      <path d="M 75 3319 
L 563 3319 
L 563 3569 
Q 563 3988 652 4194 
Q 741 4400 980 4529 
Q 1219 4659 1584 4659 
Q 1959 4659 2319 4547 
L 2200 3934 
Q 1991 3984 1797 3984 
Q 1606 3984 1523 3895 
Q 1441 3806 1441 3553 
L 1441 3319 
L 2097 3319 
L 2097 2628 
L 1441 2628 
L 1441 0 
L 563 0 
L 563 2628 
L 75 2628 
L 75 3319 
z
" id="Arial-BoldMT-66" transform="scale(0.015625)"/>
      <path d="M 463 4581 
L 2153 4581 
Q 2725 4581 3025 4494 
Q 3428 4375 3715 4072 
Q 4003 3769 4153 3330 
Q 4303 2891 4303 2247 
Q 4303 1681 4163 1272 
Q 3991 772 3672 463 
Q 3431 228 3022 97 
Q 2716 0 2203 0 
L 463 0 
L 463 4581 
z
M 1388 3806 
L 1388 772 
L 2078 772 
Q 2466 772 2638 816 
Q 2863 872 3011 1006 
Q 3159 1141 3253 1448 
Q 3347 1756 3347 2288 
Q 3347 2819 3253 3103 
Q 3159 3388 2990 3547 
Q 2822 3706 2563 3763 
Q 2369 3806 1803 3806 
L 1388 3806 
z
" id="Arial-BoldMT-44" transform="scale(0.015625)"/>
     </defs>
     <use xlink:href="#Arial-BoldMT-41"/>
     <use x="72.216797" xlink:href="#Arial-BoldMT-66"/>
     <use x="105.517578" xlink:href="#Arial-BoldMT-44"/>
    </g>
   </g>
   <g id="text_4">
    <!-- BP -->
    <g transform="translate(512.872907 259.442844)scale(0.079968 -0.079968)">
     <defs>
      <path d="M 469 0 
L 469 4581 
L 2188 4581 
Q 2713 4581 3030 4442 
Q 3347 4303 3526 4014 
Q 3706 3725 3706 3409 
Q 3706 3116 3547 2856 
Q 3388 2597 3066 2438 
Q 3481 2316 3704 2022 
Q 3928 1728 3928 1328 
Q 3928 1006 3792 729 
Q 3656 453 3456 303 
Q 3256 153 2954 76 
Q 2653 0 2216 0 
L 469 0 
z
M 1075 2656 
L 2066 2656 
Q 2469 2656 2644 2709 
Q 2875 2778 2992 2937 
Q 3109 3097 3109 3338 
Q 3109 3566 3000 3739 
Q 2891 3913 2687 3977 
Q 2484 4041 1991 4041 
L 1075 4041 
L 1075 2656 
z
M 1075 541 
L 2216 541 
Q 2509 541 2628 563 
Q 2838 600 2978 687 
Q 3119 775 3209 942 
Q 3300 1109 3300 1328 
Q 3300 1584 3169 1773 
Q 3038 1963 2805 2039 
Q 2572 2116 2134 2116 
L 1075 2116 
L 1075 541 
z
" id="ArialMT-42" transform="scale(0.015625)"/>
     </defs>
     <use xlink:href="#ArialMT-42"/>
     <use x="66.699219" xlink:href="#ArialMT-50"/>
    </g>
   </g>
   <g id="text_5">
    <!-- BÜNDNIS21 -->
    <g transform="translate(450.222179 340.573074)scale(0.079968 -0.079968)">
     <defs>
      <path d="M 3500 4581 
L 4106 4581 
L 4106 1934 
Q 4106 1244 3950 837 
Q 3794 431 3386 176 
Q 2978 -78 2316 -78 
Q 1672 -78 1262 144 
Q 853 366 678 786 
Q 503 1206 503 1934 
L 503 4581 
L 1109 4581 
L 1109 1938 
Q 1109 1341 1220 1058 
Q 1331 775 1601 622 
Q 1872 469 2263 469 
Q 2931 469 3215 772 
Q 3500 1075 3500 1938 
L 3500 4581 
z
M 1419 4863 
L 1419 5503 
L 2006 5503 
L 2006 4863 
L 1419 4863 
z
M 2584 4863 
L 2584 5503 
L 3172 5503 
L 3172 4863 
L 2584 4863 
z
" id="ArialMT-dc" transform="scale(0.015625)"/>
      <path d="M 488 0 
L 488 4581 
L 1109 4581 
L 3516 984 
L 3516 4581 
L 4097 4581 
L 4097 0 
L 3475 0 
L 1069 3600 
L 1069 0 
L 488 0 
z
" id="ArialMT-4e" transform="scale(0.015625)"/>
      <path d="M 494 0 
L 494 4581 
L 2072 4581 
Q 2606 4581 2888 4516 
Q 3281 4425 3559 4188 
Q 3922 3881 4101 3404 
Q 4281 2928 4281 2316 
Q 4281 1794 4159 1391 
Q 4038 988 3847 723 
Q 3656 459 3429 307 
Q 3203 156 2883 78 
Q 2563 0 2147 0 
L 494 0 
z
M 1100 541 
L 2078 541 
Q 2531 541 2789 625 
Q 3047 709 3200 863 
Q 3416 1078 3536 1442 
Q 3656 1806 3656 2325 
Q 3656 3044 3420 3430 
Q 3184 3816 2847 3947 
Q 2603 4041 2063 4041 
L 1100 4041 
L 1100 541 
z
" id="ArialMT-44" transform="scale(0.015625)"/>
      <path d="M 597 0 
L 597 4581 
L 1203 4581 
L 1203 0 
L 597 0 
z
" id="ArialMT-49" transform="scale(0.015625)"/>
      <path d="M 288 1472 
L 859 1522 
Q 900 1178 1048 958 
Q 1197 738 1509 602 
Q 1822 466 2213 466 
Q 2559 466 2825 569 
Q 3091 672 3220 851 
Q 3350 1031 3350 1244 
Q 3350 1459 3225 1620 
Q 3100 1781 2813 1891 
Q 2628 1963 1997 2114 
Q 1366 2266 1113 2400 
Q 784 2572 623 2826 
Q 463 3081 463 3397 
Q 463 3744 659 4045 
Q 856 4347 1234 4503 
Q 1613 4659 2075 4659 
Q 2584 4659 2973 4495 
Q 3363 4331 3572 4012 
Q 3781 3694 3797 3291 
L 3216 3247 
Q 3169 3681 2898 3903 
Q 2628 4125 2100 4125 
Q 1550 4125 1298 3923 
Q 1047 3722 1047 3438 
Q 1047 3191 1225 3031 
Q 1400 2872 2139 2705 
Q 2878 2538 3153 2413 
Q 3553 2228 3743 1945 
Q 3934 1663 3934 1294 
Q 3934 928 3725 604 
Q 3516 281 3123 101 
Q 2731 -78 2241 -78 
Q 1619 -78 1198 103 
Q 778 284 539 648 
Q 300 1013 288 1472 
z
" id="ArialMT-53" transform="scale(0.015625)"/>
     </defs>
     <use xlink:href="#ArialMT-42"/>
     <use x="66.699219" xlink:href="#ArialMT-dc"/>
     <use x="138.916016" xlink:href="#ArialMT-4e"/>
     <use x="211.132812" xlink:href="#ArialMT-44"/>
     <use x="283.349609" xlink:href="#ArialMT-4e"/>
     <use x="355.566406" xlink:href="#ArialMT-49"/>
     <use x="383.349609" xlink:href="#ArialMT-53"/>
     <use x="450.048828" xlink:href="#ArialMT-32"/>
     <use x="505.664062" xlink:href="#ArialMT-31"/>
    </g>
   </g>
   <g id="text_6">
    <!-- BÜRGERBEWEGUNG -->
    <g transform="translate(386.639739 346.065325)scale(0.079968 -0.079968)">
     <defs>
      <path d="M 503 0 
L 503 4581 
L 2534 4581 
Q 3147 4581 3465 4457 
Q 3784 4334 3975 4021 
Q 4166 3709 4166 3331 
Q 4166 2844 3850 2509 
Q 3534 2175 2875 2084 
Q 3116 1969 3241 1856 
Q 3506 1613 3744 1247 
L 4541 0 
L 3778 0 
L 3172 953 
Q 2906 1366 2734 1584 
Q 2563 1803 2427 1890 
Q 2291 1978 2150 2013 
Q 2047 2034 1813 2034 
L 1109 2034 
L 1109 0 
L 503 0 
z
M 1109 2559 
L 2413 2559 
Q 2828 2559 3062 2645 
Q 3297 2731 3419 2920 
Q 3541 3109 3541 3331 
Q 3541 3656 3305 3865 
Q 3069 4075 2559 4075 
L 1109 4075 
L 1109 2559 
z
" id="ArialMT-52" transform="scale(0.015625)"/>
      <path d="M 2638 1797 
L 2638 2334 
L 4578 2338 
L 4578 638 
Q 4131 281 3656 101 
Q 3181 -78 2681 -78 
Q 2006 -78 1454 211 
Q 903 500 622 1047 
Q 341 1594 341 2269 
Q 341 2938 620 3517 
Q 900 4097 1425 4378 
Q 1950 4659 2634 4659 
Q 3131 4659 3532 4498 
Q 3934 4338 4162 4050 
Q 4391 3763 4509 3300 
L 3963 3150 
Q 3859 3500 3706 3700 
Q 3553 3900 3268 4020 
Q 2984 4141 2638 4141 
Q 2222 4141 1919 4014 
Q 1616 3888 1430 3681 
Q 1244 3475 1141 3228 
Q 966 2803 966 2306 
Q 966 1694 1177 1281 
Q 1388 869 1791 669 
Q 2194 469 2647 469 
Q 3041 469 3416 620 
Q 3791 772 3984 944 
L 3984 1797 
L 2638 1797 
z
" id="ArialMT-47" transform="scale(0.015625)"/>
      <path d="M 506 0 
L 506 4581 
L 3819 4581 
L 3819 4041 
L 1113 4041 
L 1113 2638 
L 3647 2638 
L 3647 2100 
L 1113 2100 
L 1113 541 
L 3925 541 
L 3925 0 
L 506 0 
z
" id="ArialMT-45" transform="scale(0.015625)"/>
      <path d="M 1294 0 
L 78 4581 
L 700 4581 
L 1397 1578 
Q 1509 1106 1591 641 
Q 1766 1375 1797 1488 
L 2669 4581 
L 3400 4581 
L 4056 2263 
Q 4303 1400 4413 641 
Q 4500 1075 4641 1638 
L 5359 4581 
L 5969 4581 
L 4713 0 
L 4128 0 
L 3163 3491 
Q 3041 3928 3019 4028 
Q 2947 3713 2884 3491 
L 1913 0 
L 1294 0 
z
" id="ArialMT-57" transform="scale(0.015625)"/>
      <path d="M 3500 4581 
L 4106 4581 
L 4106 1934 
Q 4106 1244 3950 837 
Q 3794 431 3386 176 
Q 2978 -78 2316 -78 
Q 1672 -78 1262 144 
Q 853 366 678 786 
Q 503 1206 503 1934 
L 503 4581 
L 1109 4581 
L 1109 1938 
Q 1109 1341 1220 1058 
Q 1331 775 1601 622 
Q 1872 469 2263 469 
Q 2931 469 3215 772 
Q 3500 1075 3500 1938 
L 3500 4581 
z
" id="ArialMT-55" transform="scale(0.015625)"/>
     </defs>
     <use xlink:href="#ArialMT-42"/>
     <use x="66.699219" xlink:href="#ArialMT-dc"/>
     <use x="138.916016" xlink:href="#ArialMT-52"/>
     <use x="211.132812" xlink:href="#ArialMT-47"/>
     <use x="288.916016" xlink:href="#ArialMT-45"/>
     <use x="355.615234" xlink:href="#ArialMT-52"/>
     <use x="427.832031" xlink:href="#ArialMT-42"/>
     <use x="494.53125" xlink:href="#ArialMT-45"/>
     <use x="561.230469" xlink:href="#ArialMT-57"/>
     <use x="655.615234" xlink:href="#ArialMT-45"/>
     <use x="722.314453" xlink:href="#ArialMT-47"/>
     <use x="800.097656" xlink:href="#ArialMT-55"/>
     <use x="872.314453" xlink:href="#ArialMT-4e"/>
     <use x="944.53125" xlink:href="#ArialMT-47"/>
    </g>
   </g>
   <g id="text_7">
    <!-- BüSo -->
    <g transform="translate(423.243509 434.060169)scale(0.079968 -0.079968)">
     <defs>
      <path d="M 2597 0 
L 2597 488 
Q 2209 -75 1544 -75 
Q 1250 -75 995 37 
Q 741 150 617 320 
Q 494 491 444 738 
Q 409 903 409 1263 
L 409 3319 
L 972 3319 
L 972 1478 
Q 972 1038 1006 884 
Q 1059 663 1231 536 
Q 1403 409 1656 409 
Q 1909 409 2131 539 
Q 2353 669 2445 892 
Q 2538 1116 2538 1541 
L 2538 3319 
L 3100 3319 
L 3100 0 
L 2597 0 
z
M 878 3969 
L 878 4609 
L 1466 4609 
L 1466 3969 
L 878 3969 
z
M 2044 3969 
L 2044 4609 
L 2631 4609 
L 2631 3969 
L 2044 3969 
z
" id="ArialMT-fc" transform="scale(0.015625)"/>
     </defs>
     <use xlink:href="#ArialMT-42"/>
     <use x="66.699219" xlink:href="#ArialMT-fc"/>
     <use x="122.314453" xlink:href="#ArialMT-53"/>
     <use x="189.013672" xlink:href="#ArialMT-6f"/>
    </g>
   </g>
   <g id="text_8">
    <!-- Bündnis C -->
    <g transform="translate(491.102279 238.985414)scale(0.079968 -0.079968)">
     <defs>
      <path d="M 2575 0 
L 2575 419 
Q 2259 -75 1647 -75 
Q 1250 -75 917 144 
Q 584 363 401 755 
Q 219 1147 219 1656 
Q 219 2153 384 2558 
Q 550 2963 881 3178 
Q 1213 3394 1622 3394 
Q 1922 3394 2156 3267 
Q 2391 3141 2538 2938 
L 2538 4581 
L 3097 4581 
L 3097 0 
L 2575 0 
z
M 797 1656 
Q 797 1019 1065 703 
Q 1334 388 1700 388 
Q 2069 388 2326 689 
Q 2584 991 2584 1609 
Q 2584 2291 2321 2609 
Q 2059 2928 1675 2928 
Q 1300 2928 1048 2622 
Q 797 2316 797 1656 
z
" id="ArialMT-64" transform="scale(0.015625)"/>
      <path d="M 197 991 
L 753 1078 
Q 800 744 1014 566 
Q 1228 388 1613 388 
Q 2000 388 2187 545 
Q 2375 703 2375 916 
Q 2375 1106 2209 1216 
Q 2094 1291 1634 1406 
Q 1016 1563 777 1677 
Q 538 1791 414 1992 
Q 291 2194 291 2438 
Q 291 2659 392 2848 
Q 494 3038 669 3163 
Q 800 3259 1026 3326 
Q 1253 3394 1513 3394 
Q 1903 3394 2198 3281 
Q 2494 3169 2634 2976 
Q 2775 2784 2828 2463 
L 2278 2388 
Q 2241 2644 2061 2787 
Q 1881 2931 1553 2931 
Q 1166 2931 1000 2803 
Q 834 2675 834 2503 
Q 834 2394 903 2306 
Q 972 2216 1119 2156 
Q 1203 2125 1616 2013 
Q 2213 1853 2448 1751 
Q 2684 1650 2818 1456 
Q 2953 1263 2953 975 
Q 2953 694 2789 445 
Q 2625 197 2315 61 
Q 2006 -75 1616 -75 
Q 969 -75 630 194 
Q 291 463 197 991 
z
" id="ArialMT-73" transform="scale(0.015625)"/>
     </defs>
     <use xlink:href="#ArialMT-42"/>
     <use x="66.699219" xlink:href="#ArialMT-fc"/>
     <use x="122.314453" xlink:href="#ArialMT-6e"/>
     <use x="177.929688" xlink:href="#ArialMT-64"/>
     <use x="233.544922" xlink:href="#ArialMT-6e"/>
     <use x="289.160156" xlink:href="#ArialMT-69"/>
     <use x="311.376953" xlink:href="#ArialMT-73"/>
     <use x="361.376953" xlink:href="#ArialMT-20"/>
     <use x="389.160156" xlink:href="#ArialMT-43"/>
    </g>
   </g>
   <g id="text_9">
    <!-- CDU / CSU -->
    <g style="fill:#00008b;" transform="translate(487.274818 125.246318)scale(0.079968 -0.079968)">
     <defs>
      <path d="M 3397 1684 
L 4294 1400 
Q 4088 650 3608 286 
Q 3128 -78 2391 -78 
Q 1478 -78 890 545 
Q 303 1169 303 2250 
Q 303 3394 893 4026 
Q 1484 4659 2447 4659 
Q 3288 4659 3813 4163 
Q 4125 3869 4281 3319 
L 3366 3100 
Q 3284 3456 3026 3662 
Q 2769 3869 2400 3869 
Q 1891 3869 1573 3503 
Q 1256 3138 1256 2319 
Q 1256 1450 1568 1081 
Q 1881 713 2381 713 
Q 2750 713 3015 947 
Q 3281 1181 3397 1684 
z
" id="Arial-BoldMT-43" transform="scale(0.015625)"/>
      <path d="M 459 4581 
L 1384 4581 
L 1384 2100 
Q 1384 1509 1419 1334 
Q 1478 1053 1701 883 
Q 1925 713 2313 713 
Q 2706 713 2906 873 
Q 3106 1034 3147 1268 
Q 3188 1503 3188 2047 
L 3188 4581 
L 4113 4581 
L 4113 2175 
Q 4113 1350 4038 1009 
Q 3963 669 3761 434 
Q 3559 200 3221 61 
Q 2884 -78 2341 -78 
Q 1684 -78 1345 73 
Q 1006 225 809 467 
Q 613 709 550 975 
Q 459 1369 459 2138 
L 459 4581 
z
" id="Arial-BoldMT-55" transform="scale(0.015625)"/>
      <path id="Arial-BoldMT-20" transform="scale(0.015625)"/>
      <path d="M -9 -78 
L 1125 4659 
L 1784 4659 
L 638 -78 
L -9 -78 
z
" id="Arial-BoldMT-2f" transform="scale(0.015625)"/>
      <path d="M 231 1491 
L 1131 1578 
Q 1213 1125 1461 912 
Q 1709 700 2131 700 
Q 2578 700 2804 889 
Q 3031 1078 3031 1331 
Q 3031 1494 2936 1608 
Q 2841 1722 2603 1806 
Q 2441 1863 1863 2006 
Q 1119 2191 819 2459 
Q 397 2838 397 3381 
Q 397 3731 595 4036 
Q 794 4341 1167 4500 
Q 1541 4659 2069 4659 
Q 2931 4659 3367 4281 
Q 3803 3903 3825 3272 
L 2900 3231 
Q 2841 3584 2645 3739 
Q 2450 3894 2059 3894 
Q 1656 3894 1428 3728 
Q 1281 3622 1281 3444 
Q 1281 3281 1419 3166 
Q 1594 3019 2269 2859 
Q 2944 2700 3267 2529 
Q 3591 2359 3773 2064 
Q 3956 1769 3956 1334 
Q 3956 941 3737 597 
Q 3519 253 3119 86 
Q 2719 -81 2122 -81 
Q 1253 -81 787 320 
Q 322 722 231 1491 
z
" id="Arial-BoldMT-53" transform="scale(0.015625)"/>
     </defs>
     <use xlink:href="#Arial-BoldMT-43"/>
     <use x="72.216797" xlink:href="#Arial-BoldMT-44"/>
     <use x="144.433594" xlink:href="#Arial-BoldMT-55"/>
     <use x="216.650391" xlink:href="#Arial-BoldMT-20"/>
     <use x="244.433594" xlink:href="#Arial-BoldMT-2f"/>
     <use x="272.216797" xlink:href="#Arial-BoldMT-20"/>
     <use x="300" xlink:href="#Arial-BoldMT-43"/>
     <use x="372.216797" xlink:href="#Arial-BoldMT-53"/>
     <use x="438.916016" xlink:href="#Arial-BoldMT-55"/>
    </g>
   </g>
   <g id="text_10">
    <!-- DIE LINKE -->
    <g style="fill:#00008b;" transform="translate(66.454645 343.248165)scale(0.079968 -0.079968)">
     <defs>
      <path d="M 438 0 
L 438 4581 
L 1363 4581 
L 1363 0 
L 438 0 
z
" id="Arial-BoldMT-49" transform="scale(0.015625)"/>
      <path d="M 466 0 
L 466 4581 
L 3863 4581 
L 3863 3806 
L 1391 3806 
L 1391 2791 
L 3691 2791 
L 3691 2019 
L 1391 2019 
L 1391 772 
L 3950 772 
L 3950 0 
L 466 0 
z
" id="Arial-BoldMT-45" transform="scale(0.015625)"/>
      <path d="M 491 0 
L 491 4544 
L 1416 4544 
L 1416 772 
L 3716 772 
L 3716 0 
L 491 0 
z
" id="Arial-BoldMT-4c" transform="scale(0.015625)"/>
      <path d="M 475 0 
L 475 4581 
L 1375 4581 
L 3250 1522 
L 3250 4581 
L 4109 4581 
L 4109 0 
L 3181 0 
L 1334 2988 
L 1334 0 
L 475 0 
z
" id="Arial-BoldMT-4e" transform="scale(0.015625)"/>
      <path d="M 478 0 
L 478 4581 
L 1403 4581 
L 1403 2547 
L 3272 4581 
L 4516 4581 
L 2791 2797 
L 4609 0 
L 3413 0 
L 2153 2150 
L 1403 1384 
L 1403 0 
L 478 0 
z
" id="Arial-BoldMT-4b" transform="scale(0.015625)"/>
     </defs>
     <use xlink:href="#Arial-BoldMT-44"/>
     <use x="72.216797" xlink:href="#Arial-BoldMT-49"/>
     <use x="100" xlink:href="#Arial-BoldMT-45"/>
     <use x="166.699219" xlink:href="#Arial-BoldMT-20"/>
     <use x="194.482422" xlink:href="#Arial-BoldMT-4c"/>
     <use x="255.566406" xlink:href="#Arial-BoldMT-49"/>
     <use x="283.349609" xlink:href="#Arial-BoldMT-4e"/>
     <use x="355.566406" xlink:href="#Arial-BoldMT-4b"/>
     <use x="427.783203" xlink:href="#Arial-BoldMT-45"/>
    </g>
   </g>
   <g id="text_11">
    <!-- DKP -->
    <g transform="translate(131.134308 403.050742)scale(0.079968 -0.079968)">
     <use xlink:href="#ArialMT-44"/>
     <use x="72.216797" xlink:href="#ArialMT-4b"/>
     <use x="138.916016" xlink:href="#ArialMT-50"/>
    </g>
   </g>
   <g id="text_12">
    <!-- DiB -->
    <g transform="translate(92.640959 304.883052)scale(0.079968 -0.079968)">
     <use xlink:href="#ArialMT-44"/>
     <use x="72.216797" xlink:href="#ArialMT-69"/>
     <use x="94.433594" xlink:href="#ArialMT-42"/>
    </g>
   </g>
   <g id="text_13">
    <!-- Die Grauen -->
    <g transform="translate(358.026447 390.997784)scale(0.079968 -0.079968)">
     <defs>
      <path d="M 2597 0 
L 2597 488 
Q 2209 -75 1544 -75 
Q 1250 -75 995 37 
Q 741 150 617 320 
Q 494 491 444 738 
Q 409 903 409 1263 
L 409 3319 
L 972 3319 
L 972 1478 
Q 972 1038 1006 884 
Q 1059 663 1231 536 
Q 1403 409 1656 409 
Q 1909 409 2131 539 
Q 2353 669 2445 892 
Q 2538 1116 2538 1541 
L 2538 3319 
L 3100 3319 
L 3100 0 
L 2597 0 
z
" id="ArialMT-75" transform="scale(0.015625)"/>
     </defs>
     <use xlink:href="#ArialMT-44"/>
     <use x="72.216797" xlink:href="#ArialMT-69"/>
     <use x="94.433594" xlink:href="#ArialMT-65"/>
     <use x="150.048828" xlink:href="#ArialMT-20"/>
     <use x="177.832031" xlink:href="#ArialMT-47"/>
     <use x="255.615234" xlink:href="#ArialMT-72"/>
     <use x="288.916016" xlink:href="#ArialMT-61"/>
     <use x="344.53125" xlink:href="#ArialMT-75"/>
     <use x="400.146484" xlink:href="#ArialMT-65"/>
     <use x="455.761719" xlink:href="#ArialMT-6e"/>
    </g>
   </g>
   <g id="text_14">
    <!-- Die Humanisten -->
    <g transform="translate(251.808175 153.111753)scale(0.079968 -0.079968)">
     <defs>
      <path d="M 513 0 
L 513 4581 
L 1119 4581 
L 1119 2700 
L 3500 2700 
L 3500 4581 
L 4106 4581 
L 4106 0 
L 3500 0 
L 3500 2159 
L 1119 2159 
L 1119 0 
L 513 0 
z
" id="ArialMT-48" transform="scale(0.015625)"/>
     </defs>
     <use xlink:href="#ArialMT-44"/>
     <use x="72.216797" xlink:href="#ArialMT-69"/>
     <use x="94.433594" xlink:href="#ArialMT-65"/>
     <use x="150.048828" xlink:href="#ArialMT-20"/>
     <use x="177.832031" xlink:href="#ArialMT-48"/>
     <use x="250.048828" xlink:href="#ArialMT-75"/>
     <use x="305.664062" xlink:href="#ArialMT-6d"/>
     <use x="388.964844" xlink:href="#ArialMT-61"/>
     <use x="444.580078" xlink:href="#ArialMT-6e"/>
     <use x="500.195312" xlink:href="#ArialMT-69"/>
     <use x="522.412109" xlink:href="#ArialMT-73"/>
     <use x="572.412109" xlink:href="#ArialMT-74"/>
     <use x="600.195312" xlink:href="#ArialMT-65"/>
     <use x="655.810547" xlink:href="#ArialMT-6e"/>
    </g>
   </g>
   <g id="text_15">
    <!-- Die PARTEI -->
    <g transform="translate(98.440202 274.448845)scale(0.079968 -0.079968)">
     <defs>
      <path d="M -9 0 
L 1750 4581 
L 2403 4581 
L 4278 0 
L 3588 0 
L 3053 1388 
L 1138 1388 
L 634 0 
L -9 0 
z
M 1313 1881 
L 2866 1881 
L 2388 3150 
Q 2169 3728 2063 4100 
Q 1975 3659 1816 3225 
L 1313 1881 
z
" id="ArialMT-41" transform="scale(0.015625)"/>
      <path d="M 1659 0 
L 1659 4041 
L 150 4041 
L 150 4581 
L 3781 4581 
L 3781 4041 
L 2266 4041 
L 2266 0 
L 1659 0 
z
" id="ArialMT-54" transform="scale(0.015625)"/>
     </defs>
     <use xlink:href="#ArialMT-44"/>
     <use x="72.216797" xlink:href="#ArialMT-69"/>
     <use x="94.433594" xlink:href="#ArialMT-65"/>
     <use x="150.048828" xlink:href="#ArialMT-20"/>
     <use x="177.832031" xlink:href="#ArialMT-50"/>
     <use x="237.15625" xlink:href="#ArialMT-41"/>
     <use x="303.855469" xlink:href="#ArialMT-52"/>
     <use x="374.322266" xlink:href="#ArialMT-54"/>
     <use x="435.40625" xlink:href="#ArialMT-45"/>
     <use x="502.105469" xlink:href="#ArialMT-49"/>
    </g>
   </g>
   <g id="text_16">
    <!-- FDP -->
    <g style="fill:#00008b;" transform="translate(403.677255 41.729308)scale(0.079968 -0.079968)">
     <defs>
      <path d="M 472 0 
L 472 4581 
L 3613 4581 
L 3613 3806 
L 1397 3806 
L 1397 2722 
L 3309 2722 
L 3309 1947 
L 1397 1947 
L 1397 0 
L 472 0 
z
" id="Arial-BoldMT-46" transform="scale(0.015625)"/>
      <path d="M 466 0 
L 466 4581 
L 1950 4581 
Q 2794 4581 3050 4513 
Q 3444 4409 3709 4064 
Q 3975 3719 3975 3172 
Q 3975 2750 3822 2462 
Q 3669 2175 3433 2011 
Q 3197 1847 2953 1794 
Q 2622 1728 1994 1728 
L 1391 1728 
L 1391 0 
L 466 0 
z
M 1391 3806 
L 1391 2506 
L 1897 2506 
Q 2444 2506 2628 2578 
Q 2813 2650 2917 2803 
Q 3022 2956 3022 3159 
Q 3022 3409 2875 3571 
Q 2728 3734 2503 3775 
Q 2338 3806 1838 3806 
L 1391 3806 
z
" id="Arial-BoldMT-50" transform="scale(0.015625)"/>
     </defs>
     <use xlink:href="#Arial-BoldMT-46"/>
     <use x="61.083984" xlink:href="#Arial-BoldMT-44"/>
     <use x="133.300781" xlink:href="#Arial-BoldMT-50"/>
    </g>
   </g>
   <g id="text_17">
    <!-- FREIE WÄHLER -->
    <g transform="translate(417.546045 129.041158)scale(0.079968 -0.079968)">
     <defs>
      <path d="M 525 0 
L 525 4581 
L 3616 4581 
L 3616 4041 
L 1131 4041 
L 1131 2622 
L 3281 2622 
L 3281 2081 
L 1131 2081 
L 1131 0 
L 525 0 
z
" id="ArialMT-46" transform="scale(0.015625)"/>
      <path d="M -9 0 
L 1750 4581 
L 2403 4581 
L 4278 0 
L 3588 0 
L 3053 1388 
L 1138 1388 
L 634 0 
L -9 0 
z
M 1313 1881 
L 2866 1881 
L 2388 3150 
Q 2169 3728 2063 4100 
Q 1975 3659 1816 3225 
L 1313 1881 
z
M 1184 4863 
L 1184 5503 
L 1772 5503 
L 1772 4863 
L 1184 4863 
z
M 2350 4863 
L 2350 5503 
L 2938 5503 
L 2938 4863 
L 2350 4863 
z
" id="ArialMT-c4" transform="scale(0.015625)"/>
      <path d="M 469 0 
L 469 4581 
L 1075 4581 
L 1075 541 
L 3331 541 
L 3331 0 
L 469 0 
z
" id="ArialMT-4c" transform="scale(0.015625)"/>
     </defs>
     <use xlink:href="#ArialMT-46"/>
     <use x="61.083984" xlink:href="#ArialMT-52"/>
     <use x="133.300781" xlink:href="#ArialMT-45"/>
     <use x="200" xlink:href="#ArialMT-49"/>
     <use x="227.783203" xlink:href="#ArialMT-45"/>
     <use x="294.482422" xlink:href="#ArialMT-20"/>
     <use x="322.265625" xlink:href="#ArialMT-57"/>
     <use x="416.650391" xlink:href="#ArialMT-c4"/>
     <use x="483.349609" xlink:href="#ArialMT-48"/>
     <use x="555.566406" xlink:href="#ArialMT-4c"/>
     <use x="611.181641" xlink:href="#ArialMT-45"/>
     <use x="677.880859" xlink:href="#ArialMT-52"/>
    </g>
   </g>
   <g id="text_18">
    <!-- GRÜNE -->
    <g style="fill:#00008b;" transform="translate(79.15307 244.516554)scale(0.079968 -0.079968)">
     <defs>
      <path d="M 2597 1684 
L 2597 2456 
L 4591 2456 
L 4591 631 
Q 4300 350 3748 136 
Q 3197 -78 2631 -78 
Q 1913 -78 1378 223 
Q 844 525 575 1086 
Q 306 1647 306 2306 
Q 306 3022 606 3578 
Q 906 4134 1484 4431 
Q 1925 4659 2581 4659 
Q 3434 4659 3914 4301 
Q 4394 3944 4531 3313 
L 3613 3141 
Q 3516 3478 3248 3673 
Q 2981 3869 2581 3869 
Q 1975 3869 1617 3484 
Q 1259 3100 1259 2344 
Q 1259 1528 1621 1120 
Q 1984 713 2572 713 
Q 2863 713 3155 827 
Q 3447 941 3656 1103 
L 3656 1684 
L 2597 1684 
z
" id="Arial-BoldMT-47" transform="scale(0.015625)"/>
      <path d="M 469 0 
L 469 4581 
L 2416 4581 
Q 3150 4581 3483 4457 
Q 3816 4334 4016 4018 
Q 4216 3703 4216 3297 
Q 4216 2781 3912 2445 
Q 3609 2109 3006 2022 
Q 3306 1847 3501 1637 
Q 3697 1428 4028 894 
L 4588 0 
L 3481 0 
L 2813 997 
Q 2456 1531 2325 1670 
Q 2194 1809 2047 1861 
Q 1900 1913 1581 1913 
L 1394 1913 
L 1394 0 
L 469 0 
z
M 1394 2644 
L 2078 2644 
Q 2744 2644 2909 2700 
Q 3075 2756 3169 2893 
Q 3263 3031 3263 3238 
Q 3263 3469 3139 3611 
Q 3016 3753 2791 3791 
Q 2678 3806 2116 3806 
L 1394 3806 
L 1394 2644 
z
" id="Arial-BoldMT-52" transform="scale(0.015625)"/>
      <path d="M 459 4581 
L 1384 4581 
L 1384 2100 
Q 1384 1509 1419 1334 
Q 1478 1053 1701 883 
Q 1925 713 2313 713 
Q 2706 713 2906 873 
Q 3106 1034 3147 1268 
Q 3188 1503 3188 2047 
L 3188 4581 
L 4113 4581 
L 4113 2175 
Q 4113 1350 4038 1009 
Q 3963 669 3761 434 
Q 3559 200 3221 61 
Q 2884 -78 2341 -78 
Q 1684 -78 1345 73 
Q 1006 225 809 467 
Q 613 709 550 975 
Q 459 1369 459 2138 
L 459 4581 
z
M 1247 4844 
L 1247 5597 
L 2000 5597 
L 2000 4844 
L 1247 4844 
z
M 2591 4844 
L 2591 5597 
L 3347 5597 
L 3347 4844 
L 2591 4844 
z
" id="Arial-BoldMT-dc" transform="scale(0.015625)"/>
     </defs>
     <use xlink:href="#Arial-BoldMT-47"/>
     <use x="77.783203" xlink:href="#Arial-BoldMT-52"/>
     <use x="150" xlink:href="#Arial-BoldMT-dc"/>
     <use x="222.216797" xlink:href="#Arial-BoldMT-4e"/>
     <use x="294.433594" xlink:href="#Arial-BoldMT-45"/>
    </g>
   </g>
   <g id="text_19">
    <!-- III. Weg -->
    <g transform="translate(443.985673 535.911126)scale(0.079968 -0.079968)">
     <defs>
      <path d="M 581 0 
L 581 641 
L 1222 641 
L 1222 0 
L 581 0 
z
" id="ArialMT-2e" transform="scale(0.015625)"/>
      <path d="M 319 -275 
L 866 -356 
Q 900 -609 1056 -725 
Q 1266 -881 1628 -881 
Q 2019 -881 2231 -725 
Q 2444 -569 2519 -288 
Q 2563 -116 2559 434 
Q 2191 0 1641 0 
Q 956 0 581 494 
Q 206 988 206 1678 
Q 206 2153 378 2554 
Q 550 2956 876 3175 
Q 1203 3394 1644 3394 
Q 2231 3394 2613 2919 
L 2613 3319 
L 3131 3319 
L 3131 450 
Q 3131 -325 2973 -648 
Q 2816 -972 2473 -1159 
Q 2131 -1347 1631 -1347 
Q 1038 -1347 672 -1080 
Q 306 -813 319 -275 
z
M 784 1719 
Q 784 1066 1043 766 
Q 1303 466 1694 466 
Q 2081 466 2343 764 
Q 2606 1063 2606 1700 
Q 2606 2309 2336 2618 
Q 2066 2928 1684 2928 
Q 1309 2928 1046 2623 
Q 784 2319 784 1719 
z
" id="ArialMT-67" transform="scale(0.015625)"/>
     </defs>
     <use xlink:href="#ArialMT-49"/>
     <use x="27.783203" xlink:href="#ArialMT-49"/>
     <use x="55.566406" xlink:href="#ArialMT-49"/>
     <use x="83.349609" xlink:href="#ArialMT-2e"/>
     <use x="111.132812" xlink:href="#ArialMT-20"/>
     <use x="138.916016" xlink:href="#ArialMT-57"/>
     <use x="231.550781" xlink:href="#ArialMT-65"/>
     <use x="287.166016" xlink:href="#ArialMT-67"/>
    </g>
   </g>
   <g id="text_20">
    <!-- LIEBE -->
    <g transform="translate(352.889629 230.293949)scale(0.079968 -0.079968)">
     <use xlink:href="#ArialMT-4c"/>
     <use x="55.615234" xlink:href="#ArialMT-49"/>
     <use x="83.398438" xlink:href="#ArialMT-45"/>
     <use x="150.097656" xlink:href="#ArialMT-42"/>
     <use x="216.796875" xlink:href="#ArialMT-45"/>
    </g>
   </g>
   <g id="text_21">
    <!-- LKR -->
    <g transform="translate(515.512792 246.660356)scale(0.079968 -0.079968)">
     <use xlink:href="#ArialMT-4c"/>
     <use x="55.615234" xlink:href="#ArialMT-4b"/>
     <use x="122.314453" xlink:href="#ArialMT-52"/>
    </g>
   </g>
   <g id="text_22">
    <!-- LfK -->
    <g transform="translate(194.850547 326.499648)scale(0.079968 -0.079968)">
     <defs>
      <path d="M 556 0 
L 556 2881 
L 59 2881 
L 59 3319 
L 556 3319 
L 556 3672 
Q 556 4006 616 4169 
Q 697 4388 901 4523 
Q 1106 4659 1475 4659 
Q 1713 4659 2000 4603 
L 1916 4113 
Q 1741 4144 1584 4144 
Q 1328 4144 1222 4034 
Q 1116 3925 1116 3625 
L 1116 3319 
L 1763 3319 
L 1763 2881 
L 1116 2881 
L 1116 0 
L 556 0 
z
" id="ArialMT-66" transform="scale(0.015625)"/>
     </defs>
     <use xlink:href="#ArialMT-4c"/>
     <use x="55.615234" xlink:href="#ArialMT-66"/>
     <use x="83.398438" xlink:href="#ArialMT-4b"/>
    </g>
   </g>
   <g id="text_23">
    <!-- MENSCHLICHE WELT -->
    <g transform="translate(308.16999 477.296911)scale(0.079968 -0.079968)">
     <defs>
      <path d="M 475 0 
L 475 4581 
L 1388 4581 
L 2472 1338 
Q 2622 884 2691 659 
Q 2769 909 2934 1394 
L 4031 4581 
L 4847 4581 
L 4847 0 
L 4263 0 
L 4263 3834 
L 2931 0 
L 2384 0 
L 1059 3900 
L 1059 0 
L 475 0 
z
" id="ArialMT-4d" transform="scale(0.015625)"/>
     </defs>
     <use xlink:href="#ArialMT-4d"/>
     <use x="83.300781" xlink:href="#ArialMT-45"/>
     <use x="150" xlink:href="#ArialMT-4e"/>
     <use x="222.216797" xlink:href="#ArialMT-53"/>
     <use x="288.916016" xlink:href="#ArialMT-43"/>
     <use x="361.132812" xlink:href="#ArialMT-48"/>
     <use x="433.349609" xlink:href="#ArialMT-4c"/>
     <use x="488.964844" xlink:href="#ArialMT-49"/>
     <use x="516.748047" xlink:href="#ArialMT-43"/>
     <use x="588.964844" xlink:href="#ArialMT-48"/>
     <use x="661.181641" xlink:href="#ArialMT-45"/>
     <use x="727.880859" xlink:href="#ArialMT-20"/>
     <use x="755.664062" xlink:href="#ArialMT-57"/>
     <use x="850.048828" xlink:href="#ArialMT-45"/>
     <use x="916.748047" xlink:href="#ArialMT-4c"/>
     <use x="964.988281" xlink:href="#ArialMT-54"/>
    </g>
   </g>
   <g id="text_24">
    <!-- MLPD -->
    <g transform="translate(141.119456 366.077854)scale(0.079968 -0.079968)">
     <use xlink:href="#ArialMT-4d"/>
     <use x="83.300781" xlink:href="#ArialMT-4c"/>
     <use x="138.916016" xlink:href="#ArialMT-50"/>
     <use x="205.615234" xlink:href="#ArialMT-44"/>
    </g>
   </g>
   <g id="text_25">
    <!-- NPD -->
    <g transform="translate(443.745969 524.546718)scale(0.079968 -0.079968)">
     <use xlink:href="#ArialMT-4e"/>
     <use x="72.216797" xlink:href="#ArialMT-50"/>
     <use x="138.916016" xlink:href="#ArialMT-44"/>
    </g>
   </g>
   <g id="text_26">
    <!-- PIRATEN -->
    <g transform="translate(201.091165 241.478645)scale(0.079968 -0.079968)">
     <use xlink:href="#ArialMT-50"/>
     <use x="66.699219" xlink:href="#ArialMT-49"/>
     <use x="94.482422" xlink:href="#ArialMT-52"/>
     <use x="166.699219" xlink:href="#ArialMT-41"/>
     <use x="226.023438" xlink:href="#ArialMT-54"/>
     <use x="287.107422" xlink:href="#ArialMT-45"/>
     <use x="353.806641" xlink:href="#ArialMT-4e"/>
    </g>
   </g>
   <g id="text_27">
    <!-- PdF -->
    <g transform="translate(281.627719 177.324322)scale(0.079968 -0.079968)">
     <use xlink:href="#ArialMT-50"/>
     <use x="66.699219" xlink:href="#ArialMT-64"/>
     <use x="122.314453" xlink:href="#ArialMT-46"/>
    </g>
   </g>
   <g id="text_28">
    <!-- SGP -->
    <g transform="translate(131.431474 369.359803)scale(0.079968 -0.079968)">
     <use xlink:href="#ArialMT-53"/>
     <use x="66.699219" xlink:href="#ArialMT-47"/>
     <use x="144.482422" xlink:href="#ArialMT-50"/>
    </g>
   </g>
   <g id="text_29">
    <!-- SPD -->
    <g style="fill:#00008b;" transform="translate(210.493741 191.139976)scale(0.079968 -0.079968)">
     <use xlink:href="#Arial-BoldMT-53"/>
     <use x="66.699219" xlink:href="#Arial-BoldMT-50"/>
     <use x="133.398438" xlink:href="#Arial-BoldMT-44"/>
    </g>
   </g>
   <g id="text_30">
    <!-- SSW -->
    <g transform="translate(184.235263 257.49186)scale(0.079968 -0.079968)">
     <use xlink:href="#ArialMT-53"/>
     <use x="66.699219" xlink:href="#ArialMT-53"/>
     <use x="133.398438" xlink:href="#ArialMT-57"/>
    </g>
   </g>
   <g id="text_31">
    <!-- Team Todenhöfer -->
    <g transform="translate(316.20849 214.993604)scale(0.079968 -0.079968)">
     <defs>
      <path d="M 422 0 
L 422 4581 
L 984 4581 
L 984 2938 
Q 1378 3394 1978 3394 
Q 2347 3394 2619 3248 
Q 2891 3103 3008 2847 
Q 3125 2591 3125 2103 
L 3125 0 
L 2563 0 
L 2563 2103 
Q 2563 2525 2380 2717 
Q 2197 2909 1863 2909 
Q 1613 2909 1392 2779 
Q 1172 2650 1078 2428 
Q 984 2206 984 1816 
L 984 0 
L 422 0 
z
" id="ArialMT-68" transform="scale(0.015625)"/>
      <path d="M 213 1659 
Q 213 2581 725 3025 
Q 1153 3394 1769 3394 
Q 2453 3394 2887 2945 
Q 3322 2497 3322 1706 
Q 3322 1066 3130 698 
Q 2938 331 2570 128 
Q 2203 -75 1769 -75 
Q 1072 -75 642 372 
Q 213 819 213 1659 
z
M 791 1659 
Q 791 1022 1069 705 
Q 1347 388 1769 388 
Q 2188 388 2466 706 
Q 2744 1025 2744 1678 
Q 2744 2294 2464 2611 
Q 2184 2928 1769 2928 
Q 1347 2928 1069 2612 
Q 791 2297 791 1659 
z
M 891 3969 
L 891 4609 
L 1478 4609 
L 1478 3969 
L 891 3969 
z
M 2056 3969 
L 2056 4609 
L 2644 4609 
L 2644 3969 
L 2056 3969 
z
" id="ArialMT-f6" transform="scale(0.015625)"/>
     </defs>
     <use xlink:href="#ArialMT-54"/>
     <use x="49.958984" xlink:href="#ArialMT-65"/>
     <use x="105.574219" xlink:href="#ArialMT-61"/>
     <use x="161.189453" xlink:href="#ArialMT-6d"/>
     <use x="244.490234" xlink:href="#ArialMT-20"/>
     <use x="270.523438" xlink:href="#ArialMT-54"/>
     <use x="320.482422" xlink:href="#ArialMT-6f"/>
     <use x="376.097656" xlink:href="#ArialMT-64"/>
     <use x="431.712891" xlink:href="#ArialMT-65"/>
     <use x="487.328125" xlink:href="#ArialMT-6e"/>
     <use x="542.943359" xlink:href="#ArialMT-68"/>
     <use x="598.558594" xlink:href="#ArialMT-f6"/>
     <use x="654.173828" xlink:href="#ArialMT-66"/>
     <use x="681.957031" xlink:href="#ArialMT-65"/>
     <use x="737.572266" xlink:href="#ArialMT-72"/>
    </g>
   </g>
   <g id="text_32">
    <!-- Tierschutzallianz -->
    <g transform="translate(210.785232 325.612339)scale(0.079968 -0.079968)">
     <defs>
      <path d="M 2588 1216 
L 3141 1144 
Q 3050 572 2676 248 
Q 2303 -75 1759 -75 
Q 1078 -75 664 370 
Q 250 816 250 1647 
Q 250 2184 428 2587 
Q 606 2991 970 3192 
Q 1334 3394 1763 3394 
Q 2303 3394 2647 3120 
Q 2991 2847 3088 2344 
L 2541 2259 
Q 2463 2594 2264 2762 
Q 2066 2931 1784 2931 
Q 1359 2931 1093 2626 
Q 828 2322 828 1663 
Q 828 994 1084 691 
Q 1341 388 1753 388 
Q 2084 388 2306 591 
Q 2528 794 2588 1216 
z
" id="ArialMT-63" transform="scale(0.015625)"/>
     </defs>
     <use xlink:href="#ArialMT-54"/>
     <use x="57.333984" xlink:href="#ArialMT-69"/>
     <use x="79.550781" xlink:href="#ArialMT-65"/>
     <use x="135.166016" xlink:href="#ArialMT-72"/>
     <use x="168.466797" xlink:href="#ArialMT-73"/>
     <use x="218.466797" xlink:href="#ArialMT-63"/>
     <use x="268.466797" xlink:href="#ArialMT-68"/>
     <use x="324.082031" xlink:href="#ArialMT-75"/>
     <use x="379.697266" xlink:href="#ArialMT-74"/>
     <use x="407.480469" xlink:href="#ArialMT-7a"/>
     <use x="457.480469" xlink:href="#ArialMT-61"/>
     <use x="513.095703" xlink:href="#ArialMT-6c"/>
     <use x="535.3125" xlink:href="#ArialMT-6c"/>
     <use x="557.529297" xlink:href="#ArialMT-69"/>
     <use x="579.746094" xlink:href="#ArialMT-61"/>
     <use x="635.361328" xlink:href="#ArialMT-6e"/>
     <use x="690.976562" xlink:href="#ArialMT-7a"/>
    </g>
   </g>
   <g id="text_33">
    <!-- Tierschutzpartei -->
    <g transform="translate(78.528574 278.703035)scale(0.079968 -0.079968)">
     <use xlink:href="#ArialMT-54"/>
     <use x="57.333984" xlink:href="#ArialMT-69"/>
     <use x="79.550781" xlink:href="#ArialMT-65"/>
     <use x="135.166016" xlink:href="#ArialMT-72"/>
     <use x="168.466797" xlink:href="#ArialMT-73"/>
     <use x="218.466797" xlink:href="#ArialMT-63"/>
     <use x="268.466797" xlink:href="#ArialMT-68"/>
     <use x="324.082031" xlink:href="#ArialMT-75"/>
     <use x="379.697266" xlink:href="#ArialMT-74"/>
     <use x="407.480469" xlink:href="#ArialMT-7a"/>
     <use x="457.480469" xlink:href="#ArialMT-70"/>
     <use x="513.095703" xlink:href="#ArialMT-61"/>
     <use x="568.710938" xlink:href="#ArialMT-72"/>
     <use x="602.011719" xlink:href="#ArialMT-74"/>
     <use x="629.794922" xlink:href="#ArialMT-65"/>
     <use x="685.410156" xlink:href="#ArialMT-69"/>
    </g>
   </g>
   <g id="text_34">
    <!-- UNABHÄNGIGE -->
    <g transform="translate(382.424431 424.661337)scale(0.079968 -0.079968)">
     <use xlink:href="#ArialMT-55"/>
     <use x="72.216797" xlink:href="#ArialMT-4e"/>
     <use x="144.433594" xlink:href="#ArialMT-41"/>
     <use x="211.132812" xlink:href="#ArialMT-42"/>
     <use x="277.832031" xlink:href="#ArialMT-48"/>
     <use x="350.048828" xlink:href="#ArialMT-c4"/>
     <use x="416.748047" xlink:href="#ArialMT-4e"/>
     <use x="488.964844" xlink:href="#ArialMT-47"/>
     <use x="566.748047" xlink:href="#ArialMT-49"/>
     <use x="594.53125" xlink:href="#ArialMT-47"/>
     <use x="672.314453" xlink:href="#ArialMT-45"/>
    </g>
   </g>
   <g id="text_35">
    <!-- V-Partei³ -->
    <g transform="translate(103.217398 259.959224)scale(0.079968 -0.079968)">
     <defs>
      <path d="M 203 1375 
L 203 1941 
L 1931 1941 
L 1931 1375 
L 203 1375 
z
" id="ArialMT-2d" transform="scale(0.015625)"/>
      <path d="M 103 2903 
L 559 2950 
Q 622 2763 722 2694 
Q 856 2600 1041 2600 
Q 1263 2600 1397 2722 
Q 1531 2844 1531 3016 
Q 1531 3172 1418 3265 
Q 1306 3359 1034 3359 
Q 997 3359 931 3353 
Q 888 3350 863 3350 
L 931 3694 
Q 1184 3691 1301 3784 
Q 1419 3878 1419 4013 
Q 1419 4128 1325 4209 
Q 1231 4291 1047 4291 
Q 872 4291 773 4222 
Q 675 4153 603 3972 
L 156 4044 
Q 284 4375 479 4506 
Q 675 4638 1050 4638 
Q 1500 4638 1704 4470 
Q 1909 4303 1909 4053 
Q 1909 3881 1798 3747 
Q 1688 3613 1478 3553 
Q 1756 3484 1887 3326 
Q 2019 3169 2019 2956 
Q 2019 2666 1772 2450 
Q 1525 2234 1069 2234 
Q 631 2234 400 2407 
Q 169 2581 103 2903 
z
" id="ArialMT-b3" transform="scale(0.015625)"/>
     </defs>
     <use xlink:href="#ArialMT-56"/>
     <use x="61.199219" xlink:href="#ArialMT-2d"/>
     <use x="94.5" xlink:href="#ArialMT-50"/>
     <use x="161.199219" xlink:href="#ArialMT-61"/>
     <use x="216.814453" xlink:href="#ArialMT-72"/>
     <use x="250.115234" xlink:href="#ArialMT-74"/>
     <use x="277.898438" xlink:href="#ArialMT-65"/>
     <use x="333.513672" xlink:href="#ArialMT-69"/>
     <use x="355.730469" xlink:href="#ArialMT-b3"/>
    </g>
   </g>
   <g id="text_36">
    <!-- Volt -->
    <g transform="translate(110.446848 264.774091)scale(0.079968 -0.079968)">
     <use xlink:href="#ArialMT-56"/>
     <use x="61.199219" xlink:href="#ArialMT-6f"/>
     <use x="116.814453" xlink:href="#ArialMT-6c"/>
     <use x="139.03125" xlink:href="#ArialMT-74"/>
    </g>
   </g>
   <g id="text_37">
    <!-- dieBasis -->
    <g transform="translate(360.132643 465.230129)scale(0.079968 -0.079968)">
     <use xlink:href="#ArialMT-64"/>
     <use x="55.615234" xlink:href="#ArialMT-69"/>
     <use x="77.832031" xlink:href="#ArialMT-65"/>
     <use x="133.447266" xlink:href="#ArialMT-42"/>
     <use x="200.146484" xlink:href="#ArialMT-61"/>
     <use x="255.761719" xlink:href="#ArialMT-73"/>
     <use x="305.761719" xlink:href="#ArialMT-69"/>
     <use x="327.978516" xlink:href="#ArialMT-73"/>
    </g>
   </g>
   <g id="text_38">
    <!-- du. -->
    <g transform="translate(78.138603 342.978994)scale(0.079968 -0.079968)">
     <use xlink:href="#ArialMT-64"/>
     <use x="55.615234" xlink:href="#ArialMT-75"/>
     <use x="111.230469" xlink:href="#ArialMT-2e"/>
    </g>
   </g>
   <g id="text_39">
    <!-- ÖDP -->
    <g transform="translate(122.622114 316.296217)scale(0.079968 -0.079968)">
     <defs>
      <path d="M 309 2231 
Q 309 3372 921 4017 
Q 1534 4663 2503 4663 
Q 3138 4663 3647 4359 
Q 4156 4056 4423 3514 
Q 4691 2972 4691 2284 
Q 4691 1588 4409 1038 
Q 4128 488 3612 205 
Q 3097 -78 2500 -78 
Q 1853 -78 1343 234 
Q 834 547 571 1087 
Q 309 1628 309 2231 
z
M 934 2222 
Q 934 1394 1379 917 
Q 1825 441 2497 441 
Q 3181 441 3623 922 
Q 4066 1403 4066 2288 
Q 4066 2847 3877 3264 
Q 3688 3681 3323 3911 
Q 2959 4141 2506 4141 
Q 1863 4141 1398 3698 
Q 934 3256 934 2222 
z
M 1613 4863 
L 1613 5503 
L 2200 5503 
L 2200 4863 
L 1613 4863 
z
M 2778 4863 
L 2778 5503 
L 3366 5503 
L 3366 4863 
L 2778 4863 
z
" id="ArialMT-d6" transform="scale(0.015625)"/>
     </defs>
     <use xlink:href="#ArialMT-d6"/>
     <use x="77.783203" xlink:href="#ArialMT-44"/>
     <use x="150" xlink:href="#ArialMT-50"/>
    </g>
   </g>
   <g id="text_40">
    <!-- Hauptkomponentenanalyse (PCA) der Parteien -->
    <g style="fill:#262626;" transform="translate(217.34505 14.1885)scale(0.096 -0.096)">
     <defs>
      <path d="M 425 0 
L 425 4581 
L 988 4581 
L 988 1969 
L 2319 3319 
L 3047 3319 
L 1778 2088 
L 3175 0 
L 2481 0 
L 1384 1697 
L 988 1316 
L 988 0 
L 425 0 
z
" id="ArialMT-6b" transform="scale(0.015625)"/>
      <path d="M 397 -1278 
L 334 -750 
Q 519 -800 656 -800 
Q 844 -800 956 -737 
Q 1069 -675 1141 -563 
Q 1194 -478 1313 -144 
Q 1328 -97 1363 -6 
L 103 3319 
L 709 3319 
L 1400 1397 
Q 1534 1031 1641 628 
Q 1738 1016 1872 1384 
L 2581 3319 
L 3144 3319 
L 1881 -56 
Q 1678 -603 1566 -809 
Q 1416 -1088 1222 -1217 
Q 1028 -1347 759 -1347 
Q 597 -1347 397 -1278 
z
" id="ArialMT-79" transform="scale(0.015625)"/>
     </defs>
     <use xlink:href="#ArialMT-48"/>
     <use x="72.216797" xlink:href="#ArialMT-61"/>
     <use x="127.832031" xlink:href="#ArialMT-75"/>
     <use x="183.447266" xlink:href="#ArialMT-70"/>
     <use x="239.0625" xlink:href="#ArialMT-74"/>
     <use x="266.845703" xlink:href="#ArialMT-6b"/>
     <use x="316.845703" xlink:href="#ArialMT-6f"/>
     <use x="372.460938" xlink:href="#ArialMT-6d"/>
     <use x="455.761719" xlink:href="#ArialMT-70"/>
     <use x="511.376953" xlink:href="#ArialMT-6f"/>
     <use x="566.992188" xlink:href="#ArialMT-6e"/>
     <use x="622.607422" xlink:href="#ArialMT-65"/>
     <use x="678.222656" xlink:href="#ArialMT-6e"/>
     <use x="733.837891" xlink:href="#ArialMT-74"/>
     <use x="761.621094" xlink:href="#ArialMT-65"/>
     <use x="817.236328" xlink:href="#ArialMT-6e"/>
     <use x="872.851562" xlink:href="#ArialMT-61"/>
     <use x="928.466797" xlink:href="#ArialMT-6e"/>
     <use x="984.082031" xlink:href="#ArialMT-61"/>
     <use x="1039.697266" xlink:href="#ArialMT-6c"/>
     <use x="1061.914062" xlink:href="#ArialMT-79"/>
     <use x="1111.914062" xlink:href="#ArialMT-73"/>
     <use x="1161.914062" xlink:href="#ArialMT-65"/>
     <use x="1217.529297" xlink:href="#ArialMT-20"/>
     <use x="1245.3125" xlink:href="#ArialMT-28"/>
     <use x="1278.613281" xlink:href="#ArialMT-50"/>
     <use x="1345.3125" xlink:href="#ArialMT-43"/>
     <use x="1417.529297" xlink:href="#ArialMT-41"/>
     <use x="1484.228516" xlink:href="#ArialMT-29"/>
     <use x="1517.529297" xlink:href="#ArialMT-20"/>
     <use x="1545.3125" xlink:href="#ArialMT-64"/>
     <use x="1600.927734" xlink:href="#ArialMT-65"/>
     <use x="1656.542969" xlink:href="#ArialMT-72"/>
     <use x="1689.84375" xlink:href="#ArialMT-20"/>
     <use x="1717.626953" xlink:href="#ArialMT-50"/>
     <use x="1784.326172" xlink:href="#ArialMT-61"/>
     <use x="1839.941406" xlink:href="#ArialMT-72"/>
     <use x="1873.242188" xlink:href="#ArialMT-74"/>
     <use x="1901.025391" xlink:href="#ArialMT-65"/>
     <use x="1956.640625" xlink:href="#ArialMT-69"/>
     <use x="1978.857422" xlink:href="#ArialMT-65"/>
     <use x="2034.472656" xlink:href="#ArialMT-6e"/>
    </g>
   </g>
   <g id="legend_1">
    <g id="patch_7">
     <path d="M 547.6228 84.151625 
L 588.1028 84.151625 
Q 589.8628 84.151625 589.8628 82.391625 
L 589.8628 32.7485 
Q 589.8628 30.9885 588.1028 30.9885 
L 547.6228 30.9885 
Q 545.8628 30.9885 545.8628 32.7485 
L 545.8628 82.391625 
Q 545.8628 84.151625 547.6228 84.151625 
z
" style="fill:#4c4c4c;opacity:0.5;stroke:#4c4c4c;stroke-linejoin:miter;stroke-width:0.8;"/>
    </g>
    <g id="patch_8">
     <path d="M 545.6228 82.151625 
L 586.1028 82.151625 
Q 587.8628 82.151625 587.8628 80.391625 
L 587.8628 30.7485 
Q 587.8628 28.9885 586.1028 28.9885 
L 545.6228 28.9885 
Q 543.8628 28.9885 543.8628 30.7485 
L 543.8628 80.391625 
Q 543.8628 82.151625 545.6228 82.151625 
z
" style="fill:#ffffff;stroke:#cccccc;stroke-linejoin:miter;stroke-width:0.8;"/>
    </g>
    <g id="text_41">
     <!-- Clusters -->
     <g style="fill:#262626;" transform="translate(548.25955 39.38)scale(0.096 -0.096)">
      <use xlink:href="#ArialMT-43"/>
      <use x="72.216797" xlink:href="#ArialMT-6c"/>
      <use x="94.433594" xlink:href="#ArialMT-75"/>
      <use x="150.048828" xlink:href="#ArialMT-73"/>
      <use x="200.048828" xlink:href="#ArialMT-74"/>
      <use x="227.832031" xlink:href="#ArialMT-65"/>
      <use x="283.447266" xlink:href="#ArialMT-72"/>
      <use x="316.748047" xlink:href="#ArialMT-73"/>
     </g>
    </g>
    <g id="PathCollection_8">
     <defs>
      <path d="M 0 3.6 
C 0.954731 3.6 1.870488 3.220681 2.545584 2.545584 
C 3.220681 1.870488 3.6 0.954731 3.6 0 
C 3.6 -0.954731 3.220681 -1.870488 2.545584 -2.545584 
C 1.870488 -3.220681 0.954731 -3.6 0 -3.6 
C -0.954731 -3.6 -1.870488 -3.220681 -2.545584 -2.545584 
C -3.220681 -1.870488 -3.6 -0.954731 -3.6 0 
C -3.6 0.954731 -3.220681 1.870488 -2.545584 2.545584 
C -1.870488 3.220681 -0.954731 3.6 0 3.6 
z
" id="mda8ad89c0c" style="stroke:#023eff;stroke-width:0.8;"/>
     </defs>
     <g>
      <use style="fill:#023eff;stroke:#023eff;stroke-width:0.8;" x="556.1828" xlink:href="#mda8ad89c0c" y="49.676875"/>
     </g>
    </g>
    <g id="PathCollection_9">
     <defs>
      <path d="M 0 3.6 
C 0.954731 3.6 1.870488 3.220681 2.545584 2.545584 
C 3.220681 1.870488 3.6 0.954731 3.6 0 
C 3.6 -0.954731 3.220681 -1.870488 2.545584 -2.545584 
C 1.870488 -3.220681 0.954731 -3.6 0 -3.6 
C -0.954731 -3.6 -1.870488 -3.220681 -2.545584 -2.545584 
C -3.220681 -1.870488 -3.6 -0.954731 -3.6 0 
C -3.6 0.954731 -3.220681 1.870488 -2.545584 2.545584 
C -1.870488 3.220681 -0.954731 3.6 0 3.6 
z
" id="m518256405a" style="stroke:#ff7c00;stroke-width:0.8;"/>
     </defs>
     <g>
      <use style="fill:#ff7c00;stroke:#ff7c00;stroke-width:0.8;" x="556.1828" xlink:href="#m518256405a" y="62.12475"/>
     </g>
    </g>
    <g id="PathCollection_10">
     <defs>
      <path d="M 0 3.6 
C 0.954731 3.6 1.870488 3.220681 2.545584 2.545584 
C 3.220681 1.870488 3.6 0.954731 3.6 0 
C 3.6 -0.954731 3.220681 -1.870488 2.545584 -2.545584 
C 1.870488 -3.220681 0.954731 -3.6 0 -3.6 
C -0.954731 -3.6 -1.870488 -3.220681 -2.545584 -2.545584 
C -3.220681 -1.870488 -3.6 -0.954731 -3.6 0 
C -3.6 0.954731 -3.220681 1.870488 -2.545584 2.545584 
C -1.870488 3.220681 -0.954731 3.6 0 3.6 
z
" id="m81f22868d1" style="stroke:#1ac938;stroke-width:0.8;"/>
     </defs>
     <g>
      <use style="fill:#1ac938;stroke:#1ac938;stroke-width:0.8;" x="556.1828" xlink:href="#m81f22868d1" y="74.572625"/>
     </g>
    </g>
    <g id="PathCollection_11">
     <defs>
      <path d="M 0 3.6 
C 0.954731 3.6 1.870488 3.220681 2.545584 2.545584 
C 3.220681 1.870488 3.6 0.954731 3.6 0 
C 3.6 -0.954731 3.220681 -1.870488 2.545584 -2.545584 
C 1.870488 -3.220681 0.954731 -3.6 0 -3.6 
C -0.954731 -3.6 -1.870488 -3.220681 -2.545584 -2.545584 
C -3.220681 -1.870488 -3.6 -0.954731 -3.6 0 
C -3.6 0.954731 -3.220681 1.870488 -2.545584 2.545584 
C -1.870488 3.220681 -0.954731 3.6 0 3.6 
z
" id="mc1f503b937" style="stroke:#e8000b;stroke-width:0.8;"/>
     </defs>
     <g>
      <use style="fill:#e8000b;stroke:#e8000b;stroke-width:0.8;" x="575.5428" xlink:href="#mc1f503b937" y="49.676875"/>
     </g>
    </g>
    <g id="PathCollection_12">
     <defs>
      <path d="M 0 3.6 
C 0.954731 3.6 1.870488 3.220681 2.545584 2.545584 
C 3.220681 1.870488 3.6 0.954731 3.6 0 
C 3.6 -0.954731 3.220681 -1.870488 2.545584 -2.545584 
C 1.870488 -3.220681 0.954731 -3.6 0 -3.6 
C -0.954731 -3.6 -1.870488 -3.220681 -2.545584 -2.545584 
C -3.220681 -1.870488 -3.6 -0.954731 -3.6 0 
C -3.6 0.954731 -3.220681 1.870488 -2.545584 2.545584 
C -1.870488 3.220681 -0.954731 3.6 0 3.6 
z
" id="m82c23790d3" style="stroke:#8b2be2;stroke-width:0.8;"/>
     </defs>
     <g>
      <use style="fill:#8b2be2;stroke:#8b2be2;stroke-width:0.8;" x="575.5428" xlink:href="#m82c23790d3" y="62.12475"/>
     </g>
    </g>
    <g id="PathCollection_13">
     <defs>
      <path d="M 0 3.6 
C 0.954731 3.6 1.870488 3.220681 2.545584 2.545584 
C 3.220681 1.870488 3.6 0.954731 3.6 0 
C 3.6 -0.954731 3.220681 -1.870488 2.545584 -2.545584 
C 1.870488 -3.220681 0.954731 -3.6 0 -3.6 
C -0.954731 -3.6 -1.870488 -3.220681 -2.545584 -2.545584 
C -3.220681 -1.870488 -3.6 -0.954731 -3.6 0 
C -3.6 0.954731 -3.220681 1.870488 -2.545584 2.545584 
C -1.870488 3.220681 -0.954731 3.6 0 3.6 
z
" id="m38e41f319c" style="stroke:#9f4800;stroke-width:0.8;"/>
     </defs>
     <g>
      <use style="fill:#9f4800;stroke:#9f4800;stroke-width:0.8;" x="575.5428" xlink:href="#m38e41f319c" y="74.572625"/>
     </g>
    </g>
   </g>
  </g>
 </g>
 <defs>
  <clipPath id="p3e7f060e57">
   <rect height="543.6" width="558" x="38.6628" y="20.1885"/>
  </clipPath>
 </defs>
</svg>
