<?xml version="1.0" encoding="UTF-8"?>
<svg width="140px" height="40px" viewBox="0 0 140 40" version="1.1" xmlns="http://www.w3.org/2000/svg" xmlns:xlink="http://www.w3.org/1999/xlink">
    <!-- Generator: Sketch 56.2 (81672) - https://sketch.com -->
    <title>_BLPB</title>
    <desc>Created with Sketch.</desc>
    <defs>
        <polygon id="path-1" points="0 40 140 40 140 0 0 0"></polygon>
    </defs>
    <g id="BLPB" stroke="none" stroke-width="1" fill="none" fill-rule="evenodd">
        <g id="Group-63">
            <path d="M50,29.3773087 L50.9387097,29.3773087 L50.9,34 L51.6741935,34 L51.7129032,29.3773087 L53,29.3773087 L53,28.7440633 L51.6842742,28.7440633 L51.7129032,27.8997361 C51.7326613,27.2664908 52.0129032,26.6965699 52.6616935,26.6965699 L53,26.6965699 L53,26 C51.8967742,26 51.083871,26.4432718 50.9778226,27.7308707 C50.9487903,28.0791557 50.9387097,28.4379947 50.9387097,28.7440633 L50,28.7440633 L50,29.3773087" id="Fill-1" fill="#231F20"></path>
            <mask id="mask-2" fill="white">
                <use xlink:href="#path-1"></use>
            </mask>
            <g id="Clip-4"></g>
            <path d="M54.7227723,28.0258621 L55.6336634,28.0258621 L55.6336634,27 L54.7227723,27 L54.7227723,28.0258621 Z M56.3465347,28.0258621 L57.2578383,28.0258621 L57.2578383,27 L56.3465347,27 L56.3465347,28.0258621 Z M54.009901,31.3347701 C54.009901,31.716954 54,32.0991379 54,32.4813218 C54,33.4066092 54.3663366,34 55.5049505,34 C56.0891089,34 56.7623762,33.658046 57.1782178,33.0545977 L57.1980198,33.0545977 L57.1683168,33.8591954 L57.960396,33.8591954 L58,28.8505747 L57.2079208,28.8505747 L57.1683168,32.3505747 C56.6633663,32.9741379 56.2079208,33.2758621 55.6930693,33.2758621 C55.1485149,33.2758621 54.7920792,33.0244253 54.7920792,32.4813218 C54.7920792,31.9885057 54.8019802,31.545977 54.8019802,31.1034483 L54.8217822,28.8505747 L54.029703,28.8505747 L54.009901,31.3347701 L54.009901,31.3347701 Z" id="Fill-3" fill="#231F20" mask="url(#mask-2)"></path>
            <path d="M59,34 L59.8953832,34 L59.9406187,30.8066406 C60.4214208,30.0253906 61.0146122,29.7617188 61.3839577,29.7617188 C61.5070729,29.7617188 61.6413804,29.7910156 61.7309187,29.8105469 L62,29.0683594 C61.8764185,29.0292969 61.7090005,29 61.5182652,29 C60.7124203,29 60.1639981,29.6640625 59.9737292,30.1035156 L59.9513446,30.0839844 L59.9625369,29.1367188 L59.0452355,29.1367188 L59,34" id="Fill-5" fill="#231F20" mask="url(#mask-2)"></path>
            <path d="M66,37 L66.7223476,37 L66.7407825,33.8272251 L66.7588412,33.8272251 C66.9841986,34.1937173 67.4356659,34.5078534 68.0316027,34.5078534 C69.1877351,34.5078534 70,33.1256545 70,31.7225131 C70,29.6701571 68.9616253,29 68.1941309,29 C67.5620767,29 67.0293454,29.3979058 66.7945824,29.8481675 L66.7765237,29.8481675 L66.7765237,29.1465969 L66.0545523,29.1465969 L66,37 Z M66.7674944,30.6544503 C66.9841986,30.2146597 67.4537246,29.6910995 68.0316027,29.6910995 C68.6550038,29.6910995 69.2234763,30.3403141 69.2234763,31.7539267 C69.2234763,32.7905759 68.6726862,33.8167539 67.8781038,33.8167539 C67.4446953,33.8167539 67.0654628,33.5445026 66.7494357,32.9790576 L66.7674944,30.6544503 L66.7674944,30.6544503 Z" id="Fill-6" fill="#231F20" mask="url(#mask-2)"></path>
            <path d="M70.9033613,31.5 C70.9033613,30.1882129 71.7542017,29.5703422 72.5420168,29.5703422 C73.3928571,29.5703422 74.0966387,30.1882129 74.0966387,31.5 C74.0966387,32.8117871 73.2457983,33.4296578 72.4579832,33.4296578 C71.6071429,33.4296578 70.9033613,32.8117871 70.9033613,31.5 M70,31.5 C70,33.0589354 70.9138655,34 72.447479,34 C74.1071429,34 75,32.7262357 75,31.5 C75,29.9505703 74.0861345,29 72.552521,29 C70.8928571,29 70,30.2737643 70,31.5" id="Fill-7" fill="#231F20" mask="url(#mask-2)"></path>
            <polygon id="Fill-8" fill="#231F20" mask="url(#mask-2)" points="76 34 76.9306835 34 77 26 76.0698013 26"></polygon>
            <path d="M79,34 L79.9306835,34 L79.9772176,28.9624277 L79.0465342,28.9624277 L79,34 Z M79,27.9104046 L80,27.9104046 L80,27 L79,27 L79,27.9104046 Z" id="Fill-9" fill="#231F20" mask="url(#mask-2)"></path>
            <path d="M80,28.8505747 L80,29.454023 L80.8121019,29.454023 L80.7925955,31.2844828 C80.7834395,31.9784483 80.7834395,32.3908046 80.7834395,32.7227011 C80.7834395,33.5172414 81.0700637,34 81.8057325,34 C82.2261146,34 82.6843153,33.7887931 83,33.5675287 L82.7515924,33.0445402 C82.5700637,33.1652299 82.2452229,33.3362069 81.9868631,33.3362069 C81.6624204,33.3362069 81.5477707,33.1048851 81.5477707,32.6925287 C81.5477707,32.441092 81.5477707,32.0689655 81.5573248,31.5057471 L81.5764331,29.454023 L82.8853503,29.454023 L82.8853503,28.8505747 L81.5859873,28.8505747 L81.6050955,27 L80.8407643,27 L80.821258,28.8505747 L80,28.8505747" id="Fill-10" fill="#231F20" mask="url(#mask-2)"></path>
            <path d="M84,34 L84.9302326,34 L84.9767442,28.9624277 L84.0465116,28.9624277 L84,34 Z M84,27.9104046 L85,27.9104046 L85,27 L84,27 L84,27.9104046 Z" id="Fill-11" fill="#231F20" mask="url(#mask-2)"></path>
            <path d="M86,33.5342205 C86.4179567,33.8098859 86.9102167,34 87.4489164,34 C88.2105263,34 88.9814241,33.4676806 88.9814241,32.5646388 C88.9814241,30.9581749 86.8359133,31.3764259 86.8359133,30.3593156 C86.8359133,29.7984791 87.2349071,29.5703422 87.7739938,29.5703422 C88.0990712,29.5703422 88.3869969,29.7319392 88.6559598,29.8840304 L89,29.3992395 C88.6559598,29.161597 88.1729876,29 87.6528638,29 C86.8080495,29 86.0924923,29.5228137 86.0924923,30.4163498 C86.0924923,32.0038023 88.2383901,31.4904943 88.2383901,32.6692015 C88.2383901,33.2015209 87.74613,33.4296578 87.3374613,33.4296578 C86.9380805,33.4296578 86.5754644,33.2110266 86.3154025,33.0304183 L86,33.5342205" id="Fill-12" fill="#231F20" mask="url(#mask-2)"></path>
            <path d="M94,29.7889734 C93.6056397,29.3136882 93.0096801,29 92.3535354,29 C90.979798,29 90,30.1977186 90,31.5 C90,33.0684411 90.979798,34 92.2323232,34 C92.918771,34 93.4444444,33.7528517 93.9292929,33.2110266 L93.5151515,32.7642586 C93.2723064,33.0684411 92.8080808,33.3726236 92.3737374,33.3726236 C91.5959596,33.3726236 90.8686869,32.7072243 90.8686869,31.6425856 C90.8686869,30.3117871 91.6363636,29.6273764 92.3838384,29.6273764 C92.7979798,29.6273764 93.1616162,29.8174905 93.4747475,30.1787072 L94,29.7889734" id="Fill-13" fill="#231F20" mask="url(#mask-2)"></path>
            <path d="M95,34 L95.7920792,34 L95.8320957,30.288 C96.3366337,29.6266667 96.7920792,29.3066667 97.3069307,29.3066667 C97.8514851,29.3066667 98.2079208,29.5733333 98.2079208,30.1493333 C98.2079208,30.672 98.1980198,31.1413333 98.1980198,31.6106667 L98.1782178,34 L98.970297,34 L98.990099,31.3653333 C98.990099,30.96 99,30.5546667 99,30.1493333 C99,29.168 98.6340759,28.5386667 97.4950495,28.5386667 C96.9108911,28.5386667 96.2376238,28.9013333 95.8415842,29.52 L95.8217822,29.52 L95.8613861,26 L95.039604,26 L95,34" id="Fill-14" fill="#231F20" mask="url(#mask-2)"></path>
            <path d="M104,31.3954373 L104,31.243346 C104,29.9695817 103.447222,29 102.171429,29 C100.895238,29 100,30.1977186 100,31.5 C100,33.0494297 100.761905,34 102.075794,34 C102.780952,34 103.399603,33.6387833 103.885714,33.1539924 L103.513889,32.7452471 C103.104365,33.1159696 102.704365,33.4296578 102.161508,33.4296578 C101.190476,33.4296578 100.818651,32.5456274 100.818651,31.5570342 L100.818651,31.3954373 L104,31.3954373 Z M100.885317,30.8821293 C101.009524,30.2357414 101.46627,29.5703422 102.180556,29.5703422 C102.951984,29.5703422 103.237698,30.2072243 103.237698,30.8821293 L100.885317,30.8821293 L100.885317,30.8821293 Z" id="Fill-15" fill="#231F20" mask="url(#mask-2)"></path>
            <path d="M108,34 L109.856459,34 C111.157895,34 112,33.3020231 112,32.0578035 C112,31.1676301 111.511962,30.5101156 110.679426,30.3482659 L110.679426,30.3280347 C111.435407,30.1054913 111.84689,29.5592486 111.84689,28.699422 C111.84689,27.9104046 111.349282,27 109.894737,27 L108.057416,27 L108,34 Z M108.870813,30.6820809 L109.645933,30.6820809 C110.602871,30.6820809 111.177033,31.1271676 111.177033,31.9768786 C111.177033,32.9378613 110.641148,33.3323699 109.799043,33.3323699 L108.832935,33.3323699 L108.870813,30.6820809 Z M108.889952,27.6069364 L109.550239,27.6069364 C110.602871,27.6069364 111.023923,28.0317919 111.023923,28.8106936 C111.023923,29.5187861 110.583333,30.0144509 109.492823,30.0144509 L108.870813,30.0144509 L108.889952,27.6069364 L108.889952,27.6069364 Z" id="Fill-16" fill="#231F20" mask="url(#mask-2)"></path>
            <path d="M114,34 L114.930233,34 L114.976744,28.9624277 L114.046512,28.9624277 L114,34 Z M114,27.9104046 L115,27.9104046 L115,27 L114,27 L114,27.9104046 Z" id="Fill-17" fill="#231F20" mask="url(#mask-2)"></path>
            <polygon id="Fill-18" fill="#231F20" mask="url(#mask-2)" points="116 34 116.930233 34 117 26 116.069767 26"></polygon>
            <path d="M121.220333,30.1727749 L121.202192,30.1727749 C121.029856,29.8062827 120.576342,29.4921466 120.041194,29.4921466 C119.016251,29.4921466 118,30.6963351 118,32.2774869 C118,34.3298429 119.043462,35 119.814437,35 C120.449358,35 120.984505,34.6020942 121.193122,34.1518325 L121.211262,34.1518325 L121.193122,34.8534031 L121.927816,34.8534031 L122,27 L121.256614,27 L121.220333,30.1727749 Z M121.202192,33.3455497 C121.029856,33.7853403 120.558201,34.3089005 119.977324,34.3089005 C119.360922,34.3089005 118.780423,33.6596859 118.780423,32.2460733 C118.780423,31.2094241 119.324641,30.1832461 120.131897,30.1832461 C120.566893,30.1832461 120.921013,30.4031414 121.229403,31.0209424 L121.202192,33.3455497 L121.202192,33.3455497 Z" id="Fill-19" fill="#231F20" mask="url(#mask-2)"></path>
            <path d="M124.009901,31.4121094 C124.009901,31.7832031 124,32.1542969 124,32.5253906 C124,33.4238281 124.365924,34 125.50495,34 C126.088696,34 126.762376,33.6679688 127.178218,33.0820312 L127.19802,33.0820312 L127.167904,33.8632812 L127.959983,33.8632812 L128,29 L127.207921,29 L127.167904,32.3984375 C126.663366,33.0039062 126.207508,33.296875 125.692657,33.296875 C125.148515,33.296875 124.792079,33.0527344 124.792079,32.5253906 C124.792079,32.046875 124.80198,31.6171875 124.80198,31.1875 L124.821782,29 L124.029703,29 L124.009901,31.4121094" id="Fill-20" fill="#231F20" mask="url(#mask-2)"></path>
            <path d="M129,34 L129.792161,34 L129.831769,30.6015625 C130.336359,29.9960938 130.792264,29.703125 131.307169,29.703125 C131.851367,29.703125 132.207839,29.9472656 132.207839,30.4746094 C132.207839,30.953125 132.19835,31.3828125 132.19835,31.8125 L132.178133,34 L132.970707,34 L132.990511,31.5878906 C132.990511,31.2167969 133,30.8457031 133,30.4746094 C133,29.5761719 132.634038,29 131.495307,29 C130.911088,29 130.237751,29.3320312 129.821454,29.9179688 L129.80165,29.9179688 L129.831769,29.1367188 L129.039608,29.1367188 L129,34" id="Fill-21" fill="#231F20" mask="url(#mask-2)"></path>
            <path d="M140,29.1824866 L138.353724,29.2105615 C138.075969,29.0561497 137.748615,29 137.430768,29 C136.498305,29 135.665454,29.6176471 135.665454,30.5347594 C135.665454,31.0775401 135.833678,31.4612299 136.289989,31.7981283 C135.436885,32.2566845 135.139291,32.5 135.139291,32.7807487 C135.139291,33.0614973 135.457138,33.3048128 136.329669,33.3796791 L136.329669,33.3983957 C135.804332,33.6604278 135,34.0347594 135,34.6898396 C135,35.7660428 136.399107,36 137.281971,36 C138.303712,36 139.742085,35.4572193 139.742085,34.315508 C139.742085,33.4826203 138.90882,33.1831551 137.619244,33.0053476 C136.210631,32.8088235 136.051914,32.6778075 136.051914,32.5093583 C136.051914,32.3970588 136.141192,32.2847594 136.597917,31.9665775 C136.875258,32.0882353 137.143093,32.144385 137.460527,32.144385 C138.422749,32.144385 139.186575,31.4889149 139.186575,30.5881796 C139.186575,30.2883244 139.097297,29.978721 138.829462,29.6878342 L140,29.7159091 L140,29.1824866 Z M135.793999,34.671123 C135.793999,34.2406417 136.012648,33.9411765 136.875258,33.5013369 C138.472762,33.7727273 138.888981,33.9411765 138.888981,34.4745989 C138.888981,35.2419786 137.85732,35.5508021 137.242291,35.5508021 C136.666942,35.5508021 135.793999,35.3636364 135.793999,34.671123 L135.793999,34.671123 Z M138.39299,30.5815508 C138.39299,31.1524064 138.115235,31.6390374 137.381169,31.6390374 C136.786393,31.6390374 136.458626,31.1524064 136.458626,30.6096257 C136.458626,29.9545455 136.875258,29.5053476 137.410928,29.5053476 C138.115235,29.5053476 138.39299,29.9545455 138.39299,30.5815508 L138.39299,30.5815508 Z" id="Fill-22" fill="#231F20" mask="url(#mask-2)"></path>
            <polygon id="Fill-23" fill="#231F20" mask="url(#mask-2)" points="54 22 54 21.2716763 50.9032258 21.2716763 50.9657736 15 50.0634226 15 50 22"></polygon>
            <path d="M59.7618402,21.2680608 C59.6208424,21.3536122 59.4902386,21.4296578 59.3058568,21.4296578 C58.9700832,21.4296578 58.9158532,21.0969582 58.9158532,20.7547529 C58.9158532,19.918251 59.0021692,19.0912548 59.0021692,18.1977186 C59.0021692,17.4657795 58.5470897,17 57.6464208,17 C56.8659617,17 56.5179863,17.1711027 55.4342914,17.7889734 L55.792209,18.28327 C56.583966,17.7604563 56.9305857,17.6273764 57.3540311,17.6273764 C57.9279646,17.6273764 58.1783261,17.9315589 58.1783261,18.3403042 C58.1783261,18.539924 58.1670282,18.7395437 58.1557303,18.9391635 C56.9744215,18.9771863 55,19.2908745 55,20.6311787 C55,21.4296578 55.6078272,22 56.562274,22 C57.2564172,22 57.7765727,21.6577947 58.1891721,21.2110266 C58.2321041,21.6102662 58.5037057,22 58.9917751,22 C59.3709328,22 59.6963124,21.8669202 60,21.6577947 L59.7618402,21.2680608 Z M58.1127983,20.7357414 C57.7765727,21.0969582 57.3644252,21.4296578 56.8334237,21.4296578 C56.2364425,21.4296578 55.8681309,21.1539924 55.8681309,20.621673 C55.8681309,19.8136882 56.64859,19.5665399 58.1557303,19.3954373 L58.1127983,20.7357414 L58.1127983,20.7357414 Z" id="Fill-24" fill="#231F20" mask="url(#mask-2)"></path>
            <path d="M60,22 L60.7921609,22 L60.831769,18.6015625 C61.3363589,17.9960937 61.7922641,17.703125 62.3071686,17.703125 C62.8513667,17.703125 63.2078391,17.9472656 63.2078391,18.4746094 C63.2078391,18.953125 63.1983497,19.3828125 63.1983497,19.8125 L63.1781331,22 L63.9707065,22 L63.9905106,19.5878906 C63.9905106,19.2167969 64,18.8457031 64,18.4746094 C64,17.5761719 63.6340382,17 62.4953069,17 C61.9110882,17 61.2377514,17.3320312 60.8214544,17.9179688 L60.8016503,17.9179688 L60.831769,17.1367188 L60.039608,17.1367188 L60,22" id="Fill-25" fill="#231F20" mask="url(#mask-2)"></path>
            <path d="M69.2203326,17.1727749 L69.2018141,17.1727749 C69.0294785,16.8062827 68.5763416,16.4921466 68.0411943,16.4921466 C67.0162509,16.4921466 66,17.6963351 66,19.2774869 C66,21.3298429 67.0430839,22 67.814059,22 C68.4493575,22 68.9845049,21.6020942 69.1931217,21.1518325 L69.2112623,21.1518325 L69.1931217,21.8534031 L69.9274376,21.8534031 L70,14 L69.2566138,14 L69.2203326,17.1727749 Z M69.2018141,20.3455497 C69.0294785,20.7853403 68.5578231,21.3089005 67.9777022,21.3089005 C67.3605442,21.3089005 66.7804233,20.6596859 66.7804233,19.2460733 C66.7804233,18.2094241 67.324263,17.1832461 68.1315193,17.1832461 C68.5668934,17.1832461 68.9206349,17.4031414 69.2290249,18.0209424 L69.2018141,20.3455497 L69.2018141,20.3455497 Z" id="Fill-26" fill="#231F20" mask="url(#mask-2)"></path>
            <path d="M75,19.3954373 L75,19.243346 C75,17.9695817 74.447619,17 73.1718254,17 C71.8952381,17 71,18.1977186 71,19.5 C71,21.0494297 71.7619048,22 73.0757937,22 C73.7809524,22 74.4,21.6387833 74.8857143,21.1539924 L74.5142857,20.7452471 C74.1047619,21.1159696 73.7047619,21.4296578 73.1619048,21.4296578 C72.1904762,21.4296578 71.8190476,20.5456274 71.8190476,19.5570342 L71.8190476,19.3954373 L75,19.3954373 Z M71.8853175,18.8821293 C72.0095238,18.2357414 72.4666667,17.5703422 73.1809524,17.5703422 C73.952381,17.5703422 74.2380952,18.2072243 74.2380952,18.8821293 L71.8853175,18.8821293 L71.8853175,18.8821293 Z" id="Fill-27" fill="#231F20" mask="url(#mask-2)"></path>
            <path d="M76,21.5342205 C76.4179567,21.8098859 76.9106037,22 77.4489164,22 C78.2105263,22 78.9814241,21.4676806 78.9814241,20.5646388 C78.9814241,18.9581749 76.8359133,19.3764259 76.8359133,18.3593156 C76.8359133,17.7984791 77.2352941,17.5703422 77.7739938,17.5703422 C78.0990712,17.5703422 78.3869969,17.7319392 78.6563467,17.8840304 L79,17.3992395 C78.6563467,17.161597 78.1733746,17 77.6532508,17 C76.8080495,17 76.0928793,17.5228137 76.0928793,18.4163498 C76.0928793,20.0038023 78.2383901,19.4904943 78.2383901,20.6692015 C78.2383901,21.2015209 77.746517,21.4296578 77.3374613,21.4296578 C76.9380805,21.4296578 76.5758514,21.2110266 76.3157895,21.0304183 L76,21.5342205" id="Fill-28" fill="#231F20" mask="url(#mask-2)"></path>
            <polygon id="Fill-29" fill="#231F20" mask="url(#mask-2)" points="83.8371404 21.3373494 81.1269036 21.3373494 84 17.3614458 83.8274112 17 80.2432318 17 80.2432318 17.7228916 82.8422166 17.7228916 80 21.5783133 80.1721658 22 83.8371404 22"></polygon>
            <path d="M89,19.3954373 L89,19.243346 C89,17.9695817 88.4472222,17 87.1714286,17 C85.8952381,17 85,18.1977186 85,19.5 C85,21.0494297 85.7619048,22 87.0761905,22 C87.7809524,22 88.4,21.6387833 88.8857143,21.1539924 L88.5138889,20.7452471 C88.1047619,21.1159696 87.7047619,21.4296578 87.1619048,21.4296578 C86.1904762,21.4296578 85.8186508,20.5456274 85.8186508,19.5570342 L85.8186508,19.3954373 L89,19.3954373 Z M85.8857143,18.8821293 C86.0095238,18.2357414 86.4666667,17.5703422 87.1809524,17.5703422 C87.9519841,17.5703422 88.2380952,18.2072243 88.2380952,18.8821293 L85.8857143,18.8821293 L85.8857143,18.8821293 Z" id="Fill-30" fill="#231F20" mask="url(#mask-2)"></path>
            <path d="M90,22 L90.7921609,22 L90.831769,18.6015625 C91.3363589,17.9960937 91.7922641,17.703125 92.3071686,17.703125 C92.8517793,17.703125 93.2078391,17.9472656 93.2078391,18.4746094 C93.2078391,18.953125 93.1983497,19.3828125 93.1983497,19.8125 L93.1785456,22 L93.9707065,22 L93.9905106,19.5878906 C93.9905106,19.2167969 94,18.8457031 94,18.4746094 C94,17.5761719 93.6340382,17 92.4953069,17 C91.9110882,17 91.2377514,17.3320312 90.8214544,17.9179688 L90.8016503,17.9179688 L90.831769,17.1367188 L90.039608,17.1367188 L90,22" id="Fill-31" fill="#231F20" mask="url(#mask-2)"></path>
            <path d="M95,16.8505747 L95,17.454023 L95.8121019,17.454023 L95.7929936,19.2844828 C95.7834395,19.9784483 95.7834395,20.3908046 95.7834395,20.7227011 C95.7834395,21.5172414 96.0700637,22 96.8057325,22 C97.2261146,22 97.6847134,21.7887931 98,21.5675287 L97.7515924,21.0445402 C97.5700637,21.1652299 97.2452229,21.3362069 96.9872611,21.3362069 C96.6624204,21.3362069 96.5477707,21.1048851 96.5477707,20.6925287 C96.5477707,20.441092 96.5477707,20.0689655 96.5573248,19.5057471 L96.5764331,17.454023 L97.8853503,17.454023 L97.8853503,16.8505747 L96.5855892,16.8505747 L96.6050955,15 L95.8403662,15 L95.821258,16.8505747 L95,16.8505747" id="Fill-32" fill="#231F20" mask="url(#mask-2)"></path>
            <path d="M99,22 L99.8955224,22 L99.9402985,18.8066406 C100.421642,18.0253906 101.014459,17.7617188 101.383862,17.7617188 C101.507463,17.7617188 101.641325,17.7910156 101.730877,17.8105469 L102,17.0683594 C101.876866,17.0292969 101.708955,17 101.51819,17 C100.712687,17 100.163713,17.6640625 99.9738806,18.1035156 L99.9514925,18.0839844 L99.9622201,17.1367188 L99.0447761,17.1367188 L99,22" id="Fill-33" fill="#231F20" mask="url(#mask-2)"></path>
            <path d="M106.761388,21.2680608 C106.62039,21.3536122 106.490239,21.4296578 106.305857,21.4296578 C105.969631,21.4296578 105.915401,21.0969582 105.915401,20.7547529 C105.915401,19.918251 106.002169,19.0912548 106.002169,18.1977186 C106.002169,17.4657795 105.546638,17 104.646421,17 C103.865962,17 103.518438,17.1711027 102.434291,17.7889734 L102.792209,18.28327 C103.583966,17.7604563 103.930586,17.6273764 104.353579,17.6273764 C104.928416,17.6273764 105.177874,17.9315589 105.177874,18.3403042 C105.177874,18.539924 105.16748,18.7395437 105.156182,18.9391635 C103.97397,18.9771863 102,19.2908745 102,20.6311787 C102,21.4296578 102.607827,22 103.561822,22 C104.255965,22 104.776573,21.6577947 105.189172,21.2110266 C105.232104,21.6102662 105.503706,22 105.991323,22 C106.371385,22 106.696312,21.8669202 107,21.6577947 L106.761388,21.2680608 Z M105.11325,20.7357414 C104.776573,21.0969582 104.364425,21.4296578 103.833424,21.4296578 C103.236443,21.4296578 102.868131,21.1539924 102.868131,20.621673 C102.868131,19.8136882 103.64859,19.5665399 105.156182,19.3954373 L105.11325,20.7357414 L105.11325,20.7357414 Z" id="Fill-34" fill="#231F20" mask="url(#mask-2)"></path>
            <polygon id="Fill-35" fill="#231F20" mask="url(#mask-2)" points="107 22 107.930683 22 108 14 107.069801 14"></polygon>
            <path d="M113,19.3954373 L113,19.243346 C113,17.9695817 112.447619,17 111.171825,17 C109.895238,17 109,18.1977186 109,19.5 C109,21.0494297 109.761905,22 111.07619,22 C111.780952,22 112.4,21.6387833 112.885714,21.1539924 L112.514286,20.7452471 C112.104762,21.1159696 111.704762,21.4296578 111.161905,21.4296578 C110.190476,21.4296578 109.819048,20.5456274 109.819048,19.5570342 L109.819048,19.3954373 L113,19.3954373 Z M109.885714,18.8821293 C110.009524,18.2357414 110.466667,17.5703422 111.180952,17.5703422 C111.952381,17.5703422 112.238095,18.2072243 112.238095,18.8821293 L109.885714,18.8821293 L109.885714,18.8821293 Z" id="Fill-36" fill="#231F20" mask="url(#mask-2)"></path>
            <path d="M50,10 L51.8564593,10 C53.1578947,10 54,9.30202312 54,8.05780347 C54,7.16763006 53.5123604,6.51011561 52.6794258,6.3482659 L52.6794258,6.32803468 C53.4354067,6.10549133 53.84689,5.55924855 53.84689,4.69942197 C53.84689,3.91040462 53.3492823,3 51.8947368,3 L50.057815,3 L50,10 Z M50.8712121,6.68208092 L51.645933,6.68208092 C52.6028708,6.68208092 53.1770335,7.12716763 53.1770335,7.97687861 C53.1770335,8.93786127 52.6411483,9.33236994 51.7990431,9.33236994 L50.8325359,9.33236994 L50.8712121,6.68208092 Z M50.8899522,3.60693642 L51.5502392,3.60693642 C52.6028708,3.60693642 53.0239234,4.03179191 53.0239234,4.81069364 C53.0239234,5.51878613 52.5837321,6.01445087 51.492823,6.01445087 L50.8712121,6.01445087 L50.8899522,3.60693642 L50.8899522,3.60693642 Z" id="Fill-37" fill="#231F20" mask="url(#mask-2)"></path>
            <path d="M56,10 L56.8955224,10 L56.9402985,6.80664062 C57.4216418,6.02539062 58.014459,5.76171875 58.3838619,5.76171875 C58.5074627,5.76171875 58.641791,5.79101563 58.7308769,5.81054688 L59,5.06835937 C58.8768657,5.02929687 58.7089552,5 58.5181903,5 C57.7126866,5 57.1641791,5.6640625 56.9738806,6.10351563 L56.9514925,6.08398438 L56.9622201,5.13671875 L56.0447761,5.13671875 L56,10" id="Fill-38" fill="#231F20" mask="url(#mask-2)"></path>
            <path d="M63.7613667,9.26806084 C63.6203561,9.35361217 63.4901925,9.42965779 63.3057941,9.42965779 C62.9695381,9.42965779 62.9157552,9.09695817 62.9157552,8.75475285 C62.9157552,7.91825095 63.002079,7.09125475 63.002079,6.19771863 C63.002079,5.46577947 62.5465064,5 61.6462081,5 C60.8656784,5 60.5176715,5.17110266 59.4338787,5.78897338 L59.7918286,6.28326996 C60.5836572,5.76045627 60.9303082,5.62737643 61.3537919,5.62737643 C61.9282292,5.62737643 62.1777095,5.93155894 62.1777095,6.34030418 C62.1777095,6.53992395 62.1673145,6.73954373 62.1560155,6.9391635 C60.9736961,6.97718631 59,7.29087452 59,8.63117871 C59,9.42965779 59.6074302,10 60.5619633,10 C61.2557173,10 61.7763717,9.65779468 62.1890084,9.21102662 C62.2319443,9.61026616 62.5035705,10 62.991684,10 C63.3713278,10 63.6962849,9.86692015 64,9.65779468 L63.7613667,9.26806084 Z M62.1126277,8.73574144 C61.7763717,9.09695817 61.3641869,9.42965779 60.8331375,9.42965779 C60.2361023,9.42965779 59.8677574,9.1539924 59.8677574,8.621673 C59.8677574,7.81368821 60.6482871,7.56653992 62.1560155,7.39543726 L62.1126277,8.73574144 L62.1126277,8.73574144 Z" id="Fill-39" fill="#231F20" mask="url(#mask-2)"></path>
            <path d="M64,10 L64.7920792,10 L64.8320957,6.6015625 C65.3366337,5.99609375 65.7924917,5.703125 66.3073432,5.703125 C66.8514851,5.703125 67.2079208,5.94726562 67.2079208,6.47460937 C67.2079208,6.953125 67.1980198,7.3828125 67.1980198,7.8125 L67.1782178,10 L67.970297,10 L67.9905116,7.58789062 C67.9905116,7.21679687 68,6.84570313 68,6.47460937 C68,5.57617187 67.6340759,5 66.495462,5 C65.9113036,5 65.2376238,5.33203125 64.8217822,5.91796875 L64.8019802,5.91796875 L64.8320957,5.13671875 L64.0400165,5.13671875 L64,10" id="Fill-40" fill="#231F20" mask="url(#mask-2)"></path>
            <path d="M73.2199546,5.17277487 L73.2018141,5.17277487 C73.0294785,4.80628272 72.5759637,4.4921466 72.0408163,4.4921466 C71.015873,4.4921466 70,5.69633508 70,7.27748691 C70,9.32984293 71.0430839,10 71.814059,10 C72.4489796,10 72.984127,9.60209424 73.1931217,9.15183246 L73.2112623,9.15183246 L73.1931217,9.85340314 L73.9274376,9.85340314 L74,2 L73.2566138,2 L73.2199546,5.17277487 Z M73.2018141,8.34554974 C73.0294785,8.78534031 72.5578231,9.30890052 71.9773243,9.30890052 C71.3605442,9.30890052 70.7800454,8.65968586 70.7800454,7.2460733 C70.7800454,6.20942408 71.324263,5.18324607 72.1315193,5.18324607 C72.5668934,5.18324607 72.9206349,5.40314136 73.2290249,6.02094241 L73.2018141,8.34554974 L73.2018141,8.34554974 Z" id="Fill-41" fill="#231F20" mask="url(#mask-2)"></path>
            <path d="M79,7.39543726 L79,7.24334601 C79,5.96958175 78.447619,5 77.1714286,5 C75.8952381,5 75,6.19771863 75,7.5 C75,9.04942966 75.7619048,10 77.0761905,10 C77.7809524,10 78.4,9.63878327 78.8857143,9.1539924 L78.5142857,8.74524715 C78.1047619,9.11596958 77.7047619,9.42965779 77.1619048,9.42965779 C76.1904762,9.42965779 75.8190476,8.54562738 75.8190476,7.55703422 L75.8190476,7.39543726 L79,7.39543726 Z M75.8857143,6.88212928 C76.0095238,6.23574144 76.4666667,5.57034221 77.1809524,5.57034221 C77.952381,5.57034221 78.2380952,6.20722433 78.2380952,6.88212928 L75.8857143,6.88212928 L75.8857143,6.88212928 Z" id="Fill-42" fill="#231F20" mask="url(#mask-2)"></path>
            <path d="M80,10 L80.7920792,10 L80.8316832,6.6015625 C81.3366337,5.99609375 81.7920792,5.703125 82.3069307,5.703125 C82.8514851,5.703125 83.2075083,5.94726562 83.2075083,6.47460937 C83.2075083,6.953125 83.1980198,7.3828125 83.1980198,7.8125 L83.1782178,10 L83.970297,10 L83.990099,7.58789062 C83.990099,7.21679687 84,6.84570313 84,6.47460937 C84,5.57617187 83.6336634,5 82.4950495,5 C81.9108911,5 81.2376238,5.33203125 80.8217822,5.91796875 L80.8015677,5.91796875 L80.8316832,5.13671875 L80.039604,5.13671875 L80,10" id="Fill-43" fill="#231F20" mask="url(#mask-2)"></path>
            <path d="M86,9.85340314 L86.6893424,9.85340314 L86.7165533,9.31937173 L86.7346939,9.31937173 C86.9705215,9.68586387 87.4244142,10 88.0230537,10 C89.1840514,10 90,8.61780105 90,7.21465969 C90,5.16230366 88.9569161,4.4921466 88.185941,4.4921466 C87.5510204,4.4921466 87.015873,4.89005236 86.7800454,5.34031414 L86.7622827,5.34031414 L86.7800454,2 L86.0547997,2 L86,9.85340314 Z M86.7528345,6.14659686 C86.9705215,5.70680628 87.4421769,5.18324607 88.0230537,5.18324607 C88.648904,5.18324607 89.2203326,5.83246073 89.2203326,7.2460733 C89.2203326,8.28272251 88.6670446,9.30890052 87.8684807,9.30890052 C87.4331066,9.30890052 87.0521542,9.03664921 86.7346939,8.47120419 L86.7528345,6.14659686 L86.7528345,6.14659686 Z" id="Fill-44" fill="#231F20" mask="url(#mask-2)"></path>
            <path d="M92.0094894,7.41210938 C92.0094894,7.78320313 92,8.15429688 92,8.52539063 C92,9.42382812 92.3659618,10 93.5046931,10 C94.0889118,10 94.7622486,9.66796875 95.1785456,9.08203125 L95.1983497,9.08203125 L95.168231,9.86328125 L95.960392,9.86328125 L96,5 L95.2078391,5 L95.168231,8.3984375 C94.6636411,9.00390625 94.2077359,9.296875 93.6928314,9.296875 C93.1486333,9.296875 92.7917483,9.05273437 92.7917483,8.52539063 C92.7917483,8.046875 92.8016503,7.6171875 92.8016503,7.1875 L92.8218669,5 L92.029706,5 L92.0094894,7.41210938" id="Fill-45" fill="#231F20" mask="url(#mask-2)"></path>
            <path d="M97,10 L97.8953832,10 L97.9406187,6.80664062 C98.4218871,6.02539062 99.0146122,5.76171875 99.3839577,5.76171875 C99.5070729,5.76171875 99.6413804,5.79101563 99.7309187,5.81054688 L100,5.06835937 C99.8764185,5.02929687 99.7090005,5 99.5182652,5 C98.7128867,5 98.1639981,5.6640625 97.9737292,6.10351563 L97.9513446,6.08398438 L97.9625369,5.13671875 L97.0452355,5.13671875 L97,10" id="Fill-46" fill="#231F20" mask="url(#mask-2)"></path>
            <path d="M105,5.18248663 L103.353588,5.2105615 C103.075397,5.05614973 102.748016,5 102.430556,5 C101.498016,5 100.665096,5.61764706 100.665096,6.53475936 C100.665096,7.07754011 100.833333,7.46122995 101.289683,7.79812834 C100.436508,8.25668449 100.138889,8.5 100.138889,8.78074866 C100.138889,9.06149733 100.456349,9.30481283 101.329365,9.37967914 L101.329365,9.39839572 C100.803985,9.66042781 100,10.0347594 100,10.6898396 C100,11.7660428 101.39881,12 102.281746,12 C103.303571,12 104.742063,11.4572193 104.742063,10.315508 C104.742063,9.48262032 103.90873,9.18315508 102.619048,9.00534759 C101.210317,8.80882353 101.051587,8.67780749 101.051587,8.50935829 C101.051587,8.39705882 101.140873,8.28475936 101.597636,7.96657754 C101.875,8.08823529 102.142857,8.14438503 102.460317,8.14438503 C103.423032,8.14438503 104.186508,7.48891488 104.186508,6.58817959 C104.186508,6.28832442 104.097222,5.97872103 103.829365,5.68783422 L105,5.71590909 L105,5.18248663 Z M100.793651,10.671123 C100.793651,10.2406417 101.012318,9.94117647 101.875,9.5013369 C103.472222,9.77272727 103.888889,9.94117647 103.888889,10.4745989 C103.888889,11.2419786 102.857143,11.5508021 102.242063,11.5508021 C101.66708,11.5508021 100.793651,11.3636364 100.793651,10.671123 L100.793651,10.671123 Z M103.392857,6.5815508 C103.392857,7.15240642 103.115079,7.63903743 102.380952,7.63903743 C101.786128,7.63903743 101.458747,7.15240642 101.458747,6.60962567 C101.458747,5.95454545 101.875,5.50534759 102.410714,5.50534759 C103.115079,5.50534759 103.392857,5.95454545 103.392857,6.5815508 L103.392857,6.5815508 Z" id="Fill-47" fill="#231F20" mask="url(#mask-2)"></path>
            <path d="M106,10 L106.930233,10 L106.977229,4.96242775 L106.046996,4.96242775 L106,10 Z M106,3.91040462 L107,3.91040462 L107,3 L106,3 L106,3.91040462 Z" id="Fill-48" fill="#231F20" mask="url(#mask-2)"></path>
            <path d="M108,9.53422053 C108.417957,9.80988593 108.910217,10 109.448916,10 C110.210526,10 110.981424,9.46768061 110.981424,8.56463878 C110.981424,6.9581749 108.835913,7.37642586 108.835913,6.35931559 C108.835913,5.79847909 109.234907,5.57034221 109.773994,5.57034221 C110.099071,5.57034221 110.386997,5.73193916 110.656347,5.88403042 L111,5.39923954 C110.656347,5.16159696 110.173375,5 109.652864,5 C108.80805,5 108.092879,5.52281369 108.092879,6.41634981 C108.092879,8.00380228 110.23839,7.4904943 110.23839,8.66920152 C110.23839,9.20152091 109.74613,9.42965779 109.337461,9.42965779 C108.93808,9.42965779 108.575851,9.21102662 108.315402,9.03041825 L108,9.53422053" id="Fill-49" fill="#231F20" mask="url(#mask-2)"></path>
            <path d="M116,5.78897338 C115.606061,5.31368821 115.010101,5 114.353535,5 C112.979377,5 112,6.19771863 112,7.5 C112,9.06844106 112.979377,10 114.232323,10 C114.919192,10 115.444444,9.75285171 115.929293,9.21102662 L115.515152,8.76425856 C115.272306,9.06844106 114.808081,9.37262357 114.373737,9.37262357 C113.59596,9.37262357 112.868687,8.70722433 112.868687,7.64258555 C112.868687,6.31178707 113.636364,5.62737643 114.383838,5.62737643 C114.79798,5.62737643 115.161616,5.81749049 115.474747,6.17870722 L116,5.78897338" id="Fill-50" fill="#231F20" mask="url(#mask-2)"></path>
            <path d="M116,10 L116.792079,10 L116.832096,6.288 C117.336634,5.62666667 117.792492,5.30666667 118.306931,5.30666667 C118.851485,5.30666667 119.207921,5.57333333 119.207921,6.14933333 C119.207921,6.672 119.19802,7.14133333 119.19802,7.61066667 L119.178218,10 L119.970297,10 L119.990099,7.36533333 C119.990099,6.96 120,6.55466667 120,6.14933333 C120,5.168 119.634076,4.53866667 118.49505,4.53866667 C117.910891,4.53866667 117.237624,4.90133333 116.841584,5.52 L116.821782,5.52 L116.861386,2 L116.040017,2 L116,10" id="Fill-51" fill="#231F20" mask="url(#mask-2)"></path>
            <path d="M126,7.39543726 L126,7.24334601 C126,5.96958175 125.447222,5 124.171429,5 C122.895238,5 122,6.19771863 122,7.5 C122,9.04942966 122.761905,10 124.075397,10 C124.780952,10 125.399603,9.63878327 125.885317,9.1539924 L125.513889,8.74524715 C125.104762,9.11596958 124.704365,9.42965779 124.161905,9.42965779 C123.190476,9.42965779 122.818651,8.54562738 122.818651,7.55703422 L122.818651,7.39543726 L126,7.39543726 Z M122.884921,6.88212928 C123.009127,6.23574144 123.46627,5.57034221 124.180952,5.57034221 C124.951984,5.57034221 125.238095,6.20722433 125.238095,6.88212928 L122.884921,6.88212928 L122.884921,6.88212928 Z" id="Fill-52" fill="#231F20" mask="url(#mask-2)"></path>
            <path d="M16,14.0064305 C16,12.7145629 15.5980719,11.7242641 14.794641,11.0342037 C13.9907847,10.3445867 12.8356135,10 11.3287021,10 C11.1551712,10 10.9220954,10.0088697 10.6303254,10.0261655 C10.3470617,10.0350352 10.1369533,10.0434614 10,10.0523311 L10,16.8478297 C10.0825122,17.1711292 10.3377047,17.446089 10.7672787,17.6727091 C11.196002,17.8913465 11.7165946,18 12.3286312,18 C13.4153257,18 14.2965903,17.6509784 14.9728504,16.9524918 C15.6576168,16.2544487 16,15.2725761 16,14.0064305" id="Fill-53" fill="#231F20" mask="url(#mask-2)"></path>
            <path d="M16,26.0450257 C16,24.6753859 15.7125168,23.6608062 15.1379446,23.0017153 C14.5716539,22.334048 13.5597445,22 12.1010332,22 L11,22 L11,30 L11.5572206,30 C13.0068617,30 14.1075006,29.6792453 14.8595315,29.037307 C15.6198438,28.3867925 15.9996056,27.3893654 16,26.0450257" id="Fill-54" fill="#231F20" mask="url(#mask-2)"></path>
            <path d="M33,25.3020202 C33,24.2630682 32.6964646,23.4534722 32.0898324,22.8719066 C31.491973,22.2907828 30.5905781,22 29.3860865,22 C29.213703,22 28.9873673,22.0092803 28.7066409,22.0265152 C28.4351259,22.0357955 28.1991403,22.0441919 28,22.0530303 L28,29 L28.7066409,29 C30.1743135,29 31.256426,28.6698864 31.9538556,28.0096591 C32.6508466,27.3405934 32.9995614,26.4381944 33,25.3020202" id="Fill-55" fill="#231F20" mask="url(#mask-2)"></path>
            <path d="M10.7775059,2.02102505 C10.5151029,2.17222648 10.2560749,2.3296907 10.0012656,2.49252301 L10,9 L10.7066318,9 C12.1738947,9 13.2564124,8.66986196 13.9537631,8.00913855 C14.6511137,7.34036299 14.9995781,6.43807515 15,5.30182771 C15,4.26265337 14.6966757,3.45296524 14.0896051,2.87142127 C13.4918157,2.29032464 12.590702,2 11.3858421,2 C11.2280628,2 11.026409,2.00626278 10.7775059,2.02102505" id="Fill-56" fill="#231F20" mask="url(#mask-2)"></path>
            <path d="M10.7775059,2.02102505 C10.5151029,2.17222648 10.2560749,2.3296907 10.0012656,2.49252301 L10,9 L10.7066318,9 C12.1738947,9 13.2564124,8.66986196 13.9537631,8.00913855 C14.6511137,7.34036299 14.9995781,6.43807515 15,5.30182771 C15,4.26265337 14.6966757,3.45296524 14.0896051,2.87142127 C13.4918157,2.29032464 12.590702,2 11.3858421,2 C11.2280628,2 11.026409,2.00626278 10.7775059,2.02102505 Z" id="Stroke-57" stroke="#231F20" stroke-width="0.5" mask="url(#mask-2)"></path>
            <path d="M29.9516474,38 C29.5001106,37.9635705 29.1051817,37.8591101 28.767303,37.6866188 C28.3378787,37.4597026 28.0827007,37.1845065 28,36.8605914 L28,30.0526691 C28.1370974,30.0438909 28.3471659,30.0351127 28.6302056,30.0263346 C28.9225326,30.0092171 29.1551559,30 29.32896,30 C30.8357043,30.0004389 31.9908602,30.3454216 32.7948699,31.0362649 C33.5979951,31.727547 34,32.719921 34,34.0138256 C34,34.5067208 33.9442766,34.9421188 33.8412324,35.3485489 C32.651581,36.3751577 31.3535785,37.2578044 29.9516474,38" id="Fill-58" fill="#231F20" mask="url(#mask-2)"></path>
            <path d="M29.9516474,38 C29.5001106,37.9635705 29.1051817,37.8591101 28.767303,37.6866188 C28.3378787,37.4597026 28.0827007,37.1845065 28,36.8605914 L28,30.0526691 C28.1370974,30.0438909 28.3471659,30.0351127 28.6302056,30.0263346 C28.9225326,30.0092171 29.1551559,30 29.32896,30 C30.8357043,30.0004389 31.9908602,30.3454216 32.7948699,31.0362649 C33.5979951,31.727547 34,32.719921 34,34.0138256 C34,34.5067208 33.9442766,34.9421188 33.8412324,35.3485489 C32.651581,36.3751577 31.3535785,37.2578044 29.9516474,38 Z" id="Stroke-59" stroke="#231F20" stroke-width="0.5" mask="url(#mask-2)"></path>
            <path d="M12.9997153,1.26022775 C15.1789875,0.445381695 17.5362456,0 19.9997891,0 C22.4595367,0 24.8151077,0.443694644 26.9914276,1.25601012 L20.1997069,1.25727541 L20.1997069,2.22817377 C20.4430667,2.26149304 20.7665623,2.31505694 21.1697719,2.39013075 C21.5818387,2.45634753 21.933171,2.5478701 22.2237687,2.66385491 C22.6176995,2.82159426 22.8656987,3 22.9690317,3.19907212 C23.0715212,3.39013075 23.1233986,3.63475327 23.1233986,3.93336145 L23.1233986,16.3935049 C23.1229768,16.7174188 23.0576029,16.9827077 22.926855,17.1902151 C22.7952636,17.3977225 22.5611826,17.5596795 22.2237687,17.6756643 C22.0828984,17.7258541 21.7927224,17.779418 21.3523972,17.8376213 C20.912072,17.8873893 20.5274202,17.9245044 20.1997069,17.9493884 L20.1997069,18.9202868 L38.5714738,18.9202868 L38.9451597,13.5596795 C39.6313753,15.5799241 40,17.747364 40,20 C40,23.9869253 38.8338131,27.7009701 36.8232478,30.820329 C36.7388943,30.7557992 36.6536973,30.6727119 36.5642826,30.6132434 C36.0239986,30.2602278 35.3883951,29.9746942 34.6566286,29.7557992 C33.9252839,29.5288908 33.219667,29.3821173 32.5406215,29.3146352 L32.5406215,29.0750738 C33.219667,28.9240827 33.8552705,28.7351329 34.4478537,28.5082244 C35.0395934,28.2813159 35.5490885,28.0126529 35.9763388,27.7013918 C36.4466095,27.3652467 36.8080642,26.9700548 37.0607029,26.5162379 C37.3129198,26.0544074 37.43945,25.5208773 37.43945,24.9156474 C37.43945,23.6048081 36.8776558,22.6132434 35.7540674,21.9409532 C34.6309008,21.2690848 32.8016955,20.9325179 30.2672951,20.9325179 L20.1950674,20.9325179 L20.1950674,21.9156474 C20.4649986,21.9578237 20.7783718,22.0164488 21.1356088,22.0919443 C21.492424,22.1594264 21.8057972,22.2475749 22.0761501,22.3568115 C22.4418225,22.5082244 22.6725292,22.6845213 22.7686922,22.886124 C22.8640116,23.0881485 22.9125149,23.339941 22.9125149,23.642345 L22.9125149,36.2475749 C22.9120931,36.5757065 22.8509369,36.8443695 22.7294678,37.0544074 C22.6160124,37.2560101 22.3983804,37.4196542 22.0761501,37.5457613 C21.9103955,37.6132434 21.6231719,37.6718684 21.2140575,37.7220582 C20.8045213,37.7726698 20.4649986,37.8106284 20.1950674,37.8355124 L20.1950674,38.8190637 L26.7518637,38.8190637 C24.6375436,39.5790806 22.375605,40 19.9997891,40 C17.5261232,40 15.1680216,39.5491354 12.9815793,38.7279629 L12.9815793,37.8334036 C12.6880292,37.8085196 12.3291051,37.7579081 11.9035418,37.6819907 C11.4775567,37.6060734 11.1700883,37.5347954 10.9815582,37.4673134 C10.6217906,37.332771 10.3759002,37.1560523 10.243887,36.9367356 C10.1207309,36.7094053 10.0595746,36.4441164 10.0595746,36.1412906 L10.0595746,31.1016449 L11.7048893,31.1016449 C13.0663546,31.1016449 14.2907454,30.9966259 15.3784835,30.7857444 C16.4750788,30.5752847 17.4497833,30.2345002 18.3004882,29.7629692 C19.1233564,29.3083087 19.76613,28.7186841 20.2296524,27.9945171 C20.7020319,27.2619148 20.9390652,26.3905525 20.9390652,25.3800084 C20.9382216,23.8646141 20.2958698,22.7406158 19.009901,22.0080135 C17.7235104,21.266976 15.7800061,20.8962463 13.1802318,20.8962463 L2.07340862,20.8962463 L2.07340862,21.8814846 C2.29104061,21.9072121 2.61706682,21.9616196 3.05233079,22.0455504 C3.49645188,22.1214677 3.85115828,22.210038 4.11602822,22.3108393 C4.49435359,22.4542387 4.74024399,22.6355968 4.85369943,22.85407 C4.96715486,23.0649515 5.02409346,23.3175875 5.02409346,23.6119781 L5.01650165,33.2463096 C1.89542277,29.7186841 0,25.0805567 0,20 C0,15.0042176 1.83426649,10.4335723 4.86255654,6.92872206 L4.86255654,16.3804302 C4.86213478,16.7043442 4.79886966,16.9700548 4.67233944,17.1771404 C4.55424456,17.3766343 4.32817723,17.5385913 3.9932939,17.6630114 C3.82079102,17.7296499 3.52217969,17.7874315 3.09661637,17.8371995 C2.67105305,17.8869675 2.31761195,17.9245044 2.03713662,17.9493884 L2.03713662,18.9207086 L12.0486298,18.9207086 C13.4885437,18.9207086 14.7382406,18.8422606 15.7977203,18.6840995 C16.866479,18.5263602 17.8082856,18.2568536 18.6231403,17.8747364 C19.3928658,17.5179249 19.9816531,17.032054 20.3890804,16.4175453 C20.8057866,15.7950232 21.0141398,15.0354281 21.0141398,14.13876 C21.013718,13.3918178 20.8327798,12.7444116 20.4704816,12.1965415 C20.1081833,11.6402362 19.6374909,11.179671 19.0579825,10.8140025 C18.4961883,10.4656263 17.8352787,10.1834669 17.0748321,9.96752425 C16.3139637,9.74314635 15.5805101,9.59805989 14.8740497,9.5318431 L14.8740497,9.29481232 C15.5805101,9.14550822 16.2414197,8.95866723 16.8572001,8.73471109 C17.4729805,8.51033319 18.0027204,8.24504429 18.4468415,7.93757908 C18.9356699,7.60565162 19.3114647,7.21552088 19.5742258,6.76718684 C19.8365651,6.31083931 19.9681566,5.7836356 19.9681566,5.18599747 C19.9681566,3.89076339 19.3840087,2.91142978 18.2157129,2.2471531 C17.1170088,1.62294391 15.3953542,1.29734289 12.9997153,1.26022775" id="Fill-60" fill="#231F20" mask="url(#mask-2)"></path>
            <path d="M12.9997153,1.26022775 C15.1789875,0.445381695 17.5362456,0 19.9997891,0 C22.4595367,0 24.8151077,0.443694644 26.9914276,1.25601012 L20.1997069,1.25727541 L20.1997069,2.22817377 C20.4430667,2.26149304 20.7665623,2.31505694 21.1697719,2.39013075 C21.5818387,2.45634753 21.933171,2.5478701 22.2237687,2.66385491 C22.6176995,2.82159426 22.8656987,3 22.9690317,3.19907212 C23.0715212,3.39013075 23.1233986,3.63475327 23.1233986,3.93336145 L23.1233986,16.3935049 C23.1229768,16.7174188 23.0576029,16.9827077 22.926855,17.1902151 C22.7952636,17.3977225 22.5611826,17.5596795 22.2237687,17.6756643 C22.0828984,17.7258541 21.7927224,17.779418 21.3523972,17.8376213 C20.912072,17.8873893 20.5274202,17.9245044 20.1997069,17.9493884 L20.1997069,18.9202868 L38.5714738,18.9202868 L38.9451597,13.5596795 C39.6313753,15.5799241 40,17.747364 40,20 C40,23.9869253 38.8338131,27.7009701 36.8232478,30.820329 C36.7388943,30.7557992 36.6536973,30.6727119 36.5642826,30.6132434 C36.0239986,30.2602278 35.3883951,29.9746942 34.6566286,29.7557992 C33.9252839,29.5288908 33.219667,29.3821173 32.5406215,29.3146352 L32.5406215,29.0750738 C33.219667,28.9240827 33.8552705,28.7351329 34.4478537,28.5082244 C35.0395934,28.2813159 35.5490885,28.0126529 35.9763388,27.7013918 C36.4466095,27.3652467 36.8080642,26.9700548 37.0607029,26.5162379 C37.3129198,26.0544074 37.43945,25.5208773 37.43945,24.9156474 C37.43945,23.6048081 36.8776558,22.6132434 35.7540674,21.9409532 C34.6309008,21.2690848 32.8016955,20.9325179 30.2672951,20.9325179 L20.1950674,20.9325179 L20.1950674,21.9156474 C20.4649986,21.9578237 20.7783718,22.0164488 21.1356088,22.0919443 C21.492424,22.1594264 21.8057972,22.2475749 22.0761501,22.3568115 C22.4418225,22.5082244 22.6725292,22.6845213 22.7686922,22.886124 C22.8640116,23.0881485 22.9125149,23.339941 22.9125149,23.642345 L22.9125149,36.2475749 C22.9120931,36.5757065 22.8509369,36.8443695 22.7294678,37.0544074 C22.6160124,37.2560101 22.3983804,37.4196542 22.0761501,37.5457613 C21.9103955,37.6132434 21.6231719,37.6718684 21.2140575,37.7220582 C20.8045213,37.7726698 20.4649986,37.8106284 20.1950674,37.8355124 L20.1950674,38.8190637 L26.7518637,38.8190637 C24.6375436,39.5790806 22.375605,40 19.9997891,40 C17.5261232,40 15.1680216,39.5491354 12.9815793,38.7279629 L12.9815793,37.8334036 C12.6880292,37.8085196 12.3291051,37.7579081 11.9035418,37.6819907 C11.4775567,37.6060734 11.1700883,37.5347954 10.9815582,37.4673134 C10.6217906,37.332771 10.3759002,37.1560523 10.243887,36.9367356 C10.1207309,36.7094053 10.0595746,36.4441164 10.0595746,36.1412906 L10.0595746,31.1016449 L11.7048893,31.1016449 C13.0663546,31.1016449 14.2907454,30.9966259 15.3784835,30.7857444 C16.4750788,30.5752847 17.4497833,30.2345002 18.3004882,29.7629692 C19.1233564,29.3083087 19.76613,28.7186841 20.2296524,27.9945171 C20.7020319,27.2619148 20.9390652,26.3905525 20.9390652,25.3800084 C20.9382216,23.8646141 20.2958698,22.7406158 19.009901,22.0080135 C17.7235104,21.266976 15.7800061,20.8962463 13.1802318,20.8962463 L2.07340862,20.8962463 L2.07340862,21.8814846 C2.29104061,21.9072121 2.61706682,21.9616196 3.05233079,22.0455504 C3.49645188,22.1214677 3.85115828,22.210038 4.11602822,22.3108393 C4.49435359,22.4542387 4.74024399,22.6355968 4.85369943,22.85407 C4.96715486,23.0649515 5.02409346,23.3175875 5.02409346,23.6119781 L5.01650165,33.2463096 C1.89542277,29.7186841 0,25.0805567 0,20 C0,15.0042176 1.83426649,10.4335723 4.86255654,6.92872206 L4.86255654,16.3804302 C4.86213478,16.7043442 4.79886966,16.9700548 4.67233944,17.1771404 C4.55424456,17.3766343 4.32817723,17.5385913 3.9932939,17.6630114 C3.82079102,17.7296499 3.52217969,17.7874315 3.09661637,17.8371995 C2.67105305,17.8869675 2.31761195,17.9245044 2.03713662,17.9493884 L2.03713662,18.9207086 L12.0486298,18.9207086 C13.4885437,18.9207086 14.7382406,18.8422606 15.7977203,18.6840995 C16.866479,18.5263602 17.8082856,18.2568536 18.6231403,17.8747364 C19.3928658,17.5179249 19.9816531,17.032054 20.3890804,16.4175453 C20.8057866,15.7950232 21.0141398,15.0354281 21.0141398,14.13876 C21.013718,13.3918178 20.8327798,12.7444116 20.4704816,12.1965415 C20.1081833,11.6402362 19.6374909,11.179671 19.0579825,10.8140025 C18.4961883,10.4656263 17.8352787,10.1834669 17.0748321,9.96752425 C16.3139637,9.74314635 15.5805101,9.59805989 14.8740497,9.5318431 L14.8740497,9.29481232 C15.5805101,9.14550822 16.2414197,8.95866723 16.8572001,8.73471109 C17.4729805,8.51033319 18.0027204,8.24504429 18.4468415,7.93757908 C18.9356699,7.60565162 19.3114647,7.21552088 19.5742258,6.76718684 C19.8365651,6.31083931 19.9681566,5.7836356 19.9681566,5.18599747 C19.9681566,3.89076339 19.3840087,2.91142978 18.2157129,2.2471531 C17.1170088,1.62294391 15.3953542,1.29734289 12.9997153,1.26022775 Z" id="Stroke-61" stroke="#231F20" stroke-width="0.5" mask="url(#mask-2)"></path>
            <path d="M29.4578105,3 C29.2708784,3.03086589 29.0960623,3.06749342 28.9372566,3.10905948 C28.562527,3.21441506 28.3124189,3.38026778 28.1877975,3.60702919 C28.0623107,3.8255597 28,4.07701383 28,4.36015694 L28,15.692466 C28,16.2266517 28.0432713,16.648074 28.1298139,16.9554982 C28.2163566,17.2633341 28.384682,17.4900955 28.6347901,17.6357825 C28.8844656,17.7897004 29.2306361,17.8909405 29.6728689,17.9395029 C30.1246214,17.9798343 30.7446993,18 31.5331026,18 C32.3020338,18 33.0471657,17.963784 33.7684985,17.8909405 C34.4993509,17.8098661 35.0229338,17.6398979 35.3405452,17.3806245 C35.8308092,16.9674331 36.3305928,16.3888005 36.8403289,15.6439036 C37.3595846,14.8907759 37.7728256,14.2026723 38.0804846,13.5787698 L39,13.5787698 C37.2899178,9.03531058 33.8632627,5.2746104 29.4578105,3" id="Fill-62" fill="#231F20" mask="url(#mask-2)"></path>
        </g>
    </g>
</svg>