<?xml version="1.0" encoding="UTF-8"?>
<svg width="126px" height="89px" viewBox="0 0 126 89" version="1.1" xmlns="http://www.w3.org/2000/svg" xmlns:xlink="http://www.w3.org/1999/xlink">
    <title>logo-grau-cmyk-text-rechts-kontrastiger-pfade</title>
    <g id="Symbols" stroke="none" stroke-width="1" fill="none" fill-rule="evenodd">
        <g id="desktop/footer/startseite_rheinland-pfalz" transform="translate(-689.000000, 1.000000)">
            <g id="Footer" transform="translate(0.000000, -1.000000)">
                <g id="logo-grau-cmyk-text-rechts-kontrastiger-pfade" transform="translate(689.000000, 0.000000)">
                    <polyline id="Fill-1" fill="#1A1919" points="36.9684928 26.4420178 37.8321462 26.4420178 37.8321462 33.1836369 40.6906822 33.1836369 40.6906822 33.8836612 36.9684928 33.8836612 36.9684928 26.4420178"></polyline>
                    <path d="M43.7944132,31.275045 C43.3162084,31.2864841 43.0011353,31.3541241 42.756189,31.4784624 C42.4411159,31.647811 42.2777354,31.9526884 42.2777354,32.3028249 C42.2777354,32.88995 42.6743744,33.296536 43.3045206,33.296536 C43.9928571,33.296536 44.506374,32.85613 44.7630081,32.5962631 L44.7630081,31.241225 L43.7944132,31.275045 Z M44.8095106,33.2850969 C44.3780569,33.6804925 43.8414131,33.9965603 43.1528279,33.9965603 C42.1494184,33.9965603 41.4026429,33.3756151 41.4026429,32.3478353 C41.4026429,31.6363719 41.7759063,31.1509554 42.3361744,30.9025276 C42.7094378,30.7217399 43.1528279,30.6652903 43.7128474,30.6426607 L44.7630081,30.6088407 L44.7630081,30.2701434 C44.7630081,29.4569713 44.261179,29.0956444 43.5730912,29.0956444 C42.9078816,29.0956444 42.4411159,29.3102522 42.055916,29.5360504 L41.7294038,28.9489253 C42.3712378,28.5535297 43.0593256,28.4068106 43.6663449,28.4068106 C44.8095106,28.4068106 45.6266615,28.9489253 45.6266615,30.2248843 L45.6266615,32.0655875 C45.6266615,33.1157482 45.6614762,33.6126038 45.7313543,33.8836612 L44.9731397,33.8836612 L44.8095106,33.2850969 L44.8095106,33.2850969 Z" id="Fill-2" fill="#1A1919"></path>
                    <path d="M47.0970854,28.5423393 L47.8204853,28.5423393 L47.9254268,29.2311731 C48.5321974,28.7343175 49.1504071,28.4068106 49.8623678,28.4068106 C50.7257725,28.4068106 51.4959235,28.9374862 51.4959235,30.2813338 L51.4959235,33.8836612 L50.6439579,33.8836612 L50.6439579,30.5635816 C50.6439579,29.7618487 50.434075,29.152094 49.6522362,29.152094 C49.0340265,29.152094 48.4740071,29.5134209 47.9604901,29.9538269 L47.9604901,33.8836612 L47.0970854,33.8836612 L47.0970854,28.5423393" id="Fill-3" fill="#1A1919"></path>
                    <path d="M56.4900931,33.1383778 L56.4900931,29.2538026 C56.2100834,29.1635331 55.9999518,29.118274 55.6152493,29.118274 C54.5180887,29.118274 53.596245,29.8861869 53.596245,31.2526641 C53.596245,32.4948031 54.3547082,33.2850969 55.6266884,33.2850969 C55.9183859,33.2850969 56.2568346,33.2286474 56.4900931,33.1383778 Z M52.7097134,31.275045 C52.7097134,29.5474896 53.9814449,28.4068106 55.5565616,28.4068106 C55.8835712,28.4068106 56.1867078,28.4406306 56.4900931,28.5197097 L56.4900931,25.8887126 L57.34181,25.8887126 L57.34181,33.6352334 C56.9568588,33.8384021 56.2916493,33.9965603 55.591625,33.9965603 C54.0048204,33.9965603 52.7097134,33.0819282 52.7097134,31.275045 L52.7097134,31.275045 Z" id="Fill-4" fill="#1A1919"></path>
                    <path d="M62.1845356,30.7105494 C62.1728478,29.8973774 61.7642724,29.084454 60.8894285,29.084454 C60.0493994,29.084454 59.523946,29.8182982 59.5122582,30.7105494 L62.1845356,30.7105494 Z M58.6257266,31.1509554 C58.6257266,29.52486 59.5475703,28.4068106 60.8894285,28.4068106 C62.2894771,28.4068106 63.0830037,29.4684104 63.0830037,31.1509554 L63.0830037,31.3541241 L59.5008191,31.3541241 C59.523946,32.449544 60.16578,33.296536 61.3445065,33.296536 C61.8577747,33.296536 62.3245404,33.1383778 62.6978038,32.9352091 L62.9778135,33.5223343 C62.49936,33.8272116 61.8343991,33.9965603 61.2159407,33.9965603 C59.4774435,33.9965603 58.6257266,32.7091622 58.6257266,31.1509554 L58.6257266,31.1509554 Z" id="Fill-5" fill="#1A1919"></path>
                    <path d="M64.1448522,32.9011404 C64.460174,33.0931187 64.9033154,33.296536 65.5217738,33.296536 C66.1636078,33.296536 66.7005003,33.0481082 66.7005003,32.4383535 C66.7005003,31.275045 64.1217253,31.647811 64.1217253,29.8747478 C64.1217253,29.0618244 64.7635593,28.4068106 65.9885396,28.4068106 C66.5137443,28.4068106 66.9921978,28.5197097 67.3537734,28.6552384 L67.3537734,29.3893313 C66.98051,29.2311731 66.5602468,29.0956444 66.0236029,29.0956444 C65.4986469,29.0956444 64.9617544,29.2649931 64.9617544,29.8409278 C64.9617544,31.0266172 67.5636563,30.6202799 67.5636563,32.4269144 C67.5636563,33.4885143 66.6535004,33.9965603 65.5217738,33.9965603 C64.798374,33.9965603 64.2152276,33.7595716 63.8648425,33.5449638 L64.1448522,32.9011404" id="Fill-6" fill="#1A1919"></path>
                    <polyline id="Fill-7" fill="#1A1919" points="71.0177725 29.2199826 68.5906901 29.2199826 68.392495 28.5423393 72.3128796 28.5423393 69.5475972 33.2060178 72.289504 33.2060178 72.289504 33.8836612 68.2291146 33.8836612 71.0177725 29.2199826"></polyline>
                    <path d="M76.4319566,30.7105494 C76.4205175,29.8973774 76.0119421,29.084454 75.1368496,29.084454 C74.2970691,29.084454 73.7716157,29.8182982 73.7599279,30.7105494 L76.4319566,30.7105494 Z M72.8733963,31.1509554 C72.8733963,29.52486 73.79524,28.4068106 75.1368496,28.4068106 C76.5371468,28.4068106 77.3306734,29.4684104 77.3306734,31.1509554 L77.3306734,31.3541241 L73.7482401,31.3541241 C73.7716157,32.449544 74.4134497,33.296536 75.5921762,33.296536 C76.1054444,33.296536 76.5722101,33.1383778 76.9454735,32.9352091 L77.2254832,33.5223343 C76.7470297,33.8272116 76.0820688,33.9965603 75.4636104,33.9965603 C73.7251132,33.9965603 72.8733963,32.7091622 72.8733963,31.1509554 L72.8733963,31.1509554 Z" id="Fill-8" fill="#1A1919"></path>
                    <path d="M78.5675901,28.5423393 L79.2912387,28.5423393 L79.3959315,29.2311731 C80.0029507,28.7343175 80.6211604,28.4068106 81.3328725,28.4068106 C82.1965259,28.4068106 82.9666769,28.9374862 82.9666769,30.2813338 L82.9666769,33.8836612 L82.1147113,33.8836612 L82.1147113,30.5635816 C82.1147113,29.7618487 81.9045797,29.152094 81.1229896,29.152094 C80.5045312,29.152094 79.9445118,29.5134209 79.4312435,29.9538269 L79.4312435,33.8836612 L78.5675901,33.8836612 L78.5675901,28.5423393" id="Fill-9" fill="#1A1919"></path>
                    <path d="M84.9038666,32.7544213 L84.9038666,29.2199826 L83.9703351,29.2199826 L83.9703351,28.5423393 L84.9038666,28.5423393 L84.9038666,27.3340203 L85.7555835,27.0629629 L85.7555835,28.5423393 L87.4008271,28.5423393 L87.1441929,29.2199826 L85.7555835,29.2199826 L85.7555835,32.6188926 C85.7555835,33.0819282 85.9540274,33.2850969 86.3272907,33.2850969 C86.689115,33.2850969 87.0039394,33.1383778 87.2257588,32.9916587 L87.5288954,33.5787838 C87.1906954,33.8160212 86.689115,33.9965603 86.1405347,33.9965603 C85.3472568,33.9965603 84.9038666,33.5449638 84.9038666,32.7544213" id="Fill-10" fill="#1A1919"></path>
                    <path d="M88.5211146,28.5423393 L89.2445144,28.5423393 L89.3494559,29.2199826 C89.9562265,28.5761593 90.4229922,28.4068106 90.9014457,28.4068106 C91.1232651,28.4068106 91.356275,28.4632601 91.4965285,28.5423393 L91.1931432,29.2990618 C91.0528897,29.2311731 90.9131335,29.185914 90.7146897,29.185914 C90.3178021,29.185914 89.9214118,29.4231513 89.3845193,29.9538269 L89.3845193,33.8836612 L88.5211146,33.8836612 L88.5211146,28.5423393" id="Fill-11" fill="#1A1919"></path>
                    <path d="M94.3319376,31.275045 C93.8534841,31.2864841 93.5386597,31.3541241 93.2934647,31.4784624 C92.9786403,31.647811 92.8150112,31.9526884 92.8150112,32.3028249 C92.8150112,32.88995 93.2118988,33.296536 93.8417963,33.296536 C94.5303815,33.296536 95.0436497,32.85613 95.3002838,32.5962631 L95.3002838,31.241225 L94.3319376,31.275045 Z M95.347035,33.2850969 C94.9155813,33.6804925 94.3786888,33.9965603 93.6903524,33.9965603 C92.6869428,33.9965603 91.9401674,33.3756151 91.9401674,32.3478353 C91.9401674,31.6363719 92.3134307,31.1509554 92.8736988,30.9025276 C93.2469622,30.7217399 93.6903524,30.6652903 94.2503718,30.6426607 L95.3002838,30.6088407 L95.3002838,30.2701434 C95.3002838,29.4569713 94.7987034,29.0956444 94.1101182,29.0956444 C93.445406,29.0956444 92.9786403,29.3102522 92.5934404,29.5360504 L92.2666796,28.9489253 C92.9085135,28.5535297 93.59685,28.4068106 94.2036206,28.4068106 C95.347035,28.4068106 96.1639372,28.9489253 96.1639372,30.2248843 L96.1639372,32.0655875 C96.1639372,33.1157482 96.1990006,33.6126038 96.2688787,33.8836612 L95.5104154,33.8836612 L95.347035,33.2850969 L95.347035,33.2850969 Z" id="Fill-12" fill="#1A1919"></path>
                    <path d="M97.6811124,25.8887126 L98.5328293,25.8887126 L98.5328293,32.6527126 C98.5328293,33.0931187 98.6728341,33.2174569 98.9645316,33.2174569 C99.058034,33.2174569 99.2211657,33.1721978 99.3029803,33.1383778 L99.4897363,33.7933916 C99.2681656,33.8948516 98.9762194,33.9515499 98.7193366,33.9515499 C98.019561,33.9515499 97.6811124,33.5561543 97.6811124,32.9125796 L97.6811124,25.8887126" id="Fill-13" fill="#1A1919"></path>
                    <path d="M103.725194,30.7105494 C103.713755,29.8973774 103.305179,29.084454 102.430087,29.084454 C101.590058,29.084454 101.064853,29.8182982 101.053165,30.7105494 L103.725194,30.7105494 Z M100.166634,31.1509554 C100.166634,29.52486 101.088477,28.4068106 102.430087,28.4068106 C103.830384,28.4068106 104.623911,29.4684104 104.623911,31.1509554 L104.623911,31.3541241 L101.041477,31.3541241 C101.064853,32.449544 101.706687,33.296536 102.885165,33.296536 C103.398682,33.296536 103.865448,33.1383778 104.238711,32.9352091 L104.518721,33.5223343 C104.040267,33.8272116 103.375306,33.9965603 102.756848,33.9965603 C101.018351,33.9965603 100.166634,32.7091622 100.166634,31.1509554 L100.166634,31.1509554 Z" id="Fill-14" fill="#1A1919"></path>
                    <path d="M38.8236193,42.2958888 C39.1620679,42.2958888 39.4420776,42.2506297 39.6522093,42.148921 C40.060536,41.9683819 40.2472921,41.5844254 40.2472921,41.0649403 C40.2472921,40.6357247 40.0722238,40.2517682 39.6872726,40.02597 C39.4654532,39.9018804 39.1854435,39.8566213 38.8002437,39.8566213 L38.4620437,39.8566213 L38.4620437,42.2958888 L38.8236193,42.2958888 Z M36.8635513,38.6032919 L38.8706191,38.6032919 C39.5703947,38.6032919 40.1540384,38.6935615 40.6091163,38.9193597 C41.4491454,39.3033162 41.9042234,40.0374091 41.9042234,41.0649403 C41.9042234,41.9345619 41.5190235,42.8603844 40.3756091,43.2896 C39.9439068,43.4477582 39.4072629,43.5492182 38.7303656,43.5492182 L38.4620437,43.5492182 L38.4620437,46.0449353 L36.8635513,46.0449353 L36.8635513,38.6032919 L36.8635513,38.6032919 Z" id="Fill-15" fill="#1A1919"></path>
                    <path d="M46.6651344,43.35724 C46.6651344,42.4537984 46.2799346,41.7875941 45.4515932,41.7875941 C44.6232519,41.7875941 44.2266129,42.4537984 44.2266129,43.35724 C44.2266129,44.2606816 44.6232519,44.938325 45.4515932,44.938325 C46.2799346,44.938325 46.6651344,44.2606816 46.6651344,43.35724 Z M42.6164328,43.35724 C42.6164328,41.7425837 43.7598472,40.5680847 45.4515932,40.5680847 C47.1319001,40.5680847 48.2753146,41.7425837 48.2753146,43.35724 C48.2753146,44.972145 47.1319001,46.1578344 45.4515932,46.1578344 C43.771535,46.1578344 42.6164328,44.972145 42.6164328,43.35724 L42.6164328,43.35724 Z" id="Fill-16" fill="#1A1919"></path>
                    <path d="M49.3374118,38.0499868 L50.9125285,38.0499868 L50.9125285,44.3623903 C50.9125285,44.7122781 51.0644699,44.8139868 51.321104,44.8139868 C51.3792943,44.8139868 51.5429234,44.7913572 51.6709918,44.7463468 L51.9743771,45.9320362 C51.6128015,46.0787553 51.1808504,46.1352049 50.8426504,46.1352049 C49.8509287,46.1352049 49.3374118,45.6609788 49.3374118,44.7575372 L49.3374118,38.0499868" id="Fill-17" fill="#1A1919"></path>
                    <path d="M52.7798401,46.0449353 L54.3549569,46.0449353 L54.3549569,40.7036134 L52.7798401,40.7036134 L52.7798401,46.0449353 Z M52.6164597,39.0548884 C52.6164597,38.5692232 53.0250351,38.1740763 53.5733668,38.1740763 C54.1100106,38.1740763 54.5183374,38.5468424 54.5183374,39.0548884 C54.5183374,39.551744 54.1100106,39.95833 53.5733668,39.95833 C53.0250351,39.95833 52.6164597,39.5629344 52.6164597,39.0548884 L52.6164597,39.0548884 Z" id="Fill-18" fill="#1A1919"></path>
                    <path d="M56.1521418,44.6558285 L56.1521418,41.8893028 L55.1370444,41.8893028 L55.1370444,40.7036134 L56.1521418,40.7036134 L56.1521418,39.4500353 L57.7389463,39.0096293 L57.7389463,40.7036134 L59.4075654,40.7036134 L59.0454925,41.8893028 L57.7389463,41.8893028 L57.7389463,44.2718721 C57.7389463,44.7689763 57.9023268,44.938325 58.2639024,44.938325 C58.5672876,44.938325 58.8706729,44.8366163 59.0805559,44.7010876 L59.5356338,45.7400579 C59.1275557,46.0111153 58.4039072,46.1578344 57.8555756,46.1578344 C56.8054149,46.1578344 56.1521418,45.5930901 56.1521418,44.6558285" id="Fill-19" fill="#1A1919"></path>
                    <path d="M60.2829066,46.0449353 L61.8580234,46.0449353 L61.8580234,40.7036134 L60.2829066,40.7036134 L60.2829066,46.0449353 Z M60.1195262,39.0548884 C60.1195262,38.5692232 60.5278529,38.1740763 61.0761846,38.1740763 C61.6130771,38.1740763 62.0214038,38.5468424 62.0214038,39.0548884 C62.0214038,39.551744 61.6130771,39.95833 61.0761846,39.95833 C60.5278529,39.95833 60.1195262,39.5629344 60.1195262,39.0548884 L60.1195262,39.0548884 Z" id="Fill-20" fill="#1A1919"></path>
                    <path d="M63.2001303,44.5091094 C63.6435204,44.7913572 64.2152276,44.972145 64.7518715,44.972145 C65.2768275,44.972145 65.6503396,44.8478068 65.6503396,44.5091094 C65.6503396,43.696186 63.048189,44.0122538 63.048189,42.2280001 C63.048189,41.2457281 63.8884668,40.5680847 65.2186372,40.5680847 C65.8604712,40.5680847 66.4436175,40.6697934 66.9103832,40.8391421 L66.9103832,42.115101 C66.4204906,41.9119324 65.8838468,41.7537741 65.2885153,41.7537741 C64.8334374,41.7537741 64.588491,41.8781124 64.588491,42.148921 C64.588491,42.883014 67.1903929,42.5893271 67.1903929,44.4752894 C67.1903929,45.6836084 66.0817932,46.1578344 64.8801885,46.1578344 C63.9700326,46.1578344 63.2115694,45.9094066 62.7216768,45.6157197 L63.2001303,44.5091094" id="Fill-21" fill="#1A1919"></path>
                    <path d="M67.9374171,43.4024991 C67.9374171,41.708515 69.2909631,40.5680847 70.912831,40.5680847 C71.6593578,40.5680847 72.1494991,40.7712534 72.4414453,40.9520412 L72.4414453,42.2280001 C72.0445576,41.9345619 71.6242944,41.7764037 71.0876506,41.7764037 C70.1193044,41.7764037 69.5475972,42.4878671 69.5475972,43.3913087 C69.5475972,44.3962103 70.1309922,44.938325 71.0177725,44.938325 C71.5079138,44.938325 71.8811772,44.8027963 72.289504,44.5769981 L72.7328941,45.6157197 C72.2778162,45.9320362 71.5661041,46.1578344 70.7959531,46.1578344 C68.9642022,46.1578344 67.9374171,44.972145 67.9374171,43.4024991" id="Fill-22" fill="#1A1919"></path>
                    <path d="M73.5383572,38.0499868 L75.113474,38.0499868 L75.113474,41.268109 C75.5919275,40.8729621 76.2220737,40.5680847 76.9101615,40.5680847 C77.7971904,40.5680847 78.7307219,40.9408507 78.7307219,42.5328775 L78.7307219,46.0449353 L77.1436687,46.0449353 L77.1436687,42.9959131 C77.1436687,42.3973488 77.0270394,41.8893028 76.3501421,41.8893028 C75.9418153,41.8893028 75.486986,42.081281 75.113474,42.3635288 L75.113474,46.0449353 L73.5383572,46.0449353 L73.5383572,38.0499868" id="Fill-23" fill="#1A1919"></path>
                    <path d="M83.2230624,42.7813053 C83.2113746,42.2506297 82.9311162,41.7199541 82.2430284,41.7199541 C81.6126335,41.7199541 81.2744335,42.2280001 81.2744335,42.7813053 L83.2230624,42.7813053 Z M79.7110046,43.4136896 C79.7110046,41.7990332 80.609224,40.5680847 82.2661553,40.5680847 C83.8763354,40.5680847 84.8098669,41.6635046 84.8098669,43.4589487 L84.8098669,43.8090851 L81.2978091,43.8090851 C81.3211847,44.5543685 81.9160188,44.972145 82.7562966,44.972145 C83.3280038,44.972145 83.7597062,44.8366163 84.1680329,44.6108181 L84.6231109,45.6497884 C84.0049012,46.0111153 83.316316,46.1578344 82.6162918,46.1578344 C80.5159703,46.1578344 79.7110046,44.8139868 79.7110046,43.4136896 L79.7110046,43.4136896 Z" id="Fill-24" fill="#1A1919"></path>
                    <path d="M91.0061385,44.7801668 C91.8929188,44.7801668 92.3365576,44.4864799 92.3365576,43.8090851 C92.3365576,43.2331504 91.8929188,42.9056435 91.1578312,42.9056435 L90.189485,42.9056435 L90.189485,44.7801668 L91.0061385,44.7801668 Z M90.7960069,41.640875 C91.4962799,41.640875 91.8581041,41.2569185 91.8581041,40.7712534 C91.8581041,40.2632074 91.507719,39.8680604 90.7611922,39.8680604 L90.189485,39.8680604 L90.189485,41.640875 L90.7960069,41.640875 Z M88.5909926,38.6032919 L91.0061385,38.6032919 C92.6747576,38.6032919 93.4215331,39.5405535 93.4215331,40.4890056 C93.4215331,41.0987603 93.10646,41.6973246 92.5113772,41.9910115 L92.5113772,42.0133924 C93.4332209,42.2506297 93.9464891,42.9732835 93.9464891,43.8090851 C93.9464891,44.938325 93.0363332,46.0449353 91.2162701,46.0449353 L88.5909926,46.0449353 L88.5909926,38.6032919 L88.5909926,38.6032919 Z" id="Fill-25" fill="#1A1919"></path>
                    <path d="M95.0670253,46.0449353 L96.6421421,46.0449353 L96.6421421,40.7036134 L95.0670253,40.7036134 L95.0670253,46.0449353 Z M94.9036449,39.0548884 C94.9036449,38.5692232 95.3119716,38.1740763 95.8603032,38.1740763 C96.3971957,38.1740763 96.8055225,38.5468424 96.8055225,39.0548884 C96.8055225,39.551744 96.3971957,39.95833 95.8603032,39.95833 C95.3119716,39.95833 94.9036449,39.5629344 94.9036449,39.0548884 L94.9036449,39.0548884 Z" id="Fill-26" fill="#1A1919"></path>
                    <path d="M97.9491856,38.0499868 L99.5243024,38.0499868 L99.5243024,44.3623903 C99.5243024,44.7122781 99.675995,44.8139868 99.9326291,44.8139868 C99.9910681,44.8139868 100.154449,44.7913572 100.282766,44.7463468 L100.585902,45.9320362 C100.224327,46.0787553 99.7926243,46.1352049 99.4544243,46.1352049 C98.4624538,46.1352049 97.9491856,45.6609788 97.9491856,44.7575372 L97.9491856,38.0499868" id="Fill-27" fill="#1A1919"></path>
                    <path d="M104.91536,44.8254259 L104.91536,41.8781124 C104.728604,41.8328532 104.576662,41.8214141 104.320028,41.8214141 C103.386745,41.8214141 102.756599,42.3973488 102.756599,43.3913087 C102.756599,44.3623903 103.433496,44.9042563 104.331716,44.9042563 C104.495096,44.9042563 104.75173,44.8818754 104.91536,44.8254259 Z M101.146419,43.4136896 C101.146419,41.7425837 102.418399,40.5680847 104.238462,40.5680847 C104.401843,40.5680847 104.728604,40.5792751 104.91536,40.6133438 L104.91536,38.0499868 L106.490476,38.0499868 L106.490476,45.7512484 C105.907081,46.0334962 105.043428,46.1578344 104.378467,46.1578344 C102.511653,46.1578344 101.146419,45.1753137 101.146419,43.4136896 L101.146419,43.4136896 Z" id="Fill-28" fill="#1A1919"></path>
                    <path d="M107.9609,45.0962346 C107.844271,44.8027963 107.774144,44.4526599 107.774144,43.9219843 L107.774144,40.7036134 L109.34951,40.7036134 L109.34951,43.797646 C109.34951,44.0575129 109.384324,44.2606816 109.46589,44.4188399 C109.606144,44.7010876 109.862778,44.8592459 110.271105,44.8592459 C110.656056,44.8592459 111.01788,44.7122781 111.251139,44.4752894 L111.251139,40.7036134 L112.826504,40.7036134 L112.826504,44.8930659 C112.826504,45.3108424 112.838192,45.7512484 112.931446,46.0449353 L111.589587,46.0449353 L111.356329,45.5142597 C110.959441,45.8641475 110.41111,46.1578344 109.68771,46.1578344 C109.151066,46.1578344 108.334412,45.9546657 107.9609,45.0962346" id="Fill-29" fill="#1A1919"></path>
                    <path d="M114.133548,40.7036134 L115.475406,40.7036134 L115.638786,41.2795481 C116.199054,40.8391421 116.828952,40.5680847 117.505601,40.5680847 C118.39263,40.5680847 119.314225,40.9408507 119.314225,42.5328775 L119.314225,46.0449353 L117.739108,46.0449353 L117.739108,42.9959131 C117.739108,42.3973488 117.62223,41.8893028 116.945581,41.8893028 C116.525567,41.8893028 116.070489,42.081281 115.708913,42.3635288 L115.708913,46.0449353 L114.133548,46.0449353 L114.133548,40.7036134" id="Fill-30" fill="#1A1919"></path>
                    <path d="M123.666809,42.6119566 C123.666809,42.148921 123.351736,41.6973246 122.768341,41.6973246 C122.290136,41.6973246 121.916624,42.0022019 121.916624,42.6007662 C121.916624,43.0749922 122.21976,43.5042078 122.791716,43.5042078 C123.293545,43.5042078 123.666809,43.1993304 123.666809,42.6119566 Z M124.191765,47.095096 C124.191765,46.3950718 122.453268,46.5529813 121.799995,46.2707335 C121.659741,46.3724422 121.461546,46.5756109 121.461546,46.8692978 C121.461546,47.3547143 121.99819,47.6710307 122.896658,47.6710307 C123.631745,47.6710307 124.191765,47.4564229 124.191765,47.095096 Z M120.061497,47.1403551 C120.061497,46.5306004 120.504639,46.0787553 121.053219,45.8755866 C120.819961,45.7512484 120.679707,45.4916301 120.679707,45.2205728 C120.679707,44.8704363 120.936341,44.497919 121.391419,44.2268616 C120.772961,43.8993547 120.446449,43.2669704 120.446449,42.5555071 C120.446449,41.5956159 121.158161,40.5680847 122.756653,40.5680847 C123.269921,40.5680847 123.655121,40.6809838 123.88838,40.8053221 C123.946819,40.8391421 123.981633,40.8277029 124.028633,40.7826925 C124.332018,40.5004447 124.693594,40.3084665 125.428682,40.3084665 C125.556999,40.3084665 125.731818,40.3308474 125.813881,40.3422865 L125.510247,41.4036376 C125.370243,41.3810081 125.206862,41.3586272 125.078794,41.3586272 C124.985291,41.3586272 124.810223,41.3698176 124.705282,41.4262672 C124.996731,41.7537741 125.148672,42.1941801 125.148672,42.6457766 C125.148672,43.8655347 124.180077,44.6446381 122.803404,44.6446381 C122.558458,44.6446381 122.324951,44.6108181 122.149882,44.565559 C122.068316,44.7122781 122.056629,44.7913572 122.056629,44.8704363 C122.056629,45.8076979 125.685316,44.9268859 125.685316,46.9257474 C125.685316,47.896829 124.693594,48.7211915 122.686526,48.7211915 C120.99478,48.7211915 120.061497,48.0435481 120.061497,47.1403551 L120.061497,47.1403551 Z" id="Fill-31" fill="#1A1919"></path>
                    <path d="M38.5552974,54.3397876 C38.9753119,54.3397876 39.3137606,54.2609572 39.6173946,54.0916085 C40.0137849,53.8658103 40.2821068,53.4477851 40.2821068,52.8720991 C40.2821068,52.4316931 40.1306628,52.0477366 39.7922141,51.8102506 C39.5470191,51.6073306 39.1620679,51.4603628 38.5669851,51.4603628 L37.8321462,51.4603628 L37.8321462,54.3397876 L38.5552974,54.3397876 Z M36.9684928,50.7603385 L38.5319218,50.7603385 C39.3373849,50.7603385 39.8740287,50.9070576 40.270419,51.1557341 C40.889126,51.5282515 41.1691357,52.1380062 41.1691357,52.79302 C41.1691357,53.8205512 40.5974285,54.4641259 39.6057068,54.7578128 L39.6057068,54.7804424 C39.8389653,54.8933415 40.1306628,55.3113666 40.5273018,55.9658831 L41.927599,58.2022306 L40.9239407,58.2022306 L39.5823312,56.0452109 C39.2205069,55.4578371 38.9288094,55.0965101 38.6953022,55.0403093 L37.8321462,55.0403093 L37.8321462,58.2022306 L36.9684928,58.2022306 L36.9684928,50.7603385 L36.9684928,50.7603385 Z" id="Fill-32" fill="#1A1919"></path>
                    <path d="M43.0712621,50.2070334 L43.9232276,50.2070334 L43.9232276,53.5383034 C44.5066226,53.0638287 45.1248324,52.7251313 45.8365444,52.7251313 C46.7001978,52.7251313 47.4703488,53.2558069 47.4703488,54.5996546 L47.4703488,58.2022306 L46.6183832,58.2022306 L46.6183832,54.8819024 C46.6183832,54.0801694 46.4085003,53.4704147 45.6266615,53.4704147 C45.0082031,53.4704147 44.4481837,53.8317416 43.9232276,54.2723963 L43.9232276,58.2022306 L43.0712621,58.2022306 L43.0712621,50.2070334" id="Fill-33" fill="#1A1919"></path>
                    <path d="M52.242699,55.0288701 C52.2310112,54.2156981 51.8226844,53.4027747 50.9475919,53.4027747 C50.1075628,53.4027747 49.5823581,54.1368676 49.5706703,55.0288701 L52.242699,55.0288701 Z M48.68389,55.4690275 C48.68389,53.8429321 49.6057337,52.7251313 50.9475919,52.7251313 C52.3478891,52.7251313 53.1411671,53.7867312 53.1411671,55.4690275 L53.1411671,55.6726935 L49.5589825,55.6726935 C49.5823581,56.7678647 50.2241921,57.6148568 51.4026699,57.6148568 C51.9161868,57.6148568 52.3827038,57.4566985 52.7559672,57.2535299 L53.0359769,57.840655 C52.5577721,58.1455324 51.8928112,58.314881 51.2741041,58.314881 C49.5356069,58.314881 48.68389,57.0277316 48.68389,55.4690275 L48.68389,55.4690275 Z" id="Fill-34" fill="#1A1919"></path>
                    <path d="M54.5068982,58.2022306 L55.3583665,58.2022306 L55.3583665,52.86066 L54.5068982,52.86066 L54.5068982,58.2022306 Z M54.3549569,51.0990359 C54.3549569,50.7829681 54.5884641,50.5345403 54.9266641,50.5345403 C55.2768006,50.5345403 55.5103078,50.771529 55.5103078,51.0990359 C55.5103078,51.4153524 55.2651128,51.6525897 54.9266641,51.6525897 C54.5884641,51.6525897 54.3549569,51.4153524 54.3549569,51.0990359 L54.3549569,51.0990359 Z" id="Fill-35" fill="#1A1919"></path>
                    <path d="M57.0038587,52.86066 L57.7272585,52.86066 L57.8322,53.5497425 C58.4389706,53.0528869 59.0571803,52.7251313 59.769141,52.7251313 C60.6325457,52.7251313 61.4026968,53.2558069 61.4026968,54.5996546 L61.4026968,58.2022306 L60.5507312,58.2022306 L60.5507312,54.8819024 C60.5507312,54.0801694 60.3405996,53.4704147 59.5590094,53.4704147 C58.9407997,53.4704147 58.3807803,53.8317416 57.8672634,54.2723963 L57.8672634,58.2022306 L57.0038587,58.2022306 L57.0038587,52.86066" id="Fill-36" fill="#1A1919"></path>
                    <path d="M62.9546866,50.2070334 L63.8066522,50.2070334 L63.8066522,56.9710334 C63.8066522,57.4114394 63.9464084,57.5357776 64.2381059,57.5357776 C64.3316082,57.5357776 64.4949887,57.4905185 64.5768032,57.4566985 L64.7635593,58.1117124 C64.5417399,58.213421 64.2497937,58.2696219 63.9931596,58.2696219 C63.293384,58.2696219 62.9546866,57.874475 62.9546866,57.2306516 L62.9546866,50.2070334" id="Fill-37" fill="#1A1919"></path>
                    <path d="M67.8088513,55.5933657 C67.3303978,55.6045562 67.0153247,55.6726935 66.7703784,55.7967831 C66.4553053,55.9658831 66.2919249,56.2710091 66.2919249,56.6211456 C66.2919249,57.2082707 66.6888125,57.6148568 67.31871,57.6148568 C68.0072951,57.6148568 68.5205634,57.1744507 68.7771975,56.9145838 L68.7771975,55.5595457 L67.8088513,55.5933657 Z M68.8239487,57.6034176 C68.3922463,57.9985646 67.8556025,58.314881 67.167266,58.314881 C66.1636078,58.314881 65.417081,57.6939359 65.417081,56.6664047 C65.417081,55.9546926 65.7903444,55.4690275 66.3503638,55.2208484 C66.7236272,55.0403093 67.167266,54.983611 67.7272854,54.9609815 L68.7771975,54.9271615 L68.7771975,54.5884641 C68.7771975,53.7755407 68.2756171,53.4142138 67.5872806,53.4142138 C66.922071,53.4142138 66.4553053,53.6285729 66.0703541,53.8543712 L65.7435932,53.267246 C66.3854272,52.8720991 67.0737637,52.7251313 67.6805343,52.7251313 C68.8239487,52.7251313 69.6408509,53.267246 69.6408509,54.5434537 L69.6408509,56.3839082 C69.6408509,57.4343176 69.6759143,57.9311732 69.7457924,58.2022306 L68.9873291,58.2022306 L68.8239487,57.6034176 L68.8239487,57.6034176 Z" id="Fill-38" fill="#1A1919"></path>
                    <path d="M71.1112749,52.86066 L71.8346747,52.86066 L71.9396162,53.5497425 C72.5463868,53.0528869 73.1648451,52.7251313 73.8765572,52.7251313 C74.7402106,52.7251313 75.5101129,53.2558069 75.5101129,54.5996546 L75.5101129,58.2022306 L74.658396,58.2022306 L74.658396,54.8819024 C74.658396,54.0801694 74.4482644,53.4704147 73.6664256,53.4704147 C73.0482159,53.4704147 72.4881965,53.8317416 71.9749282,54.2723963 L71.9749282,58.2022306 L71.1112749,58.2022306 L71.1112749,52.86066" id="Fill-39" fill="#1A1919"></path>
                    <path d="M80.5042825,57.4566985 L80.5042825,53.5718747 C80.2242728,53.4816051 80.0143899,53.4365947 79.6294387,53.4365947 C78.5325268,53.4365947 77.6106831,54.204259 77.6106831,55.5709849 C77.6106831,56.8131238 78.3691463,57.6034176 79.6411265,57.6034176 C79.932824,57.6034176 80.271024,57.5469681 80.5042825,57.4566985 Z M76.7239028,55.5933657 C76.7239028,53.8658103 77.9958829,52.7251313 79.5709997,52.7251313 C79.8977606,52.7251313 80.2011459,52.7589513 80.5042825,52.8380304 L80.5042825,50.2070334 L81.3559994,50.2070334 L81.3559994,57.9535541 C80.9710482,58.1569715 80.3060874,58.314881 79.6058144,58.314881 C78.0190099,58.314881 76.7239028,57.400249 76.7239028,55.5933657 L76.7239028,55.5933657 Z" id="Fill-40" fill="#1A1919"></path>
                    <polygon id="Fill-41" fill="#1A1919" points="82.8035451 55.7741535 85.7085837 55.7741535 85.7085837 55.0403093 82.8035451 55.0403093"></polygon>
                    <path d="M88.7658122,54.7578128 C89.2559535,54.7578128 89.6175291,54.6675432 89.885851,54.5320146 C90.3991193,54.2723963 90.6676899,53.7867312 90.6676899,53.1090878 C90.6676899,52.487894 90.4108071,51.9798479 89.9326022,51.7087906 C89.6640316,51.550881 89.302456,51.4603628 88.7775,51.4603628 L88.1938563,51.4603628 L88.1938563,54.7578128 L88.7658122,54.7578128 Z M87.3307003,50.7603385 L88.7775,50.7603385 C89.5242754,50.7603385 90.0375437,50.8732376 90.4461191,51.0990359 C91.1458947,51.4829924 91.5544701,52.1718262 91.5544701,53.1090878 C91.5544701,53.9784607 91.1692703,54.7692519 90.2710509,55.1758379 C89.885851,55.3449379 89.3840219,55.4578371 88.6959341,55.4578371 L88.1938563,55.4578371 L88.1938563,58.2022306 L87.3307003,58.2022306 L87.3307003,50.7603385 L87.3307003,50.7603385 Z" id="Fill-42" fill="#1A1919"></path>
                    <path d="M93.3402159,53.5383034 L92.6051282,53.5383034 L92.6051282,52.86066 L93.3402159,52.86066 L93.3402159,51.9236471 C93.3402159,50.6136194 94.1685572,50.2070334 94.9270204,50.2070334 C95.1953424,50.2070334 95.5218546,50.2634829 95.7784887,50.3763821 L95.5919813,51.0537768 C95.4169131,50.9861368 95.2067815,50.9296872 94.9968985,50.9296872 C94.4368791,50.9296872 94.1916841,51.2798237 94.1916841,51.8895784 L94.1916841,52.86066 L95.5919813,52.86066 L95.3353472,53.5383034 L94.1916841,53.5383034 L94.1916841,58.2022306 L93.3402159,58.2022306 L93.3402159,53.5383034" id="Fill-43" fill="#1A1919"></path>
                    <path d="M98.5440197,55.5933657 C98.0658149,55.6045562 97.7507418,55.6726935 97.5057954,55.7967831 C97.1907224,55.9658831 97.0273419,56.2710091 97.0273419,56.6211456 C97.0273419,57.2082707 97.4242296,57.6148568 98.0541271,57.6148568 C98.7424635,57.6148568 99.2559804,57.1744507 99.5126146,56.9145838 L99.5126146,55.5595457 L98.5440197,55.5933657 Z M99.5591171,57.6034176 C99.1276634,57.9985646 98.5910196,58.314881 97.9024344,58.314881 C96.8990249,58.314881 96.1522494,57.6939359 96.1522494,56.6664047 C96.1522494,55.9546926 96.5255128,55.4690275 97.0857809,55.2208484 C97.4590443,55.0403093 97.9024344,54.983611 98.4624538,54.9609815 L99.5126146,54.9271615 L99.5126146,54.5884641 C99.5126146,53.7755407 99.0107854,53.4142138 98.3226976,53.4142138 C97.6574881,53.4142138 97.1907224,53.6285729 96.8055225,53.8543712 L96.4790103,53.267246 C97.1208443,52.8720991 97.8089321,52.7251313 98.4159513,52.7251313 C99.5591171,52.7251313 100.376268,53.267246 100.376268,54.5434537 L100.376268,56.3839082 C100.376268,57.4343176 100.411083,57.9311732 100.480961,58.2022306 L99.7227462,58.2022306 L99.5591171,57.6034176 L99.5591171,57.6034176 Z" id="Fill-44" fill="#1A1919"></path>
                    <path d="M101.893194,50.2070334 L102.74516,50.2070334 L102.74516,56.9710334 C102.74516,57.4114394 102.884916,57.5357776 103.176614,57.5357776 C103.270116,57.5357776 103.433496,57.4905185 103.515311,57.4566985 L103.701818,58.1117124 C103.480248,58.213421 103.188301,58.2696219 102.931667,58.2696219 C102.231892,58.2696219 101.893194,57.874475 101.893194,57.2306516 L101.893194,50.2070334" id="Fill-45" fill="#1A1919"></path>
                    <g id="Group-50">
                        <polyline id="Fill-46" fill="#1A1919" points="106.945803 53.5383034 104.518721 53.5383034 104.320525 52.86066 108.24091 52.86066 105.475379 57.5245872 108.217534 57.5245872 108.217534 58.2022306 104.157145 58.2022306 106.945803 53.5383034"></polyline>
                        <path d="M9.22067485,62.0611921 C8.57013721,62.0611921 7.91984824,61.9097481 7.31456971,61.5715481 C2.81054147,59.1126351 0,54.3900203 0,49.2513697 L0,4.09918294 C0,1.91356544 1.77530132,0.142242941 3.96912515,0.142242941 C6.14902309,0.142242941 7.91984824,1.91356544 7.91984824,4.09918294 L7.91984824,49.2513697 C7.91984824,51.4959235 9.14831,53.554716 11.1200657,54.6299931 C13.0316418,55.6796565 13.7368882,58.0838606 12.6874735,60.004389 C11.9732747,61.3131732 10.6107763,62.0611921 9.22067485,62.0611921" id="Fill-48" fill="#2F2F2E"></path>
                        <path d="M7.91885353,36.8662868 C7.91885353,33.491001 10.6724481,30.7406393 14.0442524,30.7406393 C17.4173,30.7406393 20.165921,33.491001 20.165921,36.8662868 L20.165921,49.2486343 L20.1664184,49.2501263 C20.1664184,52.6261581 17.4173,55.3747791 14.0440037,55.3747791 C13.4524024,55.3747791 12.8923829,55.5083184 12.3880671,55.7408309 C13.2790749,56.9434303 13.4524024,58.601605 12.6854841,60.004389 C12.2639775,60.7775241 11.6134399,61.3492313 10.8669131,61.6921562 C11.5885722,62.6639838 12.7411876,63.2953734 14.0440037,63.2953734 C21.7830641,63.2953734 28.0850232,56.9881921 28.0850232,49.2501263 L28.0850232,36.8667841 C28.0850232,28.8601478 21.5254353,23.6976243 16.6595828,23.1500387 C13.1587154,22.7561351 9.66157824,23.7757087 7.91885353,25.6790784 L7.91885353,36.8662868 Z M7.31258029,61.5715481 C7.50978074,61.6819604 7.71394412,61.7655157 7.91885353,61.8373832 L7.91885353,84.8165812 C7.91885353,87.0036907 6.14753103,88.7775 3.96713574,88.7775 C1.77231721,88.7775 0,87.0036907 0,84.8165812 L0,49.3078193 C0.0213861765,54.4245863 2.82496471,59.1223335 7.31258029,61.5715481 L7.31258029,61.5715481 Z" id="Fill-49" fill="#A9AAA9"></path>
                    </g>
                </g>
            </g>
        </g>
    </g>
</svg>