<?xml version="1.0" encoding="utf-8"?>
<!-- Generator: Adobe Illustrator 21.1.0, SVG Export Plug-In . SVG Version: 6.00 Build 0)  -->
<svg version="1.1" id="Ebene_1" xmlns="http://www.w3.org/2000/svg" xmlns:xlink="http://www.w3.org/1999/xlink" x="0px" y="0px"
	 viewBox="0 0 153 61" style="enable-background:new 0 0 153 61;" xml:space="preserve">
<style type="text/css">
	.st0{fill:#1A1919;}
	.st1{fill:#B4B5B4;}
	.st2{fill:#8A8B8A;}
	.st3{fill:#636463;}
</style>
<title>Logo_s_w_komplett</title>
<desc>Created with Sketch.</desc>
<g id="_x30_1_x5F_Start">
	<g id="WOM_Sachsen-Copy" transform="translate(-111.000000, -189.000000)">
		<g id="Logo_s_w_komplett" transform="translate(111.000000, 189.000000)">
			<path id="Fill-1" class="st0" d="M49.6,58.9h0.8v-4.2h0.9v-0.6h-0.9v-1c0-0.5,0.1-0.7,0.6-0.7c0.2,0,0.4,0,0.5,0.1v-0.7
				c-0.2,0-0.4-0.1-0.6-0.1c-0.9,0-1.2,0.5-1.2,1.3v1.1h-0.8v0.6h0.8V58.9"/>
			<path id="Fill-2" class="st0" d="M52.6,53.1h0.8v-0.9h-0.8V53.1z M54.2,53.1h0.8v-0.9h-0.8V53.1z M55.5,54.1h-0.8V57
				c0,0.9-0.4,1.3-1,1.3c-0.5,0-0.8-0.3-0.8-1.1v-3.1h-0.8v3.3c0,1.1,0.6,1.5,1.4,1.5c0.6,0,1-0.2,1.2-0.8h0l0,0.7h0.8
				c0-0.3,0-0.7,0-1V54.1L55.5,54.1z"/>
			<path id="Fill-3" class="st0" d="M56.9,58.9h0.8v-2.5c0-1,0.4-1.6,1.1-1.6c0.1,0,0.2,0,0.3,0V54c-0.7,0-1.1,0.2-1.4,0.8h0l0-0.8
				h-0.8c0,0.3,0,0.7,0,1V58.9"/>
			<path id="Fill-4" class="st0" d="M63.1,56.5c0-1.2,0.3-1.8,1.1-1.8c0.7,0,1.1,0.6,1.1,1.8c0,1.2-0.3,1.8-1.1,1.8
				C63.4,58.3,63.1,57.7,63.1,56.5z M62.3,60.9h0.8v-2.7h0c0.3,0.5,0.7,0.7,1.2,0.7c1,0,1.7-0.8,1.7-2.5c0-1.7-0.7-2.5-1.7-2.5
				c-0.7,0-1.1,0.4-1.3,0.8h0l0-0.7h-0.8c0,0.3,0,0.6,0,0.9V60.9L62.3,60.9z"/>
			<path id="Fill-5" class="st0" d="M67.8,56.5c0-1.2,0.4-1.8,1.1-1.8s1.1,0.6,1.1,1.8c0,1.2-0.4,1.8-1.1,1.8S67.8,57.7,67.8,56.5z
				 M66.9,56.5c0,1.5,0.7,2.5,2,2.5c1.3,0,2-1,2-2.5c0-1.5-0.7-2.5-2-2.5C67.6,54,66.9,55,66.9,56.5L66.9,56.5z"/>
			<polygon id="Fill-6" class="st0" points="72.1,58.9 72.9,58.9 72.9,51.8 72.1,51.8 			"/>
			<path id="Fill-7" class="st0" d="M74.4,58.9h0.9v-4.8h-0.9V58.9z M74.3,53.1h1v-0.9h-1V53.1z"/>
			<path id="Fill-8" class="st0" d="M78.8,58.2c-0.2,0.1-0.3,0.1-0.5,0.1c-0.4,0-0.5-0.2-0.5-0.8v-2.8h1v-0.6h-1v-1.2L77,53.1v1
				h-0.8v0.6H77v3.1c0,0.8,0.4,1.1,1.1,1.1c0.2,0,0.5-0.1,0.7-0.1V58.2"/>
			<path id="Fill-9" class="st0" d="M79.7,58.9h0.9v-4.8h-0.9V58.9z M79.7,53.1h1v-0.9h-1V53.1z"/>
			<path id="Fill-10" class="st0" d="M81.7,58.7c0.4,0.2,0.8,0.3,1.3,0.3c1.1,0,1.6-0.7,1.6-1.5c0-0.6-0.4-1-1-1.2l-0.3-0.1
				c-0.5-0.2-0.8-0.4-0.8-0.8c0-0.4,0.3-0.7,0.8-0.7c0.4,0,0.7,0.1,1,0.2l0-0.7c-0.3-0.1-0.6-0.2-1-0.2c-0.9,0-1.6,0.6-1.6,1.4
				c0,0.6,0.3,0.9,1,1.2l0.5,0.2c0.4,0.2,0.6,0.4,0.6,0.8c0,0.4-0.3,0.7-0.9,0.7c-0.4,0-0.8-0.1-1.1-0.4L81.7,58.7"/>
			<path id="Fill-11" class="st0" d="M88.6,54.2c-0.3-0.1-0.6-0.2-1-0.2c-1.4,0-2.2,1-2.2,2.5c0,1.4,0.7,2.4,2.2,2.4
				c0.4,0,0.8-0.1,1-0.2l0-0.7c-0.3,0.1-0.6,0.3-1,0.3c-0.8,0-1.3-0.6-1.3-1.7c0-1.3,0.6-1.8,1.3-1.8c0.4,0,0.7,0.1,0.9,0.2
				L88.6,54.2"/>
			<path id="Fill-12" class="st0" d="M89.6,58.9h0.8V56c0-0.9,0.4-1.3,1-1.3c0.5,0,0.8,0.3,0.8,1.1v3.1H93v-3.3
				c0-1.1-0.6-1.5-1.4-1.5c-0.6,0-1,0.3-1.2,0.7h0v-2.9h-0.8V58.9"/>
			<path id="Fill-13" class="st0" d="M97.7,56.7v-0.4c0-1.4-0.6-2.3-1.7-2.3c-1.2,0-1.9,1-1.9,2.5c0,1.5,0.7,2.5,2,2.5
				c0.5,0,1-0.1,1.4-0.3l0-0.7c-0.3,0.2-0.7,0.4-1.1,0.4c-0.9,0-1.3-0.5-1.3-1.6H97.7z M95,56.1c0-1.1,0.5-1.5,1-1.5
				c0.6,0,1,0.5,1,1.5H95L95,56.1z"/>
			<path id="Fill-14" class="st0" d="M101.5,58.9h1.6c1.5,0,2.1-0.9,2.1-1.8c0-0.9-0.5-1.5-1.2-1.6v0c0.7-0.2,1.1-0.7,1.1-1.5
				c0-1-0.6-1.7-1.9-1.7h-1.7V58.9z M102.3,53h0.6c0.9,0,1.2,0.5,1.2,1c0,0.7-0.4,1.1-1.4,1.1h-0.5V53z M102.3,55.8h0.8
				c0.8,0,1.2,0.5,1.2,1.2c0,0.6-0.4,1.2-1.3,1.2h-0.7V55.8L102.3,55.8z"/>
			<path id="Fill-15" class="st0" d="M106.5,58.9h0.9v-4.8h-0.9V58.9z M106.5,53.1h1v-0.9h-1V53.1z"/>
			<polygon id="Fill-16" class="st0" points="108.9,58.9 109.7,58.9 109.7,51.8 108.9,51.8 			"/>
			<path id="Fill-17" class="st0" d="M113.8,56.5c0,1.2-0.3,1.8-1.1,1.8c-0.7,0-1.1-0.6-1.1-1.8c0-1.2,0.3-1.8,1.1-1.8
				C113.5,54.7,113.8,55.3,113.8,56.5z M114.6,51.8h-0.8v2.9h0c-0.3-0.5-0.7-0.7-1.2-0.7c-1,0-1.7,0.8-1.7,2.5
				c0,1.7,0.7,2.5,1.7,2.5c0.7,0,1.1-0.4,1.3-0.8h0l0,0.7h0.8c0-0.3,0-0.6,0-0.9V51.8L114.6,51.8z"/>
			<path id="Fill-18" class="st0" d="M119.3,54.1h-0.8V57c0,0.9-0.4,1.3-1,1.3c-0.5,0-0.8-0.3-0.8-1.1v-3.1h-0.8v3.3
				c0,1.1,0.6,1.5,1.4,1.5c0.6,0,1-0.2,1.2-0.8h0l0,0.7h0.8c0-0.3,0-0.7,0-1V54.1"/>
			<path id="Fill-19" class="st0" d="M120.7,58.9h0.8V56c0-0.9,0.4-1.3,1-1.3c0.5,0,0.8,0.3,0.8,1.1v3.1h0.8v-3.3
				c0-1.1-0.6-1.5-1.4-1.5c-0.6,0-1,0.2-1.2,0.8h0l0-0.7h-0.8c0,0.3,0,0.7,0,1V58.9"/>
			<path id="Fill-20" class="st0" d="M126.1,56.5c0-1.2,0.3-1.8,1.1-1.8s1.1,0.6,1.1,1.8c0,1.2-0.3,1.8-1.1,1.8
				S126.1,57.7,126.1,56.5z M129,55c0-0.3,0-0.6,0-0.9h-0.8l0,0.7h0c-0.3-0.5-0.7-0.8-1.2-0.8c-1.1,0-1.8,0.8-1.8,2.5
				c0,1.7,0.7,2.5,1.7,2.5c0.5,0,1-0.3,1.3-0.8h0v0.8c0,0.8-0.4,1.4-1.4,1.4c-0.4,0-1-0.2-1.3-0.4l0,0.8c0.4,0.1,1,0.3,1.4,0.3
				c1.1,0,2.1-0.6,2.1-1.9V55L129,55z"/>
			<path id="Fill-21" class="st0" d="M3.1,41.1c-0.3-0.1-0.8-0.2-1.2-0.2c-1,0-1.9,0.6-1.9,1.6c0,0.8,0.3,1.3,1.5,2
				c0.9,0.5,1,0.8,1,1.3c0,0.5-0.4,1-1.2,1c-0.4,0-0.9-0.2-1.3-0.4v0.9c0.4,0.2,0.9,0.3,1.4,0.3c1.3,0,1.9-0.8,1.9-1.9
				c0-0.8-0.3-1.3-1.4-1.9C1.1,43.2,1,43,1,42.5c0-0.6,0.4-1,1-1c0.4,0,0.8,0.1,1.1,0.3V41.1"/>
			<path id="Fill-22" class="st0" d="M5.2,41.7h0.8v-0.9H5.2V41.7z M6.7,41.7h0.8v-0.9H6.7V41.7z M5,43.8c0.3-0.3,0.8-0.5,1.3-0.5
				c0.3,0,0.7,0.1,0.8,0.3c0.2,0.2,0.2,0.4,0.2,0.8v0.2H6.7c-1.7,0-2.3,0.7-2.3,1.6c0,0.9,0.6,1.4,1.4,1.4c0.7,0,1.1-0.3,1.4-0.7h0
				l0,0.6H8c0-0.2,0-0.5,0-0.7v-2.5c0-0.7-0.2-1-0.4-1.2c-0.2-0.2-0.6-0.5-1.3-0.5c-0.5,0-1,0.1-1.4,0.4L5,43.8z M7.2,45.7
				c0,0.7-0.4,1.2-1.1,1.2c-0.6,0-0.8-0.3-0.8-0.8c0-0.6,0.4-1,1.4-1c0.2,0,0.4,0,0.6,0V45.7L7.2,45.7z"/>
			<path id="Fill-23" class="st0" d="M12.2,42.8c-0.3-0.1-0.6-0.2-1-0.2c-1.4,0-2.2,1-2.2,2.5c0,1.4,0.7,2.4,2.2,2.4
				c0.4,0,0.8-0.1,1-0.2l0-0.7c-0.3,0.1-0.6,0.3-1,0.3c-0.8,0-1.3-0.6-1.3-1.7c0-1.3,0.6-1.8,1.3-1.8c0.4,0,0.7,0.1,0.9,0.2
				L12.2,42.8"/>
			<path id="Fill-24" class="st0" d="M13.2,47.5H14v-2.9c0-0.9,0.4-1.3,1-1.3c0.5,0,0.8,0.3,0.8,1.1v3.1h0.8v-3.3
				c0-1.1-0.6-1.5-1.4-1.5c-0.6,0-1,0.3-1.2,0.7h0v-2.9h-0.8V47.5"/>
			<path id="Fill-25" class="st0" d="M17.8,47.3c0.4,0.2,0.8,0.3,1.3,0.3c1.1,0,1.6-0.7,1.6-1.5c0-0.6-0.4-1-1-1.2l-0.3-0.1
				c-0.5-0.2-0.8-0.4-0.8-0.8c0-0.4,0.3-0.7,0.8-0.7c0.4,0,0.7,0.1,1,0.2l0-0.7c-0.3-0.1-0.6-0.2-1-0.2c-0.9,0-1.6,0.6-1.6,1.4
				c0,0.6,0.3,0.9,1,1.2l0.5,0.2c0.4,0.2,0.6,0.4,0.6,0.8c0,0.4-0.3,0.7-0.9,0.7c-0.4,0-0.8-0.1-1.1-0.4L17.8,47.3"/>
			<path id="Fill-26" class="st0" d="M21.8,47.5h0.9v-4.8h-0.9V47.5z M21.8,41.6h1v-0.9h-1V41.6z"/>
			<path id="Fill-27" class="st0" d="M23.8,47.3c0.4,0.2,0.8,0.3,1.3,0.3c1.1,0,1.6-0.7,1.6-1.5c0-0.6-0.4-1-1-1.2l-0.3-0.1
				c-0.5-0.2-0.8-0.4-0.8-0.8c0-0.4,0.3-0.7,0.8-0.7c0.4,0,0.7,0.1,1,0.2l0-0.7c-0.3-0.1-0.6-0.2-1-0.2c-0.9,0-1.6,0.6-1.6,1.4
				c0,0.6,0.3,0.9,1,1.2l0.5,0.2c0.4,0.2,0.6,0.4,0.6,0.8c0,0.4-0.3,0.7-0.9,0.7c-0.4,0-0.8-0.1-1.1-0.4L23.8,47.3"/>
			<path id="Fill-28" class="st0" d="M30.7,42.8c-0.3-0.1-0.6-0.2-1-0.2c-1.4,0-2.2,1-2.2,2.5c0,1.4,0.7,2.4,2.2,2.4
				c0.4,0,0.8-0.1,1-0.2l0-0.7c-0.3,0.1-0.6,0.3-1,0.3c-0.8,0-1.3-0.6-1.3-1.7c0-1.3,0.6-1.8,1.3-1.8c0.4,0,0.7,0.1,0.9,0.2
				L30.7,42.8"/>
			<path id="Fill-29" class="st0" d="M31.7,47.5h0.8v-2.9c0-0.9,0.4-1.3,1-1.3c0.5,0,0.8,0.3,0.8,1.1v3.1h0.8v-3.3
				c0-1.1-0.6-1.5-1.4-1.5c-0.6,0-1,0.3-1.2,0.7h0v-2.9h-0.8V47.5"/>
			<path id="Fill-30" class="st0" d="M39.9,45.3v-0.4c0-1.4-0.6-2.3-1.7-2.3c-1.2,0-1.9,1-1.9,2.5c0,1.5,0.7,2.5,2,2.5
				c0.5,0,1-0.1,1.4-0.3l0-0.7c-0.3,0.2-0.7,0.4-1.1,0.4c-0.9,0-1.3-0.5-1.3-1.6H39.9z M37.1,44.7c0-1.1,0.5-1.5,1-1.5
				c0.6,0,1,0.5,1,1.5H37.1L37.1,44.7z"/>
			<polyline id="Fill-31" class="st0" points="43.6,47.5 46.6,47.5 46.6,46.8 44.4,46.8 44.4,40.9 43.6,40.9 43.6,47.5 			"/>
			<path id="Fill-32" class="st0" d="M47.8,43.8c0.3-0.3,0.8-0.5,1.3-0.5c0.3,0,0.7,0.1,0.8,0.3C50,43.8,50,44,50,44.3v0.2h-0.5
				c-1.7,0-2.3,0.7-2.3,1.6c0,0.9,0.6,1.4,1.4,1.4c0.7,0,1.1-0.3,1.4-0.7h0l0,0.6h0.7c0-0.2,0-0.5,0-0.7v-2.5c0-0.7-0.2-1-0.4-1.2
				c-0.2-0.2-0.6-0.5-1.3-0.5c-0.5,0-1,0.1-1.4,0.4L47.8,43.8z M50,45.7c0,0.7-0.4,1.2-1.1,1.2c-0.6,0-0.8-0.3-0.8-0.8
				c0-0.6,0.4-1,1.4-1c0.2,0,0.4,0,0.6,0V45.7L50,45.7z"/>
			<path id="Fill-33" class="st0" d="M52.1,47.5h0.8v-2.9c0-0.9,0.4-1.3,1-1.3c0.5,0,0.8,0.3,0.8,1.1v3.1h0.8v-3.3
				c0-1.1-0.6-1.5-1.4-1.5c-0.6,0-1,0.2-1.2,0.8h0l0-0.7h-0.8c0,0.3,0,0.7,0,1V47.5"/>
			<path id="Fill-34" class="st0" d="M59.6,45.1c0,1.2-0.3,1.8-1.1,1.8c-0.7,0-1.1-0.6-1.1-1.8c0-1.2,0.3-1.8,1.1-1.8
				C59.3,43.3,59.6,43.9,59.6,45.1z M60.4,40.4h-0.8v2.9h0c-0.3-0.5-0.7-0.7-1.2-0.7c-1,0-1.7,0.8-1.7,2.5c0,1.7,0.7,2.5,1.7,2.5
				c0.7,0,1.1-0.4,1.3-0.8h0l0,0.7h0.8c0-0.3,0-0.6,0-0.9V40.4L60.4,40.4z"/>
			<path id="Fill-35" class="st0" d="M65.1,45.3v-0.4c0-1.4-0.6-2.3-1.7-2.3c-1.2,0-1.9,1-1.9,2.5c0,1.5,0.7,2.5,2,2.5
				c0.5,0,1-0.1,1.4-0.3l0-0.7c-0.3,0.2-0.7,0.4-1.1,0.4c-0.9,0-1.3-0.5-1.3-1.6H65.1z M62.3,44.7c0-1.1,0.5-1.5,1-1.5
				c0.6,0,1,0.5,1,1.5H62.3L62.3,44.7z"/>
			<path id="Fill-36" class="st0" d="M65.9,47.3c0.4,0.2,0.8,0.3,1.3,0.3c1.1,0,1.6-0.7,1.6-1.5c0-0.6-0.4-1-1-1.2l-0.3-0.1
				c-0.5-0.2-0.8-0.4-0.8-0.8c0-0.4,0.3-0.7,0.8-0.7c0.4,0,0.7,0.1,1,0.2l0-0.7c-0.3-0.1-0.6-0.2-1-0.2c-0.9,0-1.6,0.6-1.6,1.4
				c0,0.6,0.3,0.9,1,1.2l0.5,0.2c0.4,0.2,0.6,0.4,0.6,0.8c0,0.4-0.3,0.7-0.9,0.7c-0.4,0-0.8-0.1-1.1-0.4L65.9,47.3"/>
			<polyline id="Fill-37" class="st0" points="69.7,42.7 69.7,43.4 71.9,43.4 69.6,46.8 69.6,47.5 72.7,47.5 72.7,46.8 70.4,46.8 
				72.7,43.4 72.7,42.7 69.7,42.7 			"/>
			<path id="Fill-38" class="st0" d="M77.2,45.3v-0.4c0-1.4-0.6-2.3-1.7-2.3c-1.2,0-1.9,1-1.9,2.5c0,1.5,0.7,2.5,2,2.5
				c0.5,0,1-0.1,1.4-0.3l0-0.7c-0.3,0.2-0.7,0.4-1.1,0.4c-0.9,0-1.3-0.5-1.3-1.6H77.2z M74.4,44.7c0-1.1,0.5-1.5,1-1.5
				c0.6,0,1,0.5,1,1.5H74.4L74.4,44.7z"/>
			<path id="Fill-39" class="st0" d="M78.2,47.5H79v-2.9c0-0.9,0.4-1.3,1-1.3c0.5,0,0.8,0.3,0.8,1.1v3.1h0.8v-3.3
				c0-1.1-0.6-1.5-1.4-1.5c-0.6,0-1,0.2-1.2,0.8h0l0-0.7h-0.8c0,0.3,0,0.7,0,1V47.5"/>
			<path id="Fill-40" class="st0" d="M85.2,46.8c-0.2,0.1-0.3,0.1-0.5,0.1c-0.4,0-0.5-0.2-0.5-0.8v-2.8h1v-0.6h-1v-1.2l-0.8,0.2v1
				h-0.8v0.6h0.8v3.1c0,0.8,0.4,1.1,1.1,1.1c0.2,0,0.5-0.1,0.7-0.1V46.8"/>
			<path id="Fill-41" class="st0" d="M86.1,47.5h0.8v-2.5c0-1,0.4-1.6,1.1-1.6c0.1,0,0.2,0,0.3,0v-0.8c-0.7,0-1.1,0.2-1.4,0.8h0
				l0-0.8H86c0,0.3,0,0.7,0,1V47.5"/>
			<path id="Fill-42" class="st0" d="M89.4,43.8c0.3-0.3,0.8-0.5,1.3-0.5c0.3,0,0.7,0.1,0.8,0.3c0.2,0.2,0.2,0.4,0.2,0.8v0.2h-0.5
				c-1.7,0-2.3,0.7-2.3,1.6c0,0.9,0.6,1.4,1.4,1.4c0.7,0,1.1-0.3,1.4-0.7h0l0,0.6h0.7c0-0.2,0-0.5,0-0.7v-2.5c0-0.7-0.2-1-0.4-1.2
				c-0.2-0.2-0.6-0.5-1.3-0.5c-0.5,0-1,0.1-1.4,0.4L89.4,43.8z M91.6,45.7c0,0.7-0.4,1.2-1.1,1.2c-0.6,0-0.8-0.3-0.8-0.8
				c0-0.6,0.4-1,1.4-1c0.2,0,0.4,0,0.6,0V45.7L91.6,45.7z"/>
			<polygon id="Fill-43" class="st0" points="93.8,47.5 94.6,47.5 94.6,40.4 93.8,40.4 			"/>
			<path id="Fill-44" class="st0" d="M99.4,45.3v-0.4c0-1.4-0.6-2.3-1.7-2.3c-1.2,0-1.9,1-1.9,2.5c0,1.5,0.7,2.5,2,2.5
				c0.5,0,1-0.1,1.4-0.3l0-0.7c-0.3,0.2-0.7,0.4-1.1,0.4c-0.9,0-1.3-0.5-1.3-1.6H99.4z M96.6,44.7c0-1.1,0.5-1.5,1-1.5
				c0.6,0,1,0.5,1,1.5H96.6L96.6,44.7z"/>
			<polygon id="Fill-45" class="st1" points="128.8,47.5 152.9,47.5 152.9,23.8 128.8,23.8 			"/>
			<polygon id="Fill-46" class="st2" points="128.8,23.8 152.9,23.8 152.9,0.1 128.8,0.1 			"/>
			<polygon id="Fill-47" class="st3" points="104.7,23.8 128.8,23.8 128.8,0.1 104.7,0.1 			"/>
			<g>
				<path class="st0" d="M110.5,31.3c0-0.5,0.1-1,0.2-1.4l-1-0.8v13.1h7.2V36h-2C112.2,35.9,110.5,34,110.5,31.3z"/>
				<path class="st0" d="M120.8,34c1.7-0.1,2.6-1,2.5-2.7c-0.1-2.3-2.1-2.5-2.6-2.5l-1.9,0v4.7l0.7,0.5L120.8,34z"/>
				<path class="st0" d="M115,34h1.4l-3.9-2.9c0,0.1,0,0.1,0,0.2C112.4,33.5,113.8,34,115,34z"/>
				<path class="st0" d="M113.4,29.4l3.6,2.7v-3.3h-1.8C115,28.8,114.1,28.9,113.4,29.4z"/>
				<path class="st0" d="M121.1,36l-2.2,0l0,0h-0.1v6.2h1.9c0.7,0,1.7-0.1,2.4-0.8c0.5-0.5,0.8-1.3,0.7-2.4
					C123.9,36.2,121.3,36,121.1,36z"/>
				<path class="st0" d="M104.7,23.8v23.7h24.1V23.8H104.7z M124.6,42.8c-0.9,0.9-2.1,1.3-3.6,1.3c-0.1,0-0.1,0-0.2,0l-12.9,0V25.2
					l4,3c1-1,2.4-1.3,3.3-1.3h5.7c1.5,0,4.4,1,4.5,4.4c0,1.6-0.5,2.8-1.5,3.7c1.1,0.7,2,2,2.1,4.1C125.9,40.6,125.5,41.9,124.6,42.8
					z"/>
			</g>
		</g>
	</g>
</g>
</svg>
