<?xml version="1.0" encoding="utf-8"?>
<!-- Generator: Adobe Illustrator 24.3.0, SVG Export Plug-In . SVG Version: 6.00 Build 0)  -->
<svg version="1.1" id="Ebene_1" xmlns="http://www.w3.org/2000/svg" xmlns:xlink="http://www.w3.org/1999/xlink" x="0px" y="0px"
	 viewBox="0 0 75 62" style="enable-background:new 0 0 75 62;" xml:space="preserve">
<style type="text/css">
	.st0{fill-rule:evenodd;clip-rule:evenodd;fill:#FFFFFF;}
</style>
<g id="Symbols">
	<g id="desktop_x2F_icon-leiste_x2F_small_x2F_variante-1" transform="translate(-824.000000, 4.000000)">
		<g id="Reiter" transform="translate(160.000000, -2.000000)">
			<g id="begründungen" transform="translate(617.250000, 0.000000)">
				<g transform="translate(49.000000, 0.000000)">
					<path d="M62.5,48.5H8c-1.1,0-2-0.7-2-1.6s0.9-1.6,2-1.6h54.4c1.1,0,2,0.7,2,1.6S63.6,48.5,62.5,48.5z"/>
					<path d="M62.5,59.5H8c-1.1,0-2-0.7-2-1.6s0.9-1.6,2-1.6h54.4c1.1,0,2,0.7,2,1.6S63.6,59.5,62.5,59.5z"/>
				</g>
			</g>
		</g>
	</g>
</g>
<g id="desktop_x2F_icon-leiste_x2F_small_x2F_variante-1_1_" transform="translate(-1047.000000, 1.000000)">
	<g id="Reiter_1_" transform="translate(160.000000, -2.000000)">
		<g id="standpunkte" transform="translate(849.000000, 1.000000)">
			<g transform="translate(40.000000, 0.000000)">
				<g>
					<polygon id="Fill-1-Copy_1_" class="st0" points="7.5,30.6 20.9,30.6 20.9,40.1 20.9,40.1 28.5,30.6 63.5,30.6 63.5,2.1 
						7.5,2.1 					"/>
					<path d="M7.5,0.6L7.5,0.6h56c0.8,0,1.5,0.7,1.5,1.5v28.5c0,0.8-0.7,1.5-1.5,1.5l0,0H29.3l-7.2,9c-0.4,0.5-1.1,0.7-1.7,0.5
						s-1-0.8-1-1.4v-8H7.5c-0.8,0-1.5-0.7-1.5-1.5V2.2c0-0.4,0.2-0.8,0.4-1.1S7.1,0.6,7.5,0.6z M62,3.6H9v25.5h11.9
						c0.8,0,1.5,0.7,1.5,1.5v5.3l5-6.2c0.3-0.4,0.7-0.6,1.1-0.6l0,0H62V3.6z"/>
				</g>
			</g>
		</g>
	</g>
</g>
</svg>
