<?xml version="1.0" encoding="UTF-8" standalone="no"?>
<svg width="142px" height="46px" viewBox="0 0 142 46" version="1.1" xmlns="http://www.w3.org/2000/svg" xmlns:xlink="http://www.w3.org/1999/xlink" xmlns:sketch="http://www.bohemiancoding.com/sketch/ns">
    <!-- Generator: Sketch 3.3.3 (12072) - http://www.bohemiancoding.com/sketch -->
    <title>Logo</title>
    <desc>Created with Sketch.</desc>
    <defs></defs>
    <g id="01_Start" stroke="none" stroke-width="1" fill="none" fill-rule="evenodd" sketch:type="MSPage">
        <g id="01_Start_TabletPortrait-Copy" sketch:type="MSArtboardGroup" transform="translate(-224.000000, -1032.000000)" fill="#1A1918">
            <g id="Logo" sketch:type="MSLayerGroup" transform="translate(224.000000, 1032.000000)">
                <path d="M30.3493981,15.7588235 C30.3493981,17.7812059 31.2344854,19.9197059 33.7601553,19.9197059 C36.0280194,19.9197059 36.9517087,17.7812059 36.9517087,15.7588235 C36.9517087,13.7378235 36.0280194,11.5979412 33.7601553,11.5979412 C31.2344854,11.5979412 30.3493981,13.7378235 30.3493981,15.7588235" id="Fill-1" sketch:type="MSShapeGroup"></path>
                <path d="M26.8655728,15.7588235 C26.8655728,17.7812059 25.9391262,19.9197059 23.6781553,19.9197059 C21.1483495,19.9197059 20.2646408,17.7812059 20.2646408,15.7588235 C20.2646408,13.5484412 21.0546019,11.5979412 23.6781553,11.5979412 C25.9391262,11.5979412 26.8655728,13.7378235 26.8655728,15.7588235 L26.8655728,15.7588235 Z M19.0390291,22.6567647 L20.2246602,22.6581471 L20.2287961,18.7889412 L20.2660194,18.7889412 C20.7747379,20.1865 22.1919806,20.9232941 23.645068,20.9232941 C26.6008738,20.9232941 28.0126019,18.5193824 28.0126019,15.7588235 C28.0126019,12.9996471 26.6008738,10.5985 23.645068,10.5985 C22.0761748,10.5985 20.7195922,11.4113235 20.1736505,12.7342353 L20.1322913,12.7342353 L20.1322913,10.8805 L19.0390291,10.8805 L19.0390291,22.6567647 L19.0390291,22.6567647 Z M16.629165,15.7588235 C16.629165,17.7812059 15.7027184,19.9197059 13.4431262,19.9197059 C10.9160777,19.9197059 10.028233,17.7812059 10.028233,15.7588235 C10.028233,13.7378235 10.9160777,11.5979412 13.4431262,11.5979412 C15.7027184,11.5979412 16.629165,13.7378235 16.629165,15.7588235 L16.629165,15.7588235 Z M8.91980583,20.6343824 L10.0116893,20.6343824 L10.0116893,18.7889412 L10.0502913,18.7889412 C10.5976117,20.1104706 11.9555728,20.9232941 13.5217087,20.9232941 C16.4816505,20.9232941 17.8947573,18.5193824 17.8947573,15.7588235 C17.8947573,12.9996471 16.4816505,10.5985 13.5217087,10.5985 C12.07,10.5985 10.6541359,11.3352941 10.1467961,12.7342353 L10.1068155,12.7342353 L10.1068155,9.04888235 L8.91980583,9.04888235 L8.91980583,20.6343824 L8.91980583,20.6343824 Z M33.7601553,20.9232941 C32.1940194,20.9232941 30.8346796,20.1104706 30.2928738,18.7889412 L30.2542718,18.7889412 L30.2542718,20.6343824 L29.1568738,20.6343824 L29.1568738,9.04888235 L30.3493981,9.04888235 L30.3493981,12.7342353 L30.3893786,12.7342353 C30.8898252,11.3352941 32.3056893,10.5985 33.7601553,10.5985 C34.6149126,10.5985 35.338699,10.8017059 35.9356505,11.1500588 C32.9178058,4.841 26.4836893,0.483823529 19.0376505,0.483823529 C8.69508738,0.483823529 0.311572816,8.88852941 0.311572816,19.2575588 C0.311572816,29.6321176 8.69508738,38.0382059 19.0376505,38.0382059 C29.3802136,38.0382059 37.7637282,29.6321176 37.7637282,19.2575588 C37.7637282,18.8857059 37.7499417,18.5124706 37.7320194,18.1447647 C37.1267961,19.7690294 35.8143301,20.9232941 33.7601553,20.9232941 L33.7601553,20.9232941 Z" id="Fill-2" sketch:type="MSShapeGroup"></path>
                <path d="M45.0071068,40.3107941 C45.0071068,41.5092941 44.5356117,42.6925882 43.1569709,42.6925882 C41.7700583,42.6925882 41.2241165,41.5687353 41.2241165,40.3619412 C41.2241165,39.2007647 41.7438641,38.0382059 43.0866602,38.0382059 C44.4005049,38.0382059 45.0071068,39.1551471 45.0071068,40.3107941 L45.0071068,40.3107941 Z M40.2604466,45.7987353 L41.2613398,45.7987353 L41.2613398,42.6207059 L41.2861553,42.6207059 C41.732835,43.3478235 42.6317087,43.5814412 43.2617476,43.5814412 C45.1477282,43.5814412 46.0727961,42.1175294 46.0727961,40.3812941 C46.0727961,38.6450588 45.136699,37.1452059 43.2438252,37.1452059 C42.3973398,37.1452059 41.6142718,37.4396471 41.2861553,38.1197647 L41.2613398,38.1197647 L41.2613398,37.2834412 L40.2604466,37.2834412 L40.2604466,45.7987353 L40.2604466,45.7987353 Z" id="Fill-3" sketch:type="MSShapeGroup"></path>
                <path d="M46.9165243,40.3702353 C46.9165243,42.1617647 47.9491262,43.5814412 49.8861165,43.5814412 C51.8465437,43.5814412 52.8805243,42.1617647 52.8805243,40.3702353 C52.8805243,38.5593529 51.8465437,37.1452059 49.8861165,37.1452059 C47.9491262,37.1452059 46.9165243,38.5593529 46.9165243,40.3702353 L46.9165243,40.3702353 Z M47.9891068,40.3702353 C47.9891068,38.8634706 48.8355922,38.0382059 49.8861165,38.0382059 C50.9476699,38.0382059 51.8065631,38.8634706 51.8065631,40.3702353 C51.8065631,41.8576471 50.9476699,42.6925882 49.8861165,42.6925882 C48.8355922,42.6925882 47.9891068,41.8576471 47.9891068,40.3702353 L47.9891068,40.3702353 Z" id="Fill-4" sketch:type="MSShapeGroup"></path>
                <path d="M54.2371068,34.9431176 L55.2435146,34.9431176 L55.2435146,43.4390588 L54.2371068,43.4390588 L54.2371068,34.9431176 Z" id="Fill-5" sketch:type="MSShapeGroup"></path>
                <path d="M56.9916311,43.4390588 L57.9939029,43.4390588 L57.9939029,37.2820588 L56.9916311,37.2820588 L56.9916311,43.4390588 Z M56.9916311,36.1761765 L57.9939029,36.1761765 L57.9939029,34.9417353 L56.9916311,34.9417353 L56.9916311,36.1761765 Z" id="Fill-6" sketch:type="MSShapeGroup"></path>
                <path d="M61.0820583,35.4366176 L60.0728932,35.4366176 L60.0728932,37.2834412 L59.0196117,37.2834412 L59.0196117,38.1750588 L60.0728932,38.1750588 L60.0728932,42.0967941 C60.0728932,43.2317059 60.4878641,43.4390588 61.5287379,43.4390588 L62.3076699,43.4390588 L62.3076699,42.5474412 L61.8306602,42.5474412 C61.2061359,42.5474412 61.0820583,42.4645 61.0820583,42.0014118 L61.0820583,38.1750588 L62.3076699,38.1750588 L62.3076699,37.2834412 L61.0820583,37.2834412 L61.0820583,35.4366176" id="Fill-7" sketch:type="MSShapeGroup"></path>
                <path d="M63.6049709,43.4390588 L64.5989709,43.4390588 L64.5989709,37.2820588 L63.6049709,37.2820588 L63.6049709,43.4390588 Z M63.6049709,36.1761765 L64.5989709,36.1761765 L64.5989709,34.9417353 L63.6049709,34.9417353 L63.6049709,36.1761765 Z" id="Fill-8" sketch:type="MSShapeGroup"></path>
                <path d="M65.888,41.4982353 C65.9527961,43.0285 67.1136117,43.5814412 68.4936311,43.5814412 C69.7288932,43.5814412 71.1047767,43.1086765 71.1047767,41.6447647 C71.1047767,40.4559412 70.1038835,40.1186471 69.1016117,39.8947059 C68.1558641,39.6693824 67.0915534,39.5422059 67.0915534,38.8164706 C67.0915534,38.1985588 67.8001748,38.0382059 68.4012621,38.0382059 C69.0699029,38.0382059 69.7426796,38.2856471 69.8185049,39.0735882 L70.838699,39.0735882 C70.7546019,37.5682059 69.6668544,37.1452059 68.3157864,37.1452059 C67.2376893,37.1452059 66.0258641,37.6566765 66.0258641,38.8925 C66.0258641,40.0702647 67.0253786,40.4089412 68.0317864,40.6301176 C69.0450874,40.8554412 70.0280583,40.9867647 70.0280583,41.7774706 C70.0280583,42.5474412 69.1829515,42.6925882 68.5556699,42.6925882 C67.7257282,42.6925882 66.935767,42.4078235 66.901301,41.4982353 L65.888,41.4982353" id="Fill-9" sketch:type="MSShapeGroup"></path>
                <path d="M77.5457864,39.2588235 C77.3982718,37.8018235 76.2857087,37.1452059 74.8960388,37.1452059 C72.9466408,37.1452059 72.0077864,38.5966765 72.0077864,40.4421176 C72.0077864,42.2695882 73.0114369,43.5814412 74.8726019,43.5814412 C76.4249515,43.5814412 77.3513981,42.6925882 77.5788738,41.1941176 L76.5517864,41.1941176 C76.4249515,42.1175294 75.8417864,42.6925882 74.8615728,42.6925882 C73.5794369,42.6925882 73.0734757,41.5687353 73.0734757,40.4421176 C73.0734757,39.1938529 73.5256699,38.0382059 74.9856505,38.0382059 C75.8169709,38.0382059 76.342233,38.4888529 76.5062913,39.2588235 L77.5457864,39.2588235" id="Fill-10" sketch:type="MSShapeGroup"></path>
                <path d="M78.8375728,43.4390588 L79.8398447,43.4390588 L79.8398447,39.9638235 C79.8398447,38.8551765 80.4271456,38.0382059 81.6541359,38.0382059 C82.4247961,38.0382059 82.8962913,38.5275588 82.8962913,39.2754118 L82.8962913,43.4390588 L83.9192427,43.4390588 L83.9192427,39.3915294 C83.9192427,38.07 83.4050097,37.1452059 81.7975146,37.1452059 C81.0544272,37.1452059 80.1900194,37.4479412 79.8646602,38.1888824 L79.8398447,38.1888824 L79.8398447,34.9431176 L78.8375728,34.9431176 L78.8375728,43.4390588" id="Fill-11" sketch:type="MSShapeGroup"></path>
                <path d="M89.7812233,41.4844118 C89.6006214,42.2834118 89.0160777,42.6925882 88.1930291,42.6925882 C86.8543689,42.6925882 86.2353592,41.7401471 86.2725825,40.6660588 L90.8689709,40.6660588 C90.9254951,39.1827941 90.2692621,37.1452059 88.0923883,37.1452059 C86.4187184,37.1452059 85.2165437,38.5012941 85.2165437,40.3453529 C85.2716893,42.2225882 86.1898641,43.5814412 88.1544272,43.5814412 C89.5385825,43.5814412 90.5036311,42.8432647 90.7752233,41.4844118 L89.7812233,41.4844118 L89.7812233,41.4844118 Z M86.2725825,39.7744412 C86.3373786,38.8289118 86.9784466,38.0382059 88.0303495,38.0382059 C89.0271068,38.0382059 89.759165,38.8081765 89.8087961,39.7744412 L86.2725825,39.7744412 L86.2725825,39.7744412 Z" id="Fill-12" sketch:type="MSShapeGroup"></path>
                <path d="M96.8467573,39.5422059 L99.4372233,39.5422059 C100.389864,39.5422059 101.273573,39.8601471 101.273573,40.9646471 C101.273573,41.8935882 100.65732,42.4907647 99.6826214,42.4907647 L96.8467573,42.4907647 L96.8467573,39.5422059 L96.8467573,39.5422059 Z M95.7328155,43.4390588 L99.8163495,43.4390588 C101.510699,43.4390588 102.394408,42.2488529 102.394408,41.0033529 C102.394408,39.9555294 101.827786,39.1662059 100.785534,38.9505588 L100.785534,38.9229118 C101.567223,38.6049706 102.041476,37.9276176 102.041476,37.0249412 C102.041476,36.1872353 101.601689,35.5831471 101.047476,35.2513824 C100.538757,34.9431176 99.542,34.9431176 98.8016699,34.9431176 L95.7328155,34.9431176 L95.7328155,43.4390588 L95.7328155,43.4390588 Z M96.8467573,35.8927941 L99.1118641,35.8927941 C100.086563,35.8927941 100.917883,36.0614412 100.917883,37.2378235 C100.917883,38.1308235 100.398136,38.5966765 99.1118641,38.5966765 L96.8467573,38.5966765 L96.8467573,35.8927941 L96.8467573,35.8927941 Z" id="Fill-13" sketch:type="MSShapeGroup"></path>
                <path d="M103.864039,43.4390588 L104.875961,43.4390588 L104.875961,37.2820588 L103.864039,37.2820588 L103.864039,43.4390588 Z M103.864039,36.1761765 L104.875961,36.1761765 L104.875961,34.9417353 L103.864039,34.9417353 L103.864039,36.1761765 Z" id="Fill-14" sketch:type="MSShapeGroup"></path>
                <path d="M106.615806,34.9431176 L107.623592,34.9431176 L107.623592,43.4390588 L106.615806,43.4390588 L106.615806,34.9431176 Z" id="Fill-15" sketch:type="MSShapeGroup"></path>
                <path d="M114.672583,34.9431176 L113.667553,34.9431176 L113.667553,38.1045588 L113.646874,38.1045588 C113.18365,37.3815882 112.288913,37.1452059 111.658874,37.1452059 C109.782544,37.1452059 108.858854,38.6049706 108.858854,40.3453529 C108.858854,42.0843529 109.785301,43.5814412 111.680932,43.5814412 C112.523282,43.5814412 113.303592,43.287 113.646874,42.6096471 L113.667553,42.6096471 L113.667553,43.4390588 L114.672583,43.4390588 L114.672583,34.9431176 L114.672583,34.9431176 Z M109.919029,40.42 C109.919029,39.2132059 110.382252,38.0382059 111.760893,38.0382059 C113.147806,38.0382059 113.707534,39.1551471 113.707534,40.3702353 C113.707534,41.5245 113.172621,42.6925882 111.822932,42.6925882 C110.514602,42.6925882 109.919029,41.5687353 109.919029,40.42 L109.919029,40.42 Z" id="Fill-16" sketch:type="MSShapeGroup"></path>
                <path d="M121.41965,37.2834412 L120.413243,37.2834412 L120.413243,40.7628235 C120.413243,41.8714706 119.823184,42.6925882 118.594816,42.6925882 C117.822777,42.6925882 117.356796,42.2004706 117.356796,41.4484706 L117.356796,37.2834412 L116.347631,37.2834412 L116.347631,41.3337353 C116.347631,42.6538824 116.842563,43.5814412 118.444544,43.5814412 C119.337903,43.5814412 120.028602,43.2317059 120.453223,42.4645 L120.475282,42.4645 L120.475282,43.4390588 L121.41965,43.4390588 L121.41965,37.2834412" id="Fill-17" sketch:type="MSShapeGroup"></path>
                <path d="M123.054718,43.4390588 L124.061126,43.4390588 L124.061126,39.9638235 C124.061126,38.8551765 124.664971,38.0382059 125.883689,38.0382059 C126.648835,38.0382059 127.128602,38.5275588 127.128602,39.2754118 L127.128602,43.4390588 L128.13501,43.4390588 L128.13501,39.3915294 C128.13501,38.07 127.645592,37.1452059 126.021553,37.1452059 C125.151631,37.1452059 124.465068,37.4990882 124.021146,38.2593824 L123.999087,38.2593824 L123.999087,37.2834412 L123.054718,37.2834412 L123.054718,43.4390588" id="Fill-18" sketch:type="MSShapeGroup"></path>
                <path d="M132.241981,42.6207059 C130.908835,42.6207059 130.50765,41.3807353 130.50765,40.2734706 C130.50765,39.0957059 131.021883,38.0382059 132.319184,38.0382059 C133.595806,38.0382059 134.070058,39.1551471 134.070058,40.232 C134.070058,41.3931765 133.572369,42.6207059 132.241981,42.6207059 L132.241981,42.6207059 Z M135.066816,37.2834412 L134.107282,37.2834412 L134.107282,38.1626176 L134.089359,38.1626176 L134.097631,38.1626176 C133.73367,37.4838824 133.041592,37.1452059 132.276447,37.1452059 C130.149204,37.1452059 129.433689,38.9381176 129.433689,40.3937353 C129.433689,42.0691471 130.357379,43.5095588 132.177184,43.5095588 C132.956117,43.5095588 133.759864,43.1473824 134.089359,42.3912353 L134.107282,42.3912353 L134.107282,42.7976471 C134.107282,44.1744706 133.595806,45.1310588 132.276447,45.1310588 C131.609184,45.1310588 130.725476,44.8656471 130.682738,44.1316176 L129.674951,44.1316176 C129.732854,45.4766471 131.05635,45.9425 132.217165,45.9425 C134.145883,45.9425 135.066816,44.9126471 135.066816,42.9137647 L135.066816,37.2834412 L135.066816,37.2834412 Z" id="Fill-19" sketch:type="MSShapeGroup"></path>
                <path d="M41.3881748,27.6456765 L43.9620971,27.6456765 C44.9161165,27.6456765 45.7956893,27.9567059 45.7956893,29.0625882 C45.7956893,29.9887647 45.1946019,30.5887059 44.2102524,30.5887059 L41.3881748,30.5887059 L41.3881748,27.6456765 L41.3881748,27.6456765 Z M40.2618252,31.5397647 L44.3494951,31.5397647 C46.0410874,31.5397647 46.9247961,30.3495588 46.9247961,29.0985294 C46.9247961,28.0479412 46.3664466,27.2627647 45.3048932,27.0498824 L45.3048932,27.0263824 C46.1058835,26.7015294 46.5773786,26.0241765 46.5773786,25.1228824 C46.5773786,24.2879412 46.1375922,23.6797059 45.566835,23.3424118 C45.0663883,23.0410588 44.0834175,23.0410588 43.329301,23.0410588 L40.2618252,23.0410588 L40.2618252,31.5397647 L40.2618252,31.5397647 Z M41.3881748,23.9893529 L43.6450097,23.9893529 C44.6114369,23.9893529 45.4455146,24.158 45.4455146,25.3316176 C45.4455146,26.2315294 44.9285243,26.6904706 43.6450097,26.6904706 L41.3881748,26.6904706 L41.3881748,23.9893529 L41.3881748,23.9893529 Z" id="Fill-20" sketch:type="MSShapeGroup"></path>
                <path d="M53.2927379,25.3772353 L52.2877087,25.3772353 L52.2877087,28.8607647 C52.2877087,29.9680294 51.6990291,30.7822353 50.4761748,30.7822353 C49.7,30.7822353 49.2285049,30.2984118 49.2285049,29.5519412 L49.2285049,25.3772353 L48.211068,25.3772353 L48.211068,29.4275294 C48.211068,30.7518235 48.7115146,31.6835294 50.321767,31.6835294 C51.1999612,31.6835294 51.8920388,31.3227353 52.3207961,30.5610588 L52.3414757,30.5610588 L52.3414757,31.5397647 L53.2927379,31.5397647 L53.2927379,25.3772353" id="Fill-21" sketch:type="MSShapeGroup"></path>
                <path d="M54.9291845,31.5397647 L55.9314563,31.5397647 L55.9314563,28.0576176 C55.9314563,26.9586471 56.5256505,26.1375294 57.7512621,26.1375294 C58.5219223,26.1375294 58.9975534,26.6227353 58.9975534,27.3692059 L58.9975534,31.5397647 L60.0163689,31.5397647 L60.0163689,27.4908529 C60.0163689,26.1693235 59.5145437,25.2417647 57.8946408,25.2417647 C57.0219612,25.2417647 56.3160971,25.5997941 55.8956117,26.3600882 L55.874932,26.3600882 L55.874932,25.3772353 L54.9291845,25.3772353 L54.9291845,31.5397647" id="Fill-22" sketch:type="MSShapeGroup"></path>
                <path d="M67.1273981,23.0410588 L66.1140971,23.0410588 L66.1140971,26.2066471 L66.098932,26.2066471 C65.6467379,25.4795294 64.7340777,25.2417647 64.1067961,25.2417647 C62.2401165,25.2417647 61.3081553,26.7015294 61.3081553,28.4432941 C61.3081553,30.1809118 62.2566602,31.6835294 64.130233,31.6835294 C64.9836117,31.6835294 65.765301,31.3835588 66.098932,30.7034412 L66.1140971,30.7034412 L66.1140971,31.5397647 L67.1273981,31.5397647 L67.1273981,23.0410588 L67.1273981,23.0410588 Z M62.3821165,28.5151765 C62.3821165,27.3097647 62.8425825,26.1375294 64.2170874,26.1375294 C65.6081359,26.1375294 66.1499417,27.2530882 66.1499417,28.4681765 C66.1499417,29.6265882 65.6357087,30.7822353 64.2708544,30.7822353 C62.974932,30.7822353 62.3821165,29.6694412 62.3821165,28.5151765 L62.3821165,28.5151765 Z" id="Fill-23" sketch:type="MSShapeGroup"></path>
                <path d="M73.0334951,29.5878824 C72.8446214,30.3813529 72.2738641,30.7822353 71.441165,30.7822353 C70.1038835,30.7822353 69.4945243,29.8339412 69.5303689,28.7584706 L74.1267573,28.7584706 C74.1887961,27.2793529 73.5201553,25.2417647 71.3446602,25.2417647 C69.6778835,25.2417647 68.4660583,26.5950882 68.4660583,28.4432941 C68.5253398,30.3274412 69.4462718,31.6835294 71.4039417,31.6835294 C72.777068,31.6835294 73.7572816,30.9467353 74.0288738,29.5878824 L73.0334951,29.5878824 L73.0334951,29.5878824 Z M69.5303689,27.871 C69.6020583,26.9296176 70.2238252,26.1375294 71.2964078,26.1375294 C72.2876505,26.1375294 73.022466,26.9088824 73.0624466,27.871 L69.5303689,27.871 L69.5303689,27.871 Z" id="Fill-24" sketch:type="MSShapeGroup"></path>
                <path d="M74.8905243,29.5975588 C74.9498058,31.1264412 76.1133786,31.6835294 77.4947767,31.6835294 C78.741068,31.6835294 80.103165,31.2066176 80.103165,29.7440882 C80.103165,28.5469706 79.1105437,28.2221176 78.0917282,27.9885 C77.1639029,27.7631765 76.0913204,27.6456765 76.0913204,26.9240882 C76.0913204,26.3020294 76.7944272,26.1375294 77.3927573,26.1375294 C78.0572621,26.1375294 78.7548544,26.3835882 78.8306796,27.1673824 L79.8398447,27.1673824 C79.7626408,25.6730588 78.668,25.2417647 77.3141748,25.2417647 C76.2512427,25.2417647 75.0201165,25.7532353 75.0201165,26.9904412 C75.0201165,28.1751176 76.0403107,28.5013529 77.0343107,28.7252941 C78.0407184,28.9589118 79.040233,29.0874706 79.040233,29.8712647 C79.040233,30.6426176 78.173068,30.7822353 77.5485437,30.7822353 C76.7241165,30.7822353 75.9410485,30.5085294 75.9065825,29.5975588 L74.8905243,29.5975588" id="Fill-25" sketch:type="MSShapeGroup"></path>
                <path d="M80.8366019,31.5397647 L86.017534,31.5397647 L86.017534,30.6426176 L82.0994369,30.6426176 L85.8465825,26.0697941 L85.8465825,25.3772353 L81.0737282,25.3772353 L81.0737282,26.2771471 L84.5465243,26.2771471 L80.8366019,30.7601176 L80.8366019,31.5397647" id="Fill-26" sketch:type="MSShapeGroup"></path>
                <path d="M91.3832039,29.5878824 C91.2053592,30.3813529 90.6318447,30.7822353 89.8087961,30.7822353 C88.4591068,30.7822353 87.8538835,29.8339412 87.8966214,28.7584706 L92.4902524,28.7584706 C92.5467767,27.2793529 91.8795146,25.2417647 89.7164272,25.2417647 C88.0289709,25.2417647 86.8267961,26.5950882 86.8267961,28.4432941 C86.888835,30.3274412 87.8070097,31.6835294 89.7729515,31.6835294 C91.1378058,31.6835294 92.1180194,30.9467353 92.3909903,29.5878824 L91.3832039,29.5878824 L91.3832039,29.5878824 Z M87.8966214,27.871 C87.9641748,26.9296176 88.5914563,26.1375294 89.6461165,26.1375294 C90.6511456,26.1375294 91.3625243,26.9088824 91.413534,27.871 L87.8966214,27.871 L87.8966214,27.871 Z" id="Fill-27" sketch:type="MSShapeGroup"></path>
                <path d="M93.6455534,31.5397647 L94.6519612,31.5397647 L94.6519612,28.0576176 C94.6519612,26.9586471 95.247534,26.1375294 96.4731456,26.1375294 C97.2451845,26.1375294 97.7166796,26.6227353 97.7166796,27.3692059 L97.7166796,31.5397647 L98.7286019,31.5397647 L98.7286019,27.4908529 C98.7286019,26.1693235 98.2281553,25.2417647 96.6013592,25.2417647 C95.7341942,25.2417647 95.0476311,25.5997941 94.6230097,26.3600882 L94.5926796,26.3600882 L94.5926796,25.3772353 L93.6455534,25.3772353 L93.6455534,31.5397647" id="Fill-28" sketch:type="MSShapeGroup"></path>
                <path d="M101.757476,23.5414706 L100.751068,23.5414706 L100.751068,25.3772353 L99.7005437,25.3772353 L99.7005437,26.2771471 L100.751068,26.2771471 L100.751068,30.1947353 C100.751068,31.3227353 101.160524,31.5397647 102.202777,31.5397647 L102.983087,31.5397647 L102.983087,30.6426176 L102.511592,30.6426176 C101.884311,30.6426176 101.757476,30.5610588 101.757476,30.0965882 L101.757476,26.2771471 L102.983087,26.2771471 L102.983087,25.3772353 L101.757476,25.3772353 L101.757476,23.5414706" id="Fill-29" sketch:type="MSShapeGroup"></path>
                <path d="M104.302447,31.5397647 L105.304718,31.5397647 L105.304718,28.7971765 C105.304718,27.2420294 105.900291,26.3130882 107.520194,26.3130882 L107.520194,25.2417647 C106.432447,25.2044412 105.754155,25.6924118 105.261981,26.6780294 L105.24268,26.6780294 L105.24268,25.3772353 L104.302447,25.3772353 L104.302447,31.5397647" id="Fill-30" sketch:type="MSShapeGroup"></path>
                <path d="M112.076602,29.3929706 C112.076602,29.9528235 111.534796,30.7822353 110.20165,30.7822353 C109.579883,30.7822353 109.017398,30.5513824 109.017398,29.8823235 C109.017398,29.1358529 109.579883,28.8953235 110.24301,28.7722941 C110.93233,28.6575588 111.689204,28.6451176 112.076602,28.3589706 L112.076602,29.3929706 L112.076602,29.3929706 Z M113.72132,30.7269412 C113.584835,30.7725588 113.495223,30.7822353 113.40699,30.7822353 C113.080252,30.7822353 113.080252,30.5762647 113.080252,30.0965882 L113.080252,26.9296176 C113.080252,25.4933529 111.887728,25.2417647 110.788951,25.2417647 C109.42134,25.2417647 108.248117,25.7781176 108.191592,27.2987059 L109.189728,27.2987059 C109.237981,26.3946471 109.870777,26.1375294 110.726913,26.1375294 C111.367981,26.1375294 112.093146,26.2771471 112.093146,27.1604706 C112.093146,27.9207647 111.141883,27.8475 110.01967,28.0576176 C108.980175,28.2663529 107.94068,28.5635588 107.94068,29.9528235 C107.94068,31.1817353 108.864369,31.6835294 109.971417,31.6835294 C110.838583,31.6835294 111.580291,31.3835588 112.141398,30.7269412 C112.141398,31.3918529 112.466757,31.6835294 112.986505,31.6835294 C113.310485,31.6835294 113.540718,31.6282353 113.72132,31.5121176 L113.72132,30.7269412 L113.72132,30.7269412 Z" id="Fill-31" sketch:type="MSShapeGroup"></path>
                <path d="M114.825612,23.0410588 L115.834777,23.0410588 L115.834777,31.5397647 L114.825612,31.5397647 L114.825612,23.0410588 Z" id="Fill-32" sketch:type="MSShapeGroup"></path>
                <path d="M121.764311,29.5878824 C121.578194,30.3813529 121.000544,30.7822353 120.167845,30.7822353 C118.825049,30.7822353 118.215689,29.8339412 118.250155,28.7584706 L122.849301,28.7584706 C122.908583,27.2793529 122.249592,25.2417647 120.07134,25.2417647 C118.396291,25.2417647 117.189981,26.5950882 117.189981,28.4432941 C117.243748,30.3274412 118.167437,31.6835294 120.127864,31.6835294 C121.509262,31.6835294 122.486718,30.9467353 122.752796,29.5878824 L121.764311,29.5878824 L121.764311,29.5878824 Z M118.250155,27.871 C118.323223,26.9296176 118.956019,26.1375294 120.017573,26.1375294 C121.006058,26.1375294 121.740874,26.9088824 121.780854,27.871 L118.250155,27.871 L118.250155,27.871 Z" id="Fill-33" sketch:type="MSShapeGroup"></path>
                <path d="M127.957165,31.5397647 L128.967709,31.5397647 L128.967709,26.2771471 L130.149204,26.2771471 L130.149204,25.3772353 L128.967709,25.3772353 L128.967709,24.5257059 C128.967709,23.9893529 129.253087,23.8359118 129.734233,23.8359118 C129.917592,23.8359118 130.131282,23.8566471 130.316019,23.9188529 L130.316019,23.0410588 C130.12301,22.983 129.854175,22.9429118 129.657029,22.9429118 C128.552738,22.9429118 127.957165,23.4682059 127.957165,24.4648824 L127.957165,25.3772353 L126.921806,25.3772353 L126.921806,26.2771471 L127.957165,26.2771471 L127.957165,31.5397647" id="Fill-34" sketch:type="MSShapeGroup"></path>
                <path d="M134.293398,24.4925294 L135.372874,24.4925294 L135.372874,23.2525588 L134.293398,23.2525588 L134.293398,24.4925294 Z M132.058621,24.4925294 L133.132583,24.4925294 L133.132583,23.2525588 L132.058621,23.2525588 L132.058621,24.4925294 Z M136.256583,25.3772353 L135.241903,25.3772353 L135.241903,28.8607647 C135.241903,29.9680294 134.643573,30.7822353 133.42899,30.7822353 C132.656951,30.7822353 132.182699,30.2984118 132.182699,29.5519412 L132.182699,25.3772353 L131.170777,25.3772353 L131.170777,29.4275294 C131.170777,30.7518235 131.671223,31.6835294 133.28699,31.6835294 C134.161049,31.6835294 134.851748,31.3227353 135.276369,30.5610588 L135.310835,30.5610588 L135.310835,31.5397647 L136.256583,31.5397647 L136.256583,25.3772353 L136.256583,25.3772353 Z" id="Fill-35" sketch:type="MSShapeGroup"></path>
                <path d="M137.853049,31.5397647 L138.863592,31.5397647 L138.863592,28.7971765 C138.863592,27.2420294 139.452272,26.3130882 141.079068,26.3130882 L141.079068,25.2417647 C139.988563,25.2044412 139.313029,25.6924118 138.82499,26.6780294 L138.801553,26.6780294 L138.801553,25.3772353 L137.853049,25.3772353 L137.853049,31.5397647" id="Fill-36" sketch:type="MSShapeGroup"></path>
                <path d="M40.2301165,11.5937941 L42.2580971,11.5937941 L42.2580971,13.6175588 L40.2301165,13.6175588 L40.2301165,11.5937941 Z" id="Fill-37" sketch:type="MSShapeGroup"></path>
                <path id="Fill-38" sketch:type="MSShapeGroup"></path>
                <path d="M40.2301165,18.6064706 L42.2580971,18.6064706 L42.2580971,20.633 L40.2301165,20.633 L40.2301165,18.6064706 Z" id="Fill-39" sketch:type="MSShapeGroup"></path>
                <path id="Fill-40" sketch:type="MSShapeGroup"></path>
            </g>
        </g>
    </g>
</svg>