<?xml version="1.0" encoding="utf-8"?>
<!-- Generator: Adobe Illustrator 23.0.3, SVG Export Plug-In . SVG Version: 6.00 Build 0)  -->
<svg version="1.1" id="Ebene_1" xmlns="http://www.w3.org/2000/svg" xmlns:xlink="http://www.w3.org/1999/xlink" x="0px" y="0px"
	 viewBox="0 0 532.3 177.6" style="enable-background:new 0 0 532.3 177.6;" xml:space="preserve">
<style type="text/css">
	.st0{fill:#4A4A4A;}
</style>
<g>
	<polyline class="st0" points="57.5,40.1 97.6,61.3 118.7,21.1 78.6,0 57.5,40.1 	"/>
	<polyline class="st0" points="56.4,12 11.7,4.6 4.3,49.3 49,56.7 56.4,12 	"/>
	<polyline class="st0" points="124.4,7.3 122.5,52.1 167.3,54 169.2,9.2 124.4,7.3 	"/>
	<polyline class="st0" points="13.3,115.5 57.5,105.5 47.5,61.3 3.2,71.3 13.3,115.5 	"/>
	<polyline class="st0" points="64.7,66.4 66.1,111.7 111.4,110.4 110.1,65 64.7,66.4 	"/>
	<polyline class="st0" points="0,156.4 40.7,176.5 60.7,135.8 20,115.7 0,156.4 	"/>
	<polyline class="st0" points="56.6,152 94,177.6 119.6,140.2 82.2,114.6 56.6,152 	"/>
	<polyline class="st0" points="120.4,126.5 126.3,171.5 171.3,165.7 165.4,120.7 120.4,126.5 	"/>
	<polyline class="st0" points="114.2,83 140.5,120 177.5,93.7 151.2,56.8 114.2,83 	"/>
	<path class="st0" d="M215.7,55.6h-12.1V33h3.3v19.6h9.1C215.9,53.6,215.8,54.6,215.7,55.6L215.7,55.6z"/>
	<path class="st0" d="M228.9,47.8l-3.6,0.2c-2.3,0.1-3.1,0.9-3.1,2.9c0,1.8,0.8,2.5,2.6,2.5c1.4,0,3-0.5,4.1-1.3V47.8L228.9,47.8z
		 M234.7,53.8c0,1.5-1,2.1-2.3,2.1c-1.4,0-2.6-0.4-3.2-1.8h-0.1c-1.6,1.3-3.1,1.8-4.9,1.8c-3,0-5.1-1.5-5.1-4.8
		c0-3.7,2.1-5.1,6.3-5.3l3.5-0.1v-4.5c-0.8-0.5-2.3-0.8-3.6-0.8c-1.4,0-3.1,0.3-4.1,0.7c-0.2-0.7-0.4-1.8-0.4-2.7
		c1.5-0.4,2.9-0.7,4.6-0.7c2.3,0,4.9,0.5,6.4,1.7v12.3c0,0.8,0.2,1.1,1,1.1h1.9L234.7,53.8L234.7,53.8z"/>
	<path class="st0" d="M249.2,55.6V43.2c0-1.7-0.7-2.7-2.9-2.7c-1.7,0-3,0.5-4.3,1.4v13.7h-3V38.2c0.8-0.1,2.1-0.2,3-0.2v1.7h0.2
		c1.7-1.5,3.3-2,5.2-2c2.6,0,4.9,1.3,4.9,5.3v12.5L249.2,55.6L249.2,55.6z"/>
	<path class="st0" d="M268.7,41.1c-0.8-0.5-2.2-0.7-3.2-0.7c-2.9,0-4.6,1.5-4.6,6.6c0,4.9,1.3,6.2,3.8,6.2c1.4,0,2.7-0.3,4-1.2
		L268.7,41.1L268.7,41.1z M268.7,55.6v-1.5h-0.2c-1.5,1.3-2.9,1.8-4.7,1.8c-3.7,0-6.1-2.6-6.1-8.5c0-6.9,3-9.6,7.7-9.6
		c1.1,0,2.4,0.2,3.4,0.6v-7.5c0.8-0.1,2.1-0.2,3-0.2v24.9L268.7,55.6L268.7,55.6z"/>
	<path class="st0" d="M280.2,45.3h7.3c0-0.3,0-0.8,0-1.1c0-2.9-1.3-4.1-3.5-4.1C281.7,40.1,280.3,41.6,280.2,45.3L280.2,45.3z
		 M290.4,47.4h-10.2v0.3c0,3.6,1.1,5.4,4.8,5.4c1.6,0,3.4-0.5,4.5-1.1c0.3,0.8,0.6,1.9,0.7,2.8c-1.3,0.7-3.6,1.1-5.3,1.1
		c-5.2,0-8-2.9-8-8.8c0-6.5,3.1-9.3,7.2-9.3c4.2,0,6.4,2.6,6.4,7.1C290.5,45.6,290.4,46.6,290.4,47.4L290.4,47.4z"/>
	<path class="st0" d="M299.7,55.9c-1.7,0-3.7-0.4-5.1-1.1c0.2-1,0.4-1.8,0.8-2.7c1.4,0.7,3.3,1.1,4.9,1.1c1.9,0,2.7-0.8,2.7-2.3
		c0-3.5-8.1-2.3-8.1-7.8c0-3.5,3-5.4,6.6-5.4c1.1,0,2.8,0.1,4.1,0.5c0,0.8-0.2,1.9-0.4,2.8c-1.2-0.4-3-0.6-4.4-0.6
		c-1.7,0-2.7,0.7-2.7,2.3c0,3,8.2,2,8.2,8C306.1,54.3,303.1,55.9,299.7,55.9L299.7,55.9z"/>
	<path class="st0" d="M310,55.6l-0.3-2.4l9.3-12.4h-8.4c-0.1-0.9-0.2-1.8-0.2-2.6h11.8l0.3,2.4L313.3,53h9.2
		c0.2,0.8,0.3,1.8,0.3,2.6H310L310,55.6z"/>
	<path class="st0" d="M330.2,45.3h7.3c0-0.3,0-0.8,0-1.1c0-2.9-1.3-4.1-3.5-4.1C331.7,40.1,330.3,41.6,330.2,45.3L330.2,45.3z
		 M340.4,47.4h-10.2v0.3c0,3.6,1.1,5.4,4.8,5.4c1.6,0,3.4-0.5,4.5-1.1c0.3,0.8,0.6,1.9,0.7,2.8c-1.3,0.7-3.6,1.1-5.3,1.1
		c-5.2,0-8-2.9-8-8.8c0-6.5,3.1-9.3,7.2-9.3c4.2,0,6.4,2.6,6.4,7.1C340.5,45.6,340.4,46.6,340.4,47.4L340.4,47.4z"/>
	<path class="st0" d="M356.5,55.6V43.2c0-1.7-0.7-2.7-2.9-2.7c-1.7,0-3,0.5-4.3,1.4v13.7h-3V38.2c0.8-0.1,2.1-0.2,3-0.2v1.7h0.2
		c1.7-1.5,3.3-2,5.2-2c2.6,0,4.9,1.3,4.9,5.3v12.5L356.5,55.6L356.5,55.6z"/>
	<path class="st0" d="M372,55.9c-3.6,0-5.1-1.8-5.1-5.7v-9.5h-2.1v-2.6h2.1v-3.7c0.8-0.2,2.1-0.5,3-0.5v4.3h4.4
		c0,0.8-0.1,1.7-0.2,2.6h-4.2v9.8c0,2.1,0.6,2.6,2.3,2.6c0.8,0,1.9-0.2,2.5-0.5c0.2,0.8,0.4,1.8,0.4,2.6
		C374.4,55.6,373,55.9,372,55.9L372,55.9z"/>
	<path class="st0" d="M388.3,41.1c-0.4-0.1-0.9-0.2-1.5-0.2c-1.2,0-2.4,0.2-3.9,1.7v13h-3V38.2c0.8-0.1,2.1-0.2,3-0.2v2.2h0.2
		c1.9-2.3,3.1-2.5,4.2-2.5c0.4,0,0.9,0,1.3,0.2C388.6,38.9,388.5,40.1,388.3,41.1L388.3,41.1z"/>
	<path class="st0" d="M400.7,47.8l-3.6,0.2c-2.3,0.1-3.1,0.9-3.1,2.9c0,1.8,0.8,2.5,2.6,2.5c1.4,0,3-0.5,4.1-1.3V47.8L400.7,47.8z
		 M406.5,53.8c0,1.5-1,2.1-2.3,2.1c-1.4,0-2.6-0.4-3.2-1.8h-0.1c-1.6,1.3-3.1,1.8-4.9,1.8c-3,0-5.1-1.5-5.1-4.8
		c0-3.7,2.1-5.1,6.3-5.3l3.5-0.1v-4.5c-0.8-0.5-2.3-0.8-3.6-0.8c-1.4,0-3.1,0.3-4.1,0.7c-0.2-0.7-0.4-1.8-0.4-2.7
		c1.5-0.4,2.9-0.7,4.6-0.7c2.3,0,4.9,0.5,6.4,1.7v12.3c0,0.8,0.2,1.1,1,1.1h1.9L406.5,53.8L406.5,53.8z"/>
	<path class="st0" d="M411.2,55.6V30.9c0.8-0.1,2.1-0.2,3-0.2v24.9H411.2L411.2,55.6z"/>
	<path class="st0" d="M422.5,45.3h7.3c0-0.3,0-0.8,0-1.1c0-2.9-1.3-4.1-3.5-4.1C424,40.1,422.6,41.6,422.5,45.3L422.5,45.3z
		 M432.7,47.4h-10.2v0.3c0,3.6,1.1,5.4,4.8,5.4c1.6,0,3.4-0.5,4.5-1.1c0.3,0.8,0.6,1.9,0.7,2.8c-1.3,0.7-3.6,1.1-5.3,1.1
		c-5.2,0-8-2.9-8-8.8c0-6.5,3.1-9.3,7.2-9.3c4.2,0,6.4,2.6,6.4,7.1C432.8,45.6,432.7,46.6,432.7,47.4L432.7,47.4z"/>
	<path class="st0" d="M211.6,80.1c-0.3-0.1-1.4-0.1-1.8-0.1c-1.3,0-1.7,0.6-1.7,1.8v1.6h3.7c0,1.3-0.1,2.6-0.3,3.9h-3.4v13.5h-4.5
		V87.3h-2v-3.9h2v-1.2c0-3.9,2.6-6.2,6-6.2c0.7,0,1.9,0.1,2.3,0.2C211.8,77.4,211.7,78.7,211.6,80.1L211.6,80.1z"/>
	<path class="st0" d="M225.8,81.6c-1.6,0-2.4-1.1-2.4-2.4s0.8-2.5,2.4-2.5c1.6,0,2.4,1.1,2.4,2.5C228.3,80.5,227.5,81.6,225.8,81.6
		L225.8,81.6z M219.4,81.6c-1.6,0-2.4-1.1-2.4-2.4s0.8-2.5,2.4-2.5c1.6,0,2.4,1.1,2.4,2.5C221.8,80.5,221,81.6,219.4,81.6
		L219.4,81.6z M225.3,100.8v-1.5h-0.2c-1.5,1.4-2.9,1.8-4.5,1.8c-2.7,0-5.2-1.4-5.2-5.5V83.5c1.3-0.2,3-0.3,4.5-0.3V95
		c0,1.4,0.6,2.1,2.7,2.1c1,0,1.9-0.2,2.7-0.6v-13c1.3-0.2,3-0.3,4.5-0.3v17.6L225.3,100.8L225.3,100.8z"/>
	<path class="st0" d="M245,87.9c-0.4-0.1-1.1-0.2-1.6-0.2c-1.2,0-2.3,0.3-3.2,0.8v12.3h-4.5V83.5c1.3-0.2,3.1-0.3,4.5-0.3v2.2h0.2
		c1.6-2.3,2.7-2.5,3.8-2.5c0.3,0,0.8,0.1,1.2,0.2C245.4,84.8,245.2,86.4,245,87.9L245,87.9z"/>
	<path class="st0" d="M263.9,87c-1,0-2.1,0.2-2.9,0.6v9c0.7,0.4,1.6,0.7,2.5,0.7c2.6,0,3.3-1.6,3.3-5.3
		C266.9,87.7,265.8,87,263.9,87L263.9,87z M264,101.1c-0.9,0-2-0.2-3-0.4v7h-4.5V83.5c1.3-0.2,3.1-0.3,4.5-0.3v1.6h0.2
		c1.3-1.4,2.7-1.8,4.2-1.8c3.9,0,6.2,2.9,6.2,8.6C271.7,98.1,268.7,101.1,264,101.1L264,101.1z"/>
	<path class="st0" d="M283.2,86.8c-2,0-3.1,1.5-3.1,5.3s0.9,5.3,3,5.3s3.2-1.4,3.2-5.3C286.4,88.4,285.4,86.8,283.2,86.8L283.2,86.8
		z M283.2,101.1c-4.7,0-7.9-2.8-7.9-9.1c0-5.7,3.3-9.1,8-9.1c4.5,0,8,2.6,8,9.1C291.2,97.9,287.7,101.1,283.2,101.1L283.2,101.1z"/>
	<path class="st0" d="M295.9,100.8V76.2c1.3-0.2,3.1-0.3,4.5-0.3v24.9L295.9,100.8L295.9,100.8z"/>
	<path class="st0" d="M306.2,100.8V83.4h4.5v17.5L306.2,100.8L306.2,100.8z M308.4,81.4c-1.7,0-2.5-1.2-2.5-2.6
		c0-1.3,0.8-2.6,2.5-2.6s2.5,1.3,2.5,2.6C310.9,80.2,310.1,81.4,308.4,81.4L308.4,81.4z"/>
	<path class="st0" d="M322.9,101.1c-4.1,0-6-2-6-6.3v-7.6h-2v-3.9h2v-3.6c1.3-0.3,3.1-0.6,4.5-0.7v4.3h4.5c0,1.3-0.1,2.6-0.2,3.9
		h-4.3v7.9c0,1.6,0.7,1.8,2.2,1.8c0.8,0,2-0.3,2.5-0.5c0.3,1.1,0.5,2.5,0.6,3.8C325.8,100.8,323.9,101.1,322.9,101.1L322.9,101.1z"
		/>
	<path class="st0" d="M330.6,100.8V83.4h4.5v17.5L330.6,100.8L330.6,100.8z M332.8,81.4c-1.7,0-2.5-1.2-2.5-2.6
		c0-1.3,0.8-2.6,2.5-2.6s2.5,1.3,2.5,2.6C335.4,80.2,334.5,81.4,332.8,81.4L332.8,81.4z"/>
	<path class="st0" d="M345.3,101.1c-2,0-4.1-0.5-5.6-1.3c0.3-1.5,0.6-2.6,1-4c1.4,0.7,3.6,1.2,5.3,1.2c1.1,0,1.6-0.5,1.6-1.4
		c0-2.4-7.7-0.7-7.7-6.8c0-4,3.5-5.8,7.4-5.8c1.2,0,3,0.2,4.3,0.5c-0.1,1.2-0.3,2.7-0.6,4c-1.2-0.4-3.4-0.7-4.8-0.7
		c-1.1,0-1.6,0.5-1.6,1.4c0,2.4,7.7,0.7,7.7,7.2C352.2,99.5,348.8,101.1,345.3,101.1L345.3,101.1z"/>
	<path class="st0" d="M363.9,101.1c-5.3,0-8.3-2.8-8.3-8.8c0-6.6,3.7-9.4,7.8-9.4c1.7,0,3.5,0.2,4.8,0.6c-0.2,1.3-0.6,2.9-1,4.3
		c-1-0.4-2.3-0.6-3.4-0.6c-2.2,0-3.3,1.2-3.3,4.6c0,3.9,1,4.9,3.7,4.9c1.1,0,2.5-0.3,3.4-0.8c0.4,1.3,0.7,2.8,0.9,4.2
		C367.3,100.8,365.3,101.1,363.9,101.1L363.9,101.1z"/>
	<path class="st0" d="M382.6,100.8V89c0-1.1-0.2-2-2.4-2c-1.2,0-2.2,0.4-3,0.9v12.9h-4.5V76.2c1.3-0.2,3.1-0.3,4.5-0.3V85h0.2
		c1.6-1.5,2.9-2,4.6-2c3.1,0,5.1,1.8,5.1,5.4v12.4H382.6L382.6,100.8z"/>
	<path class="st0" d="M401.2,89.5c0-2.1-0.7-3.1-2.4-3.1s-2.6,1.2-2.6,4h5.1C401.2,90.2,401.2,89.7,401.2,89.5L401.2,89.5z
		 M405.6,93.4h-9.5v0.3c0,2.2,0.8,3.2,3.7,3.2c1.5,0,3.6-0.5,4.7-1.1c0.4,1.2,0.8,2.8,1,4.2c-1.5,0.7-4.2,1.1-5.8,1.1
		c-5.5,0-8.6-3-8.6-8.8c0-6.2,3.2-9.3,7.7-9.3c4.9,0,6.9,3.1,6.9,7.8C405.8,91.5,405.7,92.6,405.6,93.4L405.6,93.4z"/>
	<path class="st0" d="M425.4,91.2h-2.6v6c0.9,0.1,1.8,0.1,2.5,0.1c2.1,0,3-1.1,3-3.2C428.2,92,427,91.2,425.4,91.2L425.4,91.2z
		 M425,81.8c-0.6,0-1.3,0-2.2,0.1v5.7h2.5c1.6,0,2.5-0.9,2.5-3.1C427.7,82.6,426.8,81.8,425,81.8L425,81.8z M425.7,101.1
		c-2.1,0-5.1-0.2-7.7-0.5V78.5c1.9-0.3,4.7-0.5,7.2-0.5c4.4,0,7.4,1.7,7.4,5.9c0,2.5-1.2,4.3-3.2,5.1v0.3c2.6,0.7,4,2.4,4,5.2
		C433.4,99.2,430,101.1,425.7,101.1L425.7,101.1z"/>
	<path class="st0" d="M438.1,100.8V83.4h4.5v17.5L438.1,100.8L438.1,100.8z M440.4,81.4c-1.7,0-2.5-1.2-2.5-2.6
		c0-1.3,0.8-2.6,2.5-2.6s2.5,1.3,2.5,2.6C442.9,80.2,442.1,81.4,440.4,81.4L440.4,81.4z"/>
	<path class="st0" d="M448.4,100.8V76.2c1.3-0.2,3.1-0.3,4.5-0.3v24.9L448.4,100.8L448.4,100.8z"/>
	<path class="st0" d="M468.2,87.5c-0.6-0.4-1.6-0.7-2.5-0.7c-2.4,0-3.3,1.4-3.3,5.3s0.8,5,2.9,5c1.2,0,2.3-0.3,2.9-0.6V87.5
		L468.2,87.5z M468.2,100.8v-1.5H468c-1.3,1.4-2.7,1.8-4.2,1.8c-4,0-6.2-2.9-6.2-8.6c0-6.8,3.2-9.6,7.7-9.6c0.9,0,2.2,0.2,3,0.4
		v-7.2c1.3-0.2,3.1-0.3,4.5-0.3v24.9L468.2,100.8L468.2,100.8z"/>
	<path class="st0" d="M487.8,100.8v-1.5h-0.2c-1.5,1.4-2.9,1.8-4.5,1.8c-2.7,0-5.2-1.4-5.2-5.5V83.5c1.3-0.2,3-0.3,4.5-0.3V95
		c0,1.4,0.6,2.1,2.7,2.1c1,0,1.9-0.2,2.7-0.6v-13c1.3-0.2,3-0.3,4.5-0.3v17.6L487.8,100.8L487.8,100.8z"/>
	<path class="st0" d="M507.9,100.8V89c0-1.4-0.5-2-2.4-2c-1.1,0-2.1,0.3-3,0.9v12.9H498V83.5c1.3-0.2,3.1-0.3,4.5-0.3V85h0.2
		c1.8-1.7,3.1-2,4.6-2c2.7,0,5.1,1.4,5.1,5.5v12.3H507.9L507.9,100.8z"/>
	<path class="st0" d="M524.1,86.1c-1.6,0-2.4,0.8-2.4,2.6c0,1.9,0.8,2.6,2.4,2.6c1.5,0,2.4-0.7,2.4-2.6
		C526.6,86.8,525.6,86.1,524.1,86.1L524.1,86.1z M526.8,100.9h-5.5c-0.2,0.3-0.3,0.8-0.3,1.2c0,1.6,0.7,2.2,3.5,2.2
		c2.2,0,3.5-0.6,3.5-2.2C528.1,101.1,527.8,100.9,526.8,100.9L526.8,100.9z M524.2,108c-5.4,0-7.2-2.3-7.2-5.1
		c0-1.4,0.6-2.2,1.5-3.1c-0.4-0.7-0.8-1.5-1.1-2.3c0.2-0.9,0.9-3.3,1.9-4.5c-1.1-0.9-1.9-2.3-1.9-4.1c0-3.5,2.3-5.9,6.4-5.9
		c0.9,0,2.1,0.1,3,0.3h5.3c0,1-0.1,2.2-0.3,3.2l-1.7,0.3V87c0.3,0.5,0.4,1.2,0.4,1.9c0,3.8-2.6,5.5-6.2,5.5c-0.8,0-1.6-0.1-2.2-0.3
		c-0.5,0.8-0.6,1.4-0.6,1.7c0,0.7,0.3,1,1.1,1h4.4c3.1,0,5.2,0.9,5.2,4.8C532.3,105.4,529.7,108,524.2,108L524.2,108z"/>
	<path class="st0" d="M210.5,135.8h-3.8v7.8c1.3,0.1,2.5,0.2,3.4,0.2c3,0,4.5-1.5,4.5-4.2C214.6,137.1,213,135.8,210.5,135.8
		L210.5,135.8z M210,125.8c-0.9,0-1.9,0.1-3.2,0.2v7.3h3.6c2.3,0,3.7-1.4,3.7-3.9C214,127.1,212.6,125.8,210,125.8L210,125.8z
		 M210.2,146.4c-1.7,0-4.2-0.2-6.6-0.5v-22.1c1.9-0.3,4.3-0.5,6.3-0.5c4.4,0,7.4,1.7,7.4,5.9c0,2.5-1.4,4.2-3.3,5.1v0.2
		c2.6,0.7,4.1,2.5,4.1,5.3C218,144.5,214.5,146.4,210.2,146.4L210.2,146.4z"/>
	<path class="st0" d="M231.7,131.6c-0.4-0.1-0.9-0.2-1.5-0.2c-1.2,0-2.4,0.2-3.9,1.7v13h-3v-17.3c0.8-0.1,2.1-0.2,3-0.2v2.2h0.2
		c1.9-2.3,3.1-2.5,4.2-2.5c0.4,0,0.9,0,1.3,0.2C232,129.4,231.8,130.6,231.7,131.6L231.7,131.6z"/>
	<path class="st0" d="M238,135.8h7.3c0-0.3,0-0.8,0-1.1c0-2.9-1.3-4.1-3.5-4.1C239.5,130.6,238.1,132.1,238,135.8L238,135.8z
		 M248.2,137.9H238v0.3c0,3.6,1.1,5.4,4.8,5.4c1.6,0,3.4-0.5,4.5-1.1c0.3,0.8,0.6,1.9,0.7,2.8c-1.3,0.7-3.6,1.1-5.3,1.1
		c-5.2,0-8-2.9-8-8.8c0-6.5,3.1-9.3,7.2-9.3c4.2,0,6.4,2.6,6.4,7.1C248.3,136.1,248.3,137.1,248.2,137.9L248.2,137.9z"/>
	<path class="st0" d="M273.1,146.1v-12.3c0-1.6-0.7-2.7-2.8-2.7c-1.6,0-2.6,0.5-3.8,1.4v13.6h-3v-12.3c0-1.7-0.8-2.7-2.7-2.7
		c-1.4,0-2.6,0.5-3.8,1.4v13.7h-3v-17.3c0.8-0.1,2.1-0.2,3-0.2v1.7h0.2c1.6-1.4,2.8-2,4.6-2c1.8,0,3.3,0.6,4,2.3
		c1.8-1.7,3.4-2.3,5.4-2.3c2.7,0,5,1.3,5,5.3v12.5L273.1,146.1L273.1,146.1z"/>
	<path class="st0" d="M284.9,135.8h7.3c0-0.3,0-0.8,0-1.1c0-2.9-1.3-4.1-3.5-4.1C286.4,130.6,285,132.1,284.9,135.8L284.9,135.8z
		 M295.1,137.9h-10.2v0.3c0,3.6,1.1,5.4,4.8,5.4c1.6,0,3.4-0.5,4.5-1.1c0.3,0.8,0.6,1.9,0.7,2.8c-1.3,0.7-3.6,1.1-5.3,1.1
		c-5.2,0-8-2.9-8-8.8c0-6.5,3.1-9.3,7.2-9.3c4.2,0,6.4,2.6,6.4,7.1C295.2,136.1,295.1,137.1,295.1,137.9L295.1,137.9z"/>
	<path class="st0" d="M311,146.1v-12.3c0-1.7-0.7-2.7-2.9-2.7c-1.7,0-3,0.5-4.3,1.4v13.7h-3v-17.3c0.8-0.1,2.1-0.2,3-0.2v1.7h0.2
		c1.7-1.5,3.3-2,5.2-2c2.6,0,5,1.3,5,5.3v12.5L311,146.1L311,146.1z"/>
</g>
</svg>
