<?xml version="1.0" encoding="utf-8"?>
<!-- Generator: Adobe Illustrator 21.1.0, SVG Export Plug-In . SVG Version: 6.00 Build 0)  -->
<svg version="1.1" id="Ebene_1" xmlns="http://www.w3.org/2000/svg" xmlns:xlink="http://www.w3.org/1999/xlink" x="0px" y="0px"
	 viewBox="0 0 256 256" style="enable-background:new 0 0 256 256;" xml:space="preserve">
<style type="text/css">
	.st0{fill:#1A171B;}
</style>
<g>
	<path class="st0" d="M59.3,86.2H0v80.5h59.3l58.7,58.7h37.6V29.8h-40L59.3,86.2z M145.6,39.9v175.4h-23.4l-58.7-58.7H10V96.2h53.4
		l56.4-56.3H145.6z"/>
	<path class="st0" d="M206.7,26.8l-4.6,9.2C228.9,58,246,91.5,246,128.9c0,36.1-16,68.5-41.2,90.6c-0.4,0.3-0.8,0.7-1.1,1l2.2,3.7
		l3,5c28.8-24,47.2-60.1,47.2-100.4C256,87.6,236.7,50.7,206.7,26.8z"/>
	<path class="st0" d="M186.6,66.9l-4.8,9.6c12.8,13.8,20.7,32.1,20.7,52.4c0,13.7-3.7,26.6-10,37.8c-3.3,5.8-7.2,11-11.8,15.8
		l5.3,8.9c3.5-3.4,6.7-7.1,9.6-11.1c10.6-14.4,16.9-32.1,16.9-51.4C212.6,104.6,202.6,82.7,186.6,66.9z"/>
</g>
</svg>
