<?xml version="1.0" encoding="UTF-8"?>
<svg width="113px" height="55px" viewBox="0 0 113 55" version="1.1" xmlns="http://www.w3.org/2000/svg" xmlns:xlink="http://www.w3.org/1999/xlink">
    <!-- Generator: Sketch 57.1 (83088) - https://sketch.com -->
    <title>190808_LZT_Logo</title>
    <desc>Created with Sketch.</desc>
    <defs>
        <polygon id="path-1" points="0.025200001 0.0642600026 32.9452213 0.0642600026 32.9452213 21.8400009 0.025200001 21.8400009"></polygon>
    </defs>
    <g id="LZT_Logo" stroke="none" stroke-width="1" fill="none" fill-rule="evenodd">
        <g id="LZ_logo_cmyk_pos_medium" transform="translate(0.000000, 1.000000)">
            <polyline id="Fill-1" fill="#707575" points="44.7216018 38.5169415 44.7266418 38.5140015 44.7203418 30.1761612 44.7090018 30.1854012 35.7533414 27.2319611 35.7533414 35.5689614 38.7466815 36.5551215 38.7466815 43.0462217 44.7161418 38.5219815 44.7216018 38.5236615 44.7216018 38.5169415"></polyline>
            <polyline id="Fill-2" fill="#707575" points="26.7456011 24.263401 17.7794407 21.3087008 11.8633205 25.793881 11.8633205 34.1317214 17.7794407 29.6469612 26.7456011 32.6020813 26.7456011 24.263401"></polyline>
            <g id="Group-6" transform="translate(0.000000, 30.240001)">
                <mask id="mask-2" fill="white">
                    <use xlink:href="#path-1"></use>
                </mask>
                <g id="Clip-4"></g>
                <polyline id="Fill-3" fill="#707575" mask="url(#mask-2)" points="32.9452213 8.97288036 26.9677811 13.5051005 17.9138407 10.5180604 17.9138407 18.8559007 26.9677811 21.8400009 32.9452213 17.3103007 32.9452213 8.97288036"></polyline>
                <polyline id="Fill-5" fill="#707575" mask="url(#mask-2)" points="9.05646036 15.8873406 9.05646036 7.5495003 5.91780024 6.51672026 5.91780024 0.0642600026 0 4.55028018 0.00672000027 12.8864405 0.00840000033 12.8864405 0.00840000033 12.9019805 9.05646036 15.8873406"></polyline>
            </g>
            <polyline id="Fill-7" fill="#707575" points="40.8307216 5.70360023 40.8307216 0.341880014 41.3603416 0.341880014 41.3603416 5.20422021 44.0449818 5.20422021 44.0449818 5.70360023 40.8307216 5.70360023"></polyline>
            <path d="M47.2348819,3.81318015 L46.0475418,3.88122015 C45.5712618,3.91146016 45.1630218,4.15338017 45.1630218,4.62210018 C45.1630218,5.0685602 45.4729818,5.36340021 46.0173018,5.36340021 C46.8342019,5.36340021 47.2348819,4.69770019 47.2348819,4.02486016 L47.2348819,3.81318015 Z M47.8623619,5.73384023 C47.4390019,5.73384023 47.2651219,5.46924022 47.2500019,5.0832602 C47.0383219,5.54484022 46.5091218,5.80188023 45.9492618,5.80188023 C45.1479018,5.80188023 44.6409618,5.28780021 44.6409618,4.62966018 C44.6409618,4.04754016 45.0643218,3.53346014 45.9568218,3.47256014 C46.3806018,3.44988014 46.8115219,3.41208014 47.2348819,3.38940013 L47.2348819,3.06432012 C47.2348819,2.5880401 46.9854019,2.23986009 46.3272618,2.23986009 C45.6997818,2.23986009 45.3520218,2.5578001 45.3369018,3.00384012 L44.8375218,3.00384012 C44.8753218,2.23230009 45.4956618,1.80138007 46.3272618,1.80138007 C47.2424419,1.80138007 47.7414019,2.28564009 47.7414019,3.17772013 L47.7414019,4.9623002 C47.7414019,5.20422021 47.8174219,5.29536021 47.9988619,5.29536021 C48.0517819,5.29536021 48.1122619,5.28780021 48.1349419,5.28024021 L48.1349419,5.68848023 C48.0366619,5.71872023 47.9988619,5.73384023 47.8623619,5.73384023 L47.8623619,5.73384023 Z" id="Fill-8" fill="#707575"></path>
            <path d="M51.6499221,5.70360023 L51.6499221,3.25332013 C51.6499221,2.6409601 51.392882,2.27808009 50.742302,2.27808009 C49.903142,2.27808009 49.630982,3.08700012 49.630982,3.87366015 L49.630982,5.70360023 L49.124042,5.70360023 L49.124042,1.89966008 L49.570502,1.89966008 L49.615862,2.5351201 C49.819982,2.07354008 50.356742,1.80138007 50.833442,1.80138007 C51.7028421,1.80138007 52.1644221,2.33100009 52.1644221,3.20040013 L52.1644221,5.70360023 L51.6499221,5.70360023" id="Fill-9" fill="#707575"></path>
            <path d="M54.8251222,2.26296009 C53.9553021,2.26296009 53.6680221,3.05676012 53.6680221,3.80520015 C53.6680221,4.56162018 53.9704221,5.34828021 54.8322622,5.34828021 C55.6416022,5.34828021 55.9818022,4.54650018 55.9818022,3.80520015 C55.9818022,3.04920012 55.6642822,2.26296009 54.8251222,2.26296009 Z M56.0196022,5.70360023 L55.9742422,5.1214802 C55.7625622,5.55240022 55.2409222,5.80188023 54.7717822,5.80188023 C53.6453421,5.80188023 53.1459621,4.86402019 53.1459621,3.81318015 C53.1459621,2.75436011 53.6453421,1.80138007 54.7717822,1.80138007 C55.2480622,1.80138007 55.7550022,2.05086008 55.9591222,2.4444001 L55.9591222,0.24360001 L56.4656422,0.24360001 L56.4656422,5.70360023 L56.0196022,5.70360023 L56.0196022,5.70360023 Z" id="Fill-10" fill="#707575"></path>
            <path d="M59.2246224,2.25540009 C58.4837423,2.25540009 58.0675223,2.85264011 58.0599623,3.50280014 L60.3363624,3.50280014 C60.3212424,2.86776011 59.9508024,2.25540009 59.2246224,2.25540009 Z M60.8504424,3.95682016 L58.0524023,3.95682016 C58.0524023,4.67502019 58.4686223,5.34072021 59.2397424,5.34072021 C59.7618024,5.34072021 60.1473624,5.0685602 60.2683224,4.56918018 L60.7752624,4.56918018 C60.6690024,5.29536021 60.0037224,5.80188023 59.2397424,5.80188023 C58.1133023,5.80188023 57.5232023,4.85646019 57.5232023,3.82074015 C57.5232023,2.73924011 58.1280023,1.80138007 59.2246224,1.80138007 C60.2456424,1.80138007 60.8580024,2.67120011 60.8580024,3.63888014 C60.8580024,3.74472015 60.8504424,3.84342015 60.8504424,3.95682016 L60.8504424,3.95682016 Z" id="Fill-11" fill="#707575"></path>
            <path d="M63.2465425,5.80188023 C62.4145225,5.80188023 61.6812025,5.34072021 61.6660825,4.52382018 L62.1801625,4.52382018 C62.2108225,5.0152202 62.5808425,5.35584021 63.2616625,5.35584021 C63.7686025,5.35584021 64.2600026,5.15928021 64.2600026,4.65990019 C64.2600026,4.34994017 64.0327825,4.10046016 63.6094225,4.03998016 L62.6946625,3.91860016 C62.1877225,3.81318015 61.8097225,3.48810014 61.8097225,2.93580012 C61.8097225,2.23230009 62.4674425,1.80138007 63.2163025,1.80138007 C64.0029625,1.80138007 64.6531226,2.25540009 64.6758026,2.98116012 L64.1617225,2.98116012 C64.1390425,2.5729201 63.7908625,2.24742009 63.2163025,2.24742009 C62.7173425,2.24742009 62.3086825,2.5048801 62.3086825,2.89044011 C62.3086825,3.21552013 62.5056625,3.40452014 62.9365825,3.45744014 L63.0197425,3.47256014 C63.2389825,3.49566014 63.4809025,3.53346014 63.7530625,3.57084014 C64.3809626,3.66954015 64.7665226,4.10802016 64.7665226,4.62210018 C64.7665226,5.43900022 64.0407625,5.80188023 63.2465425,5.80188023" id="Fill-12" fill="#707575"></path>
            <polyline id="Fill-13" fill="#707575" points="65.6401226 5.70360023 65.6401226 5.21220021 67.8669627 2.36082009 65.6401226 2.36082009 65.6401226 1.89966008 68.4331227 1.89966008 68.4331227 2.3914801 66.2130026 5.24244021 68.4549627 5.24244021 68.4549627 5.70360023 65.6401226 5.70360023"></polyline>
            <path d="M70.8997828,2.25540009 C70.1584828,2.25540009 69.7426828,2.85264011 69.7355428,3.50280014 L72.0115229,3.50280014 C71.9964029,2.86776011 71.6259628,2.25540009 70.8997828,2.25540009 Z M72.5256029,3.95682016 L69.7275628,3.95682016 C69.7275628,4.67502019 70.1433628,5.34072021 70.9149028,5.34072021 C71.4365428,5.34072021 71.8221029,5.0685602 71.9430629,4.56918018 L72.4500029,4.56918018 C72.3445829,5.29536021 71.6788828,5.80188023 70.9149028,5.80188023 C69.7884628,5.80188023 69.1983627,4.85646019 69.1983627,3.82074015 C69.1983627,2.73924011 69.8035828,1.80138007 70.8997828,1.80138007 C71.9208029,1.80138007 72.5335829,2.67120011 72.5335829,3.63888014 C72.5335829,3.74472015 72.5256029,3.84342015 72.5256029,3.95682016 L72.5256029,3.95682016 Z" id="Fill-14" fill="#707575"></path>
            <path d="M76.086363,5.70360023 L76.086363,3.25332013 C76.086363,2.6409601 75.828903,2.27808009 75.179163,2.27808009 C74.339583,2.27808009 74.0670029,3.08700012 74.0670029,3.87366015 L74.0670029,5.70360023 L73.5604829,5.70360023 L73.5604829,1.89966008 L74.0069429,1.89966008 L74.0518829,2.5351201 C74.256003,2.07354008 74.793183,1.80138007 75.269463,1.80138007 C76.139283,1.80138007 76.600443,2.33100009 76.600443,3.20040013 L76.600443,5.70360023 L76.086363,5.70360023" id="Fill-15" fill="#707575"></path>
            <path d="M79.0868431,5.75652023 C78.3228631,5.75652023 78.0733831,5.27268021 78.0733831,4.69014019 L78.0733831,2.35326009 L77.3249431,2.35326009 L77.3249431,1.89966008 L78.0733831,1.89966008 L78.0733831,0.893760036 C78.2472631,0.848400034 78.4140031,0.811020032 78.5878831,0.772800031 L78.5878831,1.89966008 L79.7370032,1.89966008 L79.7370032,2.35326009 L78.5878831,2.35326009 L78.5878831,4.64478018 C78.5878831,5.0685602 78.7466431,5.28780021 79.1548831,5.28780021 C79.3972232,5.28780021 79.6840832,5.23488021 79.7823632,5.21976021 L79.7823632,5.65824022 C79.5933632,5.70360023 79.3741232,5.75652023 79.0868431,5.75652023" id="Fill-16" fill="#707575"></path>
            <path d="M82.3153833,2.36082009 C81.3926432,2.36082009 81.1809632,3.22308013 81.1809632,3.94926016 L81.1809632,5.70360023 L80.6744432,5.70360023 L80.6744432,1.89966008 L81.1204832,1.89966008 L81.1734032,2.6182801 C81.3548432,2.12646008 81.8386833,1.86942007 82.3456233,1.86942007 C82.4514633,1.86942007 82.5724233,1.87698007 82.6782633,1.89210008 L82.6782633,2.3990401 C82.5648633,2.36880009 82.4363433,2.36082009 82.3153833,2.36082009" id="Fill-17" fill="#707575"></path>
            <path d="M85.6800034,3.81318015 L84.4926634,3.88122015 C84.0163833,3.91146016 83.6077233,4.15338017 83.6077233,4.62210018 C83.6077233,5.0685602 83.9176833,5.36340021 84.4624234,5.36340021 C85.2789034,5.36340021 85.6800034,4.69770019 85.6800034,4.02486016 L85.6800034,3.81318015 Z M86.3079034,5.73384023 C85.8841234,5.73384023 85.7102434,5.46924022 85.6951234,5.0832602 C85.4834434,5.54484022 84.9538234,5.80188023 84.3943834,5.80188023 C83.5926033,5.80188023 83.0860833,5.28780021 83.0860833,4.62966018 C83.0860833,4.04754016 83.5098633,3.53346014 84.4019434,3.47256014 C84.8253034,3.44988014 85.2566434,3.41208014 85.6800034,3.38940013 L85.6800034,3.06432012 C85.6800034,2.5880401 85.4305234,2.23986009 84.7723834,2.23986009 C84.1444833,2.23986009 83.7967233,2.5578001 83.7816033,3.00384012 L83.2826433,3.00384012 C83.3204433,2.23230009 83.9407833,1.80138007 84.7723834,1.80138007 C85.6875634,1.80138007 86.1869434,2.28564009 86.1869434,3.17772013 L86.1869434,4.9623002 C86.1869434,5.20422021 86.2621234,5.29536021 86.4435634,5.29536021 C86.4964834,5.29536021 86.5569634,5.28780021 86.5796434,5.28024021 L86.5796434,5.68848023 C86.4817834,5.71872023 86.4435634,5.73384023 86.3079034,5.73384023 L86.3079034,5.73384023 Z" id="Fill-18" fill="#707575"></path>
            <path d="M88.3251635,5.74896023 C87.8035235,5.74896023 87.5464835,5.46168022 87.5464835,4.87956019 L87.5464835,0.24360001 L88.0530035,0.24360001 L88.0530035,4.85646019 C88.0530035,5.1139202 88.1361635,5.28024021 88.4234435,5.28024021 C88.6048835,5.28024021 88.6653635,5.27268021 88.7187035,5.26512021 L88.7187035,5.70360023 C88.6804835,5.71116023 88.5595235,5.74896023 88.3251635,5.74896023" id="Fill-19" fill="#707575"></path>
            <path d="M90.9942636,2.25540009 C90.2529636,2.25540009 89.8371636,2.85264011 89.8296036,3.50280014 L92.1055837,3.50280014 C92.0908837,2.86776011 91.7200236,2.25540009 90.9942636,2.25540009 Z M92.6200837,3.95682016 L89.8220436,3.95682016 C89.8220436,4.67502019 90.2378436,5.34072021 91.0093836,5.34072021 C91.5310236,5.34072021 91.9165837,5.0685602 92.0375437,4.56918018 L92.5444837,4.56918018 C92.4386437,5.29536021 91.7729436,5.80188023 91.0093836,5.80188023 C89.8825236,5.80188023 89.2928435,4.85646019 89.2928435,3.82074015 C89.2928435,2.73924011 89.8976436,1.80138007 90.9942636,1.80138007 C92.0148637,1.80138007 92.6276437,2.67120011 92.6276437,3.63888014 C92.6276437,3.74472015 92.6200837,3.84342015 92.6200837,3.95682016 L92.6200837,3.95682016 Z" id="Fill-20" fill="#707575"></path>
            <path d="M42.1390217,9.44916038 C41.7307817,9.44916038 41.5039816,9.67596038 41.5039816,10.0770604 L41.5039816,10.7196604 L42.6535217,10.7196604 L42.6535217,11.1657004 L41.5039816,11.1657004 L41.5039816,14.5236006 L40.9970416,14.5236006 L40.9970416,11.1657004 L40.2712816,11.1657004 L40.2712816,10.7196604 L40.9970416,10.7196604 L40.9970416,10.0468204 C40.9970416,9.47184038 41.3981416,9.00312036 42.0861017,9.00312036 C42.3280217,9.00312036 42.5325617,9.02580036 42.7291217,9.06360036 L42.7291217,9.50208038 C42.5476817,9.47940038 42.3809417,9.44916038 42.1390217,9.44916038" id="Fill-21" fill="#707575"></path>
            <path d="M45.1558818,9.90276039 L45.7304418,9.90276039 L45.7304418,9.32064037 L45.1558818,9.32064037 L45.1558818,9.90276039 Z M43.7942417,9.90276039 L44.3692218,9.90276039 L44.3692218,9.32064037 L43.7942417,9.32064037 L43.7942417,9.90276039 Z M45.8287218,14.5236006 L45.7833618,13.8885606 C45.5792418,14.3497206 45.0647418,14.6143206 44.5733418,14.6143206 C43.7039417,14.6143206 43.2574817,14.0851206 43.2574817,13.2228605 L43.2574817,10.7196604 L43.7644217,10.7196604 L43.7644217,13.1623805 C43.7644217,13.7823005 44.0139017,14.1376206 44.6640618,14.1376206 C45.4658418,14.1376206 45.7682418,13.4118605 45.7682418,12.6558605 L45.7682418,10.7196604 L46.2747618,10.7196604 L46.2747618,14.5236006 L45.8287218,14.5236006 L45.8287218,14.5236006 Z" id="Fill-22" fill="#707575"></path>
            <path d="M49.290782,11.1808204 C48.3684619,11.1808204 48.1567819,12.0430805 48.1567819,12.7692605 L48.1567819,14.5236006 L47.6498419,14.5236006 L47.6498419,10.7196604 L48.0963019,10.7196604 L48.1492219,11.4382805 C48.3306619,10.9464604 48.8145019,10.6894204 49.321022,10.6894204 C49.427282,10.6894204 49.548242,10.6969804 49.654082,10.7121004 L49.654082,11.2190404 C49.540682,11.1888004 49.411742,11.1808204 49.290782,11.1808204" id="Fill-23" fill="#707575"></path>
            <path d="M53.7780621,11.0829604 C52.9691421,11.0829604 52.6289421,11.8843205 52.6289421,12.6256205 C52.6289421,13.3816205 52.9464621,14.1682806 53.7860421,14.1682806 C54.6554422,14.1682806 54.9427222,13.3740605 54.9427222,12.6256205 C54.9427222,11.8692005 54.6403222,11.0829604 53.7780621,11.0829604 Z M53.8389621,14.6218806 C53.3622621,14.6218806 52.8557421,14.3799606 52.6516221,13.9868406 L52.6516221,16.0965006 L52.1446821,16.0965006 L52.1446821,10.7272204 L52.5911421,10.7272204 L52.6365021,11.3097604 C52.8481821,10.8784204 53.3698221,10.6289404 53.8389621,10.6289404 C54.9578422,10.6289404 55.4647822,11.5668005 55.4647822,12.6176405 C55.4647822,13.6764605 54.9654022,14.6218806 53.8389621,14.6218806 L53.8389621,14.6218806 Z" id="Fill-24" fill="#707575"></path>
            <path d="M58.6395623,11.3853605 C58.4656823,11.2039204 58.2157823,11.0829604 57.8831423,11.0829604 C57.5505023,11.0829604 57.3010223,11.2039204 57.1195823,11.3853605 C56.8167623,11.7028805 56.7340223,12.1564805 56.7340223,12.6256205 C56.7340223,13.0943405 56.8167623,13.5403805 57.1195823,13.8579006 C57.3010223,14.0397606 57.5505023,14.1607206 57.8831423,14.1607206 C58.2157823,14.1607206 58.4656823,14.0397606 58.6395623,13.8579006 C58.9495223,13.5403805 59.0326823,13.0943405 59.0326823,12.6256205 C59.0326823,12.1564805 58.9495223,11.7028805 58.6395623,11.3853605 Z M59.0100023,14.1758406 C58.7378423,14.4404406 58.3598423,14.6218806 57.8831423,14.6218806 C57.4068623,14.6218806 57.0213023,14.4404406 56.7487223,14.1758406 C56.3480422,13.7747405 56.2119622,13.2455405 56.2119622,12.6256205 C56.2119622,11.9977205 56.3480422,11.4760805 56.7487223,11.0754004 C57.0213023,10.8028204 57.4068623,10.6213804 57.8831423,10.6213804 C58.3598423,10.6213804 58.7378423,10.8028204 59.0100023,11.0754004 C59.4182424,11.4760805 59.5543224,11.9977205 59.5543224,12.6256205 C59.5543224,13.2455405 59.4182424,13.7747405 59.0100023,14.1758406 L59.0100023,14.1758406 Z" id="Fill-25" fill="#707575"></path>
            <path d="M61.3754424,14.5689606 C60.8538024,14.5689606 60.5963424,14.2816806 60.5963424,13.6995605 L60.5963424,9.06360036 L61.1032824,9.06360036 L61.1032824,13.6764605 C61.1032824,13.9339206 61.1864424,14.1002406 61.4737224,14.1002406 C61.6551624,14.1002406 61.7156425,14.0926806 61.7685625,14.0851206 L61.7685625,14.5236006 C61.7311825,14.5311606 61.6098024,14.5689606 61.3754424,14.5689606" id="Fill-26" fill="#707575"></path>
            <path d="M62.7131425,14.5236006 L63.2427625,14.5236006 L63.2427625,10.7196604 L62.7131425,10.7196604 L62.7131425,14.5236006 Z M62.6602225,9.75954039 L63.2956825,9.75954039 L63.2956825,9.11652036 L62.6602225,9.11652036 L62.6602225,9.75954039 Z" id="Fill-27" fill="#707575"></path>
            <path d="M65.8207226,14.5765206 C65.0567426,14.5765206 64.8072626,14.0926806 64.8072626,13.5101405 L64.8072626,11.1732604 L64.0588225,11.1732604 L64.0588225,10.7196604 L64.8072626,10.7196604 L64.8072626,9.71376039 C64.9811426,9.66840038 65.1478826,9.63102038 65.3217626,9.59280038 L65.3217626,10.7196604 L66.4713026,10.7196604 L66.4713026,11.1732604 L65.3217626,11.1732604 L65.3217626,13.4647805 C65.3217626,13.8885606 65.4805226,14.1078006 65.8887626,14.1078006 C66.1306826,14.1078006 66.4179626,14.0548806 66.5166626,14.0397606 L66.5166626,14.4782406 C66.3272426,14.5236006 66.1080026,14.5765206 65.8207226,14.5765206" id="Fill-28" fill="#707575"></path>
            <path d="M67.4230227,14.5236006 L67.9526427,14.5236006 L67.9526427,10.7196604 L67.4230227,10.7196604 L67.4230227,14.5236006 Z M67.3701027,9.75954039 L68.0051427,9.75954039 L68.0051427,9.11652036 L67.3701027,9.11652036 L67.3701027,9.75954039 Z" id="Fill-29" fill="#707575"></path>
            <path d="M70.5910828,14.6218806 C69.7590628,14.6218806 69.0257427,14.1607206 69.0106227,13.3438205 L69.5251228,13.3438205 C69.5549428,13.8352205 69.9258028,14.1758406 70.6062028,14.1758406 C71.1127228,14.1758406 71.6045428,13.9792806 71.6045428,13.4799005 C71.6045428,13.1699405 71.3777428,12.9204605 70.9539628,12.8599805 L70.0387828,12.7386005 C69.5322628,12.6327605 69.1542627,12.3081005 69.1542627,11.7558005 C69.1542627,11.0523004 69.8119828,10.6213804 70.5604228,10.6213804 C71.3475028,10.6213804 71.9976629,11.0754004 72.0203429,11.8011605 L71.5058428,11.8011605 C71.4835828,11.3929205 71.1358228,11.0674204 70.5604228,11.0674204 C70.0618828,11.0674204 69.6532228,11.3248805 69.6532228,11.7104405 C69.6532228,12.0355205 69.8497828,12.2245205 70.2807028,12.2774405 L70.3642828,12.2925605 C70.5835228,12.3156605 70.8254428,12.3530405 71.0976028,12.3908405 C71.7255029,12.4895405 72.1110629,12.9280205 72.1110629,13.4421005 C72.1110629,14.2590006 71.3848828,14.6218806 70.5910828,14.6218806" id="Fill-30" fill="#707575"></path>
            <path d="M74.537403,14.6218806 C73.4181029,14.6218806 72.8586629,13.7898605 72.8586629,12.6256205 C72.8586629,11.5138805 73.3500629,10.6213804 74.530263,10.6213804 C75.361863,10.6213804 75.951543,11.1657004 76.035123,11.9599205 L75.513063,11.9599205 C75.429903,11.4382805 75.067023,11.0905204 74.530263,11.0905204 C73.6226429,11.0905204 73.3803029,11.8918805 73.3803029,12.6256205 C73.3803029,13.3211405 73.5772829,14.1607206 74.530263,14.1607206 C75.074583,14.1607206 75.452583,13.7823005 75.520623,13.2833405 L76.050243,13.2833405 C75.967083,14.0624406 75.361863,14.6218806 74.537403,14.6218806" id="Fill-31" fill="#707575"></path>
            <path d="M79.5123032,14.5236006 L79.5123032,12.0733205 C79.5123032,11.4609605 79.2552631,11.0905204 78.6051031,11.0905204 C77.7730831,11.0905204 77.4929431,11.9145605 77.4929431,12.6936605 L77.4929431,14.5236006 L76.9864231,14.5236006 L76.9864231,9.06360036 L77.4929431,9.06360036 L77.4929431,11.3248805 C77.7126031,10.8859804 78.2115631,10.6213804 78.6958231,10.6213804 C79.5652232,10.6213804 80.0268032,11.1510004 80.0268032,12.0204005 L80.0268032,14.5236006 L79.5123032,14.5236006" id="Fill-32" fill="#707575"></path>
            <path d="M82.7173233,11.0754004 C81.9760233,11.0754004 81.5602232,11.6726405 81.5526632,12.3228005 L83.8286433,12.3228005 C83.8139433,11.6877605 83.4430833,11.0754004 82.7173233,11.0754004 Z M84.3431434,12.7768205 L81.5451032,12.7768205 C81.5451032,13.4950205 81.9609033,14.1607206 82.7324433,14.1607206 C83.2540833,14.1607206 83.6396433,13.8885606 83.7606033,13.3891805 L84.2675433,13.3891805 C84.1617033,14.1153606 83.4960033,14.6218806 82.7324433,14.6218806 C81.6055832,14.6218806 81.0159032,13.6764605 81.0159032,12.6407405 C81.0159032,11.5592405 81.6207032,10.6213804 82.7173233,10.6213804 C83.7379233,10.6213804 84.3507034,11.4912005 84.3507034,12.4588805 C84.3507034,12.5647205 84.3431434,12.6634205 84.3431434,12.7768205 L84.3431434,12.7768205 Z" id="Fill-33" fill="#707575"></path>
            <path d="M89.1555035,11.9750405 L87.6430835,11.9750405 L87.6430835,14.0322006 L89.1479435,14.0322006 C89.8132236,14.0322006 90.4033236,13.7823005 90.4033236,12.9960605 C90.4033236,12.2623205 89.8283436,11.9750405 89.1555035,11.9750405 Z M89.1403835,9.64614038 L87.6430835,9.64614038 L87.6430835,11.4912005 L89.1479435,11.4912005 C89.7981036,11.4912005 90.2823636,11.2795204 90.2823636,10.5533404 C90.2823636,9.90276039 89.7225036,9.64614038 89.1403835,9.64614038 Z M90.4940436,14.0926806 C90.1538436,14.4102006 89.6544636,14.5236006 89.1479435,14.5236006 L87.1214435,14.5236006 L87.1214435,9.16188036 L89.1403835,9.16188036 C89.5864236,9.16188036 90.0551436,9.27528037 90.3730836,9.55500038 C90.6528036,9.78180039 90.8266836,10.1224204 90.8266836,10.5155404 C90.8266836,11.0598604 90.5696436,11.5592405 90.0102036,11.7331205 C90.6225636,11.9070005 90.9476436,12.4437605 90.9476436,13.0338605 C90.9476436,13.4647805 90.7813236,13.8352205 90.4940436,14.0926806 L90.4940436,14.0926806 Z" id="Fill-34" fill="#707575"></path>
            <path d="M92.0203237,14.5236006 L92.5495237,14.5236006 L92.5495237,10.7196604 L92.0203237,10.7196604 L92.0203237,14.5236006 Z M91.9674037,9.75954039 L92.6028637,9.75954039 L92.6028637,9.11652036 L91.9674037,9.11652036 L91.9674037,9.75954039 Z" id="Fill-35" fill="#707575"></path>
            <path d="M94.6965638,14.5689606 C94.1749237,14.5689606 93.9178837,14.2816806 93.9178837,13.6995605 L93.9178837,9.06360036 L94.4244038,9.06360036 L94.4244038,13.6764605 C94.4244038,13.9339206 94.5075638,14.1002406 94.7948438,14.1002406 C94.9762838,14.1002406 95.0367638,14.0926806 95.0901038,14.0851206 L95.0901038,14.5236006 C95.0518838,14.5311606 94.9309238,14.5689606 94.6965638,14.5689606" id="Fill-36" fill="#707575"></path>
            <path d="M97.3429839,11.0829604 C96.4731638,11.0829604 96.1863038,11.8767605 96.1863038,12.6256205 C96.1863038,13.3816205 96.4878638,14.1682806 97.3501239,14.1682806 C98.1598839,14.1682806 98.5000839,13.3665005 98.5000839,12.6256205 C98.5000839,11.8692005 98.1821439,11.0829604 97.3429839,11.0829604 Z M98.5378839,14.5236006 L98.4921039,13.9414806 C98.2804239,14.3724006 97.7587839,14.6218806 97.2904839,14.6218806 C96.1632038,14.6218806 95.6642438,13.6840205 95.6642438,12.6327605 C95.6642438,11.5743605 96.1632038,10.6213804 97.2904839,10.6213804 C97.7659239,10.6213804 98.2728639,10.8708604 98.4774039,11.2644004 L98.4774039,9.06360036 L98.9843439,9.06360036 L98.9843439,14.5236006 L98.5378839,14.5236006 L98.5378839,14.5236006 Z" id="Fill-37" fill="#707575"></path>
            <path d="M102.861784,14.5236006 L102.816844,13.8885606 C102.612304,14.3497206 102.098224,14.6143206 101.606824,14.6143206 C100.737424,14.6143206 100.290964,14.0851206 100.290964,13.2228605 L100.290964,10.7196604 L100.797064,10.7196604 L100.797064,13.1623805 C100.797064,13.7823005 101.047384,14.1376206 101.697124,14.1376206 C102.499324,14.1376206 102.801304,13.4118605 102.801304,12.6558605 L102.801304,10.7196604 L103.308244,10.7196604 L103.308244,14.5236006 L102.861784,14.5236006" id="Fill-38" fill="#707575"></path>
            <path d="M107.208784,14.5236006 L107.208784,12.0733205 C107.208784,11.4609605 106.951324,11.0980804 106.301584,11.0980804 C105.461584,11.0980804 105.189004,11.9070005 105.189004,12.6936605 L105.189004,14.5236006 L104.682904,14.5236006 L104.682904,10.7196604 L105.129364,10.7196604 L105.174304,11.3551205 C105.378424,10.8935404 105.915184,10.6213804 106.391464,10.6213804 C107.261284,10.6213804 107.722864,11.1510004 107.722864,12.0204005 L107.722864,14.5236006 L107.208784,14.5236006" id="Fill-39" fill="#707575"></path>
            <path d="M110.467144,11.0523004 C109.914844,11.0523004 109.513744,11.4231605 109.513744,11.9674805 C109.513744,12.5118005 109.899304,12.8751005 110.467144,12.8751005 C111.026584,12.8751005 111.426844,12.5118005 111.426844,11.9674805 C111.426844,11.4231605 111.033724,11.0523004 110.467144,11.0523004 Z M110.852704,14.4177606 L109.877044,14.4177606 C109.589344,14.4933606 109.316764,14.7352806 109.316764,15.1057206 C109.316764,15.7487406 110.081584,15.8243406 110.572984,15.8243406 C111.056824,15.8243406 111.872884,15.7411806 111.872884,15.0910206 C111.872884,14.5840806 111.442384,14.4177606 110.852704,14.4177606 Z M110.549884,16.2703806 C109.771204,16.2703806 108.848464,16.0435806 108.848464,15.1515006 C108.848464,14.7655206 109.074844,14.4480006 109.407904,14.2892406 C109.142884,14.1985206 108.946744,13.9339206 108.946744,13.6537805 C108.946744,13.3211405 109.135744,13.0792205 109.422604,12.9280205 C109.165984,12.6856805 109.015204,12.3459005 109.015204,11.9674805 C109.015204,11.1279004 109.642684,10.6213804 110.474284,10.6213804 C110.822044,10.6213804 111.109324,10.7121004 111.351244,10.8637204 C111.465484,10.5306604 111.775444,10.3416604 112.130764,10.3416604 C112.183264,10.3416604 112.243744,10.3492204 112.297084,10.3567804 L112.297084,10.7801404 C112.251304,10.7725804 112.198804,10.7650204 112.152604,10.7650204 C111.888424,10.7650204 111.699004,10.9090804 111.654064,11.1434404 C111.827944,11.3551205 111.933784,11.6272805 111.933784,11.9674805 C111.933784,12.7465805 111.336544,13.3060205 110.474284,13.3060205 C110.202124,13.3060205 110.005144,13.2606605 109.771204,13.1623805 C109.581784,13.2379805 109.445704,13.3891805 109.445704,13.5933005 C109.445704,14.0166606 109.997584,13.9713006 110.383144,13.9713006 C110.587684,13.9713006 110.791804,13.9637406 110.882944,13.9637406 C111.661204,13.9637406 112.372684,14.2892406 112.372684,15.0910206 C112.372684,16.0209006 111.404584,16.2703806 110.549884,16.2703806 L110.549884,16.2703806 Z" id="Fill-40" fill="#707575"></path>
            <polyline id="Fill-41" fill="#707575" points="44.1432618 23.3431809 44.1432618 20.7950408 41.3603416 20.7950408 41.3603416 23.3431809 40.8307216 23.3431809 40.8307216 17.9818807 41.3603416 17.9818807 41.3603416 20.2729808 44.1432618 20.2729808 44.1432618 17.9818807 44.6800218 17.9818807 44.6800218 23.3431809 44.1432618 23.3431809"></polyline>
            <path d="M48.3840019,21.4527609 L47.1966619,21.5208009 C46.7199619,21.5510409 46.3117218,21.7929609 46.3117218,22.2616809 C46.3117218,22.7081409 46.6216819,23.0029809 47.1664219,23.0029809 C47.9829019,23.0029809 48.3840019,22.3377009 48.3840019,21.6644409 L48.3840019,21.4527609 Z M49.0114819,23.3738409 C48.5881219,23.3738409 48.4138219,23.1088209 48.3987019,22.7232609 C48.1870219,23.1848409 47.6578219,23.4418809 47.0983819,23.4418809 C46.2966018,23.4418809 45.7896618,22.9273809 45.7896618,22.2696609 C45.7896618,21.6871209 46.2134418,21.1730408 47.1059419,21.1125608 C47.5293019,21.0898808 47.9602219,21.0520808 48.3840019,21.0294008 L48.3840019,20.7043208 C48.3840019,20.2276208 48.1341019,19.8798608 47.4763819,19.8798608 C46.8484819,19.8798608 46.5007218,20.1973808 46.4856018,20.6438408 L45.9866418,20.6438408 C46.0244418,19.8723008 46.6443619,19.4409608 47.4763819,19.4409608 C48.3911419,19.4409608 48.8905219,19.9252208 48.8905219,20.8177208 L48.8905219,22.6023009 C48.8905219,22.8442209 48.9661219,22.9349409 49.147562,22.9349409 C49.200482,22.9349409 49.260962,22.9273809 49.283642,22.9202409 L49.283642,23.3280609 C49.185362,23.3587209 49.147562,23.3738409 49.0114819,23.3738409 L49.0114819,23.3738409 Z" id="Fill-42" fill="#707575"></path>
            <path d="M55.0074022,23.3431809 L55.0074022,20.8929008 C55.0074022,20.2956608 54.7953022,19.9101008 54.1678222,19.9101008 C53.9032221,19.9101008 53.6986821,20.0083808 53.5403421,20.1671408 C53.2606221,20.4393008 53.1543621,20.8328408 53.1543621,21.2562008 L53.1543621,23.3431809 L52.6402821,23.3431809 L52.6402821,20.8929008 C52.6402821,20.2956608 52.4361621,19.9101008 51.8007021,19.9101008 C51.520982,19.9101008 51.301742,20.0310608 51.135422,20.2125008 C50.870822,20.4922208 50.780102,20.9538008 50.780102,21.3847208 L50.780102,23.3431809 L50.273162,23.3431809 L50.273162,19.5396608 L50.719622,19.5396608 L50.772542,20.1369008 C50.969102,19.7059808 51.392462,19.4409608 51.8838621,19.4409608 C52.4966421,19.4409608 52.8897621,19.7362208 53.0485221,20.2125008 C53.2526421,19.7437808 53.6986821,19.4409608 54.2509822,19.4409608 C55.1283622,19.4409608 55.5139222,20.0083808 55.5139222,20.8404008 L55.5139222,23.3431809 L55.0074022,23.3431809" id="Fill-43" fill="#707575"></path>
            <path d="M58.4610623,19.9025408 C57.6219023,19.9025408 57.3039623,20.6892008 57.3039623,21.4452009 C57.3039623,22.1865009 57.6445823,22.9878609 58.4535023,22.9878609 C59.3157624,22.9878609 59.6181624,22.2016209 59.6181624,21.4452009 C59.6181624,20.6967608 59.3308824,19.9025408 58.4610623,19.9025408 Z M58.5139823,23.4418809 C58.0452623,23.4418809 57.5232023,23.1919809 57.3119423,22.7610609 L57.2665823,23.3431809 L56.8201223,23.3431809 L56.8201223,17.8831807 L57.3270623,17.8831807 L57.3270623,20.0839808 C57.5311823,19.6908608 58.0377023,19.4409608 58.5139823,19.4409608 C59.6332824,19.4409608 60.1398024,20.3939408 60.1398024,21.4527609 C60.1398024,22.5036009 59.6332824,23.4418809 58.5139823,23.4418809 L58.5139823,23.4418809 Z" id="Fill-44" fill="#707575"></path>
            <path d="M63.7001425,23.3431809 L63.6547825,22.7081409 C63.4506625,23.1693009 62.9365825,23.4339009 62.4447625,23.4339009 C61.5753624,23.4339009 61.1289024,22.9051209 61.1289024,22.0428609 L61.1289024,19.5396608 L61.6358424,19.5396608 L61.6358424,21.9819609 C61.6358424,22.6023009 61.8853225,22.9576209 62.5359025,22.9576209 C63.3372625,22.9576209 63.6396625,22.2318609 63.6396625,21.4754409 L63.6396625,19.5396608 L64.1461825,19.5396608 L64.1461825,23.3431809 L63.7001425,23.3431809" id="Fill-45" fill="#707575"></path>
            <path d="M67.1626227,20.0008208 C66.2398826,20.0008208 66.0282026,20.8630808 66.0282026,21.5888409 L66.0282026,23.3431809 L65.5212626,23.3431809 L65.5212626,19.5396608 L65.9677226,19.5396608 L66.0206426,20.2578608 C66.2020826,19.7664608 66.6859226,19.5094208 67.1928627,19.5094208 C67.2987027,19.5094208 67.4196627,19.5169808 67.5255027,19.5321008 L67.5255027,20.0386208 C67.4116827,20.0083808 67.2835827,20.0008208 67.1626227,20.0008208" id="Fill-46" fill="#707575"></path>
            <path d="M69.7401628,19.8723008 C69.1882827,19.8723008 68.7876027,20.2427408 68.7876027,20.7874808 C68.7876027,21.3318008 69.1731627,21.6946809 69.7401628,21.6946809 C70.2996028,21.6946809 70.7002828,21.3318008 70.7002828,20.7874808 C70.7002828,20.2427408 70.3075828,19.8723008 69.7401628,19.8723008 Z M70.1257228,23.2377609 L69.1504827,23.2377609 C68.8627827,23.3129409 68.5906227,23.5548609 68.5906227,23.925721 C68.5906227,24.568321 69.3541828,24.643921 69.8460028,24.643921 C70.3302628,24.643921 71.1467428,24.560761 71.1467428,23.910601 C71.1467428,23.4040809 70.7158228,23.2377609 70.1257228,23.2377609 Z M69.8237428,25.090381 C69.0446427,25.090381 68.1219027,24.863581 68.1219027,23.971081 C68.1219027,23.5855209 68.3487027,23.2680009 68.6817627,23.1088209 C68.4167427,23.0181009 68.2201827,22.7535009 68.2201827,22.4737809 C68.2201827,22.1407209 68.4091827,21.8988009 68.6964627,21.7480209 C68.4398427,21.5056809 68.2882227,21.1654808 68.2882227,20.7874808 C68.2882227,19.9479008 68.9157027,19.4409608 69.7477228,19.4409608 C70.0954828,19.4409608 70.3831828,19.5321008 70.6251028,19.6833008 C70.7385028,19.3506608 71.0484628,19.1612408 71.4037828,19.1612408 C71.4567028,19.1612408 71.5176028,19.1688008 71.5705228,19.1767808 L71.5705228,19.6001408 C71.5247428,19.5925808 71.4718228,19.5850208 71.4264628,19.5850208 C71.1618628,19.5850208 70.9728628,19.7286608 70.9275028,19.9630208 C71.1018028,20.1747008 71.2076428,20.4468608 71.2076428,20.7874808 C71.2076428,21.5661609 70.6099828,22.1260209 69.7477228,22.1260209 C69.4755628,22.1260209 69.2790028,22.0806609 69.0446427,21.9819609 C68.8556427,22.0579809 68.7195627,22.2087609 68.7195627,22.4133009 C68.7195627,22.8366609 69.2714428,22.7913009 69.6570028,22.7913009 C69.8611228,22.7913009 70.0656628,22.7837409 70.1563828,22.7837409 C70.9350628,22.7837409 71.6457028,23.1088209 71.6457028,23.910601 C71.6457028,24.840901 70.6780228,25.090381 69.8237428,25.090381 L69.8237428,25.090381 Z" id="Fill-47" fill="#707575"></path>
        </g>
    </g>
</svg>