<?xml version="1.0" encoding="UTF-8"?>
<svg width="103px" height="34px" viewBox="0 0 103 34" version="1.1" xmlns="http://www.w3.org/2000/svg" xmlns:xlink="http://www.w3.org/1999/xlink">
    <!-- Generator: Sketch 50.2 (55047) - http://www.bohemiancoding.com/sketch -->
    <title>WBM2ZG_B_SW</title>
    <desc>Created with Sketch.</desc>
    <defs></defs>
    <g id="WBM2ZG_B_SW" stroke="none" stroke-width="1" fill="none" fill-rule="evenodd">
        <path d="M22.014,11.4 C22.014,12.863 22.656,14.41 24.488,14.41 C26.133,14.41 26.803,12.863 26.803,11.4 C26.803,9.938 26.133,8.39 24.488,8.39 C22.656,8.39 22.014,9.938 22.014,11.4" id="Fill-1" fill="#1A1919"></path>
        <path d="M19.487,11.4 C19.487,12.863 18.815,14.41 17.175,14.41 C15.34,14.41 14.699,12.863 14.699,11.4 C14.699,9.801 15.272,8.39 17.175,8.39 C18.815,8.39 19.487,9.938 19.487,11.4 Z M13.81,16.39 L14.67,16.391 L14.673,13.592 L14.7,13.592 C15.069,14.603 16.097,15.136 17.151,15.136 C19.295,15.136 20.319,13.397 20.319,11.4 C20.319,9.404 19.295,7.667 17.151,7.667 C16.013,7.667 15.029,8.255 14.633,9.212 L14.603,9.212 L14.603,7.871 L13.81,7.871 L13.81,16.39 Z M12.062,11.4 C12.062,12.863 11.39,14.41 9.751,14.41 C7.918,14.41 7.274,12.863 7.274,11.4 C7.274,9.938 7.918,8.39 9.751,8.39 C11.39,8.39 12.062,9.938 12.062,11.4 Z M6.47,14.927 L7.262,14.927 L7.262,13.592 L7.29,13.592 C7.687,14.548 8.672,15.136 9.808,15.136 C11.955,15.136 12.98,13.397 12.98,11.4 C12.98,9.404 11.955,7.667 9.808,7.667 C8.755,7.667 7.728,8.2 7.36,9.212 L7.331,9.212 L7.331,6.546 L6.47,6.546 L6.47,14.927 Z M24.488,15.136 C23.352,15.136 22.366,14.548 21.973,13.592 L21.945,13.592 L21.945,14.927 L21.149,14.927 L21.149,6.546 L22.014,6.546 L22.014,9.212 L22.043,9.212 C22.406,8.2 23.433,7.667 24.488,7.667 C25.108,7.667 25.633,7.814 26.066,8.066 C23.877,3.502 19.21,0.35 13.809,0.35 C6.307,0.35 0.226,6.43 0.226,13.931 C0.226,21.436 6.307,27.517 13.809,27.517 C21.311,27.517 27.392,21.436 27.392,13.931 C27.392,13.662 27.382,13.392 27.369,13.126 C26.93,14.301 25.978,15.136 24.488,15.136 Z" id="Fill-2" fill="#1A1919"></path>
        <path d="M32.646,29.161 C32.646,30.028 32.304,30.884 31.304,30.884 C30.298,30.884 29.902,30.071 29.902,29.198 C29.902,28.358 30.279,27.517 31.253,27.517 C32.206,27.517 32.646,28.325 32.646,29.161 Z M29.203,33.131 L29.929,33.131 L29.929,30.832 L29.947,30.832 C30.271,31.358 30.923,31.527 31.38,31.527 C32.748,31.527 33.419,30.468 33.419,29.212 C33.419,27.956 32.74,26.871 31.367,26.871 C30.753,26.871 30.185,27.084 29.947,27.576 L29.929,27.576 L29.929,26.971 L29.203,26.971 L29.203,33.131 Z" id="Fill-3" fill="#1A1919"></path>
        <path d="M34.031,29.204 C34.031,30.5 34.78,31.527 36.185,31.527 C37.607,31.527 38.357,30.5 38.357,29.204 C38.357,27.894 37.607,26.871 36.185,26.871 C34.78,26.871 34.031,27.894 34.031,29.204 Z M34.809,29.204 C34.809,28.114 35.423,27.517 36.185,27.517 C36.955,27.517 37.578,28.114 37.578,29.204 C37.578,30.28 36.955,30.884 36.185,30.884 C35.423,30.884 34.809,30.28 34.809,29.204 Z" id="Fill-4" fill="#1A1919"></path>
        <polygon id="Fill-5" fill="#1A1919" points="39.341 31.424 40.071 31.424 40.071 25.278 39.341 25.278"></polygon>
        <path d="M41.339,31.424 L42.066,31.424 L42.066,26.97 L41.339,26.97 L41.339,31.424 Z M41.339,26.17 L42.066,26.17 L42.066,25.277 L41.339,25.277 L41.339,26.17 Z" id="Fill-6" fill="#1A1919"></path>
        <path d="M44.306,25.635 L43.574,25.635 L43.574,26.971 L42.81,26.971 L42.81,27.616 L43.574,27.616 L43.574,30.453 C43.574,31.274 43.875,31.424 44.63,31.424 L45.195,31.424 L45.195,30.779 L44.849,30.779 C44.396,30.779 44.306,30.719 44.306,30.384 L44.306,27.616 L45.195,27.616 L45.195,26.971 L44.306,26.971 L44.306,25.635" id="Fill-7" fill="#1A1919"></path>
        <path d="M46.136,31.424 L46.857,31.424 L46.857,26.97 L46.136,26.97 L46.136,31.424 Z M46.136,26.17 L46.857,26.17 L46.857,25.277 L46.136,25.277 L46.136,26.17 Z" id="Fill-8" fill="#1A1919"></path>
        <path d="M47.792,30.02 C47.839,31.127 48.681,31.527 49.682,31.527 C50.578,31.527 51.576,31.185 51.576,30.126 C51.576,29.266 50.85,29.022 50.123,28.86 C49.437,28.697 48.665,28.605 48.665,28.08 C48.665,27.633 49.179,27.517 49.615,27.517 C50.1,27.517 50.588,27.696 50.643,28.266 L51.383,28.266 C51.322,27.177 50.533,26.871 49.553,26.871 C48.771,26.871 47.892,27.241 47.892,28.135 C47.892,28.987 48.617,29.232 49.347,29.392 C50.082,29.555 50.795,29.65 50.795,30.222 C50.795,30.779 50.182,30.884 49.727,30.884 C49.125,30.884 48.552,30.678 48.527,30.02 L47.792,30.02" id="Fill-9" fill="#1A1919"></path>
        <path d="M56.248,28.4 C56.141,27.346 55.334,26.871 54.326,26.871 C52.912,26.871 52.231,27.921 52.231,29.256 C52.231,30.578 52.959,31.527 54.309,31.527 C55.435,31.527 56.107,30.884 56.272,29.8 L55.527,29.8 C55.435,30.468 55.012,30.884 54.301,30.884 C53.371,30.884 53.004,30.071 53.004,29.256 C53.004,28.353 53.332,27.517 54.391,27.517 C54.994,27.517 55.375,27.843 55.494,28.4 L56.248,28.4" id="Fill-10" fill="#1A1919"></path>
        <path d="M57.185,31.424 L57.912,31.424 L57.912,28.91 C57.912,28.108 58.338,27.517 59.228,27.517 C59.787,27.517 60.129,27.871 60.129,28.412 L60.129,31.424 L60.871,31.424 L60.871,28.496 C60.871,27.54 60.498,26.871 59.332,26.871 C58.793,26.871 58.166,27.09 57.93,27.626 L57.912,27.626 L57.912,25.278 L57.185,25.278 L57.185,31.424" id="Fill-11" fill="#1A1919"></path>
        <path d="M65.123,30.01 C64.992,30.588 64.568,30.884 63.971,30.884 C63,30.884 62.551,30.195 62.578,29.418 L65.912,29.418 C65.953,28.345 65.477,26.871 63.898,26.871 C62.684,26.871 61.812,27.852 61.812,29.186 C61.852,30.544 62.518,31.527 63.943,31.527 C64.947,31.527 65.647,30.993 65.844,30.01 L65.123,30.01 Z M62.578,28.773 C62.625,28.089 63.09,27.517 63.853,27.517 C64.576,27.517 65.107,28.074 65.143,28.773 L62.578,28.773 Z" id="Fill-12" fill="#1A1919"></path>
        <path d="M70.248,28.605 L72.127,28.605 C72.818,28.605 73.459,28.835 73.459,29.634 C73.459,30.306 73.012,30.738 72.305,30.738 L70.248,30.738 L70.248,28.605 Z M69.44,31.424 L72.402,31.424 C73.631,31.424 74.272,30.563 74.272,29.662 C74.272,28.904 73.861,28.333 73.105,28.177 L73.105,28.157 C73.672,27.927 74.016,27.437 74.016,26.784 C74.016,26.178 73.697,25.741 73.295,25.501 C72.926,25.278 72.203,25.278 71.666,25.278 L69.44,25.278 L69.44,31.424 Z M70.248,25.965 L71.891,25.965 C72.598,25.965 73.201,26.087 73.201,26.938 C73.201,27.584 72.824,27.921 71.891,27.921 L70.248,27.921 L70.248,25.965 Z" id="Fill-13" fill="#1A1919"></path>
        <path d="M75.338,31.424 L76.072,31.424 L76.072,26.97 L75.338,26.97 L75.338,31.424 Z M75.338,26.17 L76.072,26.17 L76.072,25.277 L75.338,25.277 L75.338,26.17 Z" id="Fill-14" fill="#1A1919"></path>
        <polygon id="Fill-15" fill="#1A1919" points="77.334 31.424 78.065 31.424 78.065 25.278 77.334 25.278"></polygon>
        <path d="M83.178,25.278 L82.449,25.278 L82.449,27.565 L82.434,27.565 C82.098,27.042 81.449,26.871 80.992,26.871 C79.631,26.871 78.961,27.927 78.961,29.186 C78.961,30.444 79.633,31.527 81.008,31.527 C81.619,31.527 82.185,31.314 82.434,30.824 L82.449,30.824 L82.449,31.424 L83.178,31.424 L83.178,25.278 Z M79.73,29.24 C79.73,28.367 80.066,27.517 81.066,27.517 C82.072,27.517 82.478,28.325 82.478,29.204 C82.478,30.039 82.09,30.884 81.111,30.884 C80.162,30.884 79.73,30.071 79.73,29.24 Z" id="Fill-16" fill="#1A1919"></path>
        <path d="M88.072,26.971 L87.342,26.971 L87.342,29.488 C87.342,30.29 86.914,30.884 86.023,30.884 C85.463,30.884 85.125,30.528 85.125,29.984 L85.125,26.971 L84.393,26.971 L84.393,29.901 C84.393,30.856 84.752,31.527 85.914,31.527 C86.562,31.527 87.063,31.274 87.371,30.719 L87.387,30.719 L87.387,31.424 L88.072,31.424 L88.072,26.971" id="Fill-17" fill="#1A1919"></path>
        <path d="M89.258,31.424 L89.988,31.424 L89.988,28.91 C89.988,28.108 90.426,27.517 91.31,27.517 C91.865,27.517 92.213,27.871 92.213,28.412 L92.213,31.424 L92.943,31.424 L92.943,28.496 C92.943,27.54 92.588,26.871 91.41,26.871 C90.779,26.871 90.281,27.127 89.959,27.677 L89.943,27.677 L89.943,26.971 L89.258,26.971 L89.258,31.424" id="Fill-18" fill="#1A1919"></path>
        <path d="M95.922,30.832 C94.955,30.832 94.664,29.935 94.664,29.134 C94.664,28.282 95.037,27.517 95.978,27.517 C96.904,27.517 97.248,28.325 97.248,29.104 C97.248,29.944 96.887,30.832 95.922,30.832 Z M97.971,26.971 L97.275,26.971 L97.275,27.607 L97.262,27.607 L97.268,27.607 C97.004,27.116 96.502,26.871 95.947,26.871 C94.404,26.871 93.885,28.168 93.885,29.221 C93.885,30.433 94.555,31.475 95.875,31.475 C96.44,31.475 97.023,31.213 97.262,30.666 L97.275,30.666 L97.275,30.96 C97.275,31.956 96.904,32.648 95.947,32.648 C95.463,32.648 94.822,32.456 94.791,31.925 L94.06,31.925 C94.102,32.898 95.062,33.235 95.904,33.235 C97.303,33.235 97.971,32.49 97.971,31.044 L97.971,26.971 Z" id="Fill-19" fill="#1A1919"></path>
        <path d="M30.021,19.999 L31.888,19.999 C32.58,19.999 33.218,20.224 33.218,21.024 C33.218,21.694 32.782,22.128 32.068,22.128 L30.021,22.128 L30.021,19.999 Z M29.204,22.816 L32.169,22.816 C33.396,22.816 34.037,21.955 34.037,21.05 C34.037,20.29 33.632,19.722 32.862,19.568 L32.862,19.551 C33.443,19.316 33.785,18.826 33.785,18.174 C33.785,17.57 33.466,17.13 33.052,16.886 C32.689,16.668 31.976,16.668 31.429,16.668 L29.204,16.668 L29.204,22.816 Z M30.021,17.354 L31.658,17.354 C32.359,17.354 32.964,17.476 32.964,18.325 C32.964,18.976 32.589,19.308 31.658,19.308 L30.021,19.308 L30.021,17.354 Z" id="Fill-20" fill="#1A1919"></path>
        <path d="M38.656,18.358 L37.927,18.358 L37.927,20.878 C37.927,21.679 37.5,22.268 36.613,22.268 C36.05,22.268 35.708,21.918 35.708,21.378 L35.708,18.358 L34.97,18.358 L34.97,21.288 C34.97,22.246 35.333,22.92 36.501,22.92 C37.138,22.92 37.64,22.659 37.951,22.108 L37.966,22.108 L37.966,22.816 L38.656,22.816 L38.656,18.358" id="Fill-21" fill="#1A1919"></path>
        <path d="M39.843,22.816 L40.57,22.816 L40.57,20.297 C40.57,19.502 41.001,18.908 41.89,18.908 C42.449,18.908 42.794,19.259 42.794,19.799 L42.794,22.816 L43.533,22.816 L43.533,19.887 C43.533,18.931 43.169,18.26 41.994,18.26 C41.361,18.26 40.849,18.519 40.544,19.069 L40.529,19.069 L40.529,18.358 L39.843,18.358 L39.843,22.816" id="Fill-22" fill="#1A1919"></path>
        <path d="M48.691,16.668 L47.956,16.668 L47.956,18.958 L47.945,18.958 C47.617,18.432 46.955,18.26 46.5,18.26 C45.146,18.26 44.47,19.316 44.47,20.576 C44.47,21.833 45.158,22.92 46.517,22.92 C47.136,22.92 47.703,22.703 47.945,22.211 L47.956,22.211 L47.956,22.816 L48.691,22.816 L48.691,16.668 Z M45.249,20.628 C45.249,19.756 45.583,18.908 46.58,18.908 C47.589,18.908 47.982,19.715 47.982,20.594 C47.982,21.432 47.609,22.268 46.619,22.268 C45.679,22.268 45.249,21.463 45.249,20.628 Z" id="Fill-23" fill="#1A1919"></path>
        <path d="M52.975,21.404 C52.838,21.978 52.424,22.268 51.82,22.268 C50.85,22.268 50.408,21.582 50.434,20.804 L53.768,20.804 C53.813,19.734 53.328,18.26 51.75,18.26 C50.541,18.26 49.662,19.239 49.662,20.576 C49.705,21.939 50.373,22.92 51.793,22.92 C52.789,22.92 53.5,22.387 53.697,21.404 L52.975,21.404 Z M50.434,20.162 C50.486,19.481 50.937,18.908 51.715,18.908 C52.434,18.908 52.967,19.466 52.996,20.162 L50.434,20.162 Z" id="Fill-24" fill="#1A1919"></path>
        <path d="M54.322,21.411 C54.365,22.517 55.209,22.92 56.211,22.92 C57.115,22.92 58.103,22.575 58.103,21.517 C58.103,20.651 57.383,20.416 56.644,20.247 C55.971,20.084 55.193,19.999 55.193,19.477 C55.193,19.027 55.703,18.908 56.137,18.908 C56.619,18.908 57.125,19.086 57.18,19.653 L57.912,19.653 C57.856,18.572 57.062,18.26 56.08,18.26 C55.309,18.26 54.416,18.63 54.416,19.525 C54.416,20.382 55.156,20.618 55.877,20.78 C56.607,20.949 57.332,21.042 57.332,21.609 C57.332,22.167 56.703,22.268 56.25,22.268 C55.652,22.268 55.084,22.07 55.059,21.411 L54.322,21.411" id="Fill-25" fill="#1A1919"></path>
        <polyline id="Fill-26" fill="#1A1919" points="58.635 22.816 62.393 22.816 62.393 22.167 59.551 22.167 62.269 18.859 62.269 18.358 58.807 18.358 58.807 19.009 61.326 19.009 58.635 22.252 58.635 22.816"></polyline>
        <path d="M66.285,21.404 C66.156,21.978 65.74,22.268 65.143,22.268 C64.164,22.268 63.725,21.582 63.756,20.804 L67.088,20.804 C67.129,19.734 66.645,18.26 65.076,18.26 C63.852,18.26 62.98,19.239 62.98,20.576 C63.025,21.939 63.691,22.92 65.117,22.92 C66.107,22.92 66.818,22.387 67.016,21.404 L66.285,21.404 Z M63.756,20.162 C63.805,19.481 64.26,18.908 65.025,18.908 C65.754,18.908 66.27,19.466 66.307,20.162 L63.756,20.162 Z" id="Fill-27" fill="#1A1919"></path>
        <path d="M67.926,22.816 L68.656,22.816 L68.656,20.297 C68.656,19.502 69.088,18.908 69.977,18.908 C70.537,18.908 70.879,19.259 70.879,19.799 L70.879,22.816 L71.613,22.816 L71.613,19.887 C71.613,18.931 71.25,18.26 70.07,18.26 C69.441,18.26 68.943,18.519 68.635,19.069 L68.613,19.069 L68.613,18.358 L67.926,18.358 L67.926,22.816" id="Fill-28" fill="#1A1919"></path>
        <path d="M73.81,17.03 L73.08,17.03 L73.08,18.358 L72.318,18.358 L72.318,19.009 L73.08,19.009 L73.08,21.843 C73.08,22.659 73.377,22.816 74.133,22.816 L74.699,22.816 L74.699,22.167 L74.357,22.167 C73.902,22.167 73.81,22.108 73.81,21.772 L73.81,19.009 L74.699,19.009 L74.699,18.358 L73.81,18.358 L73.81,17.03" id="Fill-29" fill="#1A1919"></path>
        <path d="M75.656,22.816 L76.383,22.816 L76.383,20.832 C76.383,19.707 76.815,19.035 77.99,19.035 L77.99,18.26 C77.201,18.233 76.709,18.586 76.352,19.299 L76.338,19.299 L76.338,18.358 L75.656,18.358 L75.656,22.816" id="Fill-30" fill="#1A1919"></path>
        <path d="M81.295,21.263 C81.295,21.668 80.902,22.268 79.935,22.268 C79.484,22.268 79.076,22.101 79.076,21.617 C79.076,21.077 79.484,20.903 79.965,20.814 C80.465,20.731 81.014,20.722 81.295,20.515 L81.295,21.263 Z M82.488,22.228 C82.389,22.261 82.324,22.268 82.26,22.268 C82.023,22.268 82.023,22.119 82.023,21.772 L82.023,19.481 C82.023,18.442 81.158,18.26 80.361,18.26 C79.369,18.26 78.518,18.648 78.477,19.748 L79.201,19.748 C79.236,19.094 79.695,18.908 80.316,18.908 C80.781,18.908 81.307,19.009 81.307,19.648 C81.307,20.198 80.617,20.145 79.803,20.297 C79.049,20.448 78.295,20.663 78.295,21.668 C78.295,22.557 78.965,22.92 79.768,22.92 C80.397,22.92 80.935,22.703 81.342,22.228 C81.342,22.709 81.578,22.92 81.955,22.92 C82.19,22.92 82.357,22.88 82.488,22.796 L82.488,22.228 Z" id="Fill-31" fill="#1A1919"></path>
        <polygon id="Fill-32" fill="#1A1919" points="83.289 22.816 84.021 22.816 84.021 16.668 83.289 16.668"></polygon>
        <path d="M88.322,21.404 C88.187,21.978 87.768,22.268 87.164,22.268 C86.19,22.268 85.748,21.582 85.773,20.804 L89.109,20.804 C89.152,19.734 88.674,18.26 87.094,18.26 C85.879,18.26 85.004,19.239 85.004,20.576 C85.043,21.939 85.713,22.92 87.135,22.92 C88.137,22.92 88.846,22.387 89.039,21.404 L88.322,21.404 Z M85.773,20.162 C85.826,19.481 86.285,18.908 87.055,18.908 C87.772,18.908 88.305,19.466 88.334,20.162 L85.773,20.162 Z" id="Fill-33" fill="#1A1919"></path>
        <path d="M92.814,22.816 L93.547,22.816 L93.547,19.009 L94.404,19.009 L94.404,18.358 L93.547,18.358 L93.547,17.742 C93.547,17.354 93.754,17.243 94.103,17.243 C94.236,17.243 94.391,17.258 94.525,17.303 L94.525,16.668 C94.385,16.626 94.19,16.597 94.047,16.597 C93.246,16.597 92.814,16.977 92.814,17.698 L92.814,18.358 L92.063,18.358 L92.063,19.009 L92.814,19.009 L92.814,22.816" id="Fill-34" fill="#1A1919"></path>
        <path d="M97.41,17.718 L98.193,17.718 L98.193,16.821 L97.41,16.821 L97.41,17.718 Z M95.789,17.718 L96.568,17.718 L96.568,16.821 L95.789,16.821 L95.789,17.718 Z M98.834,18.358 L98.098,18.358 L98.098,20.878 C98.098,21.679 97.664,22.268 96.783,22.268 C96.223,22.268 95.879,21.918 95.879,21.378 L95.879,18.358 L95.145,18.358 L95.145,21.288 C95.145,22.246 95.508,22.92 96.68,22.92 C97.314,22.92 97.815,22.659 98.123,22.108 L98.148,22.108 L98.148,22.816 L98.834,22.816 L98.834,18.358 Z" id="Fill-35" fill="#1A1919"></path>
        <path d="M99.992,22.816 L100.725,22.816 L100.725,20.832 C100.725,19.707 101.152,19.035 102.332,19.035 L102.332,18.26 C101.541,18.233 101.051,18.586 100.697,19.299 L100.68,19.299 L100.68,18.358 L99.992,18.358 L99.992,22.816" id="Fill-36" fill="#1A1919"></path>
        <polygon id="Fill-37" fill="#1A1919" points="29 9.464 30.471 9.464 30.471 8 29 8"></polygon>
        <polygon id="Fill-37-Copy" fill="#1A1919" points="29 14.464 30.471 14.464 30.471 13 29 13"></polygon>
    </g>
</svg>