<?xml version="1.0" encoding="utf-8"?>
<!-- Generator: Adobe Illustrator 21.1.0, SVG Export Plug-In . SVG Version: 6.00 Build 0)  -->
<svg version="1.1" id="Ebene_1" xmlns="http://www.w3.org/2000/svg" xmlns:xlink="http://www.w3.org/1999/xlink" x="0px" y="0px"
	 viewBox="0 0 259.6 213.6" style="enable-background:new 0 0 259.6 213.6;" xml:space="preserve">
<style type="text/css">
	.st0{fill-rule:evenodd;clip-rule:evenodd;}
	.st1{fill:#1D1D1B;}
</style>
<g>
	<g>
		<path d="M84.4,126.4C36.7,118.9,3.6,100.6,2,76.9C-0.3,42.1,66.6,9,151.6,3c40.3-2.8,77.4,0.9,105.5,9.4
			c-20-2.5-42.2-3.1-65.4-1.5C107,16.8,40.3,50.6,42.7,86.2C43.9,102.7,59.5,116.7,84.4,126.4L84.4,126.4z"/>
		<path class="st0" d="M113,113c21.1,0,25.5-14.8,25.5-21.7c0-6.1-3.8-10.6-8.8-11.9c9.3-2.8,12.5-11.4,12.5-17.2
			c0-7.4-5.5-12.2-13.5-12.2h-28L87.4,113H113L113,113z M120.5,63.3c3.2,0,4.5,1.2,4.5,3.4c0,4.4-3.1,7.5-6.7,7.5h-6.4l2.4-10.9
			H120.5L120.5,63.3z M120.1,91c0,4.7-2.8,8.5-7.4,8.5h-6.2l2.6-12.5h6C119,87.1,120.1,88.8,120.1,91L120.1,91z"/>
		<path d="M180.7,50h-16.6l-11,51.9c-2.4,11.4-3.7,15-12.7,20.4l5.8,8c9.5-3.2,19.6-10.5,22-21.4L180.7,50L180.7,50z"/>
		<path class="st0" d="M237.6,113c-1-4.7-4-16.4-5.4-20.6c-1-3-3.3-6-4.6-6.8C240.4,83.4,245,72,245,64.1c0-8.8-5.6-14.1-21.3-14.1
			H202L188.6,113h16.2l5.3-25c3.5,0,4.3,1.2,5.5,7.7l3.2,17.3H237.6L237.6,113z M219.9,63.3c4.3,0,6.4,0.8,6.5,3.8
			c0,4.3-2.2,8.5-9,8.5h-4.6l2.6-12.3H219.9L219.9,63.3z"/>
		<path d="M165.1,30.2c0-5.7,4.6-10.2,10.2-10.2c5.7,0,10.2,4.6,10.2,10.2c0,5.7-4.6,10.2-10.2,10.2
			C169.7,40.4,165.1,35.8,165.1,30.2L165.1,30.2z"/>
	</g>
	<g>
		<path class="st1" d="M86.6,160.3c0,1.1-0.5,1.9-1.2,2.5c-0.6,0.5-1.3,0.7-2.5,0.7H80l1.1-5.3h2.7
			C85.9,158.2,86.6,158.9,86.6,160.3z M90.2,159.7c0-2.6-1.8-4.3-5.5-4.3h-6.1L74.3,175h6.3c3.3,0,4.8-0.5,6.3-1.9
			c1.4-1.3,2.1-3.1,2.1-4.6c0-2-1.1-3.6-3.1-4C88.8,163.8,90.2,161.8,90.2,159.7z M85.4,168.6c0,1.2-0.7,2.4-1.5,3
			c-0.7,0.5-1.5,0.8-2.7,0.8h-3.1l1.3-6.2h2.9C84.7,166.2,85.4,167,85.4,168.6z"/>
		<path class="st1" d="M102.4,163.1l-1.5,7c-0.7,1.5-2.1,2.8-3.4,2.8c-1.1,0-1.6-0.6-1.6-2.2c0-2,0.6-4.8,1.9-6.3
			c1.1-1.3,2-1.6,3.3-1.6C101.5,162.8,102.1,162.9,102.4,163.1z M105.9,161.4c-1.1-0.7-2.8-1.1-4.5-1.1c-2.3,0-4.2,0.8-5.7,2.3
			c-1.8,1.9-3,5-3,8.2c0,3.1,1.5,4.6,3.8,4.6c1.8,0,3.3-0.8,4.3-2.2c0,0.9,0.3,1.7,1.1,2.4l2.6-1.9c-0.7-0.8-0.9-1.5-0.5-3.2
			l1.2-5.7C105.2,163.7,105.6,162.2,105.9,161.4z"/>
		<path class="st1" d="M115.7,174.2c-1.6,3-2.7,4.7-4.1,5.7c-0.9,0.7-2.1,1.1-3.4,1.3l-0.7-2.1c0.9-0.1,1.9-0.6,2.5-1.1
			c0.9-0.7,1.4-1.4,2.2-3l-1,0.1c0-1-0.2-3.2-0.3-4.5l-1.3-9.7l3.2-0.5l0.8,8.7c0.1,1.1,0.1,2.6,0.1,3.2h0c0.3-0.7,1-2.3,1.8-3.8
			l4.1-8h3.4L115.7,174.2z"/>
		<path class="st1" d="M133.6,164.4c0,0.6-0.2,1.1-0.6,1.4c-0.7,0.7-1.9,0.9-3.6,0.9c-0.5,0-1.1-0.1-1.2-0.1c0.6-2.7,2-4,3.7-4
			C133.1,162.7,133.6,163.4,133.6,164.4z M136.7,164.2c0-2.6-1.8-3.8-4.5-3.8c-1.8,0-3.4,0.6-4.9,2c-2,1.9-3.2,5-3.2,7.9
			c0,3.4,2,5.3,5.1,5.3c2.4,0,4.1-0.7,5.9-2l-1-1.9c-1.3,1.1-2.6,1.6-4.1,1.6c-1.6,0-2.6-0.9-2.6-2.6c0-0.5,0.1-1.2,0.2-1.5
			c0.3,0,0.9,0.1,1.7,0.1c3,0,4.9-0.7,6.1-1.8C136.3,166.3,136.7,165.3,136.7,164.2z"/>
		<path class="st1" d="M149.1,163.5c-0.3-0.2-0.6-0.2-1-0.2c-1,0-2.1,0.8-3.4,2.5l-2,9.2h-3.1l2-9.6c0.4-2,0.4-3,0.1-4l2.9-1.2
			c0.3,0.7,0.4,1.8,0.2,2.8c1.3-1.6,2.9-2.7,4.3-2.7c0.5,0,0.8,0.1,1.2,0.2L149.1,163.5z"/>
		<path class="st1" d="M156.5,158.6c-1.1,0-2.1-0.9-2.1-2.1c0-1.2,0.9-2.1,2.1-2.1c1.1,0,2,0.9,2,2.1
			C158.5,157.7,157.6,158.6,156.5,158.6z M154.1,175h-3.2l3-14.2l3.3-0.5L154.1,175z"/>
		<path class="st1" d="M170.8,163.6c-1.2-0.7-2.3-1-3.4-1c-1.5,0-2.6,0.6-2.6,1.8c0,0.8,0.4,1.3,1.5,1.7l1.7,0.7
			c1.8,0.7,2.9,1.7,2.9,3.4c0,3-2.4,5.4-6.7,5.4c-2,0-3.8-0.6-5.3-1.5l1.2-2.3c1.2,0.8,2.9,1.4,4.5,1.4c1.6,0,2.8-0.9,2.8-2.1
			c0-0.9-0.5-1.4-1.8-1.9l-1.6-0.6c-1.7-0.7-2.7-1.6-2.7-3.4c0-2.5,2.1-4.9,6.3-4.9c1.7,0,3.4,0.5,4.5,1.2L170.8,163.6z"/>
		<path class="st1" d="M185,163.9c-0.7-0.7-1.6-1.1-2.5-1.1c-0.9,0-1.7,0.4-2.3,1.2c-1,1.2-2,4.3-2,6.5c0,1.7,0.8,2.6,2.1,2.6
			c1.1,0,2.2-0.6,3.3-1.5l1.1,2c-1.6,1.3-3.1,1.9-5.1,1.9c-3.2,0-4.8-1.8-4.8-4.9c0-3.4,1.7-6.9,3.7-8.5c1.3-1.1,2.7-1.7,4.5-1.7
			c1.4,0,2.7,0.5,3.7,1.5L185,163.9z"/>
		<path class="st1" d="M202.1,164.9L200,175h-3.1l2-9.7c0.1-0.5,0.2-0.9,0.2-1.2c0-0.8-0.5-1.2-1.3-1.2c-1.2,0-3,1.2-4.2,2.7l-2,9.4
			h-3.1l3.4-15.8c0.5-2.1,0.5-3.3,0.3-4.2l3.2-1.1c0.3,0.9,0.2,2.9-0.2,4.7l-0.4,2c-0.1,0.5-0.4,1.6-0.6,2.2
			c1.4-1.6,3.4-2.5,5.1-2.5c2.1,0,3.2,1.1,3.2,2.8C202.4,163.6,202.3,164.1,202.1,164.9z"/>
		<path class="st1" d="M215.4,164.4c0,0.6-0.2,1.1-0.6,1.4c-0.7,0.7-1.9,0.9-3.6,0.9c-0.5,0-1.1-0.1-1.2-0.1c0.6-2.7,2-4,3.7-4
			C214.9,162.7,215.4,163.4,215.4,164.4z M218.6,164.2c0-2.6-1.8-3.8-4.5-3.8c-1.8,0-3.4,0.6-4.9,2c-2,1.9-3.2,5-3.2,7.9
			c0,3.4,2,5.3,5.1,5.3c2.4,0,4.1-0.7,5.9-2l-1-1.9c-1.3,1.1-2.6,1.6-4.1,1.6c-1.6,0-2.6-0.9-2.6-2.6c0-0.5,0.1-1.2,0.2-1.5
			c0.3,0,0.9,0.1,1.7,0.1c3,0,4.9-0.7,6.1-1.8C218.1,166.3,218.6,165.3,218.6,164.2z"/>
		<path class="st1" d="M231,163.5c-0.3-0.2-0.6-0.2-1-0.2c-1,0-2.1,0.8-3.4,2.5l-2,9.2h-3.1l2-9.6c0.4-2,0.4-3,0.1-4l2.9-1.2
			c0.3,0.7,0.4,1.8,0.2,2.8c1.3-1.6,2.9-2.7,4.3-2.7c0.5,0,0.8,0.1,1.2,0.2L231,163.5z"/>
	</g>
	<g>
		<path class="st1" d="M72.1,202.1c-0.7,3.3-1.4,6.1-6.3,7.9l-1.1-1.8c2.6-1.4,3.3-2.3,4-5.8l3.4-16.3h3.4L72.1,202.1z"/>
		<path class="st1" d="M89.1,201.7c-0.3,1.5-0.2,2.4,0.3,3.2l-2.6,1.4c-0.5-0.6-0.9-1.4-0.9-2.5c-1.4,1.5-3,2.4-4.7,2.4
			c-2.1,0-3.3-1-3.3-2.9c0-0.6,0.1-1.4,0.3-2.2l2-9.4l3.2-0.6l-2,9.4c-0.2,0.7-0.3,1.5-0.3,1.9c0,0.9,0.4,1.4,1.1,1.4
			c1.3,0,3-1.2,4-2.8l2-9.2l3.2-0.6L89.1,201.7z"/>
		<path class="st1" d="M104.7,193.9l-1.5,7.1c-0.9,1.5-2.3,2.6-3.6,2.6c-1.2,0-1.9-0.8-1.9-2.5c0-1.9,0.9-4.8,2.1-6.2
			c0.7-0.9,2-1.3,3-1.3C103.6,193.5,104.2,193.7,104.7,193.9z M108.3,192.1c-1.6-0.8-3-1.1-5.3-1.1c-2.1,0-3.9,0.8-5.4,2.1
			c-2,1.8-3.2,5.1-3.2,8.1c0,3.2,1.4,4.9,4.2,4.9c1.5,0,2.8-0.5,4-1.7c-0.1,0.3-0.4,1.8-0.5,2.1c-0.5,2-1.8,2.9-4.2,2.9
			c-1.6,0-3-0.3-4.2-1.1l-1.1,2.2c1.5,0.9,3.2,1.3,5,1.3c3.7,0,6.7-1.3,7.6-5.3c0.3-1.1,0.5-2.7,0.9-4.9l1.5-7
			C107.9,193.6,108.2,192.4,108.3,192.1z"/>
		<path class="st1" d="M121.1,195.1c0,0.6-0.2,1.1-0.6,1.4c-0.7,0.7-1.9,0.9-3.6,0.9c-0.5,0-1.1-0.1-1.3-0.1c0.6-2.7,2-4,3.7-4
			C120.7,193.3,121.1,194.1,121.1,195.1z M124.3,194.9c0-2.6-1.8-3.8-4.5-3.8c-1.8,0-3.4,0.6-4.9,2c-2,1.9-3.2,5-3.2,7.9
			c0,3.4,2,5.3,5.1,5.3c2.4,0,4.1-0.7,5.9-2l-1-1.9c-1.3,1.1-2.6,1.6-4.1,1.6c-1.6,0-2.6-0.9-2.6-2.6c0-0.5,0.1-1.2,0.2-1.5
			c0.3,0,0.9,0.1,1.7,0.1c3,0,4.9-0.7,6.1-1.8C123.8,197,124.3,196,124.3,194.9z"/>
		<path class="st1" d="M140.5,195.5l-2.2,10.3h-3.1l2-9.5c0.1-0.6,0.2-1.1,0.2-1.4c0-0.8-0.4-1.1-1.1-1.1c-1,0-2.4,0.7-4,2.7l-2,9.4
			h-3.1l2.1-9.9c0.3-1.7,0.4-2.6,0.1-3.7l2.9-1.2c0.3,0.7,0.5,1.7,0.3,2.7c1.4-1.6,3.2-2.6,5.2-2.6c1.8,0,2.9,1.1,2.9,2.8
			C140.6,194.4,140.6,195,140.5,195.5z"/>
		<path class="st1" d="M154.7,194.2l-1.5,6.7c-0.9,1.5-2.4,2.6-3.6,2.6c-1.2,0-1.7-0.8-1.7-2.4c0-2,0.8-4.7,2-6.2
			c0.7-0.9,1.7-1.3,2.6-1.3C153.5,193.7,154.1,193.8,154.7,194.2z M159.7,185.3l-3-0.5l-1,4.8c-0.1,0.5-0.4,1.8-0.4,1.9
			c-0.5-0.3-1.5-0.5-2.8-0.5c-1.6,0-3.4,0.7-4.8,2c-2,2-3.2,5.1-3.2,7.9c0,3.2,1.4,4.9,4.2,4.9c1.6,0,3.1-0.7,4.2-2.1
			c-0.1,0.9,0.2,1.6,0.5,2.1l2.7-0.6c-0.4-0.7-0.5-1.6,0.1-4.6L159.7,185.3z"/>
		<path class="st1" d="M170.9,194.2c-0.3-0.2-0.6-0.2-1-0.2c-1,0-2.1,0.8-3.4,2.5l-2,9.2h-3.1l2-9.6c0.4-2,0.4-3,0.1-4l2.9-1.2
			c0.3,0.7,0.4,1.8,0.2,2.8c1.3-1.6,2.9-2.7,4.3-2.7c0.5,0,0.8,0.1,1.2,0.2L170.9,194.2z"/>
		<path class="st1" d="M178.2,189.3c-1.1,0-2.1-0.9-2.1-2.1c0-1.2,0.9-2.1,2.1-2.1c1.1,0,2,0.9,2,2.1
			C180.3,188.3,179.4,189.3,178.2,189.3z M175.8,205.7h-3.2l3-14.2l3.3-0.5L175.8,205.7z"/>
		<path class="st1" d="M194.9,195.5l-2.2,10.3h-3.1l2-9.5c0.1-0.6,0.2-1.1,0.2-1.4c0-0.8-0.4-1.1-1.1-1.1c-1,0-2.4,0.7-4,2.7l-2,9.4
			h-3.1l2.1-9.9c0.3-1.7,0.4-2.6,0.1-3.7l2.9-1.2c0.3,0.7,0.5,1.7,0.3,2.7c1.4-1.6,3.2-2.6,5.2-2.6c1.8,0,2.9,1.1,2.9,2.8
			C195,194.4,195,195,194.9,195.5z"/>
		<path class="st1" d="M209.2,193.9l-1.5,7.1c-0.9,1.5-2.3,2.6-3.6,2.6c-1.2,0-1.9-0.8-1.9-2.5c0-1.9,0.9-4.8,2.1-6.2
			c0.7-0.9,2-1.3,3-1.3C208.1,193.5,208.7,193.7,209.2,193.9z M212.8,192.1c-1.6-0.8-3-1.1-5.3-1.1c-2.1,0-3.9,0.8-5.4,2.1
			c-2,1.8-3.2,5.1-3.2,8.1c0,3.2,1.4,4.9,4.2,4.9c1.5,0,2.8-0.5,4-1.7c-0.1,0.3-0.4,1.8-0.5,2.1c-0.5,2-1.8,2.9-4.2,2.9
			c-1.6,0-3-0.3-4.2-1.1l-1.1,2.2c1.5,0.9,3.2,1.3,5,1.3c3.7,0,6.7-1.3,7.6-5.3c0.3-1.1,0.5-2.7,0.9-4.9l1.5-7
			C212.3,193.6,212.7,192.4,212.8,192.1z"/>
	</g>
</g>
</svg>
