<?xml version="1.0" encoding="UTF-8" standalone="no"?>
<svg width="312px" height="40px" viewBox="0 0 312 40" version="1.1" xmlns="http://www.w3.org/2000/svg" xmlns:xlink="http://www.w3.org/1999/xlink" xmlns:sketch="http://www.bohemiancoding.com/sketch/ns">
    <title>Wahl-O-Mat</title>
    <g id="01_Start" stroke="none" stroke-width="1" fill="none" fill-rule="evenodd" sketch:type="MSPage">
        <g id="01_Start_TabletPortrait-Copy" sketch:type="MSArtboardGroup" transform="translate(-283.000000, -320.000000)" fill="#FFFFFF">
            <g id="Kasten-Copy" sketch:type="MSLayerGroup" transform="translate(224.000000, 261.000000)">
                <path d="M107.932,60.872 L99.924,60.872 L93.84,86.456 L93.736,86.456 L87.392,60.872 L79.748,60.872 L73.3,86.144 L73.196,86.144 L67.32,60.872 L59.156,60.872 L68.984,98 L77.252,98 L83.44,72.728 L83.544,72.728 L89.836,98 L97.948,98 L107.932,60.872 Z M116.768,79.384 C117.028,76.472 118.796,75.328 121.656,75.328 C124.256,75.328 126.44,75.848 126.44,78.968 C126.752,85 108.656,78.448 108.552,90.668 C108.552,96.18 112.556,98.728 117.704,98.728 C121.032,98.728 124.412,97.844 126.752,95.4 C126.804,96.284 127.012,97.168 127.272,98 L134.76,98 C134.084,96.908 133.824,94.464 133.824,92.02 L133.824,78.032 C133.824,71.584 127.376,70.388 122.02,70.388 C115.988,70.388 109.8,72.52 109.384,79.384 L116.768,79.384 Z M126.44,87.6 C126.44,89.264 126.232,93.788 120.46,93.788 C118.068,93.788 115.936,93.06 115.936,90.356 C115.936,87.652 118.016,86.82 120.304,86.404 C122.592,85.988 125.192,85.936 126.44,84.844 L126.44,87.6 Z M138.344,98 L145.728,98 L145.728,83.908 C145.728,78.448 147.444,76.212 151.448,76.212 C154.932,76.212 156.18,78.396 156.18,82.816 L156.18,98 L163.564,98 L163.564,81.464 C163.564,74.808 161.588,70.388 153.736,70.388 C150.98,70.388 147.756,71.792 145.884,74.86 L145.728,74.86 L145.728,60.872 L138.344,60.872 L138.344,98 Z M168.188,98 L175.572,98 L175.572,60.872 L168.188,60.872 L168.188,98 Z M180.144,86.976 L195.796,86.976 L195.796,80.632 L180.144,80.632 L180.144,86.976 Z M207.492,79.592 C207.492,73.092 210.248,66.852 217.58,66.852 C224.912,66.852 227.668,73.092 227.668,79.592 C227.668,85.78 224.912,92.02 217.58,92.02 C210.248,92.02 207.492,85.78 207.492,79.592 L207.492,79.592 Z M199.328,79.592 C199.328,90.304 206.14,98.884 217.58,98.884 C229.02,98.884 235.832,90.304 235.832,79.592 C235.832,68.568 229.02,59.988 217.58,59.988 C206.14,59.988 199.328,68.568 199.328,79.592 L199.328,79.592 Z M239.364,86.976 L255.016,86.976 L255.016,80.632 L239.364,80.632 L239.364,86.976 Z M260.16,98 L267.804,98 L267.804,71.948 L267.908,71.948 L277.008,98 L283.3,98 L292.4,71.688 L292.504,71.688 L292.504,98 L300.148,98 L300.148,60.872 L288.656,60.872 L280.44,86.404 L280.336,86.404 L271.652,60.872 L260.16,60.872 L260.16,98 Z M312.416,79.384 C312.676,76.472 314.444,75.328 317.304,75.328 C319.904,75.328 322.088,75.848 322.088,78.968 C322.4,85 304.304,78.448 304.2,90.668 C304.2,96.18 308.204,98.728 313.352,98.728 C316.68,98.728 320.06,97.844 322.4,95.4 C322.452,96.284 322.66,97.168 322.92,98 L330.408,98 C329.732,96.908 329.472,94.464 329.472,92.02 L329.472,78.032 C329.472,71.584 323.024,70.388 317.668,70.388 C311.636,70.388 305.448,72.52 305.032,79.384 L312.416,79.384 Z M322.088,87.6 C322.088,89.264 321.88,93.788 316.108,93.788 C313.716,93.788 311.584,93.06 311.584,90.356 C311.584,87.652 313.664,86.82 315.952,86.404 C318.24,85.988 320.84,85.936 322.088,84.844 L322.088,87.6 Z M343.352,63.056 L335.968,63.056 L335.968,71.116 L331.496,71.116 L331.496,76.056 L335.968,76.056 L335.968,91.916 C335.968,97.324 339.868,98.312 344.444,98.312 C345.9,98.312 347.512,98.26 348.76,98.052 L348.76,92.28 C348.084,92.436 347.304,92.488 346.472,92.488 C343.976,92.488 343.352,91.864 343.352,89.368 L343.352,76.056 L348.76,76.056 L348.76,71.116 L343.352,71.116 L343.352,63.056 Z M361.68,64.108 L363.08,64.108 C363.84,64.108 364.8,64.268 364.8,65.148 C364.8,66.168 364.12,66.308 363.16,66.308 L361.68,66.308 L361.68,64.108 Z M360.02,71.188 L361.68,71.188 L361.68,67.608 L362.72,67.608 L364.76,71.188 L366.5,71.188 L364.26,67.528 C365.48,67.428 366.46,66.828 366.46,65.288 C366.46,63.468 365.28,62.808 363.18,62.808 L360.02,62.808 L360.02,71.188 Z M357.36,67.008 C357.36,63.608 359.86,61.148 363,61.148 C366.1,61.148 368.64,63.608 368.64,67.008 C368.64,70.428 366.1,72.908 363,72.908 C359.86,72.908 357.36,70.428 357.36,67.008 L357.36,67.008 Z M355.32,67.008 C355.32,71.568 358.94,74.508 363,74.508 C367.06,74.508 370.68,71.568 370.68,67.008 C370.68,62.468 367.06,59.548 363,59.548 C358.94,59.548 355.32,62.468 355.32,67.008 L355.32,67.008 Z" id="Wahl-O-Mat" sketch:type="MSShapeGroup"></path>
            </g>
        </g>
    </g>
</svg>