<?xml version="1.0" encoding="utf-8"?>
<!-- Generator: Adobe Illustrator 21.1.0, SVG Export Plug-In . SVG Version: 6.00 Build 0)  -->
<svg version="1.1" id="Ebene_1" xmlns="http://www.w3.org/2000/svg" xmlns:xlink="http://www.w3.org/1999/xlink" x="0px" y="0px"
	 viewBox="0 0 256 256" style="enable-background:new 0 0 256 256;" xml:space="preserve">
<style type="text/css">
	.st0{fill:#1A171B;}
</style>
<g>
	<polygon class="st0" points="0,240.5 89.2,240.5 89.2,232.7 7.8,232.7 7.8,11.6 170.7,11.6 170.7,73.7 178.4,73.7 178.4,3.9 0,3.9 
			"/>
	<rect x="34.9" y="50.4" class="st0" width="108.6" height="7.8"/>
	<rect x="34.9" y="81.5" class="st0" width="85.3" height="7.8"/>
	<rect x="34.9" y="112.5" class="st0" width="54.3" height="7.8"/>
	<path class="st0" d="M104,141.6H58.2v62.2H104l45.4,45.4h29.1V98h-30.9L104,141.6z M170.7,105.8v135.6h-18.1L107.2,196H65.9v-46.7
		h41.3l43.5-43.5H170.7z"/>
	<path class="st0" d="M217.9,95.7l-3.5,7.1c20.7,17.1,33.9,42.9,33.9,71.8c0,27.9-12.4,53-31.9,70c-0.3,0.3-0.6,0.5-0.9,0.8l1.7,2.9
		l2.3,3.9c22.3-18.5,36.5-46.4,36.5-77.6C256,142.6,241.1,114.2,217.9,95.7z"/>
	<path class="st0" d="M202.4,126.7l-3.7,7.4c9.9,10.6,16,24.8,16,40.5c0,10.6-2.8,20.6-7.7,29.2c-2.5,4.4-5.6,8.5-9.1,12.2l4.1,6.8
		c2.7-2.6,5.2-5.5,7.4-8.6c8.2-11.1,13.1-24.8,13.1-39.7C222.4,155.8,214.7,138.9,202.4,126.7z"/>
</g>
</svg>
