<?xml version="1.0" encoding="utf-8"?>
<!-- Generator: Adobe Illustrator 20.1.0, SVG Export Plug-In . SVG Version: 6.00 Build 0)  -->
<svg version="1.1" id="Ebene_1" xmlns="http://www.w3.org/2000/svg" xmlns:xlink="http://www.w3.org/1999/xlink" x="0px" y="0px"
	 width="192px" height="95px" viewBox="0 0 191.4 94.7" style="enable-background:new 0 0 191.4 94.7;">
<style type="text/css">
	.st0{fill:#010202;}
	.st1{fill:#FFFFFF;}
</style>
<g>
	<g>
		<path class="st0" d="M66.2,52v-7.1h0.9v6.3h3.1V52H66.2z"/>
		<path class="st0" d="M76.8,52l-1-2.6h-2.6l-1,2.6h-0.9l2.9-7.1h0.8l2.9,7.1H76.8z M74.5,46l-1,2.5h2L74.5,46z"/>
		<path class="st0" d="M84,52l-4-5.5V52h-0.8v-7.1H80l4,5.6v-5.6h0.8V52H84z"/>
		<path class="st0" d="M87,44.9c0,0,1.5,0,2.3,0c1.5,0,2.5,0.3,3.2,1.1c0.5,0.6,0.8,1.4,0.8,2.4c0,1.1-0.3,2-0.9,2.7
			c-0.7,0.7-1.6,1-3,1C88.5,52,87,52,87,52V44.9z M87.9,51.2c0,0,0.7,0.1,1.6,0.1c1.8,0,2.9-1,2.9-2.8c0-0.8-0.2-1.5-0.6-1.9
			c-0.6-0.7-1.4-0.9-2.5-0.9c-0.8,0-1.4,0-1.4,0V51.2z"/>
		<path class="st0" d="M95.3,52v-7.1h3.9v0.8h-3v2.2h2.9v0.8h-2.9v2.3h3.3V52H95.3z"/>
		<path class="st0" d="M104.7,46c0,0-0.8-0.4-1.8-0.4c-0.8,0-1.3,0.3-1.3,1c0,0.7,0.8,1,1.6,1.4c0.9,0.4,1.9,0.8,1.9,2.1
			s-1.1,2-2.5,2c-1.2,0-1.9-0.5-1.9-0.5v-0.9c0,0,0.8,0.6,1.9,0.6c0.9,0,1.7-0.3,1.7-1.1c0-0.9-0.9-1.1-1.7-1.5
			c-0.8-0.3-1.8-0.8-1.8-2s0.9-1.8,2.1-1.8c1.3,0,1.8,0.4,1.8,0.4V46z"/>
		<path class="st0" d="M107.1,44.9c0,0,1.1,0,1.8,0c1.4,0,2.3,0.6,2.3,1.6c0,1.3-1,1.6-1,1.6s1.5,0.2,1.5,1.8c0,1.3-0.9,2.1-2.5,2.1
			c-0.5,0-2,0-2,0V44.9z M108,47.8c0,0,0.3,0,0.8,0c1,0,1.4-0.6,1.4-1.2c0-0.8-0.5-1.1-1.5-1.1c-0.3,0-0.7,0-0.7,0V47.8z M108,51.2
			c0,0,0.6,0.1,1.1,0.1c0.9,0,1.6-0.3,1.6-1.3c0-1-0.8-1.4-2-1.4c-0.3,0-0.7,0-0.7,0V51.2z"/>
		<path class="st0" d="M113.7,52v-7.1h3.9v0.8h-3v2.2h2.9v0.8h-2.9v2.3h3.3V52H113.7z"/>
		<path class="st0" d="M124.5,52l-1-2.6h-2.6l-1,2.6h-0.9l2.9-7.1h0.8l2.9,7.1H124.5z M122.2,46l-1,2.5h2L122.2,46z"/>
		<path class="st0" d="M132.9,44.9c0,0,0,2.2,0,3c0,0.5,0,1.3,0,1.7c-0.1,2-1.4,2.6-2.9,2.6c-1.5,0-2.8-0.6-2.9-2.3
			c0-0.4,0-1.2,0-2.1c0-1,0-2.8,0-2.8h0.9c0,0,0,1.7,0,2.5c0,0.6,0,1.4,0,2.1c0,1.2,0.7,1.8,2,1.8c1.3,0,2-0.5,2-1.9
			c0-0.2,0-0.8,0-1.5c0-1.5,0-2.9,0-2.9H132.9z"/>
		<path class="st0" d="M136.1,45.7v2.4h2.8V49h-2.8v3h-0.9v-7.1h3.8v0.8H136.1z"/>
		<path class="st0" d="M143.2,45.7V52h-0.9v-6.3h-2.5v-0.8h5.9v0.8H143.2z"/>
		<path class="st0" d="M153,52c0,0-0.2,0-0.4,0c-0.8,0-1.3-0.4-2-1.2c-0.6-0.7-1.2-1.6-1.2-1.6s-0.1,0-0.2,0c-0.3,0-1.2,0-1.2,0V52
			h-0.9v-7.1c0,0,1.3,0,2,0c1,0,1.6,0.2,2,0.7c0.3,0.4,0.5,0.8,0.5,1.4c0,1.1-0.7,1.8-1.4,2c0.2,0.3,0.6,0.8,1,1.2
			c0.9,0.9,1.2,1.1,1.6,1.1c0.1,0,0.2,0,0.2,0V52z M148,48.4c0,0,0.7,0,1,0c0.6,0,0.9-0.1,1.2-0.4c0.2-0.2,0.4-0.6,0.4-1.1
			c0-0.4-0.1-0.8-0.4-1c-0.3-0.3-0.8-0.4-1.4-0.4c-0.4,0-0.9,0-0.9,0V48.4z"/>
		<path class="st0" d="M159.3,52l-1-2.6h-2.6l-1,2.6h-0.9l2.9-7.1h0.8l2.9,7.1H159.3z M157,46l-1,2.5h2L157,46z"/>
		<path class="st0" d="M167.1,51.8c-0.6,0.1-1.1,0.3-2.2,0.3c-2.1,0-3.8-1.2-3.8-3.7c0-1.5,0.6-2.4,1.4-3c0.7-0.5,1.5-0.6,2.5-0.6
			c1.4,0,2.2,0.4,2.2,0.4V46c0,0-1-0.4-2.2-0.4c-1,0-1.7,0.2-2.3,0.7c-0.4,0.4-0.7,1.1-0.7,1.9c0,2.1,1.2,3,3,3
			c0.7,0,1.2-0.1,1.2-0.1v-2.2h0.9V51.8z"/>
		<path class="st0" d="M171.8,45.7V52h-0.9v-6.3h-2.5v-0.8h5.9v0.8H171.8z"/>
		<path class="st0" d="M175.8,52v-7.1h3.9v0.8h-3v2.2h2.9v0.8h-2.9v2.3h3.3V52H175.8z"/>
		<path class="st0" d="M187.5,52c0,0-0.2,0-0.4,0c-0.8,0-1.3-0.4-2-1.2c-0.6-0.7-1.2-1.6-1.2-1.6s-0.1,0-0.2,0c-0.3,0-1.2,0-1.2,0
			V52h-0.9v-7.1c0,0,1.3,0,2,0c1,0,1.6,0.2,2,0.7c0.3,0.4,0.5,0.8,0.5,1.4c0,1.1-0.7,1.8-1.4,2c0.2,0.3,0.6,0.8,1,1.2
			c0.9,0.9,1.2,1.1,1.6,1.1c0.1,0,0.2,0,0.2,0V52z M182.5,48.4c0,0,0.7,0,1,0c0.6,0,0.9-0.1,1.2-0.4c0.2-0.2,0.4-0.6,0.4-1.1
			c0-0.4-0.1-0.8-0.4-1c-0.3-0.3-0.8-0.4-1.4-0.4c-0.4,0-0.9,0-0.9,0V48.4z"/>
		<path class="st0" d="M67.1,56.9v2.4h2.8v0.8h-2.8v3h-0.9v-7.1H70v0.8H67.1z"/>
		<path class="st0" d="M77.2,56.1c0,0,0,2.2,0,3c0,0.5,0,1.3,0,1.7c-0.1,2-1.4,2.6-2.9,2.6c-1.5,0-2.8-0.6-2.9-2.3
			c0-0.4,0-1.2,0-2.1c0-1,0-2.8,0-2.8h0.9c0,0,0,1.7,0,2.5c0,0.6,0,1.4,0,2.1c0,1.2,0.7,1.8,2,1.8c1.3,0,2-0.5,2-1.9
			c0-0.2,0-0.8,0-1.5c0-1.5,0-2.9,0-2.9H77.2z M73.4,55.5c-0.3,0-0.5-0.2-0.5-0.5c0-0.3,0.2-0.5,0.5-0.5c0.3,0,0.5,0.2,0.5,0.5
			C73.9,55.3,73.7,55.5,73.4,55.5z M75.5,55.5c-0.3,0-0.5-0.2-0.5-0.5c0-0.3,0.2-0.5,0.5-0.5c0.3,0,0.5,0.2,0.5,0.5
			C76,55.3,75.8,55.5,75.5,55.5z"/>
		<path class="st0" d="M85.4,63.2c0,0-0.2,0-0.4,0c-0.8,0-1.3-0.4-2-1.2c-0.6-0.7-1.2-1.6-1.2-1.6s-0.1,0-0.2,0c-0.3,0-1.2,0-1.2,0
			v2.8h-0.9v-7.1c0,0,1.3,0,2,0c1,0,1.6,0.3,2,0.7c0.3,0.4,0.5,0.8,0.5,1.4c0,1.1-0.7,1.8-1.4,2c0.2,0.3,0.6,0.8,1,1.2
			c0.9,0.9,1.2,1.1,1.6,1.1c0.1,0,0.2,0,0.2,0V63.2z M80.4,59.6c0,0,0.7,0,1,0c0.6,0,0.9-0.1,1.2-0.4c0.2-0.2,0.4-0.6,0.4-1.1
			c0-0.4-0.1-0.8-0.4-1c-0.3-0.3-0.8-0.4-1.4-0.4c-0.4,0-0.9,0-0.9,0V59.6z"/>
		<path class="st0" d="M89.3,56.1c0,0,1.1,0,1.8,0c1,0,1.6,0.3,2,0.7c0.3,0.4,0.5,0.8,0.5,1.4c0,1.5-1.1,2.2-2.3,2.2
			c-0.5,0-0.9-0.1-0.9-0.1v-0.8c0,0,0.3,0.1,0.7,0.1c0.8,0,1.5-0.4,1.5-1.4c0-0.4-0.1-0.8-0.4-1c-0.3-0.3-0.7-0.4-1.4-0.4
			c-0.4,0-0.7,0-0.7,0v6.4h-0.9V56.1z"/>
		<path class="st0" d="M98.6,63.3c-2.2,0-3.5-1.5-3.5-3.7c0-2.3,1.5-3.7,3.7-3.7c2.3,0,3.5,1.6,3.5,3.7
			C102.2,61.8,100.8,63.3,98.6,63.3z M98.6,56.7c-1.8,0-2.7,1.2-2.7,2.8c0,1.6,0.9,2.9,2.6,2.9c1.8,0,2.7-1.3,2.7-2.9
			C101.2,58,100.3,56.7,98.6,56.7z"/>
		<path class="st0" d="M104.2,63.2v-7.1h0.9v6.3h3.1v0.9H104.2z"/>
		<path class="st0" d="M110,63.2v-7.1h0.9v7.1H110z"/>
		<path class="st0" d="M115.8,56.9v6.3h-0.9v-6.3h-2.5v-0.8h5.9v0.8H115.8z"/>
		<path class="st0" d="M119.9,63.2v-7.1h0.9v7.1H119.9z"/>
		<path class="st0" d="M126.8,57.2c0,0-0.8-0.4-1.8-0.4c-0.8,0-1.3,0.3-1.3,1c0,0.7,0.8,1,1.6,1.4c0.9,0.4,1.9,0.8,1.9,2.1
			s-1.1,2-2.5,2c-1.2,0-1.9-0.5-1.9-0.5v-0.9c0,0,0.8,0.6,1.9,0.6c0.9,0,1.7-0.3,1.7-1.1c0-0.9-0.9-1.1-1.7-1.5
			c-0.8-0.3-1.8-0.8-1.8-2c0-1.2,0.9-1.8,2.1-1.8c1.3,0,1.8,0.4,1.8,0.4V57.2z"/>
		<path class="st0" d="M134.7,62.9c0,0-0.8,0.3-2.1,0.3c-2.4,0-3.8-1.6-3.8-3.7c0-2.3,1.3-3.6,3.7-3.6c1.5,0,2.1,0.3,2.1,0.3v0.9
			c0,0-0.7-0.4-2.1-0.4c-1.5,0-2.8,0.7-2.8,2.7c0,2,1.4,2.9,3,2.9c1.2,0,1.9-0.3,1.9-0.3L134.7,62.9z"/>
		<path class="st0" d="M141.3,63.2v-3.3h-3.8v3.3h-0.9v-7.1h0.9v3h3.8v-3h0.9v7.1H141.3z"/>
		<path class="st0" d="M144.6,63.2v-7.1h3.9v0.8h-3v2.2h2.9V60h-2.9v2.3h3.3v0.8H144.6z"/>
		<path class="st0" d="M66.2,67.3c0,0,1.1,0,1.8,0c1.4,0,2.3,0.6,2.3,1.6c0,1.3-1,1.6-1,1.6s1.5,0.2,1.5,1.8c0,1.3-0.9,2.1-2.5,2.1
			c-0.5,0-2,0-2,0V67.3z M67.1,70.2c0,0,0.3,0,0.8,0c1,0,1.4-0.6,1.4-1.2c0-0.8-0.5-1.1-1.5-1.1c-0.3,0-0.7,0-0.7,0V70.2z
			 M67.1,73.6c0,0,0.6,0.1,1.1,0.1c0.9,0,1.6-0.3,1.6-1.3c0-1-0.8-1.4-2-1.4c-0.3,0-0.7,0-0.7,0V73.6z"/>
		<path class="st0" d="M72.8,74.4v-7.1h0.9v7.1H72.8z"/>
		<path class="st0" d="M76.1,74.4v-7.1H77v6.3h3.1v0.9H76.1z"/>
		<path class="st0" d="M81.8,67.3c0,0,1.5,0,2.3,0c1.5,0,2.5,0.3,3.2,1.1c0.5,0.6,0.8,1.4,0.8,2.4c0,1.1-0.3,2-0.9,2.7
			c-0.7,0.7-1.6,1-3,1c-0.9,0-2.4-0.1-2.4-0.1V67.3z M82.7,73.6c0,0,0.7,0.1,1.6,0.1c1.8,0,2.9-1,2.9-2.8c0-0.8-0.2-1.5-0.6-1.9
			C86,68.2,85.2,68,84.1,68c-0.8,0-1.4,0-1.4,0V73.6z"/>
		<path class="st0" d="M95.9,67.3c0,0,0,2.2,0,3c0,0.5,0,1.3,0,1.7c-0.1,2-1.4,2.6-2.9,2.6c-1.5,0-2.8-0.6-2.9-2.3
			c0-0.4,0-1.2,0-2.1c0-1,0-2.8,0-2.8h0.9c0,0,0,1.7,0,2.5c0,0.6,0,1.4,0,2.1c0,1.2,0.7,1.8,2,1.8c1.3,0,2-0.5,2-1.9
			c0-0.2,0-0.8,0-1.5c0-1.5,0-2.9,0-2.9H95.9z"/>
		<path class="st0" d="M103.2,74.4l-4-5.5v5.5h-0.8v-7.1h0.8l4,5.6v-5.6h0.8v7.1H103.2z"/>
		<path class="st0" d="M112.1,74.2c-0.6,0.1-1.1,0.3-2.2,0.3c-2.1,0-3.8-1.2-3.8-3.7c0-1.5,0.6-2.4,1.4-3c0.7-0.5,1.5-0.6,2.5-0.6
			c1.4,0,2.2,0.4,2.2,0.4v0.9c0,0-1-0.4-2.2-0.4c-1,0-1.7,0.2-2.3,0.7c-0.4,0.4-0.7,1.1-0.7,1.9c0,2.1,1.2,3,3,3
			c0.7,0,1.2-0.1,1.2-0.1v-2.2h0.9V74.2z"/>
	</g>
	<g>
		<rect class="st0" width="56.7" height="94.7"/>
		<g>
			<g>
				<path class="st1" d="M45.3,40.9c-0.3,0-6.3,0.9-16.9,0.9c-10.6,0-16.7-0.8-16.9-0.9l-1.1-0.2l0,0.6c0,0,0,0.1,0,0.1
					c0.1,3.1,0.3,6.4,0.4,9.4c0.2,6.9,0.4,11.7,0.4,14.3c0,6.5,0.3,8.2,1.2,9.8c0.7,1.3,2.4,3.5,6.2,4c1.4,0.2,2.5,0.3,3.3,0.4
					l0.2,0c2.8,0.3,3.7,0.3,5.6,2.4l0.3,0.3l0.2,0.2l0.1,0.1l0.1-0.1l0.2-0.2l0.3-0.3c1.9-2,2.8-2.1,5.6-2.4l0.2,0
					c0.9-0.1,2-0.2,3.3-0.4c3.8-0.5,5.5-2.7,6.2-4c0.9-1.8,1.2-3.7,1.2-9.8c0-3.3,0.2-9.6,0.4-14.3c0.1-3,0.2-6.3,0.4-9.4
					c0-0.1,0-0.1,0-0.1l0-0.6L45.3,40.9z M28.3,81.3L28.3,81.3C28.3,81.2,28.3,81.2,28.3,81.3c-2-2.2-3.6-2.5-6.4-2.8
					c-0.9-0.1-2-0.2-3.3-0.4c-3.3-0.4-4.8-2.2-5.6-3.6c-0.8-1.5-1.1-3-1.1-9.4c0-5.8-0.6-20.8-0.7-23.5l0.1,0c0.1,0,6.2,0.9,17,0.9
					h0V81.3z M40.6,56.5c0.2,0.1,3.7,2.1,3.7,2.1s-3.1,1.8-3.3,1.9c0.1,0.2,3.3,5,3.3,5s-4.2-1.3-4.5-1.3c0.2,0.3,4,8.7,4,8.7
					l-6-6.1l1.4,8.2l-2.8,2.2L34,74.7c0,0,1.8-7.3,2-7.9c-0.4,0.4-6.4,6.8-6.4,6.8s4.4-9.1,4.6-9.5c-0.4,0.1-4.6,1.6-4.6,1.6
					s3.4-5,3.5-5.1c-0.2-0.1-3.5-1.9-3.5-1.9l3.8-2l-3.8-3.4l4,0.1l-3.7-5.3V44l3.6,1.4c0,0,1.1,5.7,1.3,6.8
					c0.1-1.2,0.4-7.7,0.4-7.7s1.7,6,1.8,6.5c0.1-0.6,1.9-6.8,1.9-6.8l0.3,7.8l1.5-7.2l3.8-1.7l-0.2,4.3c0,0-3.6,5.4-3.8,5.7
					c0.4,0,4-0.4,4-0.4S40.8,56.4,40.6,56.5z"/>
			</g>
			<g>
				<path class="st1" d="M23,50.5c0,0,0,0.2,0,0.3c0.5,0,0.7,0,1,0c0.9,0,1.3-0.3,1.4-0.6c-0.2-0.1-0.4-0.2-0.4-0.2
					c0,0-0.1,0.4-1.1,0.4L23,50.5z"/>
				<path class="st1" d="M21.3,56.6c0,0-0.6-0.2-0.7-0.3c-0.2,0-0.4,0.3-0.4,0.3s-1.1-0.5-1.1-1c0-0.3,1.1-0.8-0.4-1.7
					c-0.3,0.5-0.9,0.9-0.9,0.9c1,0.7,0.4,1.1,0.2,1.3c0.6,0.3,1,0.6,1.5,0.9c-0.2,0-0.5,0.2-0.5,0.2c0,0-0.1,0.6-0.1,0.6
					s0.3-0.3,0.4-0.3c0.1-0.1,0.4-0.2,0.5-0.4c0.1,0.1,0.1,0,0.1,0.1c0,0.1,0,0.5,0,0.6c0,0,0.2,0.5,0.2,0.5s0.2-0.5,0.2-0.5
					c0-0.2-0.1-0.5-0.2-0.6c0.1,0,0,0,0.1-0.1c0.1,0.1,0.4,0.3,0.5,0.4c0,0,0.4,0.3,0.4,0.3s-0.2-0.5-0.2-0.6
					c-0.1-0.1-0.4-0.2-0.6-0.3c0-0.1,0-0.1,0-0.2c0,0,0.3-0.1,0.4-0.1C21,56.7,21.3,56.6,21.3,56.6z"/>
				<path class="st1" d="M26.5,50.7c0.1-0.1,0.1-0.1,0.1-0.2c0.1,0.1,0.4,0,0.6,0l0.5,0c0,0-0.5-0.4-0.5-0.4c-0.2,0-0.5,0.1-0.6,0.1
					c-0.1-0.1-0.1-0.1-0.1-0.2c0.1-0.1,0.3-0.4,0.4-0.5c0.1-0.1,0.3-0.5,0.3-0.5s-0.7,0.3-0.7,0.3c0,0.1-0.1,0.4-0.2,0.6
					c0,0-0.1,0-0.2,0c0,0-0.1-0.4-0.1-0.5c0-0.1-0.1-0.5-0.1-0.5l-0.3,0.6c0,0.1,0.4,0.7,0.4,0.7c-0.1,0.1-0.1,0.3-0.1,0.6
					c-0.4,0.8-0.6,1.1-1.3,1.6c0,0,0.3,0.5,0.2,1.2c1.4-0.8,1.3-2,1.4-2.5c0-0.2,0.1-0.3,0.1-0.3c0.1,0.2,0.3,0.4,0.4,0.4
					c0,0,0.7-0.1,0.7-0.1L27,51L26.5,50.7z"/>
				<path class="st1" d="M26.4,56.8c0.1,0,0.2,0,0.2,0l0.4-0.1c0,0-0.7-0.3-0.7-0.3c-0.2,0-0.3,0.2-0.4,0.3c-0.1,0-0.4-0.1-0.5-0.2
					c-0.7-0.4-2.3-1.9-2.6-2.1c0.4-0.6,0-1.4,0-1.4s0.3,0,0.5-0.1c0,0,0.4,0.7,0.2,1.3c0.1,0.1,0.4,0.1,0.5,0.2
					c0.3-0.7,0-1.4-0.1-1.6c-0.5-0.5-0.4-0.9-0.4-0.9c0.2-0.1,0.4-0.1,0.8-0.2c0.1-0.1,0.1-0.3,0.1-0.4c0,0-1,0.3-1.4,0.2
					c0,0,0,0,0,0c-0.3-0.1-0.5-0.3-0.5-0.8c0-0.5,0.3-0.7,0.6-0.7c0.2,0,0.5,0.1,0.8,0.1c0.4,0,0.8,0,0.6-0.4c0.1,0,0.2,0,0.2-0.4
					c-0.2-0.1-0.8-0.2-1.1-0.3c-0.5-0.4-1.2-0.5-1.7-0.4c-0.1-0.1-0.4-0.2-0.6-0.2c-0.2,0-0.3,0.2-0.3,0.6c0,0,0,0.2,0.1,0.4
					c-0.1,0.1-0.3,0.3-0.5,0.6c-0.4,0.6-0.5,1.4-0.5,1.7c0.2,0,0.5-0.2,0.5-0.2c0,0,0.4,0.3,0.6,0.4c0,0.3-0.3,1-0.3,1
					c0.2,0,0.5-0.3,0.5-0.3s0.2,0.2,0.4,0.3c-0.4,0.6-0.9,0.5-0.9,0.5s-0.5-0.4-0.5-0.5c0.1-0.4,0.2-0.9,0.2-0.9
					c-0.6,0.2-1.2,0.2-3.6,0.2c-0.1,0-0.3,0-0.5,0h-0.3c-1.3,0-2.2-0.3-2.6-0.7c-0.2-0.2-0.3-0.5-0.2-0.9c0.1-0.6,0.7-0.9,1.1-0.8
					c0.4,0,0.8,0.2,1.2,0.4c0.5,0.3,1.1,0.6,1.9,0.6c1.9,0,2.2-1.1,2.2-2.9h0c0.1-1.3,0.6-1.9,1.1-1.9c0.6,0,1.1,0.6,1.7,0.6
					c0.4,0,0.9-0.5,1-0.6c-0.1-0.1-0.1-0.1-0.2-0.2c-0.2,0.1-0.3,0.2-0.4,0.2c-0.7,0-1.2-0.6-2-0.6c-1.1,0-1.5,1-1.5,1.6
					c-0.1,0-0.1,0-0.2,0c-0.1-0.5-0.4-1.7-1.4-1.7c-0.7,0-1.3,0.4-1.7,0.4c-0.4,0-0.6-0.3-0.7-0.5c0,0-0.2,0-0.5,0
					c0.1,0.6,0.7,1.3,1.2,1.3c0.5,0,1.3-0.4,1.8-0.4c0.6,0,1.2,0.7,1.3,2.3c-0.1,1.7-0.5,2.2-1.9,2.2c-0.7,0-1.1-0.2-1.7-0.5
					c0,0-0.1,0-0.1-0.1l0.2-0.1c0.4-0.2,0.6-0.7,0.6-0.9c0,0-0.3-0.1-0.5-0.2c0,0.3-0.4,0.8-0.8,1c0,0,0,0,0,0
					c-0.3-0.1-0.5-0.2-0.8-0.2c0,0,0,0-0.1,0c0.3-0.3,0.4-0.7,0.4-0.9c0,0-0.2,0-0.5,0c0,0.3-0.2,0.7-0.6,1c0,0,0,0,0,0
					c-0.4,0.2-0.8,0.5-0.9,1c-0.1,0.5,0,0.9,0.3,1.2c0.4,0.4,0.8,0.6,1.4,0.7c-0.3,0.2-0.5,0.4-0.5,0.5c0.1,0,0.3,0.1,0.5,0.1
					c0.1-0.2,0.3-0.5,0.7-0.6c0,0,0,0,0,0c0,0,0,0,0,0c0.2,0.1,0.6,0.1,0.9,0.2c-0.1,1.4-1.4,2.3-2.2,2.4c-0.2,0.4-0.8,2-0.8,2
					c-0.3,0-0.6,0.1-0.6,0.1c0,0-0.2,0.6-0.2,0.6s0.4-0.2,0.5-0.3c0.1,0,0.3-0.2,0.4-0.2c0,0,0.1,0,0.2,0.1c0,0.1-0.1,0.4-0.2,0.7
					c0,0,0,0.5,0,0.5s0.4-0.5,0.4-0.5c0-0.2,0-0.6,0-0.7c0,0,0.2,0,0.2,0c0,0.1,0.2,0.6,0.3,0.6c0,0,0.3,0.4,0.3,0.4s0-0.6,0-0.6
					c-0.1-0.1-0.4-0.3-0.4-0.4c0-0.1,0-0.1,0.1-0.1c0.1,0,0.3,0.1,0.4,0.1c0.1,0,0.5,0.1,0.5,0.1s-0.5-0.5-0.5-0.5
					c-0.1,0-0.5,0.1-0.6,0.1c-0.3-0.2,0.3-0.9,0.6-1.1c0.5-0.3,2.8-1.2,3.6-2.5l0,0l0,0c1.1,0.2,1.9,2,2.9,2c0.3,0,0.5-0.1,0.5-0.1
					s0.1,0.1,0.2,0.2c0.9,0.8,2.2,1.3,3.1,1.8c0,0-0.5,0.1-0.5,0.2l-0.1,0.6c0,0,0.3-0.3,0.4-0.3c0.1-0.1,0.4-0.3,0.5-0.3
					c0.1,0,0.1,0,0.2,0.1c0,0.1,0,0.5,0.1,0.6c0,0,0.3,0.5,0.3,0.5s0.1-0.5,0.1-0.6c0-0.2-0.1-0.5-0.2-0.6c0.1,0,0.1,0,0.2,0
					c0.1,0.1,0.3,0.4,0.4,0.4c0.1,0.1,0.5,0.3,0.5,0.3s-0.2-0.7-0.2-0.7c-0.1-0.1-0.4-0.2-0.6-0.3c0-0.1,0-0.1,0-0.2
					C26.2,56.8,26.3,56.8,26.4,56.8z M23.4,49.2c-0.1,0.2-0.4,0.3-0.5,0.3c-0.4,0-0.6-0.5-0.6-0.8C22.4,48.8,22.9,48.6,23.4,49.2z
					 M21.9,53.8c0,0-0.2-0.1-0.4-0.2c0.4-0.2,0.6-0.9,0.6-0.9s0.3,0.1,0.4,0.1C22.4,53.6,21.9,53.8,21.9,53.8z"/>
			</g>
			<g>
				<path class="st1" d="M23,66.5c0,0,0,0.2,0,0.3c0.5,0,0.7,0,1,0c0.9,0,1.3-0.3,1.4-0.6c-0.2-0.1-0.4-0.2-0.4-0.2
					c0,0-0.1,0.4-1.1,0.4L23,66.5z"/>
				<path class="st1" d="M21.3,72.6c0,0-0.6-0.2-0.7-0.3c-0.2,0-0.4,0.3-0.4,0.3s-1.1-0.5-1.1-1c0-0.3,1.1-0.8-0.4-1.7
					c-0.3,0.5-0.9,0.9-0.9,0.9c1,0.7,0.4,1.1,0.2,1.3c0.6,0.3,1,0.6,1.5,0.9c-0.2,0-0.5,0.2-0.5,0.2c0,0-0.1,0.6-0.1,0.6
					s0.3-0.3,0.4-0.3c0.1-0.1,0.4-0.2,0.5-0.4c0.1,0.1,0.1,0,0.1,0.1c0,0.1,0,0.5,0,0.6c0,0,0.2,0.5,0.2,0.5s0.2-0.5,0.2-0.5
					c0-0.2-0.1-0.5-0.2-0.6c0.1,0,0,0,0.1-0.1c0.1,0.1,0.4,0.3,0.5,0.4c0,0,0.4,0.3,0.4,0.3s-0.2-0.5-0.2-0.6
					c-0.1-0.1-0.4-0.2-0.6-0.3c0-0.1,0-0.1,0-0.2c0,0,0.3-0.1,0.4-0.1C21,72.7,21.3,72.6,21.3,72.6z"/>
				<path class="st1" d="M26.5,66.7c0.1-0.1,0.1-0.1,0.1-0.2c0.1,0.1,0.4,0,0.6,0l0.5,0c0,0-0.5-0.4-0.5-0.4c-0.2,0-0.5,0.1-0.6,0.1
					c-0.1-0.1-0.1-0.1-0.1-0.2c0.1-0.1,0.3-0.4,0.4-0.5c0.1-0.1,0.3-0.5,0.3-0.5s-0.7,0.3-0.7,0.3c0,0.1-0.1,0.4-0.2,0.6
					c0,0-0.1,0-0.2,0c0,0-0.1-0.4-0.1-0.5c0-0.1-0.1-0.5-0.1-0.5l-0.3,0.6c0,0.1,0.4,0.7,0.4,0.7c-0.1,0.1-0.1,0.3-0.1,0.6
					c-0.4,0.8-0.6,1.1-1.3,1.6c0,0,0.3,0.5,0.2,1.2c1.4-0.8,1.3-2,1.4-2.5c0-0.2,0.1-0.3,0.1-0.3c0.1,0.2,0.3,0.4,0.4,0.4
					c0,0,0.7-0.1,0.7-0.1L27,67L26.5,66.7z"/>
				<path class="st1" d="M26.4,72.8c0.1,0,0.2,0,0.2,0l0.4-0.1c0,0-0.7-0.3-0.7-0.3c-0.2,0-0.3,0.2-0.4,0.3c-0.1,0-0.4-0.1-0.5-0.2
					c-0.7-0.4-2.3-1.9-2.6-2.1c0.4-0.6,0-1.4,0-1.4s0.3,0,0.5-0.1c0,0,0.4,0.7,0.2,1.3c0.1,0.1,0.4,0.1,0.5,0.2
					c0.3-0.7,0-1.4-0.1-1.6c-0.5-0.5-0.4-0.9-0.4-0.9c0.2-0.1,0.4-0.1,0.8-0.2c0.1-0.1,0.1-0.3,0.1-0.4c0,0-1,0.3-1.4,0.2
					c0,0,0,0,0,0c-0.3-0.1-0.5-0.3-0.5-0.8c0-0.5,0.3-0.7,0.6-0.7c0.2,0,0.5,0.1,0.8,0.1c0.4,0,0.8,0,0.6-0.4c0.1,0,0.2,0,0.2-0.4
					c-0.2-0.1-0.8-0.2-1.1-0.3c-0.5-0.4-1.2-0.5-1.7-0.4c-0.1-0.1-0.4-0.2-0.6-0.2c-0.2,0-0.3,0.2-0.3,0.6c0,0,0,0.2,0.1,0.4
					c-0.1,0.1-0.3,0.3-0.5,0.6c-0.4,0.6-0.5,1.4-0.5,1.7c0.2,0,0.5-0.2,0.5-0.2c0,0,0.4,0.3,0.6,0.4c0,0.3-0.3,1-0.3,1
					c0.2,0,0.5-0.3,0.5-0.3s0.2,0.2,0.4,0.3c-0.4,0.6-0.9,0.5-0.9,0.5s-0.5-0.4-0.5-0.5c0.1-0.4,0.2-0.9,0.2-0.9
					c-0.6,0.2-1.2,0.2-3.6,0.2c-0.1,0-0.3,0-0.5,0h-0.3c-1.3,0-1.8-0.3-2.2-0.7c-0.2-0.2-0.3-0.5-0.2-0.9c0.1-0.6,0.7-0.9,1.1-0.8
					c0.4,0,0.8,0.2,1.2,0.4c0.5,0.3,1,0.6,1.8,0.6c1.9,0,2-1.1,2-2.9h0c0.1-1.3,0.6-1.9,1.1-1.9c0.6,0,1.1,0.6,1.7,0.6
					c0.4,0,0.9-0.5,1-0.6c-0.1-0.1-0.1-0.1-0.2-0.2c-0.2,0.1-0.3,0.2-0.4,0.2c-0.7,0-1.2-0.6-2-0.6c-1.1,0-1.5,1-1.5,1.6
					c-0.1,0-0.1,0-0.2,0c-0.1-0.5-0.4-1.7-1.4-1.7c-0.7,0-1.3,0.4-1.7,0.4c-0.4,0-0.6-0.3-0.7-0.5c0,0-0.2,0-0.5,0
					c0.1,0.6,0.7,1.3,1.2,1.3c0.5,0,1.3-0.4,1.8-0.4c0.6,0,1.2,0.7,1.3,2.3c-0.1,1.7-0.3,2.2-1.6,2.2c-0.7,0-1-0.2-1.5-0.5
					c0,0-0.1,0-0.1-0.1l0.2-0.1c0.4-0.2,0.6-0.7,0.6-0.9c0,0-0.3-0.1-0.5-0.2c0,0.3-0.4,0.8-0.8,1c0,0,0,0,0,0
					c-0.3-0.1-0.5-0.2-0.8-0.2c0,0,0,0-0.1,0c0.3-0.3,0.4-0.7,0.4-0.9c0,0-0.2,0-0.5,0c0,0.3-0.2,0.7-0.6,1c0,0,0,0,0,0
					c-0.4,0.2-0.8,0.5-0.9,1c-0.1,0.5,0,0.9,0.3,1.2c0.4,0.4,0.8,0.6,1.4,0.7c-0.3,0.2-0.5,0.4-0.5,0.5c0.1,0,0.3,0.1,0.5,0.1
					c0.1-0.2,0.3-0.5,0.7-0.6c0,0,0,0,0,0c0,0,0,0,0,0c0.2,0.1,0.2,0.1,0.4,0.2c-0.1,1.4-0.8,2.2-1.6,2.4c-0.1,0.4-0.5,2.1-0.5,2.1
					c-0.3,0-0.6,0.2-0.6,0.2c0,0-0.1,0.6-0.1,0.6s0.3-0.2,0.4-0.3c0.1,0,0.3-0.2,0.3-0.3c0,0,0.1,0,0.2,0.1c0,0.1-0.1,0.4-0.1,0.7
					c0,0,0.1,0.5,0.1,0.5s0.4-0.5,0.4-0.5c0-0.2,0-0.5-0.1-0.7c0-0.1,0.2,0,0.2,0c0,0.1,0.3,0.5,0.3,0.6c0,0,0.4,0.3,0.4,0.3
					s0-0.6,0-0.6c-0.1-0.1-0.4-0.3-0.5-0.4c0-0.1,0-0.1,0.1-0.1c0.1,0,0.3,0,0.4,0c0.1,0,0.5,0,0.5,0s-0.5-0.4-0.5-0.5
					c-0.1,0-0.5,0.2-0.5,0.2c-0.3-0.2,0.2-1,0.4-1.2c0.5-0.4,2.2-1.1,2.9-2.5l0,0l0,0c1.1,0.2,1.9,2,2.9,2c0.3,0,0.5-0.1,0.5-0.1
					s0.1,0.1,0.2,0.2c0.9,0.8,2.2,1.3,3.1,1.8c0,0-0.5,0.1-0.5,0.2l-0.1,0.6c0,0,0.3-0.3,0.4-0.3c0.1-0.1,0.4-0.3,0.5-0.3
					c0.1,0,0.1,0,0.2,0.1c0,0.1,0,0.5,0.1,0.6c0,0,0.3,0.5,0.3,0.5s0.1-0.5,0.1-0.6c0-0.2-0.1-0.5-0.2-0.6c0.1,0,0.1,0,0.2,0
					c0.1,0.1,0.3,0.4,0.4,0.4c0.1,0.1,0.5,0.3,0.5,0.3s-0.2-0.7-0.2-0.7c-0.1-0.1-0.4-0.2-0.6-0.3c0-0.1,0-0.1,0-0.2
					C26.2,72.8,26.3,72.8,26.4,72.8z M23.4,65.2c-0.1,0.2-0.4,0.3-0.5,0.3c-0.4,0-0.6-0.5-0.6-0.8C22.4,64.8,22.9,64.6,23.4,65.2z
					 M21.9,69.8c0,0-0.2-0.1-0.4-0.2c0.4-0.2,0.6-0.9,0.6-0.9s0.3,0.1,0.4,0.1C22.4,69.6,21.9,69.8,21.9,69.8z"/>
			</g>
		</g>
	</g>
</g>
</svg>
