<svg id="Layer_1" data-name="Layer 1" xmlns="http://www.w3.org/2000/svg" xmlns:xlink="http://www.w3.org/1999/xlink" viewBox="0 0 133.81 36"><defs><style>.cls-1{fill:#fff;}.cls-1,.cls-2,.cls-3,.cls-4{fill-rule:evenodd;}.cls-2{fill:#2d2d2d;}.cls-3{fill:#6d6d6d;}.cls-4{fill:#787878;}.cls-5{mask:url(#mask);}.cls-10,.cls-12,.cls-6{fill:none;}.cls-10,.cls-6{stroke:#fff;}.cls-6{stroke-width:0.75px;}.cls-7{mask:url(#mask-2-2);}.cls-8{mask:url(#mask-3);}.cls-9{mask:url(#mask-4-2);}.cls-10,.cls-12{stroke-width:0.5px;}.cls-11{mask:url(#mask-5);}.cls-12{stroke:#2d2d2d;}</style><mask id="mask" x="15.29" y="15.16" width="17.88" height="8.74" maskUnits="userSpaceOnUse"><g id="mask-2"><path id="path-1" class="cls-1" d="M17,19.88a3.51,3.51,0,0,0,3.52,2.43h0c2.32,0,4.58-1.37,5.67-1.48h0a5.46,5.46,0,0,1,3,.55h0a4.85,4.85,0,0,0,1.93.58h0a14.32,14.32,0,0,0,.42-1.45h0c-.14-.43-2.5-1.18-3.74-1.21h0a10.61,10.61,0,0,0-2.93.51h0c-1.66.46-3.3.91-5-.07h0a3.9,3.9,0,0,1-1.86-3h0a2.83,2.83,0,0,0-1,3.13Z"/></g></mask><mask id="mask-2-2" x="6.78" y="9.15" width="37.27" height="28.96" maskUnits="userSpaceOnUse"><g id="mask-4"><path id="path-3" class="cls-1" d="M24.27,12.21c-.7.38-1.36.52-1.62,1.22h0c-.11.43-.14.79.15,1h0l.19.11h0a2.21,2.21,0,0,0-.43,1h0c-.1.75-.35,2.73,1.55,3.19h0a4.51,4.51,0,0,0,2.76-.46h0a5.81,5.81,0,0,1,2.4-.53h0c1.56.08,2,.73,2.19,1.91h0a3.71,3.71,0,0,1-.19,2.07h0c-.57,1.4-1.25,1.95-2.5,1.4h0a6.25,6.25,0,0,0-5.17-.28h0c-.16.2-.29.22-.39.56h0a4.78,4.78,0,0,0,.46,2.31h0c.28.35.55.39,1.1.39h0c4.25-.42,4.76,1.35,4.48,2.45h0c-.37,1.44-2.37,2.77-7.14.84h0a8.3,8.3,0,0,0-6-.14h0c-1.37.63-3.16,2.61-7.58,1.07h0a5.61,5.61,0,0,0-.18,1.48h0A6.79,6.79,0,0,0,10,36.15H36V10.75H27a9.05,9.05,0,0,1-2.72,1.47Zm-.58,1.47c-.18.19-.43.49-.7.82h0a8.88,8.88,0,0,1,.7-.82Z"/></g></mask><mask id="mask-3" x="7.37" y="10" width="35.46" height="26.53" maskUnits="userSpaceOnUse"><g id="mask-6"><polygon id="path-5" class="cls-1" points="7.38 10.37 35.98 10.37 35.98 35.78 7.38 35.78 7.38 10.37"/></g></mask><mask id="mask-4-2" x="25.44" y="10.62" width="5.95" height="5.28" maskUnits="userSpaceOnUse"><g id="mask-8"><path id="path-7" class="cls-1" d="M27.06,14.11c.89-.89,1.81.2,2.74.2h0c-1.14-.71-1.36-1.7-1.82-2.1h0c0,.91-1.12,1.2-.92,1.9Z"/></g></mask><mask id="mask-5" x="21.23" y="-0.33" width="26.17" height="13.24" maskUnits="userSpaceOnUse"><g id="mask-10"><path id="path-9" class="cls-1" d="M32.86,3.84a1.77,1.77,0,0,0-2,1.88h0c2,.56,1.79,3.17-.65,3.17h0c-2.12,0-2.87-2.31-.54-3.2h0a1.75,1.75,0,0,0-3-1.06h0c-1-1.72-2.28-2.51-3.86-1.62h0a12.33,12.33,0,0,1,3.58,8.3H36V3.41a8.92,8.92,0,0,0-1.61-2.15h0s-1.48,1.52-1.51,2.58Z"/></g></mask></defs><title>Artboard 1 copy 2</title><path id="path-15" class="cls-2" d="M113.1,2.4v.67l-.84.13V4h.84V8.22h1.32V4h1.09v-1h-1.09v-.3a2,2,0,0,1,.26-1.33h0a.85.85,0,0,1,.75-.34h0a2,2,0,0,1,1.06.32h0l.58-1A3.49,3.49,0,0,0,116,.06h0a3.61,3.61,0,0,0-.63-.06h0a2.12,2.12,0,0,0-2.24,2.4ZM102.49,8.22h1.32V.14h-1.32ZM61.27.14V3.28A1.58,1.58,0,0,0,60.59,3h0a1.88,1.88,0,0,0-.46-.06h0a2.69,2.69,0,0,0-2.46,2.88h0a2.31,2.31,0,0,0,2.12,2.57h0a1.77,1.77,0,0,0,1-.29h0a1.39,1.39,0,0,0,.52-.55h0v.7h1.32V.14Zm-2.2,5.55c0-1,.54-1.69,1.27-1.69h0a.9.9,0,0,1,.87.47h0a3.17,3.17,0,0,1,.06.67h0V6.5a1.43,1.43,0,0,1-1.14.77h0c-.63,0-1.06-.65-1.06-1.58ZM41.62.91V8.22H46V7H43V.91Zm77.24,1a.63.63,0,0,0,.63.63h0a.63.63,0,0,0,.64-.63h0a.63.63,0,0,0-.64-.63h0a.63.63,0,0,0-.63.63Zm-2.17,0a.64.64,0,0,0,.64.63h0A.63.63,0,0,0,118,2h0a.64.64,0,0,0-.63-.64h0a.64.64,0,0,0-.64.64ZM90.2,1.53V3.07l-.76.13V4h.76v3.2c0,.77.32,1.12,1,1.12h0A2.34,2.34,0,0,0,92.36,8h0l.49-.3h0l-.42-1a1.34,1.34,0,0,1-.71.32h0c-.21,0-.27-.16-.27-.74h0V4h1.12v-1H91.45V1.53ZM69,4.51c0,.68.42,1.16,1.32,1.51h0l.89.35c.35.13.52.31.52.54h0c0,.28-.3.44-.81.44h0a1.67,1.67,0,0,1-.57-.1h0a4.23,4.23,0,0,1-1.11-.54h0l-.42,1.07A4.21,4.21,0,0,0,70,8.26h0a3.82,3.82,0,0,0,.84.1h0c1.24,0,2.06-.62,2.06-1.56h0a1.43,1.43,0,0,0-.53-1.14h0A8,8,0,0,0,70.86,5h0c-.46-.17-.64-.31-.64-.54h0c0-.29.33-.49.84-.49h0a2.44,2.44,0,0,1,1.19.35h0l.35.22h0L73,3.42A3,3,0,0,0,71.89,3h0a4,4,0,0,0-.85-.1h0c-1.25,0-2.09.65-2.09,1.62Zm35.78,1.27a2.37,2.37,0,0,0,2.49,2.58h0A3.93,3.93,0,0,0,108.91,8h0c.13,0,.31-.14.56-.27h0l-.49-1a3.37,3.37,0,0,1-1,.49h0a2.2,2.2,0,0,1-.61.09h0a1.34,1.34,0,0,1-1.15-.62h0a1.53,1.53,0,0,1-.18-.82h3.41V5.28a2.17,2.17,0,0,0-2.16-2.36h0a2.67,2.67,0,0,0-2.58,2.86Zm2.49-1.86c.62,0,.89.31.92,1.1h-2c.12-.7.51-1.1,1.1-1.1Zm-10.13.43a.82.82,0,0,0,.07.36h0l1.26-.28c0-.07,0-.09,0-.13h0c0-.26.33-.47.73-.47h0c.43,0,.63.26.63.81h0v.43l-1.46.42c-.76.22-1.07.47-1.25.94h0A1.88,1.88,0,0,0,97,7h0a1.39,1.39,0,0,0,1.49,1.4h0a2.05,2.05,0,0,0,1.44-.63h0c.23.45.44.56,1.11.56h.27l.21-1c-.35,0-.41-.12-.41-.58h0V4.56c0-1.13-.55-1.64-1.78-1.64h0c-1.39,0-2.19.52-2.19,1.43Zm1.23,2.44a1,1,0,0,1,.1-.43h0l1.32-.44v1a1.92,1.92,0,0,1-.35.23h0a1.12,1.12,0,0,1-.54.16h0a.49.49,0,0,1-.53-.53Zm-19.88-1a2.37,2.37,0,0,0,2.5,2.58h0A4,4,0,0,0,82.63,8h0c.12,0,.31-.14.55-.27h0l-.48-1a3.53,3.53,0,0,1-1,.49h0a2.2,2.2,0,0,1-.61.09h0A1.35,1.35,0,0,1,80,6.67h0a1.74,1.74,0,0,1-.18-.82h3.41V5.28A2.16,2.16,0,0,0,81,2.92h0a2.67,2.67,0,0,0-2.58,2.86Zm2.5-1.86c.62,0,.88.31.92,1.1h-2c.11-.7.51-1.1,1.1-1.1ZM63.54,5.78A2.37,2.37,0,0,0,66,8.36h0A4,4,0,0,0,67.73,8h0c.12,0,.31-.14.55-.27h0l-.49-1a3.37,3.37,0,0,1-1,.49h0a2.2,2.2,0,0,1-.61.09h0a1.34,1.34,0,0,1-1.15-.62h0a1.63,1.63,0,0,1-.18-.82h3.41V5.28a2.16,2.16,0,0,0-2.16-2.36h0a2.67,2.67,0,0,0-2.58,2.86ZM66,3.92c.62,0,.89.31.92,1.1h-2c.11-.7.51-1.1,1.09-1.1Zm-19.39.43a1,1,0,0,0,.06.36h0L48,4.43a.45.45,0,0,1,0-.13h0c0-.26.32-.47.72-.47h0c.43,0,.63.26.63.81h0v.43l-1.46.42c-.75.22-1.06.47-1.24.94h0a1.58,1.58,0,0,0-.09.52h0A1.39,1.39,0,0,0,48,8.35h0a2.05,2.05,0,0,0,1.44-.63h0c.23.45.44.56,1.1.56h.28l.21-1c-.35,0-.41-.12-.41-.58h0V4.56c0-1.13-.55-1.64-1.78-1.64h0c-1.4,0-2.19.52-2.19,1.43Zm1.22,2.44a1.14,1.14,0,0,1,.1-.43h0l1.32-.44v1a2,2,0,0,1-.34.23h0a1.18,1.18,0,0,1-.54.16h0a.49.49,0,0,1-.54-.53ZM85.49,3.92V3.07H84.16V8.22h1.33V5.11l.17-.18c.58-.62,1-.9,1.24-.9h0c.33,0,.44.23.44.87h0V8.22h1.32V4.43c0-1-.46-1.46-1.39-1.46h0a2.3,2.3,0,0,0-1.78.95Zm-32,0V3.07H52.16V8.22h1.33V5.11l.18-.18c.57-.62,1-.9,1.24-.9h0c.32,0,.43.23.43.87h0V8.22h1.33V4.43c0-1-.47-1.46-1.4-1.46h0a2.3,2.3,0,0,0-1.78.95Zm69.8.28-.06-1.13h-1.14V8.22h1.32V5.86a1.44,1.44,0,0,1,.36-1h0a.92.92,0,0,1,.64-.39h0a.64.64,0,0,1,.4.16h0l.42-1.29a.94.94,0,0,0-.72-.36h0c-.4,0-.72.33-1.22,1.21ZM94.7,4.2l-.06-1.13H93.5V8.22h1.32V5.86a1.48,1.48,0,0,1,.35-1h0a.94.94,0,0,1,.65-.39h0a.6.6,0,0,1,.39.16h0l.43-1.29A.94.94,0,0,0,95.92,3h0c-.4,0-.72.33-1.22,1.21Zm24.6-1.13v3.1l-.17.19c-.58.6-1,.89-1.25.89h0c-.31,0-.43-.24-.43-.87h0V3.07h-1.32V6.85c0,1,.46,1.45,1.39,1.45h0a2.26,2.26,0,0,0,1.78-1h0v.87h1.33V3.07Zm-45.58,0v1h2.5l-2.5,3.13v1h4.17V7.17H75.25L77.89,3.9V3.07Z"/><path id="path-17" class="cls-2" d="M103.91,12.52v3.14a1.82,1.82,0,0,0-.69-.31h0a2.38,2.38,0,0,0-.45,0h0a2.69,2.69,0,0,0-2.46,2.88h0a2.31,2.31,0,0,0,2.12,2.58h0a1.77,1.77,0,0,0,1-.29h0a1.49,1.49,0,0,0,.52-.56h0v.7h1.32V12.52Zm-2.21,5.56c0-1,.55-1.7,1.28-1.7h0a.91.91,0,0,1,.87.48h0a3.17,3.17,0,0,1,.06.67h0v1.36a1.44,1.44,0,0,1-1.14.78h0c-.63,0-1.07-.65-1.07-1.59Zm-3.65,2.53h1.32V12.52H98.05ZM74.87,12.52v8.09H76.2v-3.1l.18-.19c.57-.62,1-.9,1.24-.9h0c.32,0,.43.23.43.87h0v3.32h1.33V16.82c0-1-.46-1.47-1.4-1.47h0a2.32,2.32,0,0,0-1.78,1h0V12.52ZM53.3,20.61h1.32V12.52H53.3Zm42-7a.84.84,0,0,0,.75.9h0a.84.84,0,0,0,.75-.9h0a.84.84,0,0,0-.75-.9h0a.84.84,0,0,0-.75.9Zm-33.19,0a.84.84,0,0,0,.75.9h0a.83.83,0,0,0,.74-.9h0a.83.83,0,0,0-.74-.9h0a.84.84,0,0,0-.75.9Zm-6.17,0a.84.84,0,0,0,.75.9h0a.84.84,0,0,0,.75-.9h0a.84.84,0,0,0-.75-.9h0a.84.84,0,0,0-.75.9ZM89,13.29v7.32h3c1.46,0,2.26-.69,2.26-1.95h0a1.75,1.75,0,0,0-1.81-1.89h0a1.45,1.45,0,0,0,1.2-.53h0a1.79,1.79,0,0,0,.42-1.15h0a1.82,1.82,0,0,0-.57-1.31h0a2.43,2.43,0,0,0-1.84-.49H89Zm1.47,1.11h.91c.71,0,1.13.34,1.13.93h0c0,.62-.42,1-1.21,1h-.83Zm0,3.07h.91c.86,0,1.34.37,1.34,1h0a.94.94,0,0,1-.5.86h0a1.79,1.79,0,0,1-.84.13h-.91ZM58.83,13.91v1.54l-.77.14v.84h.77v3.21c0,.76.32,1.12,1,1.12h0A2.42,2.42,0,0,0,61,20.41h0l.49-.3h0l-.42-1a1.47,1.47,0,0,1-.71.32h0c-.22,0-.27-.17-.27-.74h0v-2.3H61.2v-1H60.08V13.91Zm5.84,3c0,.68.42,1.16,1.33,1.51h0l.89.35c.36.13.52.31.52.54h0c0,.28-.3.45-.81.45h0a2,2,0,0,1-.57-.1h0a4.32,4.32,0,0,1-1.11-.55h0l-.42,1.08a4.11,4.11,0,0,0,1.27.48h0a4.54,4.54,0,0,0,.84.1h0c1.25,0,2.07-.62,2.07-1.57h0a1.45,1.45,0,0,0-.53-1.14h0a8.48,8.48,0,0,0-1.56-.71h0c-.46-.17-.64-.31-.64-.54h0c0-.29.33-.49.84-.49h0a2.44,2.44,0,0,1,1.19.35h0l.35.22h0l.43-1.07a3,3,0,0,0-1.14-.43h0a4,4,0,0,0-.85-.1h0c-1.25,0-2.1.65-2.1,1.62Zm4.75,1.18a2.49,2.49,0,0,0,2.63,2.68h0a4,4,0,0,0,1.51-.3h0l.43-.2h0l-.49-1.08a2.39,2.39,0,0,1-1.33.45h0a1.4,1.4,0,0,1-1.35-1.56h0a1.52,1.52,0,0,1,1.5-1.65h0a1.51,1.51,0,0,1,1,.4h0l.63-1a2.82,2.82,0,0,0-1-.42h0a3.86,3.86,0,0,0-.84-.09h0a2.61,2.61,0,0,0-2.74,2.78Zm49.06-.79a1.9,1.9,0,0,0,.45,1.27h0a2.85,2.85,0,0,0,.46.4h0l-.32.23h0c-.5.33-.68.57-.68.87h0c0,.31.21.51.72.7h0c-.6.51-.82.85-.82,1.25h0c0,.78.85,1.3,2.12,1.3h0c1.73,0,3-.93,3-2.22h0c0-.83-.47-1.24-1.48-1.24h-1.81c-.26,0-.35,0-.35-.15h0c0-.13.17-.3.51-.55h0a1.8,1.8,0,0,0,.38,0h0a2,2,0,0,0,2.26-2h0a1.14,1.14,0,0,0-.23-.77h.91v-1l-1,.07h-.77a2.72,2.72,0,0,0-1.07-.21h0a1.94,1.94,0,0,0-2.21,2Zm1.35-.05a.93.93,0,0,1,.85-1h0a.93.93,0,0,1,.86,1h0a.9.9,0,0,1-.85.95h0a.9.9,0,0,1-.86-.94Zm-.31,4.45a1.46,1.46,0,0,1,.24-.59h0a.79.79,0,0,0,.12-.18h1.61c.44,0,.65.11.65.33h0a.9.9,0,0,1-.39.62h0a1.87,1.87,0,0,1-1.14.39h0c-.61,0-1.09-.25-1.09-.57ZM80.38,18.17a2.38,2.38,0,0,0,2.5,2.59h0a4.16,4.16,0,0,0,1.7-.37h0c.12-.06.31-.14.55-.28h0l-.49-1a3.5,3.5,0,0,1-1,.49h0a2,2,0,0,1-.62.09h0a1.33,1.33,0,0,1-1.15-.62h0a1.71,1.71,0,0,1-.18-.82h3.42v-.57A2.16,2.16,0,0,0,83,15.31h0a2.67,2.67,0,0,0-2.59,2.86Zm2.5-1.86c.62,0,.89.31.92,1.1h-2c.11-.7.51-1.1,1.1-1.1ZM47.18,18a2.61,2.61,0,0,0,2.59,2.73h0A2.61,2.61,0,0,0,52.37,18h0a2.61,2.61,0,0,0-2.6-2.72h0A2.61,2.61,0,0,0,47.18,18Zm1.37,0c0-.91.56-1.67,1.22-1.67h0c.67,0,1.22.76,1.22,1.67h0c0,.92-.55,1.67-1.22,1.67h0c-.66,0-1.22-.75-1.22-1.67Zm-5-2.47a2.68,2.68,0,0,0-.57.59h0v-.7H41.62V23.2H43V20.4a1.12,1.12,0,0,0,.68.33h0a1.84,1.84,0,0,0,.41,0h0a2.68,2.68,0,0,0,2.51-2.89h0a2.31,2.31,0,0,0-2.15-2.57h0a1.62,1.62,0,0,0-.88.25Zm-.28,4c-.22-.13-.29-.26-.29-.63h0V17.2a1.35,1.35,0,0,1,1.14-.82h0c.62,0,1.07.66,1.07,1.59h0c0,1-.56,1.72-1.27,1.72h0a1.55,1.55,0,0,1-.65-.15Zm70.86-3.23v-.86h-1.33v5.16h1.33v-3.1l.17-.19c.58-.62,1-.9,1.25-.9h0c.32,0,.43.23.43.87h0v3.32h1.33V16.82c0-1-.47-1.47-1.4-1.47h0a2.32,2.32,0,0,0-1.78,1Zm-4.24-.86v3.11l-.18.19c-.58.61-1,.9-1.25.9h0c-.31,0-.42-.25-.42-.88h0V15.45h-1.34v3.8a1.26,1.26,0,0,0,1.4,1.45h0a2.3,2.3,0,0,0,1.79-.95h0v.86h1.33V15.45Zm-14.5,5.16h1.32V15.45H95.36Zm-33.2,0h1.32V15.45H62.16Zm-6.16,0h1.32V15.45H56Z"/><path id="path-19" class="cls-2" d="M48.44,25v8.29H49.8V30.06l.19-.19c.59-.64,1-.93,1.27-.93h0c.33,0,.44.24.44.9h0v3.4h1.37V29.35q0-1.5-1.44-1.5h0a2.4,2.4,0,0,0-1.83,1h0V25Zm16,1.11a.86.86,0,0,0,.77.92h0a.85.85,0,0,0,.76-.92h0a.85.85,0,0,0-.76-.92h0a.86.86,0,0,0-.77.92ZM41.6,25.74V27h2.25v6.29h1.43V27h2.25V25.74Zm15.8,1.07a.65.65,0,0,0,.64.65h0a.65.65,0,0,0,.66-.65h0a.64.64,0,0,0-.66-.65h0a.64.64,0,0,0-.64.65Zm-2.23,0a.66.66,0,0,0,.66.65h0a.66.66,0,0,0,.65-.65h0a.66.66,0,0,0-.65-.66h0a.66.66,0,0,0-.66.66Zm23.7,3.91a2.43,2.43,0,0,0,2.56,2.65h0A4.2,4.2,0,0,0,83.17,33h0l.57-.28h0l-.5-1a3.43,3.43,0,0,1-1,.5h0a2,2,0,0,1-.62.1h0a1.38,1.38,0,0,1-1.18-.64h0a1.59,1.59,0,0,1-.18-.84h3.5v-.58a2.22,2.22,0,0,0-2.22-2.42h0a2.74,2.74,0,0,0-2.65,2.93Zm2.56-1.91c.63,0,.91.32.94,1.13H80.3c.12-.72.53-1.13,1.13-1.13Zm-8.11,1a2,2,0,0,0,.46,1.3h0a3,3,0,0,0,.47.41h0l-.33.23h0c-.51.34-.69.58-.69.89h0c0,.32.21.52.73.72h0c-.61.52-.84.87-.84,1.28h0c0,.8.88,1.33,2.17,1.33h0c1.77,0,3-1,3-2.27h0c0-.85-.49-1.27-1.52-1.27H75c-.26,0-.35,0-.35-.15h0c0-.14.17-.31.52-.57h0a1.85,1.85,0,0,0,.39,0h0a2.06,2.06,0,0,0,2.32-2h0A1.17,1.17,0,0,0,77.6,29h.93V28L77.46,28h-.78a2.89,2.89,0,0,0-1.1-.21h0a2,2,0,0,0-2.26,2Zm1.38-.06a.94.94,0,0,1,.86-1h0a.94.94,0,0,1,.89,1h0a.92.92,0,0,1-.87,1h0a.92.92,0,0,1-.88-1Zm-.32,4.56a1.4,1.4,0,0,1,.25-.6h0a.79.79,0,0,0,.12-.18h1.64c.46,0,.67.11.67.33h0a.87.87,0,0,1-.39.63h0a1.91,1.91,0,0,1-1.17.41h0c-.63,0-1.12-.26-1.12-.59ZM86.1,28.83V28H84.74v5.28H86.1V30.06l.18-.19c.59-.64,1-.93,1.27-.93h0c.33,0,.45.24.45.9h0v3.4h1.36V29.35c0-1-.48-1.5-1.43-1.5h0a2.4,2.4,0,0,0-1.83,1Zm-17.27,0V28H67.46v5.28h1.37V30.06l.18-.19c.59-.64,1-.93,1.27-.93h0c.33,0,.44.24.44.9h0v3.4h1.37V29.35c0-1-.48-1.5-1.43-1.5h0a2.39,2.39,0,0,0-1.83,1Zm-6.89.29L61.88,28H60.71v5.28h1.36V30.82a1.47,1.47,0,0,1,.36-1h0a.92.92,0,0,1,.66-.4h0a.65.65,0,0,1,.41.16h0l.43-1.32a1,1,0,0,0-.74-.37h0c-.41,0-.74.34-1.25,1.24Zm2.64,4.12h1.35V28H64.58ZM57.85,28v3.18l-.18.19c-.59.63-1,.92-1.29.92h0c-.31,0-.43-.25-.43-.9h0V28H54.59v3.88c0,1,.48,1.49,1.43,1.49h0a2.34,2.34,0,0,0,1.83-1h0v.89h1.36V28Z"/><polygon id="Fill-1" class="cls-2" points="0.2 35.67 35.94 35.67 35.94 -0.15 0.2 -0.15 0.2 35.67"/><polygon id="Fill-2" class="cls-3" points="2.51 6.92 0.2 19.03 0.2 35.67 16.55 35.67 17.55 30.73 4.38 30.73 8.71 6.92 2.51 6.92"/><polygon id="Fill-3" class="cls-1" points="7.88 14.63 7.41 17.72 13.8 17.72 6.14 27.36 5.82 29.43 17.75 29.43 18.22 26.35 11.27 26.35 18.92 16.67 19.24 14.63 7.88 14.63"/><polygon id="Fill-4" class="cls-4" points="14.37 -0.15 13.61 5.37 22.58 5.37 18.59 29.29 24.3 29.29 28.25 5.37 35.94 5.37 35.94 -0.15 14.37 -0.15"/><g class="cls-5"><polygon id="Fill-5" class="cls-2" points="15.29 23.9 33.17 23.9 33.17 15.16 15.29 15.16 15.29 23.9"/></g><path id="Stroke-8" class="cls-6" d="M18,16.75a3.9,3.9,0,0,0,1.86,3c2.76,1.56,5.28-.5,8-.44,1.24,0,3.6.78,3.74,1.21A12.82,12.82,0,0,1,31.16,22c-1.44,0-2.54-1.4-4.95-1.13-1.09.12-3.35,1.52-5.67,1.48A3.51,3.51,0,0,1,17,19.88a2.83,2.83,0,0,1,1-3.13"/><g class="cls-7"><polygon id="Fill-10" class="cls-2" points="6.78 38.11 44.05 38.11 44.05 9.15 6.78 9.15 6.78 38.11"/></g><g class="cls-8"><path id="Stroke-13" class="cls-6" d="M42.46,36l-.27-25.59H27a9.17,9.17,0,0,1-2.72,1.47c-.7.39-1.36.52-1.62,1.22-.11.43-.14.79.15,1l.19.1a8.88,8.88,0,0,1,.7-.82c-.18.19-.43.49-.7.82a2.21,2.21,0,0,0-.43,1c-.1.75-.35,2.73,1.55,3.19s3.21-1.08,5.16-1c1.56.08,2,.73,2.19,1.91a3.71,3.71,0,0,1-.19,2.07c-.57,1.4-1.25,2-2.5,1.4a6.25,6.25,0,0,0-5.17-.28c-.16.2-.29.22-.39.56a4.78,4.78,0,0,0,.46,2.31c.28.35.55.39,1.1.39,4.25-.41,4.76,1.35,4.48,2.45-.37,1.44-2.37,2.77-7.14.84a8.3,8.3,0,0,0-6-.14c-1.37.63-3.16,2.61-7.58,1.07A6.77,6.77,0,0,0,10.12,36s32.25.18,32.25.18"/></g><g class="cls-9"><polygon id="Fill-16" class="cls-1" points="25.45 15.9 31.39 15.9 31.39 10.62 25.45 10.62 25.45 15.9"/></g><path id="Stroke-19" class="cls-10" d="M28,12.21c.46.4.68,1.39,1.82,2.1-.93,0-1.85-1.09-2.74-.2C26.86,13.41,28,13.12,28,12.21Z"/><g class="cls-11"><polygon id="Fill-21" class="cls-2" points="21.23 12.9 47.39 12.9 47.39 -0.34 21.23 -0.34 21.23 12.9"/></g><path id="Stroke-24" class="cls-6" d="M35.87,10.92H26.4A12.19,12.19,0,0,0,22.82,3c1.58-.89,2.86-.1,3.86,1.62a1.75,1.75,0,0,1,3,1.06c-2.33.89-1.59,3.2.54,3.2,2.44,0,2.64-2.61.65-3.17a1.77,1.77,0,0,1,2-1.88c0-1.06,1.51-2.58,1.51-2.58A9.77,9.77,0,0,1,35.78,3"/><polygon id="Stroke-27" class="cls-12" points="0.25 35.78 35.98 35.78 35.98 -0.17 0.25 -0.17 0.25 35.78"/><line id="Stroke-32" class="cls-12" x1="36.13" y1="35.87" y2="35.87"/></svg>